%TF.GenerationSoftware,KiCad,Pcbnew,9.0.8*%
%TF.CreationDate,2026-04-06T19:52:03-05:00*%
%TF.ProjectId,keyboard_keyboard,6b657962-6f61-4726-945f-6b6579626f61,rev?*%
%TF.SameCoordinates,Original*%
%TF.FileFunction,Soldermask,Top*%
%TF.FilePolarity,Negative*%
%FSLAX46Y46*%
G04 Gerber Fmt 4.6, Leading zero omitted, Abs format (unit mm)*
G04 Created by KiCad (PCBNEW 9.0.8) date 2026-04-06 19:52:03*
%MOMM*%
%LPD*%
G01*
G04 APERTURE LIST*
G04 Aperture macros list*
%AMRoundRect*
0 Rectangle with rounded corners*
0 $1 Rounding radius*
0 $2 $3 $4 $5 $6 $7 $8 $9 X,Y pos of 4 corners*
0 Add a 4 corners polygon primitive as box body*
4,1,4,$2,$3,$4,$5,$6,$7,$8,$9,$2,$3,0*
0 Add four circle primitives for the rounded corners*
1,1,$1+$1,$2,$3*
1,1,$1+$1,$4,$5*
1,1,$1+$1,$6,$7*
1,1,$1+$1,$8,$9*
0 Add four rect primitives between the rounded corners*
20,1,$1+$1,$2,$3,$4,$5,0*
20,1,$1+$1,$4,$5,$6,$7,0*
20,1,$1+$1,$6,$7,$8,$9,0*
20,1,$1+$1,$8,$9,$2,$3,0*%
G04 Aperture macros list end*
%ADD10C,1.750000*%
%ADD11C,3.000000*%
%ADD12RoundRect,0.250000X0.550000X-0.550000X0.550000X0.550000X-0.550000X0.550000X-0.550000X-0.550000X0*%
%ADD13C,1.600000*%
%ADD14O,3.240000X2.720000*%
%ADD15R,1.800000X1.800000*%
%ADD16C,1.800000*%
%ADD17R,1.700000X1.700000*%
%ADD18C,1.700000*%
%ADD19C,1.200000*%
%ADD20O,2.000000X1.400000*%
%ADD21R,2.000000X1.400000*%
%ADD22RoundRect,0.250000X-0.550000X-0.550000X0.550000X-0.550000X0.550000X0.550000X-0.550000X0.550000X0*%
%ADD23C,1.400000*%
%ADD24RoundRect,0.150000X0.150000X0.275000X-0.150000X0.275000X-0.150000X-0.275000X0.150000X-0.275000X0*%
%ADD25RoundRect,0.175000X0.175000X0.225000X-0.175000X0.225000X-0.175000X-0.225000X0.175000X-0.225000X0*%
%ADD26RoundRect,0.250000X0.350000X0.625000X-0.350000X0.625000X-0.350000X-0.625000X0.350000X-0.625000X0*%
%ADD27O,1.200000X1.750000*%
G04 APERTURE END LIST*
D10*
%TO.C,MX36*%
X98010000Y100260000D03*
X108170000Y100260000D03*
%TD*%
%TO.C,MX61*%
X51020000Y59110000D03*
X40860000Y59110000D03*
%TD*%
%TO.C,MX9*%
X136094903Y141361908D03*
X146254903Y141361908D03*
%TD*%
%TO.C,MX84*%
X392030000Y141350000D03*
X402190000Y141350000D03*
%TD*%
%TO.C,MX38*%
X136110000Y100260000D03*
X146270000Y100260000D03*
%TD*%
%TO.C,MX35*%
X78960000Y100260000D03*
X89120000Y100260000D03*
%TD*%
%TO.C,MX20*%
X69409270Y120796355D03*
X79569270Y120796355D03*
%TD*%
%TO.C,MX81*%
X334847029Y141388506D03*
X345007029Y141388506D03*
%TD*%
%TO.C,MX80*%
X306930000Y59130000D03*
X317090000Y59130000D03*
%TD*%
D11*
%TO.C,H20*%
X330412270Y127460855D03*
%TD*%
D10*
%TO.C,MX7*%
X97994903Y141361908D03*
X108154903Y141361908D03*
%TD*%
D11*
%TO.C,H37*%
X65072270Y65460855D03*
%TD*%
%TO.C,H49*%
X264372270Y44890855D03*
%TD*%
%TO.C,H24*%
X193582270Y106640855D03*
%TD*%
D10*
%TO.C,MX58*%
X251060000Y79710000D03*
X240900000Y79710000D03*
%TD*%
D12*
%TO.C,U2*%
X328940000Y184195000D03*
D13*
X331480000Y184195000D03*
X334020000Y184195000D03*
X336560000Y184195000D03*
X336560000Y191815000D03*
X334020000Y191815000D03*
X331480000Y191815000D03*
X328940000Y191815000D03*
%TD*%
D10*
%TO.C,MX95*%
X372940000Y79700000D03*
X383100000Y79700000D03*
%TD*%
D11*
%TO.C,H3*%
X93572270Y189400855D03*
%TD*%
D14*
%TO.C,RV8*%
X162020000Y187295000D03*
X162020000Y177695000D03*
D15*
X154520000Y184995000D03*
D16*
X154520000Y182495000D03*
X154520000Y179995000D03*
%TD*%
D10*
%TO.C,MX4*%
X40844903Y141361908D03*
X51004903Y141361908D03*
%TD*%
D11*
%TO.C,H29*%
X12602270Y86070855D03*
%TD*%
D10*
%TO.C,MX99*%
X372950000Y59150000D03*
X383110000Y59150000D03*
%TD*%
D11*
%TO.C,H46*%
X89182270Y44870855D03*
%TD*%
D14*
%TO.C,RV6*%
X123895000Y187270000D03*
X123895000Y177670000D03*
D15*
X116395000Y184970000D03*
D16*
X116395000Y182470000D03*
X116395000Y179970000D03*
%TD*%
D11*
%TO.C,H34*%
X330392270Y86180855D03*
%TD*%
D10*
%TO.C,MX49*%
X69449270Y79693855D03*
X79609270Y79693855D03*
%TD*%
D13*
%TO.C,R5*%
X325370000Y167500000D03*
X310130000Y167500000D03*
%TD*%
D11*
%TO.C,H22*%
X41182270Y106460855D03*
%TD*%
D10*
%TO.C,MX33*%
X40860000Y100260000D03*
X51020000Y100260000D03*
%TD*%
%TO.C,MX59*%
X-21050000Y59120000D03*
X-10890000Y59120000D03*
%TD*%
D11*
%TO.C,H8*%
X45942270Y148090855D03*
%TD*%
D17*
%TO.C,J7*%
X269250000Y193750000D03*
D18*
X266710000Y193750000D03*
X264170000Y193750000D03*
X261630000Y193750000D03*
%TD*%
D14*
%TO.C,RV9*%
X190590000Y187275000D03*
X190590000Y177675000D03*
D15*
X183090000Y184975000D03*
D16*
X183090000Y182475000D03*
X183090000Y179975000D03*
%TD*%
D10*
%TO.C,MX78*%
X268810000Y59110000D03*
X278970000Y59110000D03*
%TD*%
D14*
%TO.C,RV4*%
X76255000Y187315000D03*
X76255000Y177715000D03*
D15*
X68755000Y185015000D03*
D16*
X68755000Y182515000D03*
X68755000Y180015000D03*
%TD*%
D10*
%TO.C,MX54*%
X164719270Y79683855D03*
X174879270Y79683855D03*
%TD*%
%TO.C,MX37*%
X117060000Y100260000D03*
X127220000Y100260000D03*
%TD*%
D19*
%TO.C,J1*%
X405030000Y175302500D03*
X398030000Y175302500D03*
D20*
X406330000Y172102500D03*
X403330000Y177602500D03*
X406330000Y177602500D03*
X397830000Y173102500D03*
D21*
X399330000Y177602500D03*
%TD*%
D10*
%TO.C,MX79*%
X287877621Y59145943D03*
X298037621Y59145943D03*
%TD*%
D14*
%TO.C,RV7*%
X142970000Y187285000D03*
X142970000Y177685000D03*
D15*
X135470000Y184985000D03*
D16*
X135470000Y182485000D03*
X135470000Y179985000D03*
%TD*%
D11*
%TO.C,H28*%
X406722270Y106420855D03*
%TD*%
D10*
%TO.C,MX72*%
X287870000Y141360000D03*
X298030000Y141360000D03*
%TD*%
D13*
%TO.C,R8*%
X309630000Y196750000D03*
X324870000Y196750000D03*
%TD*%
D11*
%TO.C,H35*%
X406722270Y86050855D03*
%TD*%
D10*
%TO.C,MX11*%
X174194903Y141369408D03*
X184354903Y141369408D03*
%TD*%
D11*
%TO.C,H41*%
X264372270Y65550855D03*
%TD*%
%TO.C,H58*%
X302472270Y168790855D03*
%TD*%
D17*
%TO.C,J3*%
X268500000Y185810000D03*
D18*
X268500000Y183270000D03*
X268500000Y180730000D03*
X268500000Y178190000D03*
%TD*%
D10*
%TO.C,MX77*%
X287907500Y79692500D03*
X298067500Y79692500D03*
%TD*%
D11*
%TO.C,H39*%
X165402270Y65540855D03*
%TD*%
%TO.C,H31*%
X126912270Y86300855D03*
%TD*%
D10*
%TO.C,MX19*%
X50359270Y120796355D03*
X60519270Y120796355D03*
%TD*%
D11*
%TO.C,H52*%
X-11207730Y168580855D03*
%TD*%
D10*
%TO.C,MX85*%
X334850000Y120810000D03*
X345010000Y120810000D03*
%TD*%
D11*
%TO.C,H10*%
X160242270Y148220855D03*
%TD*%
%TO.C,H9*%
X103092270Y148210855D03*
%TD*%
D10*
%TO.C,MX14*%
X236119270Y141373855D03*
X246279270Y141373855D03*
%TD*%
D14*
%TO.C,RV1*%
X19060000Y187285000D03*
X19060000Y177685000D03*
D15*
X11560000Y184985000D03*
D16*
X11560000Y182485000D03*
X11560000Y179985000D03*
%TD*%
D11*
%TO.C,H43*%
X406722270Y65300855D03*
%TD*%
D10*
%TO.C,MX34*%
X59910000Y100260000D03*
X70070000Y100260000D03*
%TD*%
D14*
%TO.C,RV2*%
X38095000Y187235000D03*
X38095000Y177635000D03*
D15*
X30595000Y184935000D03*
D16*
X30595000Y182435000D03*
X30595000Y179935000D03*
%TD*%
D10*
%TO.C,MX32*%
X21810000Y100260000D03*
X31970000Y100260000D03*
%TD*%
%TO.C,MX63*%
X89100000Y59110000D03*
X78940000Y59110000D03*
%TD*%
%TO.C,MX53*%
X145649270Y79693855D03*
X155809270Y79693855D03*
%TD*%
D11*
%TO.C,H26*%
X302472270Y106580855D03*
%TD*%
D10*
%TO.C,MX13*%
X212294903Y141369408D03*
X222454903Y141369408D03*
%TD*%
%TO.C,MX60*%
X31949270Y59098855D03*
X21789270Y59098855D03*
%TD*%
%TO.C,MX43*%
X236070000Y100200000D03*
X246230000Y100200000D03*
%TD*%
%TO.C,MX40*%
X174210000Y100260000D03*
X184370000Y100260000D03*
%TD*%
%TO.C,MX97*%
X334850000Y59120000D03*
X345010000Y59120000D03*
%TD*%
D11*
%TO.C,H7*%
X-11207730Y147990855D03*
%TD*%
D14*
%TO.C,RV5*%
X104870000Y187300000D03*
X104870000Y177700000D03*
D15*
X97370000Y185000000D03*
D16*
X97370000Y182500000D03*
X97370000Y180000000D03*
%TD*%
D10*
%TO.C,MX44*%
X-25810000Y79680000D03*
X-15650000Y79680000D03*
%TD*%
D15*
%TO.C,D1*%
X336170000Y175960000D03*
D16*
X338710000Y175960000D03*
%TD*%
D11*
%TO.C,H48*%
X205812270Y44900855D03*
%TD*%
%TO.C,H4*%
X179302270Y189430855D03*
%TD*%
D10*
%TO.C,MX68*%
X184380000Y59130000D03*
X174220000Y59130000D03*
%TD*%
%TO.C,MX16*%
X-6781460Y120817710D03*
X3378540Y120817710D03*
%TD*%
%TO.C,MX5*%
X59894903Y141361908D03*
X70054903Y141361908D03*
%TD*%
D11*
%TO.C,H6*%
X321742270Y189400855D03*
%TD*%
D10*
%TO.C,MX39*%
X155160000Y100260000D03*
X165320000Y100260000D03*
%TD*%
D11*
%TO.C,H1*%
X-30267730Y189150855D03*
%TD*%
D13*
%TO.C,R7*%
X290380000Y196750000D03*
X305620000Y196750000D03*
%TD*%
D22*
%TO.C,D13*%
X343690000Y189000000D03*
D13*
X351310000Y189000000D03*
%TD*%
D10*
%TO.C,MX94*%
X353900000Y79700000D03*
X364060000Y79700000D03*
%TD*%
%TO.C,MX55*%
X193920000Y79690000D03*
X183760000Y79690000D03*
%TD*%
%TO.C,MX87*%
X372950000Y120815000D03*
X383110000Y120815000D03*
%TD*%
%TO.C,MX18*%
X31309270Y120796355D03*
X41469270Y120796355D03*
%TD*%
%TO.C,MX62*%
X70080000Y59120000D03*
X59920000Y59120000D03*
%TD*%
%TO.C,MX3*%
X21803872Y141373170D03*
X31963872Y141373170D03*
%TD*%
D11*
%TO.C,H36*%
X-6107730Y65320855D03*
%TD*%
%TO.C,H25*%
X264372270Y106600855D03*
%TD*%
%TO.C,H55*%
X141232270Y168830855D03*
%TD*%
D10*
%TO.C,MX93*%
X334840000Y79680000D03*
X345000000Y79680000D03*
%TD*%
%TO.C,MX69*%
X203450000Y59110000D03*
X193290000Y59110000D03*
%TD*%
%TO.C,MX30*%
X-21060000Y100250000D03*
X-10900000Y100250000D03*
%TD*%
%TO.C,MX71*%
X268820000Y141380000D03*
X278980000Y141380000D03*
%TD*%
%TO.C,MX12*%
X193244903Y141369408D03*
X203404903Y141369408D03*
%TD*%
D11*
%TO.C,H13*%
X368502270Y148080855D03*
%TD*%
%TO.C,H21*%
X-27917730Y106380855D03*
%TD*%
D10*
%TO.C,MX74*%
X268810000Y120840000D03*
X278970000Y120840000D03*
%TD*%
%TO.C,MX90*%
X353890000Y100240000D03*
X364050000Y100240000D03*
%TD*%
%TO.C,MX26*%
X183709270Y120796355D03*
X193869270Y120796355D03*
%TD*%
D14*
%TO.C,RV10*%
X209550000Y187260000D03*
X209550000Y177660000D03*
D15*
X202050000Y184960000D03*
D16*
X202050000Y182460000D03*
X202050000Y179960000D03*
%TD*%
D11*
%TO.C,H12*%
X302472270Y148190855D03*
%TD*%
D10*
%TO.C,MX76*%
X306910000Y120800000D03*
X317070000Y120800000D03*
%TD*%
%TO.C,MX73*%
X306900000Y141370000D03*
X317060000Y141370000D03*
%TD*%
%TO.C,MX91*%
X372930000Y100230000D03*
X383090000Y100230000D03*
%TD*%
%TO.C,MX64*%
X108180000Y59120000D03*
X98020000Y59120000D03*
%TD*%
%TO.C,MX56*%
X212970000Y79700000D03*
X202810000Y79700000D03*
%TD*%
%TO.C,MX98*%
X353900000Y59140000D03*
X364060000Y59140000D03*
%TD*%
%TO.C,MX47*%
X31349270Y79693855D03*
X41509270Y79693855D03*
%TD*%
%TO.C,MX23*%
X126559270Y120796355D03*
X136719270Y120796355D03*
%TD*%
D11*
%TO.C,H27*%
X349462270Y106480855D03*
%TD*%
D10*
%TO.C,MX67*%
X165340000Y59120000D03*
X155180000Y59120000D03*
%TD*%
%TO.C,MX57*%
X232010730Y79676145D03*
X221850730Y79676145D03*
%TD*%
%TO.C,MX6*%
X78944903Y141361908D03*
X89104903Y141361908D03*
%TD*%
%TO.C,MX31*%
X2762670Y100251099D03*
X12922670Y100251099D03*
%TD*%
D11*
%TO.C,H51*%
X406722270Y44680855D03*
%TD*%
D10*
%TO.C,MX8*%
X117044903Y141361908D03*
X127204903Y141361908D03*
%TD*%
%TO.C,MX51*%
X107549270Y79693855D03*
X117709270Y79693855D03*
%TD*%
D14*
%TO.C,RV11*%
X228680000Y187275000D03*
X228680000Y177675000D03*
D15*
X221180000Y184975000D03*
D16*
X221180000Y182475000D03*
X221180000Y179975000D03*
%TD*%
D11*
%TO.C,H38*%
X122302270Y65550855D03*
%TD*%
D10*
%TO.C,MX1*%
X-21058919Y141351339D03*
X-10898919Y141351339D03*
%TD*%
D23*
%TO.C,R2*%
X358550000Y170920000D03*
X366170000Y170920000D03*
%TD*%
D11*
%TO.C,H19*%
X264372270Y127540855D03*
%TD*%
D10*
%TO.C,MX46*%
X12299270Y79693855D03*
X22459270Y79693855D03*
%TD*%
D11*
%TO.C,H14*%
X406722270Y148040855D03*
%TD*%
D19*
%TO.C,J2*%
X405450000Y163232500D03*
X398450000Y163232500D03*
D20*
X406750000Y160032500D03*
X403750000Y165532500D03*
X406750000Y165532500D03*
X398250000Y161032500D03*
D21*
X399750000Y165532500D03*
%TD*%
D10*
%TO.C,MX29*%
X240859270Y120796355D03*
X251019270Y120796355D03*
%TD*%
D11*
%TO.C,H50*%
X321412270Y44810855D03*
%TD*%
D10*
%TO.C,MX83*%
X372950000Y141360000D03*
X383110000Y141360000D03*
%TD*%
%TO.C,MX48*%
X50399270Y79693855D03*
X60559270Y79693855D03*
%TD*%
%TO.C,MX88*%
X392000000Y120800000D03*
X402160000Y120800000D03*
%TD*%
D14*
%TO.C,RV3*%
X57165000Y187275000D03*
X57165000Y177675000D03*
D15*
X49665000Y184975000D03*
D16*
X49665000Y182475000D03*
X49665000Y179975000D03*
%TD*%
D10*
%TO.C,MX2*%
X2750301Y141372593D03*
X12910301Y141372593D03*
%TD*%
D23*
%TO.C,R1*%
X333640000Y170890000D03*
X341260000Y170890000D03*
%TD*%
D10*
%TO.C,MX96*%
X392010000Y79700000D03*
X402170000Y79700000D03*
%TD*%
D13*
%TO.C,R6*%
X310000000Y171750000D03*
X325240000Y171750000D03*
%TD*%
D11*
%TO.C,H33*%
X264372270Y86280855D03*
%TD*%
D10*
%TO.C,MX28*%
X221809270Y120796355D03*
X231969270Y120796355D03*
%TD*%
%TO.C,MX52*%
X126599270Y79693855D03*
X136759270Y79693855D03*
%TD*%
D11*
%TO.C,H53*%
X26902270Y168650855D03*
%TD*%
D10*
%TO.C,MX89*%
X334840000Y100250000D03*
X345000000Y100250000D03*
%TD*%
D11*
%TO.C,H40*%
X231692270Y65550855D03*
%TD*%
%TO.C,H11*%
X236452270Y148230855D03*
%TD*%
D10*
%TO.C,MX45*%
X-6750730Y79693855D03*
X3409270Y79693855D03*
%TD*%
D11*
%TO.C,H44*%
X-30157730Y44640855D03*
%TD*%
D13*
%TO.C,R4*%
X325370000Y162000000D03*
X310130000Y162000000D03*
%TD*%
D11*
%TO.C,H47*%
X160322270Y44870855D03*
%TD*%
D24*
%TO.C,J6*%
X267750000Y196775000D03*
X266550000Y196775000D03*
X265350000Y196775000D03*
X264150000Y196775000D03*
D25*
X268900000Y200550000D03*
X263000000Y200550000D03*
%TD*%
D11*
%TO.C,H45*%
X12982270Y44700855D03*
%TD*%
%TO.C,H5*%
X236462270Y189450855D03*
%TD*%
%TO.C,H54*%
X84082270Y168760855D03*
%TD*%
D10*
%TO.C,MX65*%
X127230000Y59120000D03*
X117070000Y59120000D03*
%TD*%
%TO.C,MX41*%
X193260000Y100260000D03*
X203420000Y100260000D03*
%TD*%
%TO.C,MX75*%
X287870000Y120817593D03*
X298030000Y120817593D03*
%TD*%
%TO.C,MX66*%
X146270000Y59110000D03*
X136110000Y59110000D03*
%TD*%
%TO.C,MX70*%
X236115726Y59148750D03*
X246275726Y59148750D03*
%TD*%
D11*
%TO.C,H2*%
X45932270Y189320855D03*
%TD*%
%TO.C,H23*%
X117382270Y106620855D03*
%TD*%
D10*
%TO.C,MX50*%
X88499270Y79693855D03*
X98659270Y79693855D03*
%TD*%
D11*
%TO.C,H30*%
X88802270Y86240855D03*
%TD*%
%TO.C,H56*%
X198422270Y168840855D03*
%TD*%
D10*
%TO.C,MX17*%
X12284801Y120785714D03*
X22444801Y120785714D03*
%TD*%
%TO.C,MX100*%
X392000000Y59150000D03*
X402160000Y59150000D03*
%TD*%
D11*
%TO.C,H42*%
X302472270Y65500855D03*
%TD*%
D10*
%TO.C,MX82*%
X353917500Y141382500D03*
X364077500Y141382500D03*
%TD*%
%TO.C,MX27*%
X202759270Y120796355D03*
X212919270Y120796355D03*
%TD*%
D14*
%TO.C,RV12*%
X247660000Y187280000D03*
X247660000Y177680000D03*
D15*
X240160000Y184980000D03*
D16*
X240160000Y182480000D03*
X240160000Y179980000D03*
%TD*%
D10*
%TO.C,MX21*%
X88459270Y120796355D03*
X98619270Y120796355D03*
%TD*%
%TO.C,MX15*%
X-25850000Y120797500D03*
X-15690000Y120797500D03*
%TD*%
D15*
%TO.C,D2*%
X361085000Y175975000D03*
D16*
X363625000Y175975000D03*
%TD*%
D10*
%TO.C,MX42*%
X212310000Y100260000D03*
X222470000Y100260000D03*
%TD*%
%TO.C,MX22*%
X107509270Y120796355D03*
X117669270Y120796355D03*
%TD*%
D11*
%TO.C,H57*%
X235432270Y168840855D03*
%TD*%
D10*
%TO.C,MX10*%
X155144903Y141369408D03*
X165304903Y141369408D03*
%TD*%
%TO.C,MX25*%
X164659270Y120796355D03*
X174819270Y120796355D03*
%TD*%
%TO.C,MX92*%
X392000000Y100250000D03*
X402160000Y100250000D03*
%TD*%
D15*
%TO.C,D3*%
X386160000Y175950000D03*
D16*
X388700000Y175950000D03*
%TD*%
D23*
%TO.C,R3*%
X383620000Y170870000D03*
X391240000Y170870000D03*
%TD*%
D11*
%TO.C,H32*%
X203122270Y86250855D03*
%TD*%
D10*
%TO.C,MX24*%
X145609270Y120796355D03*
X155769270Y120796355D03*
%TD*%
%TO.C,MX86*%
X353900000Y120810000D03*
X364060000Y120810000D03*
%TD*%
D17*
%TO.C,A1*%
X408200000Y182500000D03*
D18*
X405660000Y182500000D03*
X403120000Y182500000D03*
X400580000Y182500000D03*
X398040000Y182500000D03*
X395500000Y182500000D03*
X392960000Y182500000D03*
X390420000Y182500000D03*
X387880000Y182500000D03*
X385340000Y182500000D03*
X382800000Y182500000D03*
X380260000Y182500000D03*
X377720000Y182500000D03*
X375180000Y182500000D03*
X372640000Y182500000D03*
X370100000Y182500000D03*
X367560000Y182500000D03*
X365020000Y182500000D03*
X362480000Y182500000D03*
X359940000Y182500000D03*
X359940000Y197740000D03*
X362480000Y197740000D03*
X365020000Y197740000D03*
X367560000Y197740000D03*
X370100000Y197740000D03*
X372640000Y197740000D03*
X375180000Y197740000D03*
X377720000Y197740000D03*
X380260000Y197740000D03*
X382800000Y197740000D03*
X385340000Y197740000D03*
X387880000Y197740000D03*
X390420000Y197740000D03*
X392960000Y197740000D03*
X395500000Y197740000D03*
X398040000Y197740000D03*
X400580000Y197740000D03*
X403120000Y197740000D03*
X405660000Y197740000D03*
X408200000Y197740000D03*
%TD*%
D26*
%TO.C,J5*%
X337000000Y197000000D03*
D27*
X335000000Y197000000D03*
X333000000Y197000000D03*
X331000000Y197000000D03*
X329000000Y197000000D03*
%TD*%
D26*
%TO.C,J4*%
X352750000Y197000000D03*
D27*
X350750000Y197000000D03*
X348750000Y197000000D03*
X346750000Y197000000D03*
X344750000Y197000000D03*
%TD*%
M02*
