%TF.GenerationSoftware,KiCad,Pcbnew,9.0.8*%
%TF.CreationDate,2026-04-06T19:52:03-05:00*%
%TF.ProjectId,keyboard_keyboard,6b657962-6f61-4726-945f-6b6579626f61,rev?*%
%TF.SameCoordinates,Original*%
%TF.FileFunction,Legend,Top*%
%TF.FilePolarity,Positive*%
%FSLAX46Y46*%
G04 Gerber Fmt 4.6, Leading zero omitted, Abs format (unit mm)*
G04 Created by KiCad (PCBNEW 9.0.8) date 2026-04-06 19:52:03*
%MOMM*%
%LPD*%
G01*
G04 APERTURE LIST*
%ADD10C,0.100000*%
%ADD11C,0.150000*%
%ADD12C,0.120000*%
G04 APERTURE END LIST*
D10*
X10360000Y189480000D02*
X24350000Y189480000D01*
X24350000Y175490000D01*
X10360000Y175490000D01*
X10360000Y189480000D01*
X22604839Y182475161D02*
G75*
G02*
X15555161Y182475161I-3524839J0D01*
G01*
X15555161Y182475161D02*
G75*
G02*
X22604839Y182475161I3524839J0D01*
G01*
X67525000Y189495000D02*
X81515000Y189495000D01*
X81515000Y175505000D01*
X67525000Y175505000D01*
X67525000Y189495000D01*
X96100000Y189495000D02*
X110090000Y189495000D01*
X110090000Y175505000D01*
X96100000Y175505000D01*
X96100000Y189495000D01*
X115125000Y189465000D02*
X129115000Y189465000D01*
X129115000Y175475000D01*
X115125000Y175475000D01*
X115125000Y189465000D01*
X134200000Y189480000D02*
X148190000Y189480000D01*
X148190000Y175490000D01*
X134200000Y175490000D01*
X134200000Y189480000D01*
X153250000Y189490000D02*
X167240000Y189490000D01*
X167240000Y175500000D01*
X153250000Y175500000D01*
X153250000Y189490000D01*
X181820000Y189470000D02*
X195810000Y189470000D01*
X195810000Y175480000D01*
X181820000Y175480000D01*
X181820000Y189470000D01*
X200860000Y189470000D02*
X214850000Y189470000D01*
X214850000Y175480000D01*
X200860000Y175480000D01*
X200860000Y189470000D01*
X219910000Y189470000D02*
X233900000Y189470000D01*
X233900000Y175480000D01*
X219910000Y175480000D01*
X219910000Y189470000D01*
X238960000Y189490000D02*
X252950000Y189490000D01*
X252950000Y175500000D01*
X238960000Y175500000D01*
X238960000Y189490000D01*
X335000000Y178250000D02*
X339870000Y178250000D01*
X339870000Y173730000D01*
X335000000Y173730000D01*
X335000000Y178250000D01*
X359910000Y178240000D02*
X364800000Y178240000D01*
X364800000Y173710000D01*
X359910000Y173710000D01*
X359910000Y178240000D01*
X384980000Y178240000D02*
X389860000Y178240000D01*
X389860000Y173710000D01*
X384980000Y173710000D01*
X384980000Y178240000D01*
X260411027Y192127580D02*
X260744360Y191127580D01*
X260744360Y191127580D02*
X261077693Y192127580D01*
X261411027Y191127580D02*
X261411027Y192127580D01*
X261887217Y191127580D02*
X261887217Y192127580D01*
X261887217Y192127580D02*
X262458645Y191127580D01*
X262458645Y191127580D02*
X262458645Y192127580D01*
X269077693Y192079961D02*
X268982455Y192127580D01*
X268982455Y192127580D02*
X268839598Y192127580D01*
X268839598Y192127580D02*
X268696741Y192079961D01*
X268696741Y192079961D02*
X268601503Y191984723D01*
X268601503Y191984723D02*
X268553884Y191889485D01*
X268553884Y191889485D02*
X268506265Y191699009D01*
X268506265Y191699009D02*
X268506265Y191556152D01*
X268506265Y191556152D02*
X268553884Y191365676D01*
X268553884Y191365676D02*
X268601503Y191270438D01*
X268601503Y191270438D02*
X268696741Y191175200D01*
X268696741Y191175200D02*
X268839598Y191127580D01*
X268839598Y191127580D02*
X268934836Y191127580D01*
X268934836Y191127580D02*
X269077693Y191175200D01*
X269077693Y191175200D02*
X269125312Y191222819D01*
X269125312Y191222819D02*
X269125312Y191556152D01*
X269125312Y191556152D02*
X268934836Y191556152D01*
X269553884Y191127580D02*
X269553884Y192127580D01*
X269553884Y192127580D02*
X270125312Y191127580D01*
X270125312Y191127580D02*
X270125312Y192127580D01*
X270601503Y191127580D02*
X270601503Y192127580D01*
X270601503Y192127580D02*
X270839598Y192127580D01*
X270839598Y192127580D02*
X270982455Y192079961D01*
X270982455Y192079961D02*
X271077693Y191984723D01*
X271077693Y191984723D02*
X271125312Y191889485D01*
X271125312Y191889485D02*
X271172931Y191699009D01*
X271172931Y191699009D02*
X271172931Y191556152D01*
X271172931Y191556152D02*
X271125312Y191365676D01*
X271125312Y191365676D02*
X271077693Y191270438D01*
X271077693Y191270438D02*
X270982455Y191175200D01*
X270982455Y191175200D02*
X270839598Y191127580D01*
X270839598Y191127580D02*
X270601503Y191127580D01*
X263627580Y191696115D02*
X264627580Y191696115D01*
X264627580Y191696115D02*
X264627580Y191458020D01*
X264627580Y191458020D02*
X264579961Y191315163D01*
X264579961Y191315163D02*
X264484723Y191219925D01*
X264484723Y191219925D02*
X264389485Y191172306D01*
X264389485Y191172306D02*
X264199009Y191124687D01*
X264199009Y191124687D02*
X264056152Y191124687D01*
X264056152Y191124687D02*
X263865676Y191172306D01*
X263865676Y191172306D02*
X263770438Y191219925D01*
X263770438Y191219925D02*
X263675200Y191315163D01*
X263675200Y191315163D02*
X263627580Y191458020D01*
X263627580Y191458020D02*
X263627580Y191696115D01*
X264008533Y190696115D02*
X264008533Y189934211D01*
X263627580Y190315163D02*
X264389485Y190315163D01*
X266377580Y191696115D02*
X267377580Y191696115D01*
X267377580Y191696115D02*
X267377580Y191458020D01*
X267377580Y191458020D02*
X267329961Y191315163D01*
X267329961Y191315163D02*
X267234723Y191219925D01*
X267234723Y191219925D02*
X267139485Y191172306D01*
X267139485Y191172306D02*
X266949009Y191124687D01*
X266949009Y191124687D02*
X266806152Y191124687D01*
X266806152Y191124687D02*
X266615676Y191172306D01*
X266615676Y191172306D02*
X266520438Y191219925D01*
X266520438Y191219925D02*
X266425200Y191315163D01*
X266425200Y191315163D02*
X266377580Y191458020D01*
X266377580Y191458020D02*
X266377580Y191696115D01*
X266758533Y190696115D02*
X266758533Y189934211D01*
D11*
X329174175Y131006035D02*
X329174175Y132006035D01*
X329174175Y131529845D02*
X329745603Y131529845D01*
X329745603Y131006035D02*
X329745603Y132006035D01*
X330174175Y131910797D02*
X330221794Y131958416D01*
X330221794Y131958416D02*
X330317032Y132006035D01*
X330317032Y132006035D02*
X330555127Y132006035D01*
X330555127Y132006035D02*
X330650365Y131958416D01*
X330650365Y131958416D02*
X330697984Y131910797D01*
X330697984Y131910797D02*
X330745603Y131815559D01*
X330745603Y131815559D02*
X330745603Y131720321D01*
X330745603Y131720321D02*
X330697984Y131577464D01*
X330697984Y131577464D02*
X330126556Y131006035D01*
X330126556Y131006035D02*
X330745603Y131006035D01*
X331364651Y132006035D02*
X331459889Y132006035D01*
X331459889Y132006035D02*
X331555127Y131958416D01*
X331555127Y131958416D02*
X331602746Y131910797D01*
X331602746Y131910797D02*
X331650365Y131815559D01*
X331650365Y131815559D02*
X331697984Y131625083D01*
X331697984Y131625083D02*
X331697984Y131386988D01*
X331697984Y131386988D02*
X331650365Y131196512D01*
X331650365Y131196512D02*
X331602746Y131101274D01*
X331602746Y131101274D02*
X331555127Y131053655D01*
X331555127Y131053655D02*
X331459889Y131006035D01*
X331459889Y131006035D02*
X331364651Y131006035D01*
X331364651Y131006035D02*
X331269413Y131053655D01*
X331269413Y131053655D02*
X331221794Y131101274D01*
X331221794Y131101274D02*
X331174175Y131196512D01*
X331174175Y131196512D02*
X331126556Y131386988D01*
X331126556Y131386988D02*
X331126556Y131625083D01*
X331126556Y131625083D02*
X331174175Y131815559D01*
X331174175Y131815559D02*
X331221794Y131910797D01*
X331221794Y131910797D02*
X331269413Y131958416D01*
X331269413Y131958416D02*
X331364651Y132006035D01*
X63834175Y69006035D02*
X63834175Y70006035D01*
X63834175Y69529845D02*
X64405603Y69529845D01*
X64405603Y69006035D02*
X64405603Y70006035D01*
X64786556Y70006035D02*
X65405603Y70006035D01*
X65405603Y70006035D02*
X65072270Y69625083D01*
X65072270Y69625083D02*
X65215127Y69625083D01*
X65215127Y69625083D02*
X65310365Y69577464D01*
X65310365Y69577464D02*
X65357984Y69529845D01*
X65357984Y69529845D02*
X65405603Y69434607D01*
X65405603Y69434607D02*
X65405603Y69196512D01*
X65405603Y69196512D02*
X65357984Y69101274D01*
X65357984Y69101274D02*
X65310365Y69053655D01*
X65310365Y69053655D02*
X65215127Y69006035D01*
X65215127Y69006035D02*
X64929413Y69006035D01*
X64929413Y69006035D02*
X64834175Y69053655D01*
X64834175Y69053655D02*
X64786556Y69101274D01*
X65738937Y70006035D02*
X66405603Y70006035D01*
X66405603Y70006035D02*
X65977032Y69006035D01*
X263134175Y48436035D02*
X263134175Y49436035D01*
X263134175Y48959845D02*
X263705603Y48959845D01*
X263705603Y48436035D02*
X263705603Y49436035D01*
X264610365Y49102702D02*
X264610365Y48436035D01*
X264372270Y49483655D02*
X264134175Y48769369D01*
X264134175Y48769369D02*
X264753222Y48769369D01*
X265181794Y48436035D02*
X265372270Y48436035D01*
X265372270Y48436035D02*
X265467508Y48483655D01*
X265467508Y48483655D02*
X265515127Y48531274D01*
X265515127Y48531274D02*
X265610365Y48674131D01*
X265610365Y48674131D02*
X265657984Y48864607D01*
X265657984Y48864607D02*
X265657984Y49245559D01*
X265657984Y49245559D02*
X265610365Y49340797D01*
X265610365Y49340797D02*
X265562746Y49388416D01*
X265562746Y49388416D02*
X265467508Y49436035D01*
X265467508Y49436035D02*
X265277032Y49436035D01*
X265277032Y49436035D02*
X265181794Y49388416D01*
X265181794Y49388416D02*
X265134175Y49340797D01*
X265134175Y49340797D02*
X265086556Y49245559D01*
X265086556Y49245559D02*
X265086556Y49007464D01*
X265086556Y49007464D02*
X265134175Y48912226D01*
X265134175Y48912226D02*
X265181794Y48864607D01*
X265181794Y48864607D02*
X265277032Y48816988D01*
X265277032Y48816988D02*
X265467508Y48816988D01*
X265467508Y48816988D02*
X265562746Y48864607D01*
X265562746Y48864607D02*
X265610365Y48912226D01*
X265610365Y48912226D02*
X265657984Y49007464D01*
X192344175Y110186035D02*
X192344175Y111186035D01*
X192344175Y110709845D02*
X192915603Y110709845D01*
X192915603Y110186035D02*
X192915603Y111186035D01*
X193344175Y111090797D02*
X193391794Y111138416D01*
X193391794Y111138416D02*
X193487032Y111186035D01*
X193487032Y111186035D02*
X193725127Y111186035D01*
X193725127Y111186035D02*
X193820365Y111138416D01*
X193820365Y111138416D02*
X193867984Y111090797D01*
X193867984Y111090797D02*
X193915603Y110995559D01*
X193915603Y110995559D02*
X193915603Y110900321D01*
X193915603Y110900321D02*
X193867984Y110757464D01*
X193867984Y110757464D02*
X193296556Y110186035D01*
X193296556Y110186035D02*
X193915603Y110186035D01*
X194772746Y110852702D02*
X194772746Y110186035D01*
X194534651Y111233655D02*
X194296556Y110519369D01*
X194296556Y110519369D02*
X194915603Y110519369D01*
X326064819Y187243095D02*
X326874342Y187243095D01*
X326874342Y187243095D02*
X326969580Y187290714D01*
X326969580Y187290714D02*
X327017200Y187338333D01*
X327017200Y187338333D02*
X327064819Y187433571D01*
X327064819Y187433571D02*
X327064819Y187624047D01*
X327064819Y187624047D02*
X327017200Y187719285D01*
X327017200Y187719285D02*
X326969580Y187766904D01*
X326969580Y187766904D02*
X326874342Y187814523D01*
X326874342Y187814523D02*
X326064819Y187814523D01*
X326160057Y188243095D02*
X326112438Y188290714D01*
X326112438Y188290714D02*
X326064819Y188385952D01*
X326064819Y188385952D02*
X326064819Y188624047D01*
X326064819Y188624047D02*
X326112438Y188719285D01*
X326112438Y188719285D02*
X326160057Y188766904D01*
X326160057Y188766904D02*
X326255295Y188814523D01*
X326255295Y188814523D02*
X326350533Y188814523D01*
X326350533Y188814523D02*
X326493390Y188766904D01*
X326493390Y188766904D02*
X327064819Y188195476D01*
X327064819Y188195476D02*
X327064819Y188814523D01*
X92810365Y192946035D02*
X92810365Y193946035D01*
X92810365Y193469845D02*
X93381793Y193469845D01*
X93381793Y192946035D02*
X93381793Y193946035D01*
X93762746Y193946035D02*
X94381793Y193946035D01*
X94381793Y193946035D02*
X94048460Y193565083D01*
X94048460Y193565083D02*
X94191317Y193565083D01*
X94191317Y193565083D02*
X94286555Y193517464D01*
X94286555Y193517464D02*
X94334174Y193469845D01*
X94334174Y193469845D02*
X94381793Y193374607D01*
X94381793Y193374607D02*
X94381793Y193136512D01*
X94381793Y193136512D02*
X94334174Y193041274D01*
X94334174Y193041274D02*
X94286555Y192993655D01*
X94286555Y192993655D02*
X94191317Y192946035D01*
X94191317Y192946035D02*
X93905603Y192946035D01*
X93905603Y192946035D02*
X93810365Y192993655D01*
X93810365Y192993655D02*
X93762746Y193041274D01*
X160634761Y189180180D02*
X160301428Y189656371D01*
X160063333Y189180180D02*
X160063333Y190180180D01*
X160063333Y190180180D02*
X160444285Y190180180D01*
X160444285Y190180180D02*
X160539523Y190132561D01*
X160539523Y190132561D02*
X160587142Y190084942D01*
X160587142Y190084942D02*
X160634761Y189989704D01*
X160634761Y189989704D02*
X160634761Y189846847D01*
X160634761Y189846847D02*
X160587142Y189751609D01*
X160587142Y189751609D02*
X160539523Y189703990D01*
X160539523Y189703990D02*
X160444285Y189656371D01*
X160444285Y189656371D02*
X160063333Y189656371D01*
X160920476Y190180180D02*
X161253809Y189180180D01*
X161253809Y189180180D02*
X161587142Y190180180D01*
X162063333Y189751609D02*
X161968095Y189799228D01*
X161968095Y189799228D02*
X161920476Y189846847D01*
X161920476Y189846847D02*
X161872857Y189942085D01*
X161872857Y189942085D02*
X161872857Y189989704D01*
X161872857Y189989704D02*
X161920476Y190084942D01*
X161920476Y190084942D02*
X161968095Y190132561D01*
X161968095Y190132561D02*
X162063333Y190180180D01*
X162063333Y190180180D02*
X162253809Y190180180D01*
X162253809Y190180180D02*
X162349047Y190132561D01*
X162349047Y190132561D02*
X162396666Y190084942D01*
X162396666Y190084942D02*
X162444285Y189989704D01*
X162444285Y189989704D02*
X162444285Y189942085D01*
X162444285Y189942085D02*
X162396666Y189846847D01*
X162396666Y189846847D02*
X162349047Y189799228D01*
X162349047Y189799228D02*
X162253809Y189751609D01*
X162253809Y189751609D02*
X162063333Y189751609D01*
X162063333Y189751609D02*
X161968095Y189703990D01*
X161968095Y189703990D02*
X161920476Y189656371D01*
X161920476Y189656371D02*
X161872857Y189561133D01*
X161872857Y189561133D02*
X161872857Y189370657D01*
X161872857Y189370657D02*
X161920476Y189275419D01*
X161920476Y189275419D02*
X161968095Y189227800D01*
X161968095Y189227800D02*
X162063333Y189180180D01*
X162063333Y189180180D02*
X162253809Y189180180D01*
X162253809Y189180180D02*
X162349047Y189227800D01*
X162349047Y189227800D02*
X162396666Y189275419D01*
X162396666Y189275419D02*
X162444285Y189370657D01*
X162444285Y189370657D02*
X162444285Y189561133D01*
X162444285Y189561133D02*
X162396666Y189656371D01*
X162396666Y189656371D02*
X162349047Y189703990D01*
X162349047Y189703990D02*
X162253809Y189751609D01*
X11364175Y89616035D02*
X11364175Y90616035D01*
X11364175Y90139845D02*
X11935603Y90139845D01*
X11935603Y89616035D02*
X11935603Y90616035D01*
X12364175Y90520797D02*
X12411794Y90568416D01*
X12411794Y90568416D02*
X12507032Y90616035D01*
X12507032Y90616035D02*
X12745127Y90616035D01*
X12745127Y90616035D02*
X12840365Y90568416D01*
X12840365Y90568416D02*
X12887984Y90520797D01*
X12887984Y90520797D02*
X12935603Y90425559D01*
X12935603Y90425559D02*
X12935603Y90330321D01*
X12935603Y90330321D02*
X12887984Y90187464D01*
X12887984Y90187464D02*
X12316556Y89616035D01*
X12316556Y89616035D02*
X12935603Y89616035D01*
X13411794Y89616035D02*
X13602270Y89616035D01*
X13602270Y89616035D02*
X13697508Y89663655D01*
X13697508Y89663655D02*
X13745127Y89711274D01*
X13745127Y89711274D02*
X13840365Y89854131D01*
X13840365Y89854131D02*
X13887984Y90044607D01*
X13887984Y90044607D02*
X13887984Y90425559D01*
X13887984Y90425559D02*
X13840365Y90520797D01*
X13840365Y90520797D02*
X13792746Y90568416D01*
X13792746Y90568416D02*
X13697508Y90616035D01*
X13697508Y90616035D02*
X13507032Y90616035D01*
X13507032Y90616035D02*
X13411794Y90568416D01*
X13411794Y90568416D02*
X13364175Y90520797D01*
X13364175Y90520797D02*
X13316556Y90425559D01*
X13316556Y90425559D02*
X13316556Y90187464D01*
X13316556Y90187464D02*
X13364175Y90092226D01*
X13364175Y90092226D02*
X13411794Y90044607D01*
X13411794Y90044607D02*
X13507032Y89996988D01*
X13507032Y89996988D02*
X13697508Y89996988D01*
X13697508Y89996988D02*
X13792746Y90044607D01*
X13792746Y90044607D02*
X13840365Y90092226D01*
X13840365Y90092226D02*
X13887984Y90187464D01*
X87944175Y48416035D02*
X87944175Y49416035D01*
X87944175Y48939845D02*
X88515603Y48939845D01*
X88515603Y48416035D02*
X88515603Y49416035D01*
X89420365Y49082702D02*
X89420365Y48416035D01*
X89182270Y49463655D02*
X88944175Y48749369D01*
X88944175Y48749369D02*
X89563222Y48749369D01*
X90372746Y49416035D02*
X90182270Y49416035D01*
X90182270Y49416035D02*
X90087032Y49368416D01*
X90087032Y49368416D02*
X90039413Y49320797D01*
X90039413Y49320797D02*
X89944175Y49177940D01*
X89944175Y49177940D02*
X89896556Y48987464D01*
X89896556Y48987464D02*
X89896556Y48606512D01*
X89896556Y48606512D02*
X89944175Y48511274D01*
X89944175Y48511274D02*
X89991794Y48463655D01*
X89991794Y48463655D02*
X90087032Y48416035D01*
X90087032Y48416035D02*
X90277508Y48416035D01*
X90277508Y48416035D02*
X90372746Y48463655D01*
X90372746Y48463655D02*
X90420365Y48511274D01*
X90420365Y48511274D02*
X90467984Y48606512D01*
X90467984Y48606512D02*
X90467984Y48844607D01*
X90467984Y48844607D02*
X90420365Y48939845D01*
X90420365Y48939845D02*
X90372746Y48987464D01*
X90372746Y48987464D02*
X90277508Y49035083D01*
X90277508Y49035083D02*
X90087032Y49035083D01*
X90087032Y49035083D02*
X89991794Y48987464D01*
X89991794Y48987464D02*
X89944175Y48939845D01*
X89944175Y48939845D02*
X89896556Y48844607D01*
X122509761Y189155180D02*
X122176428Y189631371D01*
X121938333Y189155180D02*
X121938333Y190155180D01*
X121938333Y190155180D02*
X122319285Y190155180D01*
X122319285Y190155180D02*
X122414523Y190107561D01*
X122414523Y190107561D02*
X122462142Y190059942D01*
X122462142Y190059942D02*
X122509761Y189964704D01*
X122509761Y189964704D02*
X122509761Y189821847D01*
X122509761Y189821847D02*
X122462142Y189726609D01*
X122462142Y189726609D02*
X122414523Y189678990D01*
X122414523Y189678990D02*
X122319285Y189631371D01*
X122319285Y189631371D02*
X121938333Y189631371D01*
X122795476Y190155180D02*
X123128809Y189155180D01*
X123128809Y189155180D02*
X123462142Y190155180D01*
X124224047Y190155180D02*
X124033571Y190155180D01*
X124033571Y190155180D02*
X123938333Y190107561D01*
X123938333Y190107561D02*
X123890714Y190059942D01*
X123890714Y190059942D02*
X123795476Y189917085D01*
X123795476Y189917085D02*
X123747857Y189726609D01*
X123747857Y189726609D02*
X123747857Y189345657D01*
X123747857Y189345657D02*
X123795476Y189250419D01*
X123795476Y189250419D02*
X123843095Y189202800D01*
X123843095Y189202800D02*
X123938333Y189155180D01*
X123938333Y189155180D02*
X124128809Y189155180D01*
X124128809Y189155180D02*
X124224047Y189202800D01*
X124224047Y189202800D02*
X124271666Y189250419D01*
X124271666Y189250419D02*
X124319285Y189345657D01*
X124319285Y189345657D02*
X124319285Y189583752D01*
X124319285Y189583752D02*
X124271666Y189678990D01*
X124271666Y189678990D02*
X124224047Y189726609D01*
X124224047Y189726609D02*
X124128809Y189774228D01*
X124128809Y189774228D02*
X123938333Y189774228D01*
X123938333Y189774228D02*
X123843095Y189726609D01*
X123843095Y189726609D02*
X123795476Y189678990D01*
X123795476Y189678990D02*
X123747857Y189583752D01*
X329154175Y89726035D02*
X329154175Y90726035D01*
X329154175Y90249845D02*
X329725603Y90249845D01*
X329725603Y89726035D02*
X329725603Y90726035D01*
X330106556Y90726035D02*
X330725603Y90726035D01*
X330725603Y90726035D02*
X330392270Y90345083D01*
X330392270Y90345083D02*
X330535127Y90345083D01*
X330535127Y90345083D02*
X330630365Y90297464D01*
X330630365Y90297464D02*
X330677984Y90249845D01*
X330677984Y90249845D02*
X330725603Y90154607D01*
X330725603Y90154607D02*
X330725603Y89916512D01*
X330725603Y89916512D02*
X330677984Y89821274D01*
X330677984Y89821274D02*
X330630365Y89773655D01*
X330630365Y89773655D02*
X330535127Y89726035D01*
X330535127Y89726035D02*
X330249413Y89726035D01*
X330249413Y89726035D02*
X330154175Y89773655D01*
X330154175Y89773655D02*
X330106556Y89821274D01*
X331582746Y90392702D02*
X331582746Y89726035D01*
X331344651Y90773655D02*
X331106556Y90059369D01*
X331106556Y90059369D02*
X331725603Y90059369D01*
X317583333Y164675180D02*
X317250000Y165151371D01*
X317011905Y164675180D02*
X317011905Y165675180D01*
X317011905Y165675180D02*
X317392857Y165675180D01*
X317392857Y165675180D02*
X317488095Y165627561D01*
X317488095Y165627561D02*
X317535714Y165579942D01*
X317535714Y165579942D02*
X317583333Y165484704D01*
X317583333Y165484704D02*
X317583333Y165341847D01*
X317583333Y165341847D02*
X317535714Y165246609D01*
X317535714Y165246609D02*
X317488095Y165198990D01*
X317488095Y165198990D02*
X317392857Y165151371D01*
X317392857Y165151371D02*
X317011905Y165151371D01*
X318488095Y165675180D02*
X318011905Y165675180D01*
X318011905Y165675180D02*
X317964286Y165198990D01*
X317964286Y165198990D02*
X318011905Y165246609D01*
X318011905Y165246609D02*
X318107143Y165294228D01*
X318107143Y165294228D02*
X318345238Y165294228D01*
X318345238Y165294228D02*
X318440476Y165246609D01*
X318440476Y165246609D02*
X318488095Y165198990D01*
X318488095Y165198990D02*
X318535714Y165103752D01*
X318535714Y165103752D02*
X318535714Y164865657D01*
X318535714Y164865657D02*
X318488095Y164770419D01*
X318488095Y164770419D02*
X318440476Y164722800D01*
X318440476Y164722800D02*
X318345238Y164675180D01*
X318345238Y164675180D02*
X318107143Y164675180D01*
X318107143Y164675180D02*
X318011905Y164722800D01*
X318011905Y164722800D02*
X317964286Y164770419D01*
X39944175Y110006035D02*
X39944175Y111006035D01*
X39944175Y110529845D02*
X40515603Y110529845D01*
X40515603Y110006035D02*
X40515603Y111006035D01*
X40944175Y110910797D02*
X40991794Y110958416D01*
X40991794Y110958416D02*
X41087032Y111006035D01*
X41087032Y111006035D02*
X41325127Y111006035D01*
X41325127Y111006035D02*
X41420365Y110958416D01*
X41420365Y110958416D02*
X41467984Y110910797D01*
X41467984Y110910797D02*
X41515603Y110815559D01*
X41515603Y110815559D02*
X41515603Y110720321D01*
X41515603Y110720321D02*
X41467984Y110577464D01*
X41467984Y110577464D02*
X40896556Y110006035D01*
X40896556Y110006035D02*
X41515603Y110006035D01*
X41896556Y110910797D02*
X41944175Y110958416D01*
X41944175Y110958416D02*
X42039413Y111006035D01*
X42039413Y111006035D02*
X42277508Y111006035D01*
X42277508Y111006035D02*
X42372746Y110958416D01*
X42372746Y110958416D02*
X42420365Y110910797D01*
X42420365Y110910797D02*
X42467984Y110815559D01*
X42467984Y110815559D02*
X42467984Y110720321D01*
X42467984Y110720321D02*
X42420365Y110577464D01*
X42420365Y110577464D02*
X41848937Y110006035D01*
X41848937Y110006035D02*
X42467984Y110006035D01*
X45180365Y151636035D02*
X45180365Y152636035D01*
X45180365Y152159845D02*
X45751793Y152159845D01*
X45751793Y151636035D02*
X45751793Y152636035D01*
X46370841Y152207464D02*
X46275603Y152255083D01*
X46275603Y152255083D02*
X46227984Y152302702D01*
X46227984Y152302702D02*
X46180365Y152397940D01*
X46180365Y152397940D02*
X46180365Y152445559D01*
X46180365Y152445559D02*
X46227984Y152540797D01*
X46227984Y152540797D02*
X46275603Y152588416D01*
X46275603Y152588416D02*
X46370841Y152636035D01*
X46370841Y152636035D02*
X46561317Y152636035D01*
X46561317Y152636035D02*
X46656555Y152588416D01*
X46656555Y152588416D02*
X46704174Y152540797D01*
X46704174Y152540797D02*
X46751793Y152445559D01*
X46751793Y152445559D02*
X46751793Y152397940D01*
X46751793Y152397940D02*
X46704174Y152302702D01*
X46704174Y152302702D02*
X46656555Y152255083D01*
X46656555Y152255083D02*
X46561317Y152207464D01*
X46561317Y152207464D02*
X46370841Y152207464D01*
X46370841Y152207464D02*
X46275603Y152159845D01*
X46275603Y152159845D02*
X46227984Y152112226D01*
X46227984Y152112226D02*
X46180365Y152016988D01*
X46180365Y152016988D02*
X46180365Y151826512D01*
X46180365Y151826512D02*
X46227984Y151731274D01*
X46227984Y151731274D02*
X46275603Y151683655D01*
X46275603Y151683655D02*
X46370841Y151636035D01*
X46370841Y151636035D02*
X46561317Y151636035D01*
X46561317Y151636035D02*
X46656555Y151683655D01*
X46656555Y151683655D02*
X46704174Y151731274D01*
X46704174Y151731274D02*
X46751793Y151826512D01*
X46751793Y151826512D02*
X46751793Y152016988D01*
X46751793Y152016988D02*
X46704174Y152112226D01*
X46704174Y152112226D02*
X46656555Y152159845D01*
X46656555Y152159845D02*
X46561317Y152207464D01*
X271474819Y193416666D02*
X272189104Y193416666D01*
X272189104Y193416666D02*
X272331961Y193369047D01*
X272331961Y193369047D02*
X272427200Y193273809D01*
X272427200Y193273809D02*
X272474819Y193130952D01*
X272474819Y193130952D02*
X272474819Y193035714D01*
X271474819Y193797619D02*
X271474819Y194464285D01*
X271474819Y194464285D02*
X272474819Y194035714D01*
X189204761Y189160180D02*
X188871428Y189636371D01*
X188633333Y189160180D02*
X188633333Y190160180D01*
X188633333Y190160180D02*
X189014285Y190160180D01*
X189014285Y190160180D02*
X189109523Y190112561D01*
X189109523Y190112561D02*
X189157142Y190064942D01*
X189157142Y190064942D02*
X189204761Y189969704D01*
X189204761Y189969704D02*
X189204761Y189826847D01*
X189204761Y189826847D02*
X189157142Y189731609D01*
X189157142Y189731609D02*
X189109523Y189683990D01*
X189109523Y189683990D02*
X189014285Y189636371D01*
X189014285Y189636371D02*
X188633333Y189636371D01*
X189490476Y190160180D02*
X189823809Y189160180D01*
X189823809Y189160180D02*
X190157142Y190160180D01*
X190538095Y189160180D02*
X190728571Y189160180D01*
X190728571Y189160180D02*
X190823809Y189207800D01*
X190823809Y189207800D02*
X190871428Y189255419D01*
X190871428Y189255419D02*
X190966666Y189398276D01*
X190966666Y189398276D02*
X191014285Y189588752D01*
X191014285Y189588752D02*
X191014285Y189969704D01*
X191014285Y189969704D02*
X190966666Y190064942D01*
X190966666Y190064942D02*
X190919047Y190112561D01*
X190919047Y190112561D02*
X190823809Y190160180D01*
X190823809Y190160180D02*
X190633333Y190160180D01*
X190633333Y190160180D02*
X190538095Y190112561D01*
X190538095Y190112561D02*
X190490476Y190064942D01*
X190490476Y190064942D02*
X190442857Y189969704D01*
X190442857Y189969704D02*
X190442857Y189731609D01*
X190442857Y189731609D02*
X190490476Y189636371D01*
X190490476Y189636371D02*
X190538095Y189588752D01*
X190538095Y189588752D02*
X190633333Y189541133D01*
X190633333Y189541133D02*
X190823809Y189541133D01*
X190823809Y189541133D02*
X190919047Y189588752D01*
X190919047Y189588752D02*
X190966666Y189636371D01*
X190966666Y189636371D02*
X191014285Y189731609D01*
X74869761Y189200180D02*
X74536428Y189676371D01*
X74298333Y189200180D02*
X74298333Y190200180D01*
X74298333Y190200180D02*
X74679285Y190200180D01*
X74679285Y190200180D02*
X74774523Y190152561D01*
X74774523Y190152561D02*
X74822142Y190104942D01*
X74822142Y190104942D02*
X74869761Y190009704D01*
X74869761Y190009704D02*
X74869761Y189866847D01*
X74869761Y189866847D02*
X74822142Y189771609D01*
X74822142Y189771609D02*
X74774523Y189723990D01*
X74774523Y189723990D02*
X74679285Y189676371D01*
X74679285Y189676371D02*
X74298333Y189676371D01*
X75155476Y190200180D02*
X75488809Y189200180D01*
X75488809Y189200180D02*
X75822142Y190200180D01*
X76584047Y189866847D02*
X76584047Y189200180D01*
X76345952Y190247800D02*
X76107857Y189533514D01*
X76107857Y189533514D02*
X76726904Y189533514D01*
X412754819Y174729166D02*
X413469104Y174729166D01*
X413469104Y174729166D02*
X413611961Y174681547D01*
X413611961Y174681547D02*
X413707200Y174586309D01*
X413707200Y174586309D02*
X413754819Y174443452D01*
X413754819Y174443452D02*
X413754819Y174348214D01*
X413754819Y175729166D02*
X413754819Y175157738D01*
X413754819Y175443452D02*
X412754819Y175443452D01*
X412754819Y175443452D02*
X412897676Y175348214D01*
X412897676Y175348214D02*
X412992914Y175252976D01*
X412992914Y175252976D02*
X413040533Y175157738D01*
X141584761Y189170180D02*
X141251428Y189646371D01*
X141013333Y189170180D02*
X141013333Y190170180D01*
X141013333Y190170180D02*
X141394285Y190170180D01*
X141394285Y190170180D02*
X141489523Y190122561D01*
X141489523Y190122561D02*
X141537142Y190074942D01*
X141537142Y190074942D02*
X141584761Y189979704D01*
X141584761Y189979704D02*
X141584761Y189836847D01*
X141584761Y189836847D02*
X141537142Y189741609D01*
X141537142Y189741609D02*
X141489523Y189693990D01*
X141489523Y189693990D02*
X141394285Y189646371D01*
X141394285Y189646371D02*
X141013333Y189646371D01*
X141870476Y190170180D02*
X142203809Y189170180D01*
X142203809Y189170180D02*
X142537142Y190170180D01*
X142775238Y190170180D02*
X143441904Y190170180D01*
X143441904Y190170180D02*
X143013333Y189170180D01*
X405484175Y109966035D02*
X405484175Y110966035D01*
X405484175Y110489845D02*
X406055603Y110489845D01*
X406055603Y109966035D02*
X406055603Y110966035D01*
X406484175Y110870797D02*
X406531794Y110918416D01*
X406531794Y110918416D02*
X406627032Y110966035D01*
X406627032Y110966035D02*
X406865127Y110966035D01*
X406865127Y110966035D02*
X406960365Y110918416D01*
X406960365Y110918416D02*
X407007984Y110870797D01*
X407007984Y110870797D02*
X407055603Y110775559D01*
X407055603Y110775559D02*
X407055603Y110680321D01*
X407055603Y110680321D02*
X407007984Y110537464D01*
X407007984Y110537464D02*
X406436556Y109966035D01*
X406436556Y109966035D02*
X407055603Y109966035D01*
X407627032Y110537464D02*
X407531794Y110585083D01*
X407531794Y110585083D02*
X407484175Y110632702D01*
X407484175Y110632702D02*
X407436556Y110727940D01*
X407436556Y110727940D02*
X407436556Y110775559D01*
X407436556Y110775559D02*
X407484175Y110870797D01*
X407484175Y110870797D02*
X407531794Y110918416D01*
X407531794Y110918416D02*
X407627032Y110966035D01*
X407627032Y110966035D02*
X407817508Y110966035D01*
X407817508Y110966035D02*
X407912746Y110918416D01*
X407912746Y110918416D02*
X407960365Y110870797D01*
X407960365Y110870797D02*
X408007984Y110775559D01*
X408007984Y110775559D02*
X408007984Y110727940D01*
X408007984Y110727940D02*
X407960365Y110632702D01*
X407960365Y110632702D02*
X407912746Y110585083D01*
X407912746Y110585083D02*
X407817508Y110537464D01*
X407817508Y110537464D02*
X407627032Y110537464D01*
X407627032Y110537464D02*
X407531794Y110489845D01*
X407531794Y110489845D02*
X407484175Y110442226D01*
X407484175Y110442226D02*
X407436556Y110346988D01*
X407436556Y110346988D02*
X407436556Y110156512D01*
X407436556Y110156512D02*
X407484175Y110061274D01*
X407484175Y110061274D02*
X407531794Y110013655D01*
X407531794Y110013655D02*
X407627032Y109966035D01*
X407627032Y109966035D02*
X407817508Y109966035D01*
X407817508Y109966035D02*
X407912746Y110013655D01*
X407912746Y110013655D02*
X407960365Y110061274D01*
X407960365Y110061274D02*
X408007984Y110156512D01*
X408007984Y110156512D02*
X408007984Y110346988D01*
X408007984Y110346988D02*
X407960365Y110442226D01*
X407960365Y110442226D02*
X407912746Y110489845D01*
X407912746Y110489845D02*
X407817508Y110537464D01*
X317083333Y198665180D02*
X316750000Y199141371D01*
X316511905Y198665180D02*
X316511905Y199665180D01*
X316511905Y199665180D02*
X316892857Y199665180D01*
X316892857Y199665180D02*
X316988095Y199617561D01*
X316988095Y199617561D02*
X317035714Y199569942D01*
X317035714Y199569942D02*
X317083333Y199474704D01*
X317083333Y199474704D02*
X317083333Y199331847D01*
X317083333Y199331847D02*
X317035714Y199236609D01*
X317035714Y199236609D02*
X316988095Y199188990D01*
X316988095Y199188990D02*
X316892857Y199141371D01*
X316892857Y199141371D02*
X316511905Y199141371D01*
X317654762Y199236609D02*
X317559524Y199284228D01*
X317559524Y199284228D02*
X317511905Y199331847D01*
X317511905Y199331847D02*
X317464286Y199427085D01*
X317464286Y199427085D02*
X317464286Y199474704D01*
X317464286Y199474704D02*
X317511905Y199569942D01*
X317511905Y199569942D02*
X317559524Y199617561D01*
X317559524Y199617561D02*
X317654762Y199665180D01*
X317654762Y199665180D02*
X317845238Y199665180D01*
X317845238Y199665180D02*
X317940476Y199617561D01*
X317940476Y199617561D02*
X317988095Y199569942D01*
X317988095Y199569942D02*
X318035714Y199474704D01*
X318035714Y199474704D02*
X318035714Y199427085D01*
X318035714Y199427085D02*
X317988095Y199331847D01*
X317988095Y199331847D02*
X317940476Y199284228D01*
X317940476Y199284228D02*
X317845238Y199236609D01*
X317845238Y199236609D02*
X317654762Y199236609D01*
X317654762Y199236609D02*
X317559524Y199188990D01*
X317559524Y199188990D02*
X317511905Y199141371D01*
X317511905Y199141371D02*
X317464286Y199046133D01*
X317464286Y199046133D02*
X317464286Y198855657D01*
X317464286Y198855657D02*
X317511905Y198760419D01*
X317511905Y198760419D02*
X317559524Y198712800D01*
X317559524Y198712800D02*
X317654762Y198665180D01*
X317654762Y198665180D02*
X317845238Y198665180D01*
X317845238Y198665180D02*
X317940476Y198712800D01*
X317940476Y198712800D02*
X317988095Y198760419D01*
X317988095Y198760419D02*
X318035714Y198855657D01*
X318035714Y198855657D02*
X318035714Y199046133D01*
X318035714Y199046133D02*
X317988095Y199141371D01*
X317988095Y199141371D02*
X317940476Y199188990D01*
X317940476Y199188990D02*
X317845238Y199236609D01*
X405484175Y89596035D02*
X405484175Y90596035D01*
X405484175Y90119845D02*
X406055603Y90119845D01*
X406055603Y89596035D02*
X406055603Y90596035D01*
X406436556Y90596035D02*
X407055603Y90596035D01*
X407055603Y90596035D02*
X406722270Y90215083D01*
X406722270Y90215083D02*
X406865127Y90215083D01*
X406865127Y90215083D02*
X406960365Y90167464D01*
X406960365Y90167464D02*
X407007984Y90119845D01*
X407007984Y90119845D02*
X407055603Y90024607D01*
X407055603Y90024607D02*
X407055603Y89786512D01*
X407055603Y89786512D02*
X407007984Y89691274D01*
X407007984Y89691274D02*
X406960365Y89643655D01*
X406960365Y89643655D02*
X406865127Y89596035D01*
X406865127Y89596035D02*
X406579413Y89596035D01*
X406579413Y89596035D02*
X406484175Y89643655D01*
X406484175Y89643655D02*
X406436556Y89691274D01*
X407960365Y90596035D02*
X407484175Y90596035D01*
X407484175Y90596035D02*
X407436556Y90119845D01*
X407436556Y90119845D02*
X407484175Y90167464D01*
X407484175Y90167464D02*
X407579413Y90215083D01*
X407579413Y90215083D02*
X407817508Y90215083D01*
X407817508Y90215083D02*
X407912746Y90167464D01*
X407912746Y90167464D02*
X407960365Y90119845D01*
X407960365Y90119845D02*
X408007984Y90024607D01*
X408007984Y90024607D02*
X408007984Y89786512D01*
X408007984Y89786512D02*
X407960365Y89691274D01*
X407960365Y89691274D02*
X407912746Y89643655D01*
X407912746Y89643655D02*
X407817508Y89596035D01*
X407817508Y89596035D02*
X407579413Y89596035D01*
X407579413Y89596035D02*
X407484175Y89643655D01*
X407484175Y89643655D02*
X407436556Y89691274D01*
X263134175Y69096035D02*
X263134175Y70096035D01*
X263134175Y69619845D02*
X263705603Y69619845D01*
X263705603Y69096035D02*
X263705603Y70096035D01*
X264610365Y69762702D02*
X264610365Y69096035D01*
X264372270Y70143655D02*
X264134175Y69429369D01*
X264134175Y69429369D02*
X264753222Y69429369D01*
X265657984Y69096035D02*
X265086556Y69096035D01*
X265372270Y69096035D02*
X265372270Y70096035D01*
X265372270Y70096035D02*
X265277032Y69953178D01*
X265277032Y69953178D02*
X265181794Y69857940D01*
X265181794Y69857940D02*
X265086556Y69810321D01*
X301234175Y172336035D02*
X301234175Y173336035D01*
X301234175Y172859845D02*
X301805603Y172859845D01*
X301805603Y172336035D02*
X301805603Y173336035D01*
X302757984Y173336035D02*
X302281794Y173336035D01*
X302281794Y173336035D02*
X302234175Y172859845D01*
X302234175Y172859845D02*
X302281794Y172907464D01*
X302281794Y172907464D02*
X302377032Y172955083D01*
X302377032Y172955083D02*
X302615127Y172955083D01*
X302615127Y172955083D02*
X302710365Y172907464D01*
X302710365Y172907464D02*
X302757984Y172859845D01*
X302757984Y172859845D02*
X302805603Y172764607D01*
X302805603Y172764607D02*
X302805603Y172526512D01*
X302805603Y172526512D02*
X302757984Y172431274D01*
X302757984Y172431274D02*
X302710365Y172383655D01*
X302710365Y172383655D02*
X302615127Y172336035D01*
X302615127Y172336035D02*
X302377032Y172336035D01*
X302377032Y172336035D02*
X302281794Y172383655D01*
X302281794Y172383655D02*
X302234175Y172431274D01*
X303377032Y172907464D02*
X303281794Y172955083D01*
X303281794Y172955083D02*
X303234175Y173002702D01*
X303234175Y173002702D02*
X303186556Y173097940D01*
X303186556Y173097940D02*
X303186556Y173145559D01*
X303186556Y173145559D02*
X303234175Y173240797D01*
X303234175Y173240797D02*
X303281794Y173288416D01*
X303281794Y173288416D02*
X303377032Y173336035D01*
X303377032Y173336035D02*
X303567508Y173336035D01*
X303567508Y173336035D02*
X303662746Y173288416D01*
X303662746Y173288416D02*
X303710365Y173240797D01*
X303710365Y173240797D02*
X303757984Y173145559D01*
X303757984Y173145559D02*
X303757984Y173097940D01*
X303757984Y173097940D02*
X303710365Y173002702D01*
X303710365Y173002702D02*
X303662746Y172955083D01*
X303662746Y172955083D02*
X303567508Y172907464D01*
X303567508Y172907464D02*
X303377032Y172907464D01*
X303377032Y172907464D02*
X303281794Y172859845D01*
X303281794Y172859845D02*
X303234175Y172812226D01*
X303234175Y172812226D02*
X303186556Y172716988D01*
X303186556Y172716988D02*
X303186556Y172526512D01*
X303186556Y172526512D02*
X303234175Y172431274D01*
X303234175Y172431274D02*
X303281794Y172383655D01*
X303281794Y172383655D02*
X303377032Y172336035D01*
X303377032Y172336035D02*
X303567508Y172336035D01*
X303567508Y172336035D02*
X303662746Y172383655D01*
X303662746Y172383655D02*
X303710365Y172431274D01*
X303710365Y172431274D02*
X303757984Y172526512D01*
X303757984Y172526512D02*
X303757984Y172716988D01*
X303757984Y172716988D02*
X303710365Y172812226D01*
X303710365Y172812226D02*
X303662746Y172859845D01*
X303662746Y172859845D02*
X303567508Y172907464D01*
X268166666Y188735180D02*
X268166666Y188020895D01*
X268166666Y188020895D02*
X268119047Y187878038D01*
X268119047Y187878038D02*
X268023809Y187782800D01*
X268023809Y187782800D02*
X267880952Y187735180D01*
X267880952Y187735180D02*
X267785714Y187735180D01*
X268547619Y188735180D02*
X269166666Y188735180D01*
X269166666Y188735180D02*
X268833333Y188354228D01*
X268833333Y188354228D02*
X268976190Y188354228D01*
X268976190Y188354228D02*
X269071428Y188306609D01*
X269071428Y188306609D02*
X269119047Y188258990D01*
X269119047Y188258990D02*
X269166666Y188163752D01*
X269166666Y188163752D02*
X269166666Y187925657D01*
X269166666Y187925657D02*
X269119047Y187830419D01*
X269119047Y187830419D02*
X269071428Y187782800D01*
X269071428Y187782800D02*
X268976190Y187735180D01*
X268976190Y187735180D02*
X268690476Y187735180D01*
X268690476Y187735180D02*
X268595238Y187782800D01*
X268595238Y187782800D02*
X268547619Y187830419D01*
X164164175Y69086035D02*
X164164175Y70086035D01*
X164164175Y69609845D02*
X164735603Y69609845D01*
X164735603Y69086035D02*
X164735603Y70086035D01*
X165116556Y70086035D02*
X165735603Y70086035D01*
X165735603Y70086035D02*
X165402270Y69705083D01*
X165402270Y69705083D02*
X165545127Y69705083D01*
X165545127Y69705083D02*
X165640365Y69657464D01*
X165640365Y69657464D02*
X165687984Y69609845D01*
X165687984Y69609845D02*
X165735603Y69514607D01*
X165735603Y69514607D02*
X165735603Y69276512D01*
X165735603Y69276512D02*
X165687984Y69181274D01*
X165687984Y69181274D02*
X165640365Y69133655D01*
X165640365Y69133655D02*
X165545127Y69086035D01*
X165545127Y69086035D02*
X165259413Y69086035D01*
X165259413Y69086035D02*
X165164175Y69133655D01*
X165164175Y69133655D02*
X165116556Y69181274D01*
X166211794Y69086035D02*
X166402270Y69086035D01*
X166402270Y69086035D02*
X166497508Y69133655D01*
X166497508Y69133655D02*
X166545127Y69181274D01*
X166545127Y69181274D02*
X166640365Y69324131D01*
X166640365Y69324131D02*
X166687984Y69514607D01*
X166687984Y69514607D02*
X166687984Y69895559D01*
X166687984Y69895559D02*
X166640365Y69990797D01*
X166640365Y69990797D02*
X166592746Y70038416D01*
X166592746Y70038416D02*
X166497508Y70086035D01*
X166497508Y70086035D02*
X166307032Y70086035D01*
X166307032Y70086035D02*
X166211794Y70038416D01*
X166211794Y70038416D02*
X166164175Y69990797D01*
X166164175Y69990797D02*
X166116556Y69895559D01*
X166116556Y69895559D02*
X166116556Y69657464D01*
X166116556Y69657464D02*
X166164175Y69562226D01*
X166164175Y69562226D02*
X166211794Y69514607D01*
X166211794Y69514607D02*
X166307032Y69466988D01*
X166307032Y69466988D02*
X166497508Y69466988D01*
X166497508Y69466988D02*
X166592746Y69514607D01*
X166592746Y69514607D02*
X166640365Y69562226D01*
X166640365Y69562226D02*
X166687984Y69657464D01*
X125674175Y89846035D02*
X125674175Y90846035D01*
X125674175Y90369845D02*
X126245603Y90369845D01*
X126245603Y89846035D02*
X126245603Y90846035D01*
X126626556Y90846035D02*
X127245603Y90846035D01*
X127245603Y90846035D02*
X126912270Y90465083D01*
X126912270Y90465083D02*
X127055127Y90465083D01*
X127055127Y90465083D02*
X127150365Y90417464D01*
X127150365Y90417464D02*
X127197984Y90369845D01*
X127197984Y90369845D02*
X127245603Y90274607D01*
X127245603Y90274607D02*
X127245603Y90036512D01*
X127245603Y90036512D02*
X127197984Y89941274D01*
X127197984Y89941274D02*
X127150365Y89893655D01*
X127150365Y89893655D02*
X127055127Y89846035D01*
X127055127Y89846035D02*
X126769413Y89846035D01*
X126769413Y89846035D02*
X126674175Y89893655D01*
X126674175Y89893655D02*
X126626556Y89941274D01*
X128197984Y89846035D02*
X127626556Y89846035D01*
X127912270Y89846035D02*
X127912270Y90846035D01*
X127912270Y90846035D02*
X127817032Y90703178D01*
X127817032Y90703178D02*
X127721794Y90607940D01*
X127721794Y90607940D02*
X127626556Y90560321D01*
X-12445824Y172126035D02*
X-12445824Y173126035D01*
X-12445824Y172649845D02*
X-11874396Y172649845D01*
X-11874396Y172126035D02*
X-11874396Y173126035D01*
X-10922015Y173126035D02*
X-11398205Y173126035D01*
X-11398205Y173126035D02*
X-11445824Y172649845D01*
X-11445824Y172649845D02*
X-11398205Y172697464D01*
X-11398205Y172697464D02*
X-11302967Y172745083D01*
X-11302967Y172745083D02*
X-11064872Y172745083D01*
X-11064872Y172745083D02*
X-10969634Y172697464D01*
X-10969634Y172697464D02*
X-10922015Y172649845D01*
X-10922015Y172649845D02*
X-10874396Y172554607D01*
X-10874396Y172554607D02*
X-10874396Y172316512D01*
X-10874396Y172316512D02*
X-10922015Y172221274D01*
X-10922015Y172221274D02*
X-10969634Y172173655D01*
X-10969634Y172173655D02*
X-11064872Y172126035D01*
X-11064872Y172126035D02*
X-11302967Y172126035D01*
X-11302967Y172126035D02*
X-11398205Y172173655D01*
X-11398205Y172173655D02*
X-11445824Y172221274D01*
X-10493443Y173030797D02*
X-10445824Y173078416D01*
X-10445824Y173078416D02*
X-10350586Y173126035D01*
X-10350586Y173126035D02*
X-10112491Y173126035D01*
X-10112491Y173126035D02*
X-10017253Y173078416D01*
X-10017253Y173078416D02*
X-9969634Y173030797D01*
X-9969634Y173030797D02*
X-9922015Y172935559D01*
X-9922015Y172935559D02*
X-9922015Y172840321D01*
X-9922015Y172840321D02*
X-9969634Y172697464D01*
X-9969634Y172697464D02*
X-10541062Y172126035D01*
X-10541062Y172126035D02*
X-9922015Y172126035D01*
X159004175Y151766035D02*
X159004175Y152766035D01*
X159004175Y152289845D02*
X159575603Y152289845D01*
X159575603Y151766035D02*
X159575603Y152766035D01*
X160575603Y151766035D02*
X160004175Y151766035D01*
X160289889Y151766035D02*
X160289889Y152766035D01*
X160289889Y152766035D02*
X160194651Y152623178D01*
X160194651Y152623178D02*
X160099413Y152527940D01*
X160099413Y152527940D02*
X160004175Y152480321D01*
X161194651Y152766035D02*
X161289889Y152766035D01*
X161289889Y152766035D02*
X161385127Y152718416D01*
X161385127Y152718416D02*
X161432746Y152670797D01*
X161432746Y152670797D02*
X161480365Y152575559D01*
X161480365Y152575559D02*
X161527984Y152385083D01*
X161527984Y152385083D02*
X161527984Y152146988D01*
X161527984Y152146988D02*
X161480365Y151956512D01*
X161480365Y151956512D02*
X161432746Y151861274D01*
X161432746Y151861274D02*
X161385127Y151813655D01*
X161385127Y151813655D02*
X161289889Y151766035D01*
X161289889Y151766035D02*
X161194651Y151766035D01*
X161194651Y151766035D02*
X161099413Y151813655D01*
X161099413Y151813655D02*
X161051794Y151861274D01*
X161051794Y151861274D02*
X161004175Y151956512D01*
X161004175Y151956512D02*
X160956556Y152146988D01*
X160956556Y152146988D02*
X160956556Y152385083D01*
X160956556Y152385083D02*
X161004175Y152575559D01*
X161004175Y152575559D02*
X161051794Y152670797D01*
X161051794Y152670797D02*
X161099413Y152718416D01*
X161099413Y152718416D02*
X161194651Y152766035D01*
X102330365Y151756035D02*
X102330365Y152756035D01*
X102330365Y152279845D02*
X102901793Y152279845D01*
X102901793Y151756035D02*
X102901793Y152756035D01*
X103425603Y151756035D02*
X103616079Y151756035D01*
X103616079Y151756035D02*
X103711317Y151803655D01*
X103711317Y151803655D02*
X103758936Y151851274D01*
X103758936Y151851274D02*
X103854174Y151994131D01*
X103854174Y151994131D02*
X103901793Y152184607D01*
X103901793Y152184607D02*
X103901793Y152565559D01*
X103901793Y152565559D02*
X103854174Y152660797D01*
X103854174Y152660797D02*
X103806555Y152708416D01*
X103806555Y152708416D02*
X103711317Y152756035D01*
X103711317Y152756035D02*
X103520841Y152756035D01*
X103520841Y152756035D02*
X103425603Y152708416D01*
X103425603Y152708416D02*
X103377984Y152660797D01*
X103377984Y152660797D02*
X103330365Y152565559D01*
X103330365Y152565559D02*
X103330365Y152327464D01*
X103330365Y152327464D02*
X103377984Y152232226D01*
X103377984Y152232226D02*
X103425603Y152184607D01*
X103425603Y152184607D02*
X103520841Y152136988D01*
X103520841Y152136988D02*
X103711317Y152136988D01*
X103711317Y152136988D02*
X103806555Y152184607D01*
X103806555Y152184607D02*
X103854174Y152232226D01*
X103854174Y152232226D02*
X103901793Y152327464D01*
X17674761Y189170180D02*
X17341428Y189646371D01*
X17103333Y189170180D02*
X17103333Y190170180D01*
X17103333Y190170180D02*
X17484285Y190170180D01*
X17484285Y190170180D02*
X17579523Y190122561D01*
X17579523Y190122561D02*
X17627142Y190074942D01*
X17627142Y190074942D02*
X17674761Y189979704D01*
X17674761Y189979704D02*
X17674761Y189836847D01*
X17674761Y189836847D02*
X17627142Y189741609D01*
X17627142Y189741609D02*
X17579523Y189693990D01*
X17579523Y189693990D02*
X17484285Y189646371D01*
X17484285Y189646371D02*
X17103333Y189646371D01*
X17960476Y190170180D02*
X18293809Y189170180D01*
X18293809Y189170180D02*
X18627142Y190170180D01*
X19484285Y189170180D02*
X18912857Y189170180D01*
X19198571Y189170180D02*
X19198571Y190170180D01*
X19198571Y190170180D02*
X19103333Y190027323D01*
X19103333Y190027323D02*
X19008095Y189932085D01*
X19008095Y189932085D02*
X18912857Y189884466D01*
X405484175Y68846035D02*
X405484175Y69846035D01*
X405484175Y69369845D02*
X406055603Y69369845D01*
X406055603Y68846035D02*
X406055603Y69846035D01*
X406960365Y69512702D02*
X406960365Y68846035D01*
X406722270Y69893655D02*
X406484175Y69179369D01*
X406484175Y69179369D02*
X407103222Y69179369D01*
X407388937Y69846035D02*
X408007984Y69846035D01*
X408007984Y69846035D02*
X407674651Y69465083D01*
X407674651Y69465083D02*
X407817508Y69465083D01*
X407817508Y69465083D02*
X407912746Y69417464D01*
X407912746Y69417464D02*
X407960365Y69369845D01*
X407960365Y69369845D02*
X408007984Y69274607D01*
X408007984Y69274607D02*
X408007984Y69036512D01*
X408007984Y69036512D02*
X407960365Y68941274D01*
X407960365Y68941274D02*
X407912746Y68893655D01*
X407912746Y68893655D02*
X407817508Y68846035D01*
X407817508Y68846035D02*
X407531794Y68846035D01*
X407531794Y68846035D02*
X407436556Y68893655D01*
X407436556Y68893655D02*
X407388937Y68941274D01*
X36709761Y189120180D02*
X36376428Y189596371D01*
X36138333Y189120180D02*
X36138333Y190120180D01*
X36138333Y190120180D02*
X36519285Y190120180D01*
X36519285Y190120180D02*
X36614523Y190072561D01*
X36614523Y190072561D02*
X36662142Y190024942D01*
X36662142Y190024942D02*
X36709761Y189929704D01*
X36709761Y189929704D02*
X36709761Y189786847D01*
X36709761Y189786847D02*
X36662142Y189691609D01*
X36662142Y189691609D02*
X36614523Y189643990D01*
X36614523Y189643990D02*
X36519285Y189596371D01*
X36519285Y189596371D02*
X36138333Y189596371D01*
X36995476Y190120180D02*
X37328809Y189120180D01*
X37328809Y189120180D02*
X37662142Y190120180D01*
X37947857Y190024942D02*
X37995476Y190072561D01*
X37995476Y190072561D02*
X38090714Y190120180D01*
X38090714Y190120180D02*
X38328809Y190120180D01*
X38328809Y190120180D02*
X38424047Y190072561D01*
X38424047Y190072561D02*
X38471666Y190024942D01*
X38471666Y190024942D02*
X38519285Y189929704D01*
X38519285Y189929704D02*
X38519285Y189834466D01*
X38519285Y189834466D02*
X38471666Y189691609D01*
X38471666Y189691609D02*
X37900238Y189120180D01*
X37900238Y189120180D02*
X38519285Y189120180D01*
X301234175Y110126035D02*
X301234175Y111126035D01*
X301234175Y110649845D02*
X301805603Y110649845D01*
X301805603Y110126035D02*
X301805603Y111126035D01*
X302234175Y111030797D02*
X302281794Y111078416D01*
X302281794Y111078416D02*
X302377032Y111126035D01*
X302377032Y111126035D02*
X302615127Y111126035D01*
X302615127Y111126035D02*
X302710365Y111078416D01*
X302710365Y111078416D02*
X302757984Y111030797D01*
X302757984Y111030797D02*
X302805603Y110935559D01*
X302805603Y110935559D02*
X302805603Y110840321D01*
X302805603Y110840321D02*
X302757984Y110697464D01*
X302757984Y110697464D02*
X302186556Y110126035D01*
X302186556Y110126035D02*
X302805603Y110126035D01*
X303662746Y111126035D02*
X303472270Y111126035D01*
X303472270Y111126035D02*
X303377032Y111078416D01*
X303377032Y111078416D02*
X303329413Y111030797D01*
X303329413Y111030797D02*
X303234175Y110887940D01*
X303234175Y110887940D02*
X303186556Y110697464D01*
X303186556Y110697464D02*
X303186556Y110316512D01*
X303186556Y110316512D02*
X303234175Y110221274D01*
X303234175Y110221274D02*
X303281794Y110173655D01*
X303281794Y110173655D02*
X303377032Y110126035D01*
X303377032Y110126035D02*
X303567508Y110126035D01*
X303567508Y110126035D02*
X303662746Y110173655D01*
X303662746Y110173655D02*
X303710365Y110221274D01*
X303710365Y110221274D02*
X303757984Y110316512D01*
X303757984Y110316512D02*
X303757984Y110554607D01*
X303757984Y110554607D02*
X303710365Y110649845D01*
X303710365Y110649845D02*
X303662746Y110697464D01*
X303662746Y110697464D02*
X303567508Y110745083D01*
X303567508Y110745083D02*
X303377032Y110745083D01*
X303377032Y110745083D02*
X303281794Y110697464D01*
X303281794Y110697464D02*
X303234175Y110649845D01*
X303234175Y110649845D02*
X303186556Y110554607D01*
X-11969634Y151536035D02*
X-11969634Y152536035D01*
X-11969634Y152059845D02*
X-11398206Y152059845D01*
X-11398206Y151536035D02*
X-11398206Y152536035D01*
X-11017253Y152536035D02*
X-10350587Y152536035D01*
X-10350587Y152536035D02*
X-10779158Y151536035D01*
X103484761Y189185180D02*
X103151428Y189661371D01*
X102913333Y189185180D02*
X102913333Y190185180D01*
X102913333Y190185180D02*
X103294285Y190185180D01*
X103294285Y190185180D02*
X103389523Y190137561D01*
X103389523Y190137561D02*
X103437142Y190089942D01*
X103437142Y190089942D02*
X103484761Y189994704D01*
X103484761Y189994704D02*
X103484761Y189851847D01*
X103484761Y189851847D02*
X103437142Y189756609D01*
X103437142Y189756609D02*
X103389523Y189708990D01*
X103389523Y189708990D02*
X103294285Y189661371D01*
X103294285Y189661371D02*
X102913333Y189661371D01*
X103770476Y190185180D02*
X104103809Y189185180D01*
X104103809Y189185180D02*
X104437142Y190185180D01*
X105246666Y190185180D02*
X104770476Y190185180D01*
X104770476Y190185180D02*
X104722857Y189708990D01*
X104722857Y189708990D02*
X104770476Y189756609D01*
X104770476Y189756609D02*
X104865714Y189804228D01*
X104865714Y189804228D02*
X105103809Y189804228D01*
X105103809Y189804228D02*
X105199047Y189756609D01*
X105199047Y189756609D02*
X105246666Y189708990D01*
X105246666Y189708990D02*
X105294285Y189613752D01*
X105294285Y189613752D02*
X105294285Y189375657D01*
X105294285Y189375657D02*
X105246666Y189280419D01*
X105246666Y189280419D02*
X105199047Y189232800D01*
X105199047Y189232800D02*
X105103809Y189185180D01*
X105103809Y189185180D02*
X104865714Y189185180D01*
X104865714Y189185180D02*
X104770476Y189232800D01*
X104770476Y189232800D02*
X104722857Y189280419D01*
X336701905Y178465180D02*
X336701905Y179465180D01*
X336701905Y179465180D02*
X336940000Y179465180D01*
X336940000Y179465180D02*
X337082857Y179417561D01*
X337082857Y179417561D02*
X337178095Y179322323D01*
X337178095Y179322323D02*
X337225714Y179227085D01*
X337225714Y179227085D02*
X337273333Y179036609D01*
X337273333Y179036609D02*
X337273333Y178893752D01*
X337273333Y178893752D02*
X337225714Y178703276D01*
X337225714Y178703276D02*
X337178095Y178608038D01*
X337178095Y178608038D02*
X337082857Y178512800D01*
X337082857Y178512800D02*
X336940000Y178465180D01*
X336940000Y178465180D02*
X336701905Y178465180D01*
X338225714Y178465180D02*
X337654286Y178465180D01*
X337940000Y178465180D02*
X337940000Y179465180D01*
X337940000Y179465180D02*
X337844762Y179322323D01*
X337844762Y179322323D02*
X337749524Y179227085D01*
X337749524Y179227085D02*
X337654286Y179179466D01*
X204574175Y48446035D02*
X204574175Y49446035D01*
X204574175Y48969845D02*
X205145603Y48969845D01*
X205145603Y48446035D02*
X205145603Y49446035D01*
X206050365Y49112702D02*
X206050365Y48446035D01*
X205812270Y49493655D02*
X205574175Y48779369D01*
X205574175Y48779369D02*
X206193222Y48779369D01*
X206717032Y49017464D02*
X206621794Y49065083D01*
X206621794Y49065083D02*
X206574175Y49112702D01*
X206574175Y49112702D02*
X206526556Y49207940D01*
X206526556Y49207940D02*
X206526556Y49255559D01*
X206526556Y49255559D02*
X206574175Y49350797D01*
X206574175Y49350797D02*
X206621794Y49398416D01*
X206621794Y49398416D02*
X206717032Y49446035D01*
X206717032Y49446035D02*
X206907508Y49446035D01*
X206907508Y49446035D02*
X207002746Y49398416D01*
X207002746Y49398416D02*
X207050365Y49350797D01*
X207050365Y49350797D02*
X207097984Y49255559D01*
X207097984Y49255559D02*
X207097984Y49207940D01*
X207097984Y49207940D02*
X207050365Y49112702D01*
X207050365Y49112702D02*
X207002746Y49065083D01*
X207002746Y49065083D02*
X206907508Y49017464D01*
X206907508Y49017464D02*
X206717032Y49017464D01*
X206717032Y49017464D02*
X206621794Y48969845D01*
X206621794Y48969845D02*
X206574175Y48922226D01*
X206574175Y48922226D02*
X206526556Y48826988D01*
X206526556Y48826988D02*
X206526556Y48636512D01*
X206526556Y48636512D02*
X206574175Y48541274D01*
X206574175Y48541274D02*
X206621794Y48493655D01*
X206621794Y48493655D02*
X206717032Y48446035D01*
X206717032Y48446035D02*
X206907508Y48446035D01*
X206907508Y48446035D02*
X207002746Y48493655D01*
X207002746Y48493655D02*
X207050365Y48541274D01*
X207050365Y48541274D02*
X207097984Y48636512D01*
X207097984Y48636512D02*
X207097984Y48826988D01*
X207097984Y48826988D02*
X207050365Y48922226D01*
X207050365Y48922226D02*
X207002746Y48969845D01*
X207002746Y48969845D02*
X206907508Y49017464D01*
X178540365Y192976035D02*
X178540365Y193976035D01*
X178540365Y193499845D02*
X179111793Y193499845D01*
X179111793Y192976035D02*
X179111793Y193976035D01*
X180016555Y193642702D02*
X180016555Y192976035D01*
X179778460Y194023655D02*
X179540365Y193309369D01*
X179540365Y193309369D02*
X180159412Y193309369D01*
X320980365Y192946035D02*
X320980365Y193946035D01*
X320980365Y193469845D02*
X321551793Y193469845D01*
X321551793Y192946035D02*
X321551793Y193946035D01*
X322456555Y193946035D02*
X322266079Y193946035D01*
X322266079Y193946035D02*
X322170841Y193898416D01*
X322170841Y193898416D02*
X322123222Y193850797D01*
X322123222Y193850797D02*
X322027984Y193707940D01*
X322027984Y193707940D02*
X321980365Y193517464D01*
X321980365Y193517464D02*
X321980365Y193136512D01*
X321980365Y193136512D02*
X322027984Y193041274D01*
X322027984Y193041274D02*
X322075603Y192993655D01*
X322075603Y192993655D02*
X322170841Y192946035D01*
X322170841Y192946035D02*
X322361317Y192946035D01*
X322361317Y192946035D02*
X322456555Y192993655D01*
X322456555Y192993655D02*
X322504174Y193041274D01*
X322504174Y193041274D02*
X322551793Y193136512D01*
X322551793Y193136512D02*
X322551793Y193374607D01*
X322551793Y193374607D02*
X322504174Y193469845D01*
X322504174Y193469845D02*
X322456555Y193517464D01*
X322456555Y193517464D02*
X322361317Y193565083D01*
X322361317Y193565083D02*
X322170841Y193565083D01*
X322170841Y193565083D02*
X322075603Y193517464D01*
X322075603Y193517464D02*
X322027984Y193469845D01*
X322027984Y193469845D02*
X321980365Y193374607D01*
X-31029634Y192696035D02*
X-31029634Y193696035D01*
X-31029634Y193219845D02*
X-30458206Y193219845D01*
X-30458206Y192696035D02*
X-30458206Y193696035D01*
X-29458206Y192696035D02*
X-30029634Y192696035D01*
X-29743920Y192696035D02*
X-29743920Y193696035D01*
X-29743920Y193696035D02*
X-29839158Y193553178D01*
X-29839158Y193553178D02*
X-29934396Y193457940D01*
X-29934396Y193457940D02*
X-30029634Y193410321D01*
X297833333Y198665180D02*
X297500000Y199141371D01*
X297261905Y198665180D02*
X297261905Y199665180D01*
X297261905Y199665180D02*
X297642857Y199665180D01*
X297642857Y199665180D02*
X297738095Y199617561D01*
X297738095Y199617561D02*
X297785714Y199569942D01*
X297785714Y199569942D02*
X297833333Y199474704D01*
X297833333Y199474704D02*
X297833333Y199331847D01*
X297833333Y199331847D02*
X297785714Y199236609D01*
X297785714Y199236609D02*
X297738095Y199188990D01*
X297738095Y199188990D02*
X297642857Y199141371D01*
X297642857Y199141371D02*
X297261905Y199141371D01*
X298166667Y199665180D02*
X298833333Y199665180D01*
X298833333Y199665180D02*
X298404762Y198665180D01*
X346285714Y190665180D02*
X346285714Y191665180D01*
X346285714Y191665180D02*
X346523809Y191665180D01*
X346523809Y191665180D02*
X346666666Y191617561D01*
X346666666Y191617561D02*
X346761904Y191522323D01*
X346761904Y191522323D02*
X346809523Y191427085D01*
X346809523Y191427085D02*
X346857142Y191236609D01*
X346857142Y191236609D02*
X346857142Y191093752D01*
X346857142Y191093752D02*
X346809523Y190903276D01*
X346809523Y190903276D02*
X346761904Y190808038D01*
X346761904Y190808038D02*
X346666666Y190712800D01*
X346666666Y190712800D02*
X346523809Y190665180D01*
X346523809Y190665180D02*
X346285714Y190665180D01*
X347809523Y190665180D02*
X347238095Y190665180D01*
X347523809Y190665180D02*
X347523809Y191665180D01*
X347523809Y191665180D02*
X347428571Y191522323D01*
X347428571Y191522323D02*
X347333333Y191427085D01*
X347333333Y191427085D02*
X347238095Y191379466D01*
X348142857Y191665180D02*
X348761904Y191665180D01*
X348761904Y191665180D02*
X348428571Y191284228D01*
X348428571Y191284228D02*
X348571428Y191284228D01*
X348571428Y191284228D02*
X348666666Y191236609D01*
X348666666Y191236609D02*
X348714285Y191188990D01*
X348714285Y191188990D02*
X348761904Y191093752D01*
X348761904Y191093752D02*
X348761904Y190855657D01*
X348761904Y190855657D02*
X348714285Y190760419D01*
X348714285Y190760419D02*
X348666666Y190712800D01*
X348666666Y190712800D02*
X348571428Y190665180D01*
X348571428Y190665180D02*
X348285714Y190665180D01*
X348285714Y190665180D02*
X348190476Y190712800D01*
X348190476Y190712800D02*
X348142857Y190760419D01*
X343428095Y190345180D02*
X343428095Y191345180D01*
X343999523Y190345180D02*
X343570952Y190916609D01*
X343999523Y191345180D02*
X343428095Y190773752D01*
X-7345824Y68866035D02*
X-7345824Y69866035D01*
X-7345824Y69389845D02*
X-6774396Y69389845D01*
X-6774396Y68866035D02*
X-6774396Y69866035D01*
X-6393443Y69866035D02*
X-5774396Y69866035D01*
X-5774396Y69866035D02*
X-6107729Y69485083D01*
X-6107729Y69485083D02*
X-5964872Y69485083D01*
X-5964872Y69485083D02*
X-5869634Y69437464D01*
X-5869634Y69437464D02*
X-5822015Y69389845D01*
X-5822015Y69389845D02*
X-5774396Y69294607D01*
X-5774396Y69294607D02*
X-5774396Y69056512D01*
X-5774396Y69056512D02*
X-5822015Y68961274D01*
X-5822015Y68961274D02*
X-5869634Y68913655D01*
X-5869634Y68913655D02*
X-5964872Y68866035D01*
X-5964872Y68866035D02*
X-6250586Y68866035D01*
X-6250586Y68866035D02*
X-6345824Y68913655D01*
X-6345824Y68913655D02*
X-6393443Y68961274D01*
X-4917253Y69866035D02*
X-5107729Y69866035D01*
X-5107729Y69866035D02*
X-5202967Y69818416D01*
X-5202967Y69818416D02*
X-5250586Y69770797D01*
X-5250586Y69770797D02*
X-5345824Y69627940D01*
X-5345824Y69627940D02*
X-5393443Y69437464D01*
X-5393443Y69437464D02*
X-5393443Y69056512D01*
X-5393443Y69056512D02*
X-5345824Y68961274D01*
X-5345824Y68961274D02*
X-5298205Y68913655D01*
X-5298205Y68913655D02*
X-5202967Y68866035D01*
X-5202967Y68866035D02*
X-5012491Y68866035D01*
X-5012491Y68866035D02*
X-4917253Y68913655D01*
X-4917253Y68913655D02*
X-4869634Y68961274D01*
X-4869634Y68961274D02*
X-4822015Y69056512D01*
X-4822015Y69056512D02*
X-4822015Y69294607D01*
X-4822015Y69294607D02*
X-4869634Y69389845D01*
X-4869634Y69389845D02*
X-4917253Y69437464D01*
X-4917253Y69437464D02*
X-5012491Y69485083D01*
X-5012491Y69485083D02*
X-5202967Y69485083D01*
X-5202967Y69485083D02*
X-5298205Y69437464D01*
X-5298205Y69437464D02*
X-5345824Y69389845D01*
X-5345824Y69389845D02*
X-5393443Y69294607D01*
X263134175Y110146035D02*
X263134175Y111146035D01*
X263134175Y110669845D02*
X263705603Y110669845D01*
X263705603Y110146035D02*
X263705603Y111146035D01*
X264134175Y111050797D02*
X264181794Y111098416D01*
X264181794Y111098416D02*
X264277032Y111146035D01*
X264277032Y111146035D02*
X264515127Y111146035D01*
X264515127Y111146035D02*
X264610365Y111098416D01*
X264610365Y111098416D02*
X264657984Y111050797D01*
X264657984Y111050797D02*
X264705603Y110955559D01*
X264705603Y110955559D02*
X264705603Y110860321D01*
X264705603Y110860321D02*
X264657984Y110717464D01*
X264657984Y110717464D02*
X264086556Y110146035D01*
X264086556Y110146035D02*
X264705603Y110146035D01*
X265610365Y111146035D02*
X265134175Y111146035D01*
X265134175Y111146035D02*
X265086556Y110669845D01*
X265086556Y110669845D02*
X265134175Y110717464D01*
X265134175Y110717464D02*
X265229413Y110765083D01*
X265229413Y110765083D02*
X265467508Y110765083D01*
X265467508Y110765083D02*
X265562746Y110717464D01*
X265562746Y110717464D02*
X265610365Y110669845D01*
X265610365Y110669845D02*
X265657984Y110574607D01*
X265657984Y110574607D02*
X265657984Y110336512D01*
X265657984Y110336512D02*
X265610365Y110241274D01*
X265610365Y110241274D02*
X265562746Y110193655D01*
X265562746Y110193655D02*
X265467508Y110146035D01*
X265467508Y110146035D02*
X265229413Y110146035D01*
X265229413Y110146035D02*
X265134175Y110193655D01*
X265134175Y110193655D02*
X265086556Y110241274D01*
X139994175Y172376035D02*
X139994175Y173376035D01*
X139994175Y172899845D02*
X140565603Y172899845D01*
X140565603Y172376035D02*
X140565603Y173376035D01*
X141517984Y173376035D02*
X141041794Y173376035D01*
X141041794Y173376035D02*
X140994175Y172899845D01*
X140994175Y172899845D02*
X141041794Y172947464D01*
X141041794Y172947464D02*
X141137032Y172995083D01*
X141137032Y172995083D02*
X141375127Y172995083D01*
X141375127Y172995083D02*
X141470365Y172947464D01*
X141470365Y172947464D02*
X141517984Y172899845D01*
X141517984Y172899845D02*
X141565603Y172804607D01*
X141565603Y172804607D02*
X141565603Y172566512D01*
X141565603Y172566512D02*
X141517984Y172471274D01*
X141517984Y172471274D02*
X141470365Y172423655D01*
X141470365Y172423655D02*
X141375127Y172376035D01*
X141375127Y172376035D02*
X141137032Y172376035D01*
X141137032Y172376035D02*
X141041794Y172423655D01*
X141041794Y172423655D02*
X140994175Y172471274D01*
X142470365Y173376035D02*
X141994175Y173376035D01*
X141994175Y173376035D02*
X141946556Y172899845D01*
X141946556Y172899845D02*
X141994175Y172947464D01*
X141994175Y172947464D02*
X142089413Y172995083D01*
X142089413Y172995083D02*
X142327508Y172995083D01*
X142327508Y172995083D02*
X142422746Y172947464D01*
X142422746Y172947464D02*
X142470365Y172899845D01*
X142470365Y172899845D02*
X142517984Y172804607D01*
X142517984Y172804607D02*
X142517984Y172566512D01*
X142517984Y172566512D02*
X142470365Y172471274D01*
X142470365Y172471274D02*
X142422746Y172423655D01*
X142422746Y172423655D02*
X142327508Y172376035D01*
X142327508Y172376035D02*
X142089413Y172376035D01*
X142089413Y172376035D02*
X141994175Y172423655D01*
X141994175Y172423655D02*
X141946556Y172471274D01*
X367264175Y151626035D02*
X367264175Y152626035D01*
X367264175Y152149845D02*
X367835603Y152149845D01*
X367835603Y151626035D02*
X367835603Y152626035D01*
X368835603Y151626035D02*
X368264175Y151626035D01*
X368549889Y151626035D02*
X368549889Y152626035D01*
X368549889Y152626035D02*
X368454651Y152483178D01*
X368454651Y152483178D02*
X368359413Y152387940D01*
X368359413Y152387940D02*
X368264175Y152340321D01*
X369168937Y152626035D02*
X369787984Y152626035D01*
X369787984Y152626035D02*
X369454651Y152245083D01*
X369454651Y152245083D02*
X369597508Y152245083D01*
X369597508Y152245083D02*
X369692746Y152197464D01*
X369692746Y152197464D02*
X369740365Y152149845D01*
X369740365Y152149845D02*
X369787984Y152054607D01*
X369787984Y152054607D02*
X369787984Y151816512D01*
X369787984Y151816512D02*
X369740365Y151721274D01*
X369740365Y151721274D02*
X369692746Y151673655D01*
X369692746Y151673655D02*
X369597508Y151626035D01*
X369597508Y151626035D02*
X369311794Y151626035D01*
X369311794Y151626035D02*
X369216556Y151673655D01*
X369216556Y151673655D02*
X369168937Y151721274D01*
X-29155824Y109926035D02*
X-29155824Y110926035D01*
X-29155824Y110449845D02*
X-28584396Y110449845D01*
X-28584396Y109926035D02*
X-28584396Y110926035D01*
X-28155824Y110830797D02*
X-28108205Y110878416D01*
X-28108205Y110878416D02*
X-28012967Y110926035D01*
X-28012967Y110926035D02*
X-27774872Y110926035D01*
X-27774872Y110926035D02*
X-27679634Y110878416D01*
X-27679634Y110878416D02*
X-27632015Y110830797D01*
X-27632015Y110830797D02*
X-27584396Y110735559D01*
X-27584396Y110735559D02*
X-27584396Y110640321D01*
X-27584396Y110640321D02*
X-27632015Y110497464D01*
X-27632015Y110497464D02*
X-28203443Y109926035D01*
X-28203443Y109926035D02*
X-27584396Y109926035D01*
X-26632015Y109926035D02*
X-27203443Y109926035D01*
X-26917729Y109926035D02*
X-26917729Y110926035D01*
X-26917729Y110926035D02*
X-27012967Y110783178D01*
X-27012967Y110783178D02*
X-27108205Y110687940D01*
X-27108205Y110687940D02*
X-27203443Y110640321D01*
X207688571Y189145180D02*
X207355238Y189621371D01*
X207117143Y189145180D02*
X207117143Y190145180D01*
X207117143Y190145180D02*
X207498095Y190145180D01*
X207498095Y190145180D02*
X207593333Y190097561D01*
X207593333Y190097561D02*
X207640952Y190049942D01*
X207640952Y190049942D02*
X207688571Y189954704D01*
X207688571Y189954704D02*
X207688571Y189811847D01*
X207688571Y189811847D02*
X207640952Y189716609D01*
X207640952Y189716609D02*
X207593333Y189668990D01*
X207593333Y189668990D02*
X207498095Y189621371D01*
X207498095Y189621371D02*
X207117143Y189621371D01*
X207974286Y190145180D02*
X208307619Y189145180D01*
X208307619Y189145180D02*
X208640952Y190145180D01*
X209498095Y189145180D02*
X208926667Y189145180D01*
X209212381Y189145180D02*
X209212381Y190145180D01*
X209212381Y190145180D02*
X209117143Y190002323D01*
X209117143Y190002323D02*
X209021905Y189907085D01*
X209021905Y189907085D02*
X208926667Y189859466D01*
X210117143Y190145180D02*
X210212381Y190145180D01*
X210212381Y190145180D02*
X210307619Y190097561D01*
X210307619Y190097561D02*
X210355238Y190049942D01*
X210355238Y190049942D02*
X210402857Y189954704D01*
X210402857Y189954704D02*
X210450476Y189764228D01*
X210450476Y189764228D02*
X210450476Y189526133D01*
X210450476Y189526133D02*
X210402857Y189335657D01*
X210402857Y189335657D02*
X210355238Y189240419D01*
X210355238Y189240419D02*
X210307619Y189192800D01*
X210307619Y189192800D02*
X210212381Y189145180D01*
X210212381Y189145180D02*
X210117143Y189145180D01*
X210117143Y189145180D02*
X210021905Y189192800D01*
X210021905Y189192800D02*
X209974286Y189240419D01*
X209974286Y189240419D02*
X209926667Y189335657D01*
X209926667Y189335657D02*
X209879048Y189526133D01*
X209879048Y189526133D02*
X209879048Y189764228D01*
X209879048Y189764228D02*
X209926667Y189954704D01*
X209926667Y189954704D02*
X209974286Y190049942D01*
X209974286Y190049942D02*
X210021905Y190097561D01*
X210021905Y190097561D02*
X210117143Y190145180D01*
X301234175Y151736035D02*
X301234175Y152736035D01*
X301234175Y152259845D02*
X301805603Y152259845D01*
X301805603Y151736035D02*
X301805603Y152736035D01*
X302805603Y151736035D02*
X302234175Y151736035D01*
X302519889Y151736035D02*
X302519889Y152736035D01*
X302519889Y152736035D02*
X302424651Y152593178D01*
X302424651Y152593178D02*
X302329413Y152497940D01*
X302329413Y152497940D02*
X302234175Y152450321D01*
X303186556Y152640797D02*
X303234175Y152688416D01*
X303234175Y152688416D02*
X303329413Y152736035D01*
X303329413Y152736035D02*
X303567508Y152736035D01*
X303567508Y152736035D02*
X303662746Y152688416D01*
X303662746Y152688416D02*
X303710365Y152640797D01*
X303710365Y152640797D02*
X303757984Y152545559D01*
X303757984Y152545559D02*
X303757984Y152450321D01*
X303757984Y152450321D02*
X303710365Y152307464D01*
X303710365Y152307464D02*
X303138937Y151736035D01*
X303138937Y151736035D02*
X303757984Y151736035D01*
X348224175Y110026035D02*
X348224175Y111026035D01*
X348224175Y110549845D02*
X348795603Y110549845D01*
X348795603Y110026035D02*
X348795603Y111026035D01*
X349224175Y110930797D02*
X349271794Y110978416D01*
X349271794Y110978416D02*
X349367032Y111026035D01*
X349367032Y111026035D02*
X349605127Y111026035D01*
X349605127Y111026035D02*
X349700365Y110978416D01*
X349700365Y110978416D02*
X349747984Y110930797D01*
X349747984Y110930797D02*
X349795603Y110835559D01*
X349795603Y110835559D02*
X349795603Y110740321D01*
X349795603Y110740321D02*
X349747984Y110597464D01*
X349747984Y110597464D02*
X349176556Y110026035D01*
X349176556Y110026035D02*
X349795603Y110026035D01*
X350128937Y111026035D02*
X350795603Y111026035D01*
X350795603Y111026035D02*
X350367032Y110026035D01*
X405484175Y48226035D02*
X405484175Y49226035D01*
X405484175Y48749845D02*
X406055603Y48749845D01*
X406055603Y48226035D02*
X406055603Y49226035D01*
X407007984Y49226035D02*
X406531794Y49226035D01*
X406531794Y49226035D02*
X406484175Y48749845D01*
X406484175Y48749845D02*
X406531794Y48797464D01*
X406531794Y48797464D02*
X406627032Y48845083D01*
X406627032Y48845083D02*
X406865127Y48845083D01*
X406865127Y48845083D02*
X406960365Y48797464D01*
X406960365Y48797464D02*
X407007984Y48749845D01*
X407007984Y48749845D02*
X407055603Y48654607D01*
X407055603Y48654607D02*
X407055603Y48416512D01*
X407055603Y48416512D02*
X407007984Y48321274D01*
X407007984Y48321274D02*
X406960365Y48273655D01*
X406960365Y48273655D02*
X406865127Y48226035D01*
X406865127Y48226035D02*
X406627032Y48226035D01*
X406627032Y48226035D02*
X406531794Y48273655D01*
X406531794Y48273655D02*
X406484175Y48321274D01*
X408007984Y48226035D02*
X407436556Y48226035D01*
X407722270Y48226035D02*
X407722270Y49226035D01*
X407722270Y49226035D02*
X407627032Y49083178D01*
X407627032Y49083178D02*
X407531794Y48987940D01*
X407531794Y48987940D02*
X407436556Y48940321D01*
X226818571Y189160180D02*
X226485238Y189636371D01*
X226247143Y189160180D02*
X226247143Y190160180D01*
X226247143Y190160180D02*
X226628095Y190160180D01*
X226628095Y190160180D02*
X226723333Y190112561D01*
X226723333Y190112561D02*
X226770952Y190064942D01*
X226770952Y190064942D02*
X226818571Y189969704D01*
X226818571Y189969704D02*
X226818571Y189826847D01*
X226818571Y189826847D02*
X226770952Y189731609D01*
X226770952Y189731609D02*
X226723333Y189683990D01*
X226723333Y189683990D02*
X226628095Y189636371D01*
X226628095Y189636371D02*
X226247143Y189636371D01*
X227104286Y190160180D02*
X227437619Y189160180D01*
X227437619Y189160180D02*
X227770952Y190160180D01*
X228628095Y189160180D02*
X228056667Y189160180D01*
X228342381Y189160180D02*
X228342381Y190160180D01*
X228342381Y190160180D02*
X228247143Y190017323D01*
X228247143Y190017323D02*
X228151905Y189922085D01*
X228151905Y189922085D02*
X228056667Y189874466D01*
X229580476Y189160180D02*
X229009048Y189160180D01*
X229294762Y189160180D02*
X229294762Y190160180D01*
X229294762Y190160180D02*
X229199524Y190017323D01*
X229199524Y190017323D02*
X229104286Y189922085D01*
X229104286Y189922085D02*
X229009048Y189874466D01*
X121064175Y69096035D02*
X121064175Y70096035D01*
X121064175Y69619845D02*
X121635603Y69619845D01*
X121635603Y69096035D02*
X121635603Y70096035D01*
X122016556Y70096035D02*
X122635603Y70096035D01*
X122635603Y70096035D02*
X122302270Y69715083D01*
X122302270Y69715083D02*
X122445127Y69715083D01*
X122445127Y69715083D02*
X122540365Y69667464D01*
X122540365Y69667464D02*
X122587984Y69619845D01*
X122587984Y69619845D02*
X122635603Y69524607D01*
X122635603Y69524607D02*
X122635603Y69286512D01*
X122635603Y69286512D02*
X122587984Y69191274D01*
X122587984Y69191274D02*
X122540365Y69143655D01*
X122540365Y69143655D02*
X122445127Y69096035D01*
X122445127Y69096035D02*
X122159413Y69096035D01*
X122159413Y69096035D02*
X122064175Y69143655D01*
X122064175Y69143655D02*
X122016556Y69191274D01*
X123207032Y69667464D02*
X123111794Y69715083D01*
X123111794Y69715083D02*
X123064175Y69762702D01*
X123064175Y69762702D02*
X123016556Y69857940D01*
X123016556Y69857940D02*
X123016556Y69905559D01*
X123016556Y69905559D02*
X123064175Y70000797D01*
X123064175Y70000797D02*
X123111794Y70048416D01*
X123111794Y70048416D02*
X123207032Y70096035D01*
X123207032Y70096035D02*
X123397508Y70096035D01*
X123397508Y70096035D02*
X123492746Y70048416D01*
X123492746Y70048416D02*
X123540365Y70000797D01*
X123540365Y70000797D02*
X123587984Y69905559D01*
X123587984Y69905559D02*
X123587984Y69857940D01*
X123587984Y69857940D02*
X123540365Y69762702D01*
X123540365Y69762702D02*
X123492746Y69715083D01*
X123492746Y69715083D02*
X123397508Y69667464D01*
X123397508Y69667464D02*
X123207032Y69667464D01*
X123207032Y69667464D02*
X123111794Y69619845D01*
X123111794Y69619845D02*
X123064175Y69572226D01*
X123064175Y69572226D02*
X123016556Y69476988D01*
X123016556Y69476988D02*
X123016556Y69286512D01*
X123016556Y69286512D02*
X123064175Y69191274D01*
X123064175Y69191274D02*
X123111794Y69143655D01*
X123111794Y69143655D02*
X123207032Y69096035D01*
X123207032Y69096035D02*
X123397508Y69096035D01*
X123397508Y69096035D02*
X123492746Y69143655D01*
X123492746Y69143655D02*
X123540365Y69191274D01*
X123540365Y69191274D02*
X123587984Y69286512D01*
X123587984Y69286512D02*
X123587984Y69476988D01*
X123587984Y69476988D02*
X123540365Y69572226D01*
X123540365Y69572226D02*
X123492746Y69619845D01*
X123492746Y69619845D02*
X123397508Y69667464D01*
X362193333Y172385180D02*
X361860000Y172861371D01*
X361621905Y172385180D02*
X361621905Y173385180D01*
X361621905Y173385180D02*
X362002857Y173385180D01*
X362002857Y173385180D02*
X362098095Y173337561D01*
X362098095Y173337561D02*
X362145714Y173289942D01*
X362145714Y173289942D02*
X362193333Y173194704D01*
X362193333Y173194704D02*
X362193333Y173051847D01*
X362193333Y173051847D02*
X362145714Y172956609D01*
X362145714Y172956609D02*
X362098095Y172908990D01*
X362098095Y172908990D02*
X362002857Y172861371D01*
X362002857Y172861371D02*
X361621905Y172861371D01*
X362574286Y173289942D02*
X362621905Y173337561D01*
X362621905Y173337561D02*
X362717143Y173385180D01*
X362717143Y173385180D02*
X362955238Y173385180D01*
X362955238Y173385180D02*
X363050476Y173337561D01*
X363050476Y173337561D02*
X363098095Y173289942D01*
X363098095Y173289942D02*
X363145714Y173194704D01*
X363145714Y173194704D02*
X363145714Y173099466D01*
X363145714Y173099466D02*
X363098095Y172956609D01*
X363098095Y172956609D02*
X362526667Y172385180D01*
X362526667Y172385180D02*
X363145714Y172385180D01*
X263134175Y131086035D02*
X263134175Y132086035D01*
X263134175Y131609845D02*
X263705603Y131609845D01*
X263705603Y131086035D02*
X263705603Y132086035D01*
X264705603Y131086035D02*
X264134175Y131086035D01*
X264419889Y131086035D02*
X264419889Y132086035D01*
X264419889Y132086035D02*
X264324651Y131943178D01*
X264324651Y131943178D02*
X264229413Y131847940D01*
X264229413Y131847940D02*
X264134175Y131800321D01*
X265181794Y131086035D02*
X265372270Y131086035D01*
X265372270Y131086035D02*
X265467508Y131133655D01*
X265467508Y131133655D02*
X265515127Y131181274D01*
X265515127Y131181274D02*
X265610365Y131324131D01*
X265610365Y131324131D02*
X265657984Y131514607D01*
X265657984Y131514607D02*
X265657984Y131895559D01*
X265657984Y131895559D02*
X265610365Y131990797D01*
X265610365Y131990797D02*
X265562746Y132038416D01*
X265562746Y132038416D02*
X265467508Y132086035D01*
X265467508Y132086035D02*
X265277032Y132086035D01*
X265277032Y132086035D02*
X265181794Y132038416D01*
X265181794Y132038416D02*
X265134175Y131990797D01*
X265134175Y131990797D02*
X265086556Y131895559D01*
X265086556Y131895559D02*
X265086556Y131657464D01*
X265086556Y131657464D02*
X265134175Y131562226D01*
X265134175Y131562226D02*
X265181794Y131514607D01*
X265181794Y131514607D02*
X265277032Y131466988D01*
X265277032Y131466988D02*
X265467508Y131466988D01*
X265467508Y131466988D02*
X265562746Y131514607D01*
X265562746Y131514607D02*
X265610365Y131562226D01*
X265610365Y131562226D02*
X265657984Y131657464D01*
X405484175Y151586035D02*
X405484175Y152586035D01*
X405484175Y152109845D02*
X406055603Y152109845D01*
X406055603Y151586035D02*
X406055603Y152586035D01*
X407055603Y151586035D02*
X406484175Y151586035D01*
X406769889Y151586035D02*
X406769889Y152586035D01*
X406769889Y152586035D02*
X406674651Y152443178D01*
X406674651Y152443178D02*
X406579413Y152347940D01*
X406579413Y152347940D02*
X406484175Y152300321D01*
X407912746Y152252702D02*
X407912746Y151586035D01*
X407674651Y152633655D02*
X407436556Y151919369D01*
X407436556Y151919369D02*
X408055603Y151919369D01*
X413174819Y162659166D02*
X413889104Y162659166D01*
X413889104Y162659166D02*
X414031961Y162611547D01*
X414031961Y162611547D02*
X414127200Y162516309D01*
X414127200Y162516309D02*
X414174819Y162373452D01*
X414174819Y162373452D02*
X414174819Y162278214D01*
X413270057Y163087738D02*
X413222438Y163135357D01*
X413222438Y163135357D02*
X413174819Y163230595D01*
X413174819Y163230595D02*
X413174819Y163468690D01*
X413174819Y163468690D02*
X413222438Y163563928D01*
X413222438Y163563928D02*
X413270057Y163611547D01*
X413270057Y163611547D02*
X413365295Y163659166D01*
X413365295Y163659166D02*
X413460533Y163659166D01*
X413460533Y163659166D02*
X413603390Y163611547D01*
X413603390Y163611547D02*
X414174819Y163040119D01*
X414174819Y163040119D02*
X414174819Y163659166D01*
X320174175Y48356035D02*
X320174175Y49356035D01*
X320174175Y48879845D02*
X320745603Y48879845D01*
X320745603Y48356035D02*
X320745603Y49356035D01*
X321697984Y49356035D02*
X321221794Y49356035D01*
X321221794Y49356035D02*
X321174175Y48879845D01*
X321174175Y48879845D02*
X321221794Y48927464D01*
X321221794Y48927464D02*
X321317032Y48975083D01*
X321317032Y48975083D02*
X321555127Y48975083D01*
X321555127Y48975083D02*
X321650365Y48927464D01*
X321650365Y48927464D02*
X321697984Y48879845D01*
X321697984Y48879845D02*
X321745603Y48784607D01*
X321745603Y48784607D02*
X321745603Y48546512D01*
X321745603Y48546512D02*
X321697984Y48451274D01*
X321697984Y48451274D02*
X321650365Y48403655D01*
X321650365Y48403655D02*
X321555127Y48356035D01*
X321555127Y48356035D02*
X321317032Y48356035D01*
X321317032Y48356035D02*
X321221794Y48403655D01*
X321221794Y48403655D02*
X321174175Y48451274D01*
X322364651Y49356035D02*
X322459889Y49356035D01*
X322459889Y49356035D02*
X322555127Y49308416D01*
X322555127Y49308416D02*
X322602746Y49260797D01*
X322602746Y49260797D02*
X322650365Y49165559D01*
X322650365Y49165559D02*
X322697984Y48975083D01*
X322697984Y48975083D02*
X322697984Y48736988D01*
X322697984Y48736988D02*
X322650365Y48546512D01*
X322650365Y48546512D02*
X322602746Y48451274D01*
X322602746Y48451274D02*
X322555127Y48403655D01*
X322555127Y48403655D02*
X322459889Y48356035D01*
X322459889Y48356035D02*
X322364651Y48356035D01*
X322364651Y48356035D02*
X322269413Y48403655D01*
X322269413Y48403655D02*
X322221794Y48451274D01*
X322221794Y48451274D02*
X322174175Y48546512D01*
X322174175Y48546512D02*
X322126556Y48736988D01*
X322126556Y48736988D02*
X322126556Y48975083D01*
X322126556Y48975083D02*
X322174175Y49165559D01*
X322174175Y49165559D02*
X322221794Y49260797D01*
X322221794Y49260797D02*
X322269413Y49308416D01*
X322269413Y49308416D02*
X322364651Y49356035D01*
X55779761Y189160180D02*
X55446428Y189636371D01*
X55208333Y189160180D02*
X55208333Y190160180D01*
X55208333Y190160180D02*
X55589285Y190160180D01*
X55589285Y190160180D02*
X55684523Y190112561D01*
X55684523Y190112561D02*
X55732142Y190064942D01*
X55732142Y190064942D02*
X55779761Y189969704D01*
X55779761Y189969704D02*
X55779761Y189826847D01*
X55779761Y189826847D02*
X55732142Y189731609D01*
X55732142Y189731609D02*
X55684523Y189683990D01*
X55684523Y189683990D02*
X55589285Y189636371D01*
X55589285Y189636371D02*
X55208333Y189636371D01*
X56065476Y190160180D02*
X56398809Y189160180D01*
X56398809Y189160180D02*
X56732142Y190160180D01*
X56970238Y190160180D02*
X57589285Y190160180D01*
X57589285Y190160180D02*
X57255952Y189779228D01*
X57255952Y189779228D02*
X57398809Y189779228D01*
X57398809Y189779228D02*
X57494047Y189731609D01*
X57494047Y189731609D02*
X57541666Y189683990D01*
X57541666Y189683990D02*
X57589285Y189588752D01*
X57589285Y189588752D02*
X57589285Y189350657D01*
X57589285Y189350657D02*
X57541666Y189255419D01*
X57541666Y189255419D02*
X57494047Y189207800D01*
X57494047Y189207800D02*
X57398809Y189160180D01*
X57398809Y189160180D02*
X57113095Y189160180D01*
X57113095Y189160180D02*
X57017857Y189207800D01*
X57017857Y189207800D02*
X56970238Y189255419D01*
X337283333Y172355180D02*
X336950000Y172831371D01*
X336711905Y172355180D02*
X336711905Y173355180D01*
X336711905Y173355180D02*
X337092857Y173355180D01*
X337092857Y173355180D02*
X337188095Y173307561D01*
X337188095Y173307561D02*
X337235714Y173259942D01*
X337235714Y173259942D02*
X337283333Y173164704D01*
X337283333Y173164704D02*
X337283333Y173021847D01*
X337283333Y173021847D02*
X337235714Y172926609D01*
X337235714Y172926609D02*
X337188095Y172878990D01*
X337188095Y172878990D02*
X337092857Y172831371D01*
X337092857Y172831371D02*
X336711905Y172831371D01*
X338235714Y172355180D02*
X337664286Y172355180D01*
X337950000Y172355180D02*
X337950000Y173355180D01*
X337950000Y173355180D02*
X337854762Y173212323D01*
X337854762Y173212323D02*
X337759524Y173117085D01*
X337759524Y173117085D02*
X337664286Y173069466D01*
X317453333Y173665180D02*
X317120000Y174141371D01*
X316881905Y173665180D02*
X316881905Y174665180D01*
X316881905Y174665180D02*
X317262857Y174665180D01*
X317262857Y174665180D02*
X317358095Y174617561D01*
X317358095Y174617561D02*
X317405714Y174569942D01*
X317405714Y174569942D02*
X317453333Y174474704D01*
X317453333Y174474704D02*
X317453333Y174331847D01*
X317453333Y174331847D02*
X317405714Y174236609D01*
X317405714Y174236609D02*
X317358095Y174188990D01*
X317358095Y174188990D02*
X317262857Y174141371D01*
X317262857Y174141371D02*
X316881905Y174141371D01*
X318310476Y174665180D02*
X318120000Y174665180D01*
X318120000Y174665180D02*
X318024762Y174617561D01*
X318024762Y174617561D02*
X317977143Y174569942D01*
X317977143Y174569942D02*
X317881905Y174427085D01*
X317881905Y174427085D02*
X317834286Y174236609D01*
X317834286Y174236609D02*
X317834286Y173855657D01*
X317834286Y173855657D02*
X317881905Y173760419D01*
X317881905Y173760419D02*
X317929524Y173712800D01*
X317929524Y173712800D02*
X318024762Y173665180D01*
X318024762Y173665180D02*
X318215238Y173665180D01*
X318215238Y173665180D02*
X318310476Y173712800D01*
X318310476Y173712800D02*
X318358095Y173760419D01*
X318358095Y173760419D02*
X318405714Y173855657D01*
X318405714Y173855657D02*
X318405714Y174093752D01*
X318405714Y174093752D02*
X318358095Y174188990D01*
X318358095Y174188990D02*
X318310476Y174236609D01*
X318310476Y174236609D02*
X318215238Y174284228D01*
X318215238Y174284228D02*
X318024762Y174284228D01*
X318024762Y174284228D02*
X317929524Y174236609D01*
X317929524Y174236609D02*
X317881905Y174188990D01*
X317881905Y174188990D02*
X317834286Y174093752D01*
X263134175Y89826035D02*
X263134175Y90826035D01*
X263134175Y90349845D02*
X263705603Y90349845D01*
X263705603Y89826035D02*
X263705603Y90826035D01*
X264086556Y90826035D02*
X264705603Y90826035D01*
X264705603Y90826035D02*
X264372270Y90445083D01*
X264372270Y90445083D02*
X264515127Y90445083D01*
X264515127Y90445083D02*
X264610365Y90397464D01*
X264610365Y90397464D02*
X264657984Y90349845D01*
X264657984Y90349845D02*
X264705603Y90254607D01*
X264705603Y90254607D02*
X264705603Y90016512D01*
X264705603Y90016512D02*
X264657984Y89921274D01*
X264657984Y89921274D02*
X264610365Y89873655D01*
X264610365Y89873655D02*
X264515127Y89826035D01*
X264515127Y89826035D02*
X264229413Y89826035D01*
X264229413Y89826035D02*
X264134175Y89873655D01*
X264134175Y89873655D02*
X264086556Y89921274D01*
X265038937Y90826035D02*
X265657984Y90826035D01*
X265657984Y90826035D02*
X265324651Y90445083D01*
X265324651Y90445083D02*
X265467508Y90445083D01*
X265467508Y90445083D02*
X265562746Y90397464D01*
X265562746Y90397464D02*
X265610365Y90349845D01*
X265610365Y90349845D02*
X265657984Y90254607D01*
X265657984Y90254607D02*
X265657984Y90016512D01*
X265657984Y90016512D02*
X265610365Y89921274D01*
X265610365Y89921274D02*
X265562746Y89873655D01*
X265562746Y89873655D02*
X265467508Y89826035D01*
X265467508Y89826035D02*
X265181794Y89826035D01*
X265181794Y89826035D02*
X265086556Y89873655D01*
X265086556Y89873655D02*
X265038937Y89921274D01*
X25386175Y162484035D02*
X25386175Y163484035D01*
X25386175Y163007845D02*
X25957603Y163007845D01*
X25957603Y162484035D02*
X25957603Y163484035D01*
X26909984Y163484035D02*
X26433794Y163484035D01*
X26433794Y163484035D02*
X26386175Y163007845D01*
X26386175Y163007845D02*
X26433794Y163055464D01*
X26433794Y163055464D02*
X26529032Y163103083D01*
X26529032Y163103083D02*
X26767127Y163103083D01*
X26767127Y163103083D02*
X26862365Y163055464D01*
X26862365Y163055464D02*
X26909984Y163007845D01*
X26909984Y163007845D02*
X26957603Y162912607D01*
X26957603Y162912607D02*
X26957603Y162674512D01*
X26957603Y162674512D02*
X26909984Y162579274D01*
X26909984Y162579274D02*
X26862365Y162531655D01*
X26862365Y162531655D02*
X26767127Y162484035D01*
X26767127Y162484035D02*
X26529032Y162484035D01*
X26529032Y162484035D02*
X26433794Y162531655D01*
X26433794Y162531655D02*
X26386175Y162579274D01*
X27290937Y163484035D02*
X27909984Y163484035D01*
X27909984Y163484035D02*
X27576651Y163103083D01*
X27576651Y163103083D02*
X27719508Y163103083D01*
X27719508Y163103083D02*
X27814746Y163055464D01*
X27814746Y163055464D02*
X27862365Y163007845D01*
X27862365Y163007845D02*
X27909984Y162912607D01*
X27909984Y162912607D02*
X27909984Y162674512D01*
X27909984Y162674512D02*
X27862365Y162579274D01*
X27862365Y162579274D02*
X27814746Y162531655D01*
X27814746Y162531655D02*
X27719508Y162484035D01*
X27719508Y162484035D02*
X27433794Y162484035D01*
X27433794Y162484035D02*
X27338556Y162531655D01*
X27338556Y162531655D02*
X27290937Y162579274D01*
X230454175Y69096035D02*
X230454175Y70096035D01*
X230454175Y69619845D02*
X231025603Y69619845D01*
X231025603Y69096035D02*
X231025603Y70096035D01*
X231930365Y69762702D02*
X231930365Y69096035D01*
X231692270Y70143655D02*
X231454175Y69429369D01*
X231454175Y69429369D02*
X232073222Y69429369D01*
X232644651Y70096035D02*
X232739889Y70096035D01*
X232739889Y70096035D02*
X232835127Y70048416D01*
X232835127Y70048416D02*
X232882746Y70000797D01*
X232882746Y70000797D02*
X232930365Y69905559D01*
X232930365Y69905559D02*
X232977984Y69715083D01*
X232977984Y69715083D02*
X232977984Y69476988D01*
X232977984Y69476988D02*
X232930365Y69286512D01*
X232930365Y69286512D02*
X232882746Y69191274D01*
X232882746Y69191274D02*
X232835127Y69143655D01*
X232835127Y69143655D02*
X232739889Y69096035D01*
X232739889Y69096035D02*
X232644651Y69096035D01*
X232644651Y69096035D02*
X232549413Y69143655D01*
X232549413Y69143655D02*
X232501794Y69191274D01*
X232501794Y69191274D02*
X232454175Y69286512D01*
X232454175Y69286512D02*
X232406556Y69476988D01*
X232406556Y69476988D02*
X232406556Y69715083D01*
X232406556Y69715083D02*
X232454175Y69905559D01*
X232454175Y69905559D02*
X232501794Y70000797D01*
X232501794Y70000797D02*
X232549413Y70048416D01*
X232549413Y70048416D02*
X232644651Y70096035D01*
X235214175Y151776035D02*
X235214175Y152776035D01*
X235214175Y152299845D02*
X235785603Y152299845D01*
X235785603Y151776035D02*
X235785603Y152776035D01*
X236785603Y151776035D02*
X236214175Y151776035D01*
X236499889Y151776035D02*
X236499889Y152776035D01*
X236499889Y152776035D02*
X236404651Y152633178D01*
X236404651Y152633178D02*
X236309413Y152537940D01*
X236309413Y152537940D02*
X236214175Y152490321D01*
X237737984Y151776035D02*
X237166556Y151776035D01*
X237452270Y151776035D02*
X237452270Y152776035D01*
X237452270Y152776035D02*
X237357032Y152633178D01*
X237357032Y152633178D02*
X237261794Y152537940D01*
X237261794Y152537940D02*
X237166556Y152490321D01*
X-31395824Y48186035D02*
X-31395824Y49186035D01*
X-31395824Y48709845D02*
X-30824396Y48709845D01*
X-30824396Y48186035D02*
X-30824396Y49186035D01*
X-29919634Y48852702D02*
X-29919634Y48186035D01*
X-30157729Y49233655D02*
X-30395824Y48519369D01*
X-30395824Y48519369D02*
X-29776777Y48519369D01*
X-28967253Y48852702D02*
X-28967253Y48186035D01*
X-29205348Y49233655D02*
X-29443443Y48519369D01*
X-29443443Y48519369D02*
X-28824396Y48519369D01*
X317583333Y159175180D02*
X317250000Y159651371D01*
X317011905Y159175180D02*
X317011905Y160175180D01*
X317011905Y160175180D02*
X317392857Y160175180D01*
X317392857Y160175180D02*
X317488095Y160127561D01*
X317488095Y160127561D02*
X317535714Y160079942D01*
X317535714Y160079942D02*
X317583333Y159984704D01*
X317583333Y159984704D02*
X317583333Y159841847D01*
X317583333Y159841847D02*
X317535714Y159746609D01*
X317535714Y159746609D02*
X317488095Y159698990D01*
X317488095Y159698990D02*
X317392857Y159651371D01*
X317392857Y159651371D02*
X317011905Y159651371D01*
X318440476Y159841847D02*
X318440476Y159175180D01*
X318202381Y160222800D02*
X317964286Y159508514D01*
X317964286Y159508514D02*
X318583333Y159508514D01*
X159084175Y48416035D02*
X159084175Y49416035D01*
X159084175Y48939845D02*
X159655603Y48939845D01*
X159655603Y48416035D02*
X159655603Y49416035D01*
X160560365Y49082702D02*
X160560365Y48416035D01*
X160322270Y49463655D02*
X160084175Y48749369D01*
X160084175Y48749369D02*
X160703222Y48749369D01*
X160988937Y49416035D02*
X161655603Y49416035D01*
X161655603Y49416035D02*
X161227032Y48416035D01*
X265616666Y195695180D02*
X265616666Y194980895D01*
X265616666Y194980895D02*
X265569047Y194838038D01*
X265569047Y194838038D02*
X265473809Y194742800D01*
X265473809Y194742800D02*
X265330952Y194695180D01*
X265330952Y194695180D02*
X265235714Y194695180D01*
X266521428Y195695180D02*
X266330952Y195695180D01*
X266330952Y195695180D02*
X266235714Y195647561D01*
X266235714Y195647561D02*
X266188095Y195599942D01*
X266188095Y195599942D02*
X266092857Y195457085D01*
X266092857Y195457085D02*
X266045238Y195266609D01*
X266045238Y195266609D02*
X266045238Y194885657D01*
X266045238Y194885657D02*
X266092857Y194790419D01*
X266092857Y194790419D02*
X266140476Y194742800D01*
X266140476Y194742800D02*
X266235714Y194695180D01*
X266235714Y194695180D02*
X266426190Y194695180D01*
X266426190Y194695180D02*
X266521428Y194742800D01*
X266521428Y194742800D02*
X266569047Y194790419D01*
X266569047Y194790419D02*
X266616666Y194885657D01*
X266616666Y194885657D02*
X266616666Y195123752D01*
X266616666Y195123752D02*
X266569047Y195218990D01*
X266569047Y195218990D02*
X266521428Y195266609D01*
X266521428Y195266609D02*
X266426190Y195314228D01*
X266426190Y195314228D02*
X266235714Y195314228D01*
X266235714Y195314228D02*
X266140476Y195266609D01*
X266140476Y195266609D02*
X266092857Y195218990D01*
X266092857Y195218990D02*
X266045238Y195123752D01*
X11744175Y48246035D02*
X11744175Y49246035D01*
X11744175Y48769845D02*
X12315603Y48769845D01*
X12315603Y48246035D02*
X12315603Y49246035D01*
X13220365Y48912702D02*
X13220365Y48246035D01*
X12982270Y49293655D02*
X12744175Y48579369D01*
X12744175Y48579369D02*
X13363222Y48579369D01*
X14220365Y49246035D02*
X13744175Y49246035D01*
X13744175Y49246035D02*
X13696556Y48769845D01*
X13696556Y48769845D02*
X13744175Y48817464D01*
X13744175Y48817464D02*
X13839413Y48865083D01*
X13839413Y48865083D02*
X14077508Y48865083D01*
X14077508Y48865083D02*
X14172746Y48817464D01*
X14172746Y48817464D02*
X14220365Y48769845D01*
X14220365Y48769845D02*
X14267984Y48674607D01*
X14267984Y48674607D02*
X14267984Y48436512D01*
X14267984Y48436512D02*
X14220365Y48341274D01*
X14220365Y48341274D02*
X14172746Y48293655D01*
X14172746Y48293655D02*
X14077508Y48246035D01*
X14077508Y48246035D02*
X13839413Y48246035D01*
X13839413Y48246035D02*
X13744175Y48293655D01*
X13744175Y48293655D02*
X13696556Y48341274D01*
X235700365Y192996035D02*
X235700365Y193996035D01*
X235700365Y193519845D02*
X236271793Y193519845D01*
X236271793Y192996035D02*
X236271793Y193996035D01*
X237224174Y193996035D02*
X236747984Y193996035D01*
X236747984Y193996035D02*
X236700365Y193519845D01*
X236700365Y193519845D02*
X236747984Y193567464D01*
X236747984Y193567464D02*
X236843222Y193615083D01*
X236843222Y193615083D02*
X237081317Y193615083D01*
X237081317Y193615083D02*
X237176555Y193567464D01*
X237176555Y193567464D02*
X237224174Y193519845D01*
X237224174Y193519845D02*
X237271793Y193424607D01*
X237271793Y193424607D02*
X237271793Y193186512D01*
X237271793Y193186512D02*
X237224174Y193091274D01*
X237224174Y193091274D02*
X237176555Y193043655D01*
X237176555Y193043655D02*
X237081317Y192996035D01*
X237081317Y192996035D02*
X236843222Y192996035D01*
X236843222Y192996035D02*
X236747984Y193043655D01*
X236747984Y193043655D02*
X236700365Y193091274D01*
X82844175Y172306035D02*
X82844175Y173306035D01*
X82844175Y172829845D02*
X83415603Y172829845D01*
X83415603Y172306035D02*
X83415603Y173306035D01*
X84367984Y173306035D02*
X83891794Y173306035D01*
X83891794Y173306035D02*
X83844175Y172829845D01*
X83844175Y172829845D02*
X83891794Y172877464D01*
X83891794Y172877464D02*
X83987032Y172925083D01*
X83987032Y172925083D02*
X84225127Y172925083D01*
X84225127Y172925083D02*
X84320365Y172877464D01*
X84320365Y172877464D02*
X84367984Y172829845D01*
X84367984Y172829845D02*
X84415603Y172734607D01*
X84415603Y172734607D02*
X84415603Y172496512D01*
X84415603Y172496512D02*
X84367984Y172401274D01*
X84367984Y172401274D02*
X84320365Y172353655D01*
X84320365Y172353655D02*
X84225127Y172306035D01*
X84225127Y172306035D02*
X83987032Y172306035D01*
X83987032Y172306035D02*
X83891794Y172353655D01*
X83891794Y172353655D02*
X83844175Y172401274D01*
X85272746Y172972702D02*
X85272746Y172306035D01*
X85034651Y173353655D02*
X84796556Y172639369D01*
X84796556Y172639369D02*
X85415603Y172639369D01*
X45170365Y192866035D02*
X45170365Y193866035D01*
X45170365Y193389845D02*
X45741793Y193389845D01*
X45741793Y192866035D02*
X45741793Y193866035D01*
X46170365Y193770797D02*
X46217984Y193818416D01*
X46217984Y193818416D02*
X46313222Y193866035D01*
X46313222Y193866035D02*
X46551317Y193866035D01*
X46551317Y193866035D02*
X46646555Y193818416D01*
X46646555Y193818416D02*
X46694174Y193770797D01*
X46694174Y193770797D02*
X46741793Y193675559D01*
X46741793Y193675559D02*
X46741793Y193580321D01*
X46741793Y193580321D02*
X46694174Y193437464D01*
X46694174Y193437464D02*
X46122746Y192866035D01*
X46122746Y192866035D02*
X46741793Y192866035D01*
X116144175Y110166035D02*
X116144175Y111166035D01*
X116144175Y110689845D02*
X116715603Y110689845D01*
X116715603Y110166035D02*
X116715603Y111166035D01*
X117144175Y111070797D02*
X117191794Y111118416D01*
X117191794Y111118416D02*
X117287032Y111166035D01*
X117287032Y111166035D02*
X117525127Y111166035D01*
X117525127Y111166035D02*
X117620365Y111118416D01*
X117620365Y111118416D02*
X117667984Y111070797D01*
X117667984Y111070797D02*
X117715603Y110975559D01*
X117715603Y110975559D02*
X117715603Y110880321D01*
X117715603Y110880321D02*
X117667984Y110737464D01*
X117667984Y110737464D02*
X117096556Y110166035D01*
X117096556Y110166035D02*
X117715603Y110166035D01*
X118048937Y111166035D02*
X118667984Y111166035D01*
X118667984Y111166035D02*
X118334651Y110785083D01*
X118334651Y110785083D02*
X118477508Y110785083D01*
X118477508Y110785083D02*
X118572746Y110737464D01*
X118572746Y110737464D02*
X118620365Y110689845D01*
X118620365Y110689845D02*
X118667984Y110594607D01*
X118667984Y110594607D02*
X118667984Y110356512D01*
X118667984Y110356512D02*
X118620365Y110261274D01*
X118620365Y110261274D02*
X118572746Y110213655D01*
X118572746Y110213655D02*
X118477508Y110166035D01*
X118477508Y110166035D02*
X118191794Y110166035D01*
X118191794Y110166035D02*
X118096556Y110213655D01*
X118096556Y110213655D02*
X118048937Y110261274D01*
X87564175Y89786035D02*
X87564175Y90786035D01*
X87564175Y90309845D02*
X88135603Y90309845D01*
X88135603Y89786035D02*
X88135603Y90786035D01*
X88516556Y90786035D02*
X89135603Y90786035D01*
X89135603Y90786035D02*
X88802270Y90405083D01*
X88802270Y90405083D02*
X88945127Y90405083D01*
X88945127Y90405083D02*
X89040365Y90357464D01*
X89040365Y90357464D02*
X89087984Y90309845D01*
X89087984Y90309845D02*
X89135603Y90214607D01*
X89135603Y90214607D02*
X89135603Y89976512D01*
X89135603Y89976512D02*
X89087984Y89881274D01*
X89087984Y89881274D02*
X89040365Y89833655D01*
X89040365Y89833655D02*
X88945127Y89786035D01*
X88945127Y89786035D02*
X88659413Y89786035D01*
X88659413Y89786035D02*
X88564175Y89833655D01*
X88564175Y89833655D02*
X88516556Y89881274D01*
X89754651Y90786035D02*
X89849889Y90786035D01*
X89849889Y90786035D02*
X89945127Y90738416D01*
X89945127Y90738416D02*
X89992746Y90690797D01*
X89992746Y90690797D02*
X90040365Y90595559D01*
X90040365Y90595559D02*
X90087984Y90405083D01*
X90087984Y90405083D02*
X90087984Y90166988D01*
X90087984Y90166988D02*
X90040365Y89976512D01*
X90040365Y89976512D02*
X89992746Y89881274D01*
X89992746Y89881274D02*
X89945127Y89833655D01*
X89945127Y89833655D02*
X89849889Y89786035D01*
X89849889Y89786035D02*
X89754651Y89786035D01*
X89754651Y89786035D02*
X89659413Y89833655D01*
X89659413Y89833655D02*
X89611794Y89881274D01*
X89611794Y89881274D02*
X89564175Y89976512D01*
X89564175Y89976512D02*
X89516556Y90166988D01*
X89516556Y90166988D02*
X89516556Y90405083D01*
X89516556Y90405083D02*
X89564175Y90595559D01*
X89564175Y90595559D02*
X89611794Y90690797D01*
X89611794Y90690797D02*
X89659413Y90738416D01*
X89659413Y90738416D02*
X89754651Y90786035D01*
X197184175Y172386035D02*
X197184175Y173386035D01*
X197184175Y172909845D02*
X197755603Y172909845D01*
X197755603Y172386035D02*
X197755603Y173386035D01*
X198707984Y173386035D02*
X198231794Y173386035D01*
X198231794Y173386035D02*
X198184175Y172909845D01*
X198184175Y172909845D02*
X198231794Y172957464D01*
X198231794Y172957464D02*
X198327032Y173005083D01*
X198327032Y173005083D02*
X198565127Y173005083D01*
X198565127Y173005083D02*
X198660365Y172957464D01*
X198660365Y172957464D02*
X198707984Y172909845D01*
X198707984Y172909845D02*
X198755603Y172814607D01*
X198755603Y172814607D02*
X198755603Y172576512D01*
X198755603Y172576512D02*
X198707984Y172481274D01*
X198707984Y172481274D02*
X198660365Y172433655D01*
X198660365Y172433655D02*
X198565127Y172386035D01*
X198565127Y172386035D02*
X198327032Y172386035D01*
X198327032Y172386035D02*
X198231794Y172433655D01*
X198231794Y172433655D02*
X198184175Y172481274D01*
X199612746Y173386035D02*
X199422270Y173386035D01*
X199422270Y173386035D02*
X199327032Y173338416D01*
X199327032Y173338416D02*
X199279413Y173290797D01*
X199279413Y173290797D02*
X199184175Y173147940D01*
X199184175Y173147940D02*
X199136556Y172957464D01*
X199136556Y172957464D02*
X199136556Y172576512D01*
X199136556Y172576512D02*
X199184175Y172481274D01*
X199184175Y172481274D02*
X199231794Y172433655D01*
X199231794Y172433655D02*
X199327032Y172386035D01*
X199327032Y172386035D02*
X199517508Y172386035D01*
X199517508Y172386035D02*
X199612746Y172433655D01*
X199612746Y172433655D02*
X199660365Y172481274D01*
X199660365Y172481274D02*
X199707984Y172576512D01*
X199707984Y172576512D02*
X199707984Y172814607D01*
X199707984Y172814607D02*
X199660365Y172909845D01*
X199660365Y172909845D02*
X199612746Y172957464D01*
X199612746Y172957464D02*
X199517508Y173005083D01*
X199517508Y173005083D02*
X199327032Y173005083D01*
X199327032Y173005083D02*
X199231794Y172957464D01*
X199231794Y172957464D02*
X199184175Y172909845D01*
X199184175Y172909845D02*
X199136556Y172814607D01*
X301234175Y69046035D02*
X301234175Y70046035D01*
X301234175Y69569845D02*
X301805603Y69569845D01*
X301805603Y69046035D02*
X301805603Y70046035D01*
X302710365Y69712702D02*
X302710365Y69046035D01*
X302472270Y70093655D02*
X302234175Y69379369D01*
X302234175Y69379369D02*
X302853222Y69379369D01*
X303186556Y69950797D02*
X303234175Y69998416D01*
X303234175Y69998416D02*
X303329413Y70046035D01*
X303329413Y70046035D02*
X303567508Y70046035D01*
X303567508Y70046035D02*
X303662746Y69998416D01*
X303662746Y69998416D02*
X303710365Y69950797D01*
X303710365Y69950797D02*
X303757984Y69855559D01*
X303757984Y69855559D02*
X303757984Y69760321D01*
X303757984Y69760321D02*
X303710365Y69617464D01*
X303710365Y69617464D02*
X303138937Y69046035D01*
X303138937Y69046035D02*
X303757984Y69046035D01*
X245798571Y189165180D02*
X245465238Y189641371D01*
X245227143Y189165180D02*
X245227143Y190165180D01*
X245227143Y190165180D02*
X245608095Y190165180D01*
X245608095Y190165180D02*
X245703333Y190117561D01*
X245703333Y190117561D02*
X245750952Y190069942D01*
X245750952Y190069942D02*
X245798571Y189974704D01*
X245798571Y189974704D02*
X245798571Y189831847D01*
X245798571Y189831847D02*
X245750952Y189736609D01*
X245750952Y189736609D02*
X245703333Y189688990D01*
X245703333Y189688990D02*
X245608095Y189641371D01*
X245608095Y189641371D02*
X245227143Y189641371D01*
X246084286Y190165180D02*
X246417619Y189165180D01*
X246417619Y189165180D02*
X246750952Y190165180D01*
X247608095Y189165180D02*
X247036667Y189165180D01*
X247322381Y189165180D02*
X247322381Y190165180D01*
X247322381Y190165180D02*
X247227143Y190022323D01*
X247227143Y190022323D02*
X247131905Y189927085D01*
X247131905Y189927085D02*
X247036667Y189879466D01*
X247989048Y190069942D02*
X248036667Y190117561D01*
X248036667Y190117561D02*
X248131905Y190165180D01*
X248131905Y190165180D02*
X248370000Y190165180D01*
X248370000Y190165180D02*
X248465238Y190117561D01*
X248465238Y190117561D02*
X248512857Y190069942D01*
X248512857Y190069942D02*
X248560476Y189974704D01*
X248560476Y189974704D02*
X248560476Y189879466D01*
X248560476Y189879466D02*
X248512857Y189736609D01*
X248512857Y189736609D02*
X247941429Y189165180D01*
X247941429Y189165180D02*
X248560476Y189165180D01*
X361616905Y178480180D02*
X361616905Y179480180D01*
X361616905Y179480180D02*
X361855000Y179480180D01*
X361855000Y179480180D02*
X361997857Y179432561D01*
X361997857Y179432561D02*
X362093095Y179337323D01*
X362093095Y179337323D02*
X362140714Y179242085D01*
X362140714Y179242085D02*
X362188333Y179051609D01*
X362188333Y179051609D02*
X362188333Y178908752D01*
X362188333Y178908752D02*
X362140714Y178718276D01*
X362140714Y178718276D02*
X362093095Y178623038D01*
X362093095Y178623038D02*
X361997857Y178527800D01*
X361997857Y178527800D02*
X361855000Y178480180D01*
X361855000Y178480180D02*
X361616905Y178480180D01*
X362569286Y179384942D02*
X362616905Y179432561D01*
X362616905Y179432561D02*
X362712143Y179480180D01*
X362712143Y179480180D02*
X362950238Y179480180D01*
X362950238Y179480180D02*
X363045476Y179432561D01*
X363045476Y179432561D02*
X363093095Y179384942D01*
X363093095Y179384942D02*
X363140714Y179289704D01*
X363140714Y179289704D02*
X363140714Y179194466D01*
X363140714Y179194466D02*
X363093095Y179051609D01*
X363093095Y179051609D02*
X362521667Y178480180D01*
X362521667Y178480180D02*
X363140714Y178480180D01*
X234194175Y172386035D02*
X234194175Y173386035D01*
X234194175Y172909845D02*
X234765603Y172909845D01*
X234765603Y172386035D02*
X234765603Y173386035D01*
X235717984Y173386035D02*
X235241794Y173386035D01*
X235241794Y173386035D02*
X235194175Y172909845D01*
X235194175Y172909845D02*
X235241794Y172957464D01*
X235241794Y172957464D02*
X235337032Y173005083D01*
X235337032Y173005083D02*
X235575127Y173005083D01*
X235575127Y173005083D02*
X235670365Y172957464D01*
X235670365Y172957464D02*
X235717984Y172909845D01*
X235717984Y172909845D02*
X235765603Y172814607D01*
X235765603Y172814607D02*
X235765603Y172576512D01*
X235765603Y172576512D02*
X235717984Y172481274D01*
X235717984Y172481274D02*
X235670365Y172433655D01*
X235670365Y172433655D02*
X235575127Y172386035D01*
X235575127Y172386035D02*
X235337032Y172386035D01*
X235337032Y172386035D02*
X235241794Y172433655D01*
X235241794Y172433655D02*
X235194175Y172481274D01*
X236098937Y173386035D02*
X236765603Y173386035D01*
X236765603Y173386035D02*
X236337032Y172386035D01*
X386691905Y178455180D02*
X386691905Y179455180D01*
X386691905Y179455180D02*
X386930000Y179455180D01*
X386930000Y179455180D02*
X387072857Y179407561D01*
X387072857Y179407561D02*
X387168095Y179312323D01*
X387168095Y179312323D02*
X387215714Y179217085D01*
X387215714Y179217085D02*
X387263333Y179026609D01*
X387263333Y179026609D02*
X387263333Y178883752D01*
X387263333Y178883752D02*
X387215714Y178693276D01*
X387215714Y178693276D02*
X387168095Y178598038D01*
X387168095Y178598038D02*
X387072857Y178502800D01*
X387072857Y178502800D02*
X386930000Y178455180D01*
X386930000Y178455180D02*
X386691905Y178455180D01*
X387596667Y179455180D02*
X388215714Y179455180D01*
X388215714Y179455180D02*
X387882381Y179074228D01*
X387882381Y179074228D02*
X388025238Y179074228D01*
X388025238Y179074228D02*
X388120476Y179026609D01*
X388120476Y179026609D02*
X388168095Y178978990D01*
X388168095Y178978990D02*
X388215714Y178883752D01*
X388215714Y178883752D02*
X388215714Y178645657D01*
X388215714Y178645657D02*
X388168095Y178550419D01*
X388168095Y178550419D02*
X388120476Y178502800D01*
X388120476Y178502800D02*
X388025238Y178455180D01*
X388025238Y178455180D02*
X387739524Y178455180D01*
X387739524Y178455180D02*
X387644286Y178502800D01*
X387644286Y178502800D02*
X387596667Y178550419D01*
X387263333Y172335180D02*
X386930000Y172811371D01*
X386691905Y172335180D02*
X386691905Y173335180D01*
X386691905Y173335180D02*
X387072857Y173335180D01*
X387072857Y173335180D02*
X387168095Y173287561D01*
X387168095Y173287561D02*
X387215714Y173239942D01*
X387215714Y173239942D02*
X387263333Y173144704D01*
X387263333Y173144704D02*
X387263333Y173001847D01*
X387263333Y173001847D02*
X387215714Y172906609D01*
X387215714Y172906609D02*
X387168095Y172858990D01*
X387168095Y172858990D02*
X387072857Y172811371D01*
X387072857Y172811371D02*
X386691905Y172811371D01*
X387596667Y173335180D02*
X388215714Y173335180D01*
X388215714Y173335180D02*
X387882381Y172954228D01*
X387882381Y172954228D02*
X388025238Y172954228D01*
X388025238Y172954228D02*
X388120476Y172906609D01*
X388120476Y172906609D02*
X388168095Y172858990D01*
X388168095Y172858990D02*
X388215714Y172763752D01*
X388215714Y172763752D02*
X388215714Y172525657D01*
X388215714Y172525657D02*
X388168095Y172430419D01*
X388168095Y172430419D02*
X388120476Y172382800D01*
X388120476Y172382800D02*
X388025238Y172335180D01*
X388025238Y172335180D02*
X387739524Y172335180D01*
X387739524Y172335180D02*
X387644286Y172382800D01*
X387644286Y172382800D02*
X387596667Y172430419D01*
X201884175Y89796035D02*
X201884175Y90796035D01*
X201884175Y90319845D02*
X202455603Y90319845D01*
X202455603Y89796035D02*
X202455603Y90796035D01*
X202836556Y90796035D02*
X203455603Y90796035D01*
X203455603Y90796035D02*
X203122270Y90415083D01*
X203122270Y90415083D02*
X203265127Y90415083D01*
X203265127Y90415083D02*
X203360365Y90367464D01*
X203360365Y90367464D02*
X203407984Y90319845D01*
X203407984Y90319845D02*
X203455603Y90224607D01*
X203455603Y90224607D02*
X203455603Y89986512D01*
X203455603Y89986512D02*
X203407984Y89891274D01*
X203407984Y89891274D02*
X203360365Y89843655D01*
X203360365Y89843655D02*
X203265127Y89796035D01*
X203265127Y89796035D02*
X202979413Y89796035D01*
X202979413Y89796035D02*
X202884175Y89843655D01*
X202884175Y89843655D02*
X202836556Y89891274D01*
X203836556Y90700797D02*
X203884175Y90748416D01*
X203884175Y90748416D02*
X203979413Y90796035D01*
X203979413Y90796035D02*
X204217508Y90796035D01*
X204217508Y90796035D02*
X204312746Y90748416D01*
X204312746Y90748416D02*
X204360365Y90700797D01*
X204360365Y90700797D02*
X204407984Y90605559D01*
X204407984Y90605559D02*
X204407984Y90510321D01*
X204407984Y90510321D02*
X204360365Y90367464D01*
X204360365Y90367464D02*
X203788937Y89796035D01*
X203788937Y89796035D02*
X204407984Y89796035D01*
D12*
%TO.C,U2*%
X327610000Y190655000D02*
X327610000Y189005000D01*
X327610000Y187005000D02*
X327610000Y185355000D01*
X327610000Y185355000D02*
X337890000Y185355000D01*
X337890000Y190655000D02*
X327610000Y190655000D01*
X337890000Y185355000D02*
X337890000Y190655000D01*
X327610000Y189005000D02*
G75*
G02*
X327610000Y187005000I0J-1000000D01*
G01*
%TO.C,RV8*%
X155400000Y187375000D02*
X160120000Y187375000D01*
X155400000Y186185000D02*
X155400000Y187365000D01*
X155400000Y183285000D02*
X155400000Y183815000D01*
X155400000Y180835000D02*
X155400000Y181665000D01*
X155400000Y177625000D02*
X155400000Y179115000D01*
X155400000Y177625000D02*
X160120000Y177625000D01*
X163930000Y187365000D02*
X166990000Y187365000D01*
X163930000Y177625000D02*
X166990000Y177625000D01*
X166990000Y177625000D02*
X166990000Y187365000D01*
%TO.C,RV6*%
X117275000Y187350000D02*
X121995000Y187350000D01*
X117275000Y186160000D02*
X117275000Y187340000D01*
X117275000Y183260000D02*
X117275000Y183790000D01*
X117275000Y180810000D02*
X117275000Y181640000D01*
X117275000Y177600000D02*
X117275000Y179090000D01*
X117275000Y177600000D02*
X121995000Y177600000D01*
X125805000Y187340000D02*
X128865000Y187340000D01*
X125805000Y177600000D02*
X128865000Y177600000D01*
X128865000Y177600000D02*
X128865000Y187340000D01*
%TO.C,R5*%
X311170000Y167500000D02*
X314480000Y167500000D01*
X324330000Y167500000D02*
X321020000Y167500000D01*
X321020000Y166130000D02*
X314480000Y166130000D01*
X314480000Y168870000D01*
X321020000Y168870000D01*
X321020000Y166130000D01*
%TO.C,J7*%
X260300000Y195080000D02*
X260300000Y192420000D01*
X267980000Y195080000D02*
X260300000Y195080000D01*
X267980000Y195080000D02*
X267980000Y192420000D01*
X267980000Y192420000D02*
X260300000Y192420000D01*
X270580000Y193750000D02*
X270580000Y192420000D01*
X270580000Y192420000D02*
X269250000Y192420000D01*
%TO.C,RV9*%
X183970000Y187355000D02*
X188690000Y187355000D01*
X183970000Y186165000D02*
X183970000Y187345000D01*
X183970000Y183265000D02*
X183970000Y183795000D01*
X183970000Y180815000D02*
X183970000Y181645000D01*
X183970000Y177605000D02*
X183970000Y179095000D01*
X183970000Y177605000D02*
X188690000Y177605000D01*
X192500000Y187345000D02*
X195560000Y187345000D01*
X192500000Y177605000D02*
X195560000Y177605000D01*
X195560000Y177605000D02*
X195560000Y187345000D01*
%TO.C,RV4*%
X69635000Y187395000D02*
X74355000Y187395000D01*
X69635000Y186205000D02*
X69635000Y187385000D01*
X69635000Y183305000D02*
X69635000Y183835000D01*
X69635000Y180855000D02*
X69635000Y181685000D01*
X69635000Y177645000D02*
X69635000Y179135000D01*
X69635000Y177645000D02*
X74355000Y177645000D01*
X78165000Y187385000D02*
X81225000Y187385000D01*
X78165000Y177645000D02*
X81225000Y177645000D01*
X81225000Y177645000D02*
X81225000Y187385000D01*
%TO.C,J1*%
X397230000Y178502500D02*
X397230000Y173902500D01*
X397230000Y171202500D02*
X397230000Y172302500D01*
X398830000Y179302500D02*
X399330000Y178802500D01*
X399330000Y178802500D02*
X399830000Y179302500D01*
X399830000Y179302500D02*
X398830000Y179302500D01*
X408630000Y178502500D02*
X397230000Y178502500D01*
X408630000Y178502500D02*
X408630000Y178202500D01*
X408630000Y178202500D02*
X411430000Y178202500D01*
X408630000Y172402500D02*
X408630000Y171202500D01*
X408630000Y172402500D02*
X411430000Y172402500D01*
X408630000Y171202500D02*
X397230000Y171202500D01*
X411430000Y172402500D02*
X411430000Y178202500D01*
%TO.C,RV7*%
X136350000Y187365000D02*
X141070000Y187365000D01*
X136350000Y186175000D02*
X136350000Y187355000D01*
X136350000Y183275000D02*
X136350000Y183805000D01*
X136350000Y180825000D02*
X136350000Y181655000D01*
X136350000Y177615000D02*
X136350000Y179105000D01*
X136350000Y177615000D02*
X141070000Y177615000D01*
X144880000Y187355000D02*
X147940000Y187355000D01*
X144880000Y177615000D02*
X147940000Y177615000D01*
X147940000Y177615000D02*
X147940000Y187355000D01*
%TO.C,R8*%
X310670000Y196750000D02*
X313980000Y196750000D01*
X323830000Y196750000D02*
X320520000Y196750000D01*
X313980000Y198120000D02*
X320520000Y198120000D01*
X320520000Y195380000D01*
X313980000Y195380000D01*
X313980000Y198120000D01*
%TO.C,J3*%
X267120000Y187190000D02*
X268500000Y187190000D01*
X267120000Y185810000D02*
X267120000Y187190000D01*
X267120000Y184540000D02*
X267120000Y176810000D01*
X267120000Y184540000D02*
X269880000Y184540000D01*
X267120000Y176810000D02*
X269880000Y176810000D01*
X269880000Y184540000D02*
X269880000Y176810000D01*
%TO.C,RV1*%
X12440000Y187365000D02*
X17160000Y187365000D01*
X12440000Y186175000D02*
X12440000Y187355000D01*
X12440000Y183275000D02*
X12440000Y183805000D01*
X12440000Y180825000D02*
X12440000Y181655000D01*
X12440000Y177615000D02*
X12440000Y179105000D01*
X12440000Y177615000D02*
X17160000Y177615000D01*
X20970000Y187355000D02*
X24030000Y187355000D01*
X20970000Y177615000D02*
X24030000Y177615000D01*
X24030000Y177615000D02*
X24030000Y187355000D01*
%TO.C,RV2*%
X31475000Y187315000D02*
X36195000Y187315000D01*
X31475000Y186125000D02*
X31475000Y187305000D01*
X31475000Y183225000D02*
X31475000Y183755000D01*
X31475000Y180775000D02*
X31475000Y181605000D01*
X31475000Y177565000D02*
X31475000Y179055000D01*
X31475000Y177565000D02*
X36195000Y177565000D01*
X40005000Y187305000D02*
X43065000Y187305000D01*
X40005000Y177565000D02*
X43065000Y177565000D01*
X43065000Y177565000D02*
X43065000Y187305000D01*
%TO.C,RV5*%
X98250000Y187380000D02*
X102970000Y187380000D01*
X98250000Y186190000D02*
X98250000Y187370000D01*
X98250000Y183290000D02*
X98250000Y183820000D01*
X98250000Y180840000D02*
X98250000Y181670000D01*
X98250000Y177630000D02*
X98250000Y179120000D01*
X98250000Y177630000D02*
X102970000Y177630000D01*
X106780000Y187370000D02*
X109840000Y187370000D01*
X106780000Y177630000D02*
X109840000Y177630000D01*
X109840000Y177630000D02*
X109840000Y187370000D01*
%TO.C,D1*%
X335880000Y177196000D02*
X335880000Y177040000D01*
X335880000Y174880000D02*
X335880000Y174724000D01*
X335880000Y177195516D02*
G75*
G02*
X339111437Y177040000I1560000J-1235516D01*
G01*
X336399039Y177040000D02*
G75*
G02*
X338480961Y177040000I1040961J-1080000D01*
G01*
X338480961Y174880000D02*
G75*
G02*
X336399039Y174880000I-1040961J1080000D01*
G01*
X339111437Y174880000D02*
G75*
G02*
X335880000Y174724484I-1671437J1080000D01*
G01*
%TO.C,R7*%
X291420000Y196750000D02*
X294730000Y196750000D01*
X304580000Y196750000D02*
X301270000Y196750000D01*
X294730000Y198120000D02*
X301270000Y198120000D01*
X301270000Y195380000D01*
X294730000Y195380000D01*
X294730000Y198120000D01*
%TO.C,D13*%
X344730000Y189000000D02*
X345380000Y189000000D01*
X345980000Y190120000D02*
X345980000Y187880000D01*
X346100000Y190120000D02*
X346100000Y187880000D01*
X346220000Y190120000D02*
X346220000Y187880000D01*
X350270000Y189000000D02*
X349620000Y189000000D01*
X345380000Y190120000D02*
X349620000Y190120000D01*
X349620000Y187880000D01*
X345380000Y187880000D01*
X345380000Y190120000D01*
%TO.C,RV10*%
X202930000Y187340000D02*
X207650000Y187340000D01*
X202930000Y186150000D02*
X202930000Y187330000D01*
X202930000Y183250000D02*
X202930000Y183780000D01*
X202930000Y180800000D02*
X202930000Y181630000D01*
X202930000Y177590000D02*
X202930000Y179080000D01*
X202930000Y177590000D02*
X207650000Y177590000D01*
X211460000Y187330000D02*
X214520000Y187330000D01*
X211460000Y177590000D02*
X214520000Y177590000D01*
X214520000Y177590000D02*
X214520000Y187330000D01*
%TO.C,RV11*%
X222060000Y187355000D02*
X226780000Y187355000D01*
X222060000Y186165000D02*
X222060000Y187345000D01*
X222060000Y183265000D02*
X222060000Y183795000D01*
X222060000Y180815000D02*
X222060000Y181645000D01*
X222060000Y177605000D02*
X222060000Y179095000D01*
X222060000Y177605000D02*
X226780000Y177605000D01*
X230590000Y187345000D02*
X233650000Y187345000D01*
X230590000Y177605000D02*
X233650000Y177605000D01*
X233650000Y177605000D02*
X233650000Y187345000D01*
%TO.C,R2*%
X359490000Y170920000D02*
X360440000Y170920000D01*
X365230000Y170920000D02*
X364280000Y170920000D01*
X360440000Y171840000D02*
X364280000Y171840000D01*
X364280000Y170000000D01*
X360440000Y170000000D01*
X360440000Y171840000D01*
%TO.C,J2*%
X397650000Y166432500D02*
X397650000Y161832500D01*
X397650000Y159132500D02*
X397650000Y160232500D01*
X399250000Y167232500D02*
X399750000Y166732500D01*
X399750000Y166732500D02*
X400250000Y167232500D01*
X400250000Y167232500D02*
X399250000Y167232500D01*
X409050000Y166432500D02*
X397650000Y166432500D01*
X409050000Y166432500D02*
X409050000Y166132500D01*
X409050000Y166132500D02*
X411850000Y166132500D01*
X409050000Y160332500D02*
X409050000Y159132500D01*
X409050000Y160332500D02*
X411850000Y160332500D01*
X409050000Y159132500D02*
X397650000Y159132500D01*
X411850000Y160332500D02*
X411850000Y166132500D01*
%TO.C,RV3*%
X50545000Y187355000D02*
X55265000Y187355000D01*
X50545000Y186165000D02*
X50545000Y187345000D01*
X50545000Y183265000D02*
X50545000Y183795000D01*
X50545000Y180815000D02*
X50545000Y181645000D01*
X50545000Y177605000D02*
X50545000Y179095000D01*
X50545000Y177605000D02*
X55265000Y177605000D01*
X59075000Y187345000D02*
X62135000Y187345000D01*
X59075000Y177605000D02*
X62135000Y177605000D01*
X62135000Y177605000D02*
X62135000Y187345000D01*
%TO.C,R1*%
X334580000Y170890000D02*
X335530000Y170890000D01*
X340320000Y170890000D02*
X339370000Y170890000D01*
X335530000Y171810000D02*
X339370000Y171810000D01*
X339370000Y169970000D01*
X335530000Y169970000D01*
X335530000Y171810000D01*
%TO.C,R6*%
X311040000Y171750000D02*
X314350000Y171750000D01*
X324200000Y171750000D02*
X320890000Y171750000D01*
X314350000Y173120000D02*
X320890000Y173120000D01*
X320890000Y170380000D01*
X314350000Y170380000D01*
X314350000Y173120000D01*
%TO.C,R4*%
X311170000Y162000000D02*
X314480000Y162000000D01*
X324330000Y162000000D02*
X321020000Y162000000D01*
X321020000Y160630000D02*
X314480000Y160630000D01*
X314480000Y163370000D01*
X321020000Y163370000D01*
X321020000Y160630000D01*
%TO.C,J6*%
X262540000Y199890000D02*
X262540000Y196560000D01*
X262540000Y196560000D02*
X263590000Y196560000D01*
X264110000Y201280000D02*
X263610000Y201280000D01*
X264410000Y200780000D02*
X264110000Y201280000D01*
X267490000Y200780000D02*
X264410000Y200780000D01*
X267790000Y201280000D02*
X267490000Y200780000D01*
X268290000Y201280000D02*
X267790000Y201280000D01*
X268310000Y196560000D02*
X268310000Y196350000D01*
X269360000Y199890000D02*
X269360000Y196560000D01*
X269360000Y196560000D02*
X268310000Y196560000D01*
%TO.C,RV12*%
X241040000Y187360000D02*
X245760000Y187360000D01*
X241040000Y186170000D02*
X241040000Y187350000D01*
X241040000Y183270000D02*
X241040000Y183800000D01*
X241040000Y180820000D02*
X241040000Y181650000D01*
X241040000Y177610000D02*
X241040000Y179100000D01*
X241040000Y177610000D02*
X245760000Y177610000D01*
X249570000Y187350000D02*
X252630000Y187350000D01*
X249570000Y177610000D02*
X252630000Y177610000D01*
X252630000Y177610000D02*
X252630000Y187350000D01*
%TO.C,D2*%
X360795000Y177211000D02*
X360795000Y177055000D01*
X360795000Y174895000D02*
X360795000Y174739000D01*
X360795000Y177210516D02*
G75*
G02*
X364026437Y177055000I1560000J-1235516D01*
G01*
X361314039Y177055000D02*
G75*
G02*
X363395961Y177055000I1040961J-1080000D01*
G01*
X363395961Y174895000D02*
G75*
G02*
X361314039Y174895000I-1040961J1080000D01*
G01*
X364026437Y174895000D02*
G75*
G02*
X360795000Y174739484I-1671437J1080000D01*
G01*
%TO.C,D3*%
X385870000Y177186000D02*
X385870000Y177030000D01*
X385870000Y174870000D02*
X385870000Y174714000D01*
X385870000Y177185516D02*
G75*
G02*
X389101437Y177030000I1560000J-1235516D01*
G01*
X386389039Y177030000D02*
G75*
G02*
X388470961Y177030000I1040961J-1080000D01*
G01*
X388470961Y174870000D02*
G75*
G02*
X386389039Y174870000I-1040961J1080000D01*
G01*
X389101437Y174870000D02*
G75*
G02*
X385870000Y174714484I-1671437J1080000D01*
G01*
%TO.C,R3*%
X384560000Y170870000D02*
X385510000Y170870000D01*
X390300000Y170870000D02*
X389350000Y170870000D01*
X385510000Y171790000D02*
X389350000Y171790000D01*
X389350000Y169950000D01*
X385510000Y169950000D01*
X385510000Y171790000D01*
%TD*%
M02*
