%TF.GenerationSoftware,KiCad,Pcbnew,9.0.8*%
%TF.CreationDate,2026-03-28T21:20:13-05:00*%
%TF.ProjectId,keyboard_keyboard,6b657962-6f61-4726-945f-6b6579626f61,rev?*%
%TF.SameCoordinates,Original*%
%TF.FileFunction,Profile,NP*%
%FSLAX46Y46*%
G04 Gerber Fmt 4.6, Leading zero omitted, Abs format (unit mm)*
G04 Created by KiCad (PCBNEW 9.0.8) date 2026-03-28 21:20:13*
%MOMM*%
%LPD*%
G01*
G04 APERTURE LIST*
%TA.AperFunction,Profile*%
%ADD10C,0.100000*%
%TD*%
G04 APERTURE END LIST*
D10*
X-35215730Y200606855D02*
X-35215730Y41856855D01*
X-35215730Y200606855D02*
G75*
G02*
X-33183730Y202638855I2032000J0D01*
G01*
X-33183730Y39824855D02*
G75*
G02*
X-35215730Y41856855I0J2032000D01*
G01*
X-33183730Y39824855D02*
X-8799730Y39824855D01*
X-8799730Y44396855D02*
X-4735730Y44396855D01*
X-8799730Y39824855D02*
X-8799730Y44396855D01*
X-4735730Y44396855D02*
X-4735730Y39824855D01*
X-4735730Y39824855D02*
X64352270Y39824855D01*
X64352270Y44396855D02*
X68416270Y44396855D01*
X64352270Y39824855D02*
X64352270Y44396855D01*
X68416270Y44396855D02*
X68416270Y39824855D01*
X68416270Y39824855D02*
X125566270Y39824855D01*
X125566270Y44396855D02*
X129376270Y44396855D01*
X125566270Y39824855D02*
X125566270Y44396855D01*
X129376270Y44396855D02*
X129376270Y39824855D01*
X129376270Y39824855D02*
X185510270Y39824855D01*
X185510270Y44396855D02*
X189574270Y44396855D01*
X185510270Y39824855D02*
X185510270Y44396855D01*
X189574270Y44396855D02*
X189574270Y39824855D01*
X189574270Y39824855D02*
X245962270Y39824855D01*
X245962270Y44396855D02*
X250280270Y44396855D01*
X245962270Y39824855D02*
X245962270Y44396855D01*
X250280270Y44396855D02*
X250280270Y39824855D01*
X250280270Y39824855D02*
X306668270Y39824855D01*
X306668270Y44396855D02*
X310732270Y44396855D01*
X306668270Y39824855D02*
X306668270Y44396855D01*
X310732270Y44396855D02*
X310732270Y39824855D01*
X310732270Y39824855D02*
X386932270Y39824855D01*
X386932270Y44396855D02*
X390742270Y44396855D01*
X386932270Y39824855D02*
X386932270Y44396855D01*
X390742270Y44396855D02*
X390742270Y39824855D01*
X390742270Y39824855D02*
X409792270Y39824855D01*
X409792270Y202638855D02*
X-33183730Y202638855D01*
X409792270Y202638855D02*
G75*
G02*
X411824255Y200606855I30J-2031955D01*
G01*
X411824270Y41856855D02*
G75*
G02*
X409792270Y39824930I-2031970J45D01*
G01*
X411824270Y41856855D02*
X411824270Y200606855D01*
M02*
