%TF.GenerationSoftware,KiCad,Pcbnew,9.0.8*%
%TF.CreationDate,2026-03-28T21:20:13-05:00*%
%TF.ProjectId,keyboard_keyboard,6b657962-6f61-4726-945f-6b6579626f61,rev?*%
%TF.SameCoordinates,Original*%
%TF.FileFunction,Soldermask,Bot*%
%TF.FilePolarity,Negative*%
%FSLAX46Y46*%
G04 Gerber Fmt 4.6, Leading zero omitted, Abs format (unit mm)*
G04 Created by KiCad (PCBNEW 9.0.8) date 2026-03-28 21:20:13*
%MOMM*%
%LPD*%
G01*
G04 APERTURE LIST*
G04 Aperture macros list*
%AMRoundRect*
0 Rectangle with rounded corners*
0 $1 Rounding radius*
0 $2 $3 $4 $5 $6 $7 $8 $9 X,Y pos of 4 corners*
0 Add a 4 corners polygon primitive as box body*
4,1,4,$2,$3,$4,$5,$6,$7,$8,$9,$2,$3,0*
0 Add four circle primitives for the rounded corners*
1,1,$1+$1,$2,$3*
1,1,$1+$1,$4,$5*
1,1,$1+$1,$6,$7*
1,1,$1+$1,$8,$9*
0 Add four rect primitives between the rounded corners*
20,1,$1+$1,$2,$3,$4,$5,0*
20,1,$1+$1,$4,$5,$6,$7,0*
20,1,$1+$1,$6,$7,$8,$9,0*
20,1,$1+$1,$8,$9,$2,$3,0*%
G04 Aperture macros list end*
%ADD10R,1.700000X1.700000*%
%ADD11C,1.700000*%
%ADD12C,1.600000*%
%ADD13RoundRect,0.250000X0.550000X-0.550000X0.550000X0.550000X-0.550000X0.550000X-0.550000X-0.550000X0*%
%ADD14O,1.200000X1.750000*%
%ADD15RoundRect,0.250000X0.350000X0.625000X-0.350000X0.625000X-0.350000X-0.625000X0.350000X-0.625000X0*%
%ADD16RoundRect,0.250000X-0.550000X-0.550000X0.550000X-0.550000X0.550000X0.550000X-0.550000X0.550000X0*%
%ADD17C,1.750000*%
%ADD18C,3.000000*%
%ADD19C,1.800000*%
%ADD20R,1.800000X1.800000*%
%ADD21O,3.240000X2.720000*%
%ADD22R,2.000000X1.400000*%
%ADD23O,2.000000X1.400000*%
%ADD24C,1.200000*%
%ADD25C,1.400000*%
%ADD26RoundRect,0.150000X-0.150000X0.512500X-0.150000X-0.512500X0.150000X-0.512500X0.150000X0.512500X0*%
%ADD27RoundRect,0.140000X-0.170000X0.140000X-0.170000X-0.140000X0.170000X-0.140000X0.170000X0.140000X0*%
%ADD28RoundRect,0.140000X0.170000X-0.140000X0.170000X0.140000X-0.170000X0.140000X-0.170000X-0.140000X0*%
%ADD29RoundRect,0.100000X-0.100000X0.637500X-0.100000X-0.637500X0.100000X-0.637500X0.100000X0.637500X0*%
%ADD30RoundRect,0.150000X-0.150000X0.825000X-0.150000X-0.825000X0.150000X-0.825000X0.150000X0.825000X0*%
G04 APERTURE END LIST*
D10*
%TO.C,J7*%
X269250000Y193750000D03*
D11*
X266710000Y193750000D03*
X264170000Y193750000D03*
X261630000Y193750000D03*
%TD*%
D12*
%TO.C,U2*%
X328940000Y191815000D03*
X331480000Y191815000D03*
X334020000Y191815000D03*
X336560000Y191815000D03*
X336560000Y184195000D03*
X334020000Y184195000D03*
X331480000Y184195000D03*
D13*
X328940000Y184195000D03*
%TD*%
D12*
%TO.C,R8*%
X324870000Y196750000D03*
X309630000Y196750000D03*
%TD*%
%TO.C,R7*%
X305620000Y196750000D03*
X290380000Y196750000D03*
%TD*%
%TO.C,R6*%
X325240000Y171750000D03*
X310000000Y171750000D03*
%TD*%
%TO.C,R5*%
X310130000Y167500000D03*
X325370000Y167500000D03*
%TD*%
%TO.C,R4*%
X310130000Y162000000D03*
X325370000Y162000000D03*
%TD*%
D14*
%TO.C,J5*%
X329000000Y197000000D03*
X331000000Y197000000D03*
X333000000Y197000000D03*
X335000000Y197000000D03*
D15*
X337000000Y197000000D03*
%TD*%
D14*
%TO.C,J4*%
X344750000Y197000000D03*
X346750000Y197000000D03*
X348750000Y197000000D03*
X350750000Y197000000D03*
D15*
X352750000Y197000000D03*
%TD*%
D12*
%TO.C,D13*%
X351310000Y189000000D03*
D16*
X343690000Y189000000D03*
%TD*%
D17*
%TO.C,MX36*%
X108170000Y100260000D03*
X98010000Y100260000D03*
%TD*%
%TO.C,MX61*%
X40860000Y59110000D03*
X51020000Y59110000D03*
%TD*%
%TO.C,MX9*%
X146254903Y141361908D03*
X136094903Y141361908D03*
%TD*%
%TO.C,MX84*%
X402190000Y141350000D03*
X392030000Y141350000D03*
%TD*%
%TO.C,MX38*%
X146270000Y100260000D03*
X136110000Y100260000D03*
%TD*%
%TO.C,MX35*%
X89120000Y100260000D03*
X78960000Y100260000D03*
%TD*%
%TO.C,MX20*%
X79569270Y120796355D03*
X69409270Y120796355D03*
%TD*%
%TO.C,MX81*%
X345007029Y141388506D03*
X334847029Y141388506D03*
%TD*%
%TO.C,MX80*%
X317090000Y59130000D03*
X306930000Y59130000D03*
%TD*%
D18*
%TO.C,H20*%
X330412270Y127460855D03*
%TD*%
D17*
%TO.C,MX7*%
X108154903Y141361908D03*
X97994903Y141361908D03*
%TD*%
D18*
%TO.C,H37*%
X65072270Y65460855D03*
%TD*%
%TO.C,H49*%
X264372270Y44890855D03*
%TD*%
%TO.C,H24*%
X193582270Y106640855D03*
%TD*%
D17*
%TO.C,MX58*%
X240900000Y79710000D03*
X251060000Y79710000D03*
%TD*%
%TO.C,MX95*%
X383100000Y79700000D03*
X372940000Y79700000D03*
%TD*%
D18*
%TO.C,H3*%
X93572270Y189400855D03*
%TD*%
D19*
%TO.C,RV8*%
X154520000Y179995000D03*
X154520000Y182495000D03*
D20*
X154520000Y184995000D03*
D21*
X162020000Y177695000D03*
X162020000Y187295000D03*
%TD*%
D17*
%TO.C,MX4*%
X51004903Y141361908D03*
X40844903Y141361908D03*
%TD*%
D18*
%TO.C,H29*%
X12602270Y86070855D03*
%TD*%
D17*
%TO.C,MX99*%
X383110000Y59150000D03*
X372950000Y59150000D03*
%TD*%
D18*
%TO.C,H46*%
X89182270Y44870855D03*
%TD*%
D19*
%TO.C,RV6*%
X116395000Y179970000D03*
X116395000Y182470000D03*
D20*
X116395000Y184970000D03*
D21*
X123895000Y177670000D03*
X123895000Y187270000D03*
%TD*%
D18*
%TO.C,H34*%
X330392270Y86180855D03*
%TD*%
D17*
%TO.C,MX49*%
X79609270Y79693855D03*
X69449270Y79693855D03*
%TD*%
D18*
%TO.C,H22*%
X41182270Y106460855D03*
%TD*%
D17*
%TO.C,MX33*%
X51020000Y100260000D03*
X40860000Y100260000D03*
%TD*%
%TO.C,MX59*%
X-10890000Y59120000D03*
X-21050000Y59120000D03*
%TD*%
D18*
%TO.C,H8*%
X45942270Y148090855D03*
%TD*%
D19*
%TO.C,RV9*%
X183090000Y179975000D03*
X183090000Y182475000D03*
D20*
X183090000Y184975000D03*
D21*
X190590000Y177675000D03*
X190590000Y187275000D03*
%TD*%
D17*
%TO.C,MX78*%
X278970000Y59110000D03*
X268810000Y59110000D03*
%TD*%
D19*
%TO.C,RV4*%
X68755000Y180015000D03*
X68755000Y182515000D03*
D20*
X68755000Y185015000D03*
D21*
X76255000Y177715000D03*
X76255000Y187315000D03*
%TD*%
D17*
%TO.C,MX54*%
X174879270Y79683855D03*
X164719270Y79683855D03*
%TD*%
%TO.C,MX37*%
X127220000Y100260000D03*
X117060000Y100260000D03*
%TD*%
D22*
%TO.C,J1*%
X399330000Y177602500D03*
D23*
X397830000Y173102500D03*
X406330000Y177602500D03*
X403330000Y177602500D03*
X406330000Y172102500D03*
D24*
X398030000Y175302500D03*
X405030000Y175302500D03*
%TD*%
D17*
%TO.C,MX79*%
X298037621Y59145943D03*
X287877621Y59145943D03*
%TD*%
D19*
%TO.C,RV7*%
X135470000Y179985000D03*
X135470000Y182485000D03*
D20*
X135470000Y184985000D03*
D21*
X142970000Y177685000D03*
X142970000Y187285000D03*
%TD*%
D18*
%TO.C,H28*%
X406722270Y106420855D03*
%TD*%
D17*
%TO.C,MX72*%
X298030000Y141360000D03*
X287870000Y141360000D03*
%TD*%
D18*
%TO.C,H35*%
X406722270Y86050855D03*
%TD*%
D17*
%TO.C,MX11*%
X184354903Y141369408D03*
X174194903Y141369408D03*
%TD*%
D18*
%TO.C,H41*%
X264372270Y65550855D03*
%TD*%
%TO.C,H58*%
X302472270Y168790855D03*
%TD*%
D11*
%TO.C,J3*%
X268500000Y178190000D03*
X268500000Y180730000D03*
X268500000Y183270000D03*
D10*
X268500000Y185810000D03*
%TD*%
D17*
%TO.C,MX77*%
X298067500Y79692500D03*
X287907500Y79692500D03*
%TD*%
D18*
%TO.C,H39*%
X165402270Y65540855D03*
%TD*%
%TO.C,H31*%
X126912270Y86300855D03*
%TD*%
D17*
%TO.C,MX19*%
X60519270Y120796355D03*
X50359270Y120796355D03*
%TD*%
D18*
%TO.C,H52*%
X-11207730Y168580855D03*
%TD*%
D17*
%TO.C,MX85*%
X345010000Y120810000D03*
X334850000Y120810000D03*
%TD*%
D18*
%TO.C,H10*%
X160242270Y148220855D03*
%TD*%
%TO.C,H9*%
X103092270Y148210855D03*
%TD*%
D17*
%TO.C,MX14*%
X246279270Y141373855D03*
X236119270Y141373855D03*
%TD*%
D19*
%TO.C,RV1*%
X11560000Y179985000D03*
X11560000Y182485000D03*
D20*
X11560000Y184985000D03*
D21*
X19060000Y177685000D03*
X19060000Y187285000D03*
%TD*%
D18*
%TO.C,H43*%
X406722270Y65300855D03*
%TD*%
D17*
%TO.C,MX34*%
X70070000Y100260000D03*
X59910000Y100260000D03*
%TD*%
D19*
%TO.C,RV2*%
X30595000Y179935000D03*
X30595000Y182435000D03*
D20*
X30595000Y184935000D03*
D21*
X38095000Y177635000D03*
X38095000Y187235000D03*
%TD*%
D17*
%TO.C,MX32*%
X31970000Y100260000D03*
X21810000Y100260000D03*
%TD*%
%TO.C,MX63*%
X78940000Y59110000D03*
X89100000Y59110000D03*
%TD*%
%TO.C,MX53*%
X155809270Y79693855D03*
X145649270Y79693855D03*
%TD*%
D18*
%TO.C,H26*%
X302472270Y106580855D03*
%TD*%
D17*
%TO.C,MX13*%
X222454903Y141369408D03*
X212294903Y141369408D03*
%TD*%
%TO.C,MX60*%
X21789270Y59098855D03*
X31949270Y59098855D03*
%TD*%
%TO.C,MX43*%
X246230000Y100200000D03*
X236070000Y100200000D03*
%TD*%
%TO.C,MX40*%
X184370000Y100260000D03*
X174210000Y100260000D03*
%TD*%
%TO.C,MX97*%
X345010000Y59120000D03*
X334850000Y59120000D03*
%TD*%
D18*
%TO.C,H7*%
X-11207730Y147990855D03*
%TD*%
D19*
%TO.C,RV5*%
X97370000Y180000000D03*
X97370000Y182500000D03*
D20*
X97370000Y185000000D03*
D21*
X104870000Y177700000D03*
X104870000Y187300000D03*
%TD*%
D17*
%TO.C,MX44*%
X-15650000Y79680000D03*
X-25810000Y79680000D03*
%TD*%
D19*
%TO.C,D1*%
X338710000Y175960000D03*
D20*
X336170000Y175960000D03*
%TD*%
D18*
%TO.C,H48*%
X205812270Y44900855D03*
%TD*%
%TO.C,H4*%
X179302270Y189430855D03*
%TD*%
D17*
%TO.C,MX68*%
X174220000Y59130000D03*
X184380000Y59130000D03*
%TD*%
%TO.C,MX16*%
X3378540Y120817710D03*
X-6781460Y120817710D03*
%TD*%
%TO.C,MX5*%
X70054903Y141361908D03*
X59894903Y141361908D03*
%TD*%
D18*
%TO.C,H6*%
X321742270Y189400855D03*
%TD*%
D17*
%TO.C,MX39*%
X165320000Y100260000D03*
X155160000Y100260000D03*
%TD*%
D18*
%TO.C,H1*%
X-30267730Y189150855D03*
%TD*%
D17*
%TO.C,MX94*%
X364060000Y79700000D03*
X353900000Y79700000D03*
%TD*%
%TO.C,MX55*%
X183760000Y79690000D03*
X193920000Y79690000D03*
%TD*%
%TO.C,MX87*%
X383110000Y120815000D03*
X372950000Y120815000D03*
%TD*%
%TO.C,MX18*%
X41469270Y120796355D03*
X31309270Y120796355D03*
%TD*%
%TO.C,MX62*%
X59920000Y59120000D03*
X70080000Y59120000D03*
%TD*%
%TO.C,MX3*%
X31963872Y141373170D03*
X21803872Y141373170D03*
%TD*%
D18*
%TO.C,H36*%
X-6107730Y65320855D03*
%TD*%
%TO.C,H25*%
X264372270Y106600855D03*
%TD*%
%TO.C,H55*%
X141232270Y168830855D03*
%TD*%
D17*
%TO.C,MX93*%
X345000000Y79680000D03*
X334840000Y79680000D03*
%TD*%
%TO.C,MX69*%
X193290000Y59110000D03*
X203450000Y59110000D03*
%TD*%
%TO.C,MX30*%
X-10900000Y100250000D03*
X-21060000Y100250000D03*
%TD*%
%TO.C,MX71*%
X278980000Y141380000D03*
X268820000Y141380000D03*
%TD*%
%TO.C,MX12*%
X203404903Y141369408D03*
X193244903Y141369408D03*
%TD*%
D18*
%TO.C,H13*%
X368502270Y148080855D03*
%TD*%
%TO.C,H21*%
X-27917730Y106380855D03*
%TD*%
D17*
%TO.C,MX74*%
X278970000Y120840000D03*
X268810000Y120840000D03*
%TD*%
%TO.C,MX90*%
X364050000Y100240000D03*
X353890000Y100240000D03*
%TD*%
%TO.C,MX26*%
X193869270Y120796355D03*
X183709270Y120796355D03*
%TD*%
D19*
%TO.C,RV10*%
X202050000Y179960000D03*
X202050000Y182460000D03*
D20*
X202050000Y184960000D03*
D21*
X209550000Y177660000D03*
X209550000Y187260000D03*
%TD*%
D18*
%TO.C,H12*%
X302472270Y148190855D03*
%TD*%
D17*
%TO.C,MX76*%
X317070000Y120800000D03*
X306910000Y120800000D03*
%TD*%
%TO.C,MX73*%
X317060000Y141370000D03*
X306900000Y141370000D03*
%TD*%
%TO.C,MX91*%
X383090000Y100230000D03*
X372930000Y100230000D03*
%TD*%
%TO.C,MX64*%
X98020000Y59120000D03*
X108180000Y59120000D03*
%TD*%
%TO.C,MX56*%
X202810000Y79700000D03*
X212970000Y79700000D03*
%TD*%
%TO.C,MX98*%
X364060000Y59140000D03*
X353900000Y59140000D03*
%TD*%
%TO.C,MX47*%
X41509270Y79693855D03*
X31349270Y79693855D03*
%TD*%
%TO.C,MX23*%
X136719270Y120796355D03*
X126559270Y120796355D03*
%TD*%
D18*
%TO.C,H27*%
X349462270Y106480855D03*
%TD*%
D17*
%TO.C,MX67*%
X155180000Y59120000D03*
X165340000Y59120000D03*
%TD*%
%TO.C,MX57*%
X221850730Y79676145D03*
X232010730Y79676145D03*
%TD*%
%TO.C,MX6*%
X89104903Y141361908D03*
X78944903Y141361908D03*
%TD*%
%TO.C,MX31*%
X12922670Y100251099D03*
X2762670Y100251099D03*
%TD*%
D18*
%TO.C,H51*%
X406722270Y44680855D03*
%TD*%
D17*
%TO.C,MX8*%
X127204903Y141361908D03*
X117044903Y141361908D03*
%TD*%
%TO.C,MX51*%
X117709270Y79693855D03*
X107549270Y79693855D03*
%TD*%
D19*
%TO.C,RV11*%
X221180000Y179975000D03*
X221180000Y182475000D03*
D20*
X221180000Y184975000D03*
D21*
X228680000Y177675000D03*
X228680000Y187275000D03*
%TD*%
D18*
%TO.C,H38*%
X122302270Y65550855D03*
%TD*%
D17*
%TO.C,MX1*%
X-10898919Y141351339D03*
X-21058919Y141351339D03*
%TD*%
D25*
%TO.C,R2*%
X366170000Y170920000D03*
X358550000Y170920000D03*
%TD*%
D18*
%TO.C,H19*%
X264372270Y127540855D03*
%TD*%
D17*
%TO.C,MX46*%
X22459270Y79693855D03*
X12299270Y79693855D03*
%TD*%
D18*
%TO.C,H14*%
X406722270Y148040855D03*
%TD*%
D22*
%TO.C,J2*%
X399750000Y165532500D03*
D23*
X398250000Y161032500D03*
X406750000Y165532500D03*
X403750000Y165532500D03*
X406750000Y160032500D03*
D24*
X398450000Y163232500D03*
X405450000Y163232500D03*
%TD*%
D17*
%TO.C,MX29*%
X251019270Y120796355D03*
X240859270Y120796355D03*
%TD*%
D18*
%TO.C,H50*%
X321412270Y44810855D03*
%TD*%
D17*
%TO.C,MX83*%
X383110000Y141360000D03*
X372950000Y141360000D03*
%TD*%
%TO.C,MX48*%
X60559270Y79693855D03*
X50399270Y79693855D03*
%TD*%
%TO.C,MX88*%
X402160000Y120800000D03*
X392000000Y120800000D03*
%TD*%
D19*
%TO.C,RV3*%
X49665000Y179975000D03*
X49665000Y182475000D03*
D20*
X49665000Y184975000D03*
D21*
X57165000Y177675000D03*
X57165000Y187275000D03*
%TD*%
D17*
%TO.C,MX2*%
X12910301Y141372593D03*
X2750301Y141372593D03*
%TD*%
D25*
%TO.C,R1*%
X341260000Y170890000D03*
X333640000Y170890000D03*
%TD*%
D17*
%TO.C,MX96*%
X402170000Y79700000D03*
X392010000Y79700000D03*
%TD*%
D18*
%TO.C,H33*%
X264372270Y86280855D03*
%TD*%
D17*
%TO.C,MX28*%
X231969270Y120796355D03*
X221809270Y120796355D03*
%TD*%
%TO.C,MX52*%
X136759270Y79693855D03*
X126599270Y79693855D03*
%TD*%
D18*
%TO.C,H53*%
X26902270Y168650855D03*
%TD*%
D17*
%TO.C,MX89*%
X345000000Y100250000D03*
X334840000Y100250000D03*
%TD*%
D18*
%TO.C,H40*%
X231692270Y65550855D03*
%TD*%
%TO.C,H11*%
X236452270Y148230855D03*
%TD*%
D17*
%TO.C,MX45*%
X3409270Y79693855D03*
X-6750730Y79693855D03*
%TD*%
D18*
%TO.C,H44*%
X-30157730Y44640855D03*
%TD*%
%TO.C,H47*%
X160322270Y44870855D03*
%TD*%
%TO.C,H45*%
X12982270Y44700855D03*
%TD*%
%TO.C,H5*%
X236462270Y189450855D03*
%TD*%
%TO.C,H54*%
X84082270Y168760855D03*
%TD*%
D17*
%TO.C,MX65*%
X117070000Y59120000D03*
X127230000Y59120000D03*
%TD*%
%TO.C,MX41*%
X203420000Y100260000D03*
X193260000Y100260000D03*
%TD*%
%TO.C,MX75*%
X298030000Y120817593D03*
X287870000Y120817593D03*
%TD*%
%TO.C,MX66*%
X136110000Y59110000D03*
X146270000Y59110000D03*
%TD*%
%TO.C,MX70*%
X246275726Y59148750D03*
X236115726Y59148750D03*
%TD*%
D18*
%TO.C,H2*%
X45932270Y189320855D03*
%TD*%
%TO.C,H23*%
X117382270Y106620855D03*
%TD*%
D17*
%TO.C,MX50*%
X98659270Y79693855D03*
X88499270Y79693855D03*
%TD*%
D18*
%TO.C,H30*%
X88802270Y86240855D03*
%TD*%
%TO.C,H56*%
X198422270Y168840855D03*
%TD*%
D17*
%TO.C,MX17*%
X22444801Y120785714D03*
X12284801Y120785714D03*
%TD*%
%TO.C,MX100*%
X402160000Y59150000D03*
X392000000Y59150000D03*
%TD*%
D18*
%TO.C,H42*%
X302472270Y65500855D03*
%TD*%
D17*
%TO.C,MX82*%
X364077500Y141382500D03*
X353917500Y141382500D03*
%TD*%
%TO.C,MX27*%
X212919270Y120796355D03*
X202759270Y120796355D03*
%TD*%
D19*
%TO.C,RV12*%
X240160000Y179980000D03*
X240160000Y182480000D03*
D20*
X240160000Y184980000D03*
D21*
X247660000Y177680000D03*
X247660000Y187280000D03*
%TD*%
D17*
%TO.C,MX21*%
X98619270Y120796355D03*
X88459270Y120796355D03*
%TD*%
%TO.C,MX15*%
X-15690000Y120797500D03*
X-25850000Y120797500D03*
%TD*%
D19*
%TO.C,D2*%
X363625000Y175975000D03*
D20*
X361085000Y175975000D03*
%TD*%
D17*
%TO.C,MX42*%
X222470000Y100260000D03*
X212310000Y100260000D03*
%TD*%
%TO.C,MX22*%
X117669270Y120796355D03*
X107509270Y120796355D03*
%TD*%
D18*
%TO.C,H57*%
X235432270Y168840855D03*
%TD*%
D17*
%TO.C,MX10*%
X165304903Y141369408D03*
X155144903Y141369408D03*
%TD*%
%TO.C,MX25*%
X174819270Y120796355D03*
X164659270Y120796355D03*
%TD*%
%TO.C,MX92*%
X402160000Y100250000D03*
X392000000Y100250000D03*
%TD*%
D19*
%TO.C,D3*%
X388700000Y175950000D03*
D20*
X386160000Y175950000D03*
%TD*%
D25*
%TO.C,R3*%
X391240000Y170870000D03*
X383620000Y170870000D03*
%TD*%
D18*
%TO.C,H32*%
X203122270Y86250855D03*
%TD*%
D17*
%TO.C,MX24*%
X155769270Y120796355D03*
X145609270Y120796355D03*
%TD*%
%TO.C,MX86*%
X364060000Y120810000D03*
X353900000Y120810000D03*
%TD*%
D26*
%TO.C,HE38*%
X141190000Y99122500D03*
X142140000Y101397500D03*
X140240000Y101397500D03*
%TD*%
%TO.C,HE84*%
X397110000Y140210000D03*
X398060000Y142485000D03*
X396160000Y142485000D03*
%TD*%
%TO.C,HE95*%
X378020000Y78570000D03*
X378970000Y80845000D03*
X377070000Y80845000D03*
%TD*%
D27*
%TO.C,C147*%
X70000000Y45520000D03*
X70000000Y46480000D03*
%TD*%
D26*
%TO.C,HE77*%
X292987500Y78542500D03*
X293937500Y80817500D03*
X292037500Y80817500D03*
%TD*%
D28*
%TO.C,C136*%
X182310625Y61227802D03*
X182310625Y60267802D03*
%TD*%
%TO.C,C28*%
X243799270Y142653855D03*
X243799270Y141693855D03*
%TD*%
D27*
%TO.C,C113*%
X223900000Y79690000D03*
X223900000Y80650000D03*
%TD*%
D28*
%TO.C,C196*%
X361590000Y122090000D03*
X361590000Y121130000D03*
%TD*%
D27*
%TO.C,C49*%
X167139270Y121116355D03*
X167139270Y122076355D03*
%TD*%
D28*
%TO.C,C50*%
X172339270Y122076355D03*
X172339270Y121116355D03*
%TD*%
D26*
%TO.C,HE29*%
X245939270Y119658855D03*
X246889270Y121933855D03*
X244989270Y121933855D03*
%TD*%
D27*
%TO.C,C173*%
X290350000Y121135000D03*
X290350000Y122095000D03*
%TD*%
D26*
%TO.C,HE40*%
X179290000Y99122500D03*
X180240000Y101397500D03*
X178340000Y101397500D03*
%TD*%
%TO.C,HE26*%
X188789270Y119658855D03*
X189739270Y121933855D03*
X187839270Y121933855D03*
%TD*%
D28*
%TO.C,C166*%
X276500000Y142660000D03*
X276500000Y141700000D03*
%TD*%
D27*
%TO.C,C25*%
X214774903Y141689408D03*
X214774903Y142649408D03*
%TD*%
%TO.C,C123*%
X62560000Y59660000D03*
X62560000Y60620000D03*
%TD*%
D28*
%TO.C,C176*%
X314600000Y122070000D03*
X314600000Y121110000D03*
%TD*%
D27*
%TO.C,C11*%
X81424903Y141681908D03*
X81424903Y142641908D03*
%TD*%
D26*
%TO.C,HE13*%
X217374903Y140231908D03*
X218324903Y142506908D03*
X216424903Y142506908D03*
%TD*%
D28*
%TO.C,C194*%
X342530000Y122090000D03*
X342530000Y121130000D03*
%TD*%
D27*
%TO.C,C117*%
X-19008132Y58698536D03*
X-19008132Y59658536D03*
%TD*%
%TO.C,C177*%
X290387500Y80002500D03*
X290387500Y80962500D03*
%TD*%
D28*
%TO.C,C44*%
X115189270Y122076355D03*
X115189270Y121116355D03*
%TD*%
D27*
%TO.C,C145*%
X50000000Y64520000D03*
X50000000Y65480000D03*
%TD*%
D29*
%TO.C,AM10*%
X322225000Y131637500D03*
X322875000Y131637500D03*
X323525000Y131637500D03*
X324175000Y131637500D03*
X324825000Y131637500D03*
X325475000Y131637500D03*
X326125000Y131637500D03*
X326775000Y131637500D03*
X326775000Y137362500D03*
X326125000Y137362500D03*
X325475000Y137362500D03*
X324825000Y137362500D03*
X324175000Y137362500D03*
X323525000Y137362500D03*
X322875000Y137362500D03*
X322225000Y137362500D03*
%TD*%
D26*
%TO.C,HE51*%
X112629270Y78556355D03*
X113579270Y80831355D03*
X111679270Y80831355D03*
%TD*%
D29*
%TO.C,AM1*%
X52955000Y128437500D03*
X53605000Y128437500D03*
X54255000Y128437500D03*
X54905000Y128437500D03*
X55555000Y128437500D03*
X56205000Y128437500D03*
X56855000Y128437500D03*
X57505000Y128437500D03*
X57505000Y134162500D03*
X56855000Y134162500D03*
X56205000Y134162500D03*
X55555000Y134162500D03*
X54905000Y134162500D03*
X54255000Y134162500D03*
X53605000Y134162500D03*
X52955000Y134162500D03*
%TD*%
D26*
%TO.C,HE76*%
X311990000Y119655093D03*
X312940000Y121930093D03*
X311040000Y121930093D03*
%TD*%
%TO.C,HE72*%
X292940301Y140222500D03*
X293890301Y142497500D03*
X291990301Y142497500D03*
%TD*%
%TO.C,HE100*%
X397080000Y58015093D03*
X398030000Y60290093D03*
X396130000Y60290093D03*
%TD*%
D27*
%TO.C,C41*%
X90939270Y121116355D03*
X90939270Y122076355D03*
%TD*%
%TO.C,C23*%
X195724903Y141689408D03*
X195724903Y142649408D03*
%TD*%
%TO.C,C189*%
X375430000Y141680000D03*
X375430000Y142640000D03*
%TD*%
%TO.C,C89*%
X-4270730Y80013855D03*
X-4270730Y80973855D03*
%TD*%
D28*
%TO.C,C72*%
X105690000Y101540000D03*
X105690000Y100580000D03*
%TD*%
D26*
%TO.C,HE81*%
X339927029Y140253506D03*
X340877029Y142528506D03*
X338977029Y142528506D03*
%TD*%
D28*
%TO.C,C26*%
X219974903Y142649408D03*
X219974903Y141689408D03*
%TD*%
D27*
%TO.C,C57*%
X243339270Y121116355D03*
X243339270Y122076355D03*
%TD*%
%TO.C,C139*%
X50500000Y126000000D03*
X50500000Y126960000D03*
%TD*%
D26*
%TO.C,HE80*%
X312010000Y57995000D03*
X312960000Y60270000D03*
X311060000Y60270000D03*
%TD*%
D28*
%TO.C,C188*%
X361597500Y142662500D03*
X361597500Y141702500D03*
%TD*%
%TO.C,C134*%
X163257330Y61198901D03*
X163257330Y60238901D03*
%TD*%
D27*
%TO.C,C33*%
X14764801Y121105714D03*
X14764801Y122065714D03*
%TD*%
D26*
%TO.C,HE90*%
X358970000Y99100000D03*
X359920000Y101375000D03*
X358020000Y101375000D03*
%TD*%
%TO.C,HE62*%
X64997330Y57981401D03*
X65947330Y60256401D03*
X64047330Y60256401D03*
%TD*%
%TO.C,HE37*%
X122140000Y99122500D03*
X123090000Y101397500D03*
X121190000Y101397500D03*
%TD*%
D27*
%TO.C,C95*%
X52879270Y80013855D03*
X52879270Y80973855D03*
%TD*%
D29*
%TO.C,AM15*%
X213600000Y161000000D03*
X214250000Y161000000D03*
X214900000Y161000000D03*
X215550000Y161000000D03*
X216200000Y161000000D03*
X216850000Y161000000D03*
X217500000Y161000000D03*
X218150000Y161000000D03*
X218150000Y166725000D03*
X217500000Y166725000D03*
X216850000Y166725000D03*
X216200000Y166725000D03*
X215550000Y166725000D03*
X214900000Y166725000D03*
X214250000Y166725000D03*
X213600000Y166725000D03*
%TD*%
D28*
%TO.C,C126*%
X86680000Y60580000D03*
X86680000Y59620000D03*
%TD*%
%TO.C,C84*%
X219990000Y101540000D03*
X219990000Y100580000D03*
%TD*%
%TO.C,C214*%
X380620000Y80980000D03*
X380620000Y80020000D03*
%TD*%
D27*
%TO.C,C129*%
X119320000Y59970000D03*
X119320000Y60930000D03*
%TD*%
D26*
%TO.C,HE58*%
X245967588Y78593942D03*
X246917588Y80868942D03*
X245017588Y80868942D03*
%TD*%
D27*
%TO.C,C179*%
X271290000Y59430000D03*
X271290000Y60390000D03*
%TD*%
D26*
%TO.C,HE41*%
X198340000Y99122500D03*
X199290000Y101397500D03*
X197390000Y101397500D03*
%TD*%
%TO.C,HE79*%
X292957621Y58010943D03*
X293907621Y60285943D03*
X292007621Y60285943D03*
%TD*%
%TO.C,HE83*%
X378030000Y140230000D03*
X378980000Y142505000D03*
X377080000Y142505000D03*
%TD*%
D28*
%TO.C,C116*%
X248915543Y80612541D03*
X248915543Y79652541D03*
%TD*%
D27*
%TO.C,C149*%
X364500000Y67020000D03*
X364500000Y67980000D03*
%TD*%
D26*
%TO.C,HE94*%
X358980000Y78570000D03*
X359930000Y80845000D03*
X358030000Y80845000D03*
%TD*%
D28*
%TO.C,C46*%
X134239270Y122076355D03*
X134239270Y121116355D03*
%TD*%
D27*
%TO.C,C67*%
X62390000Y100580000D03*
X62390000Y101540000D03*
%TD*%
D28*
%TO.C,C102*%
X115229270Y80973855D03*
X115229270Y80013855D03*
%TD*%
D26*
%TO.C,HE67*%
X160257330Y57981401D03*
X161207330Y60256401D03*
X159307330Y60256401D03*
%TD*%
D28*
%TO.C,C40*%
X77089270Y122076355D03*
X77089270Y121116355D03*
%TD*%
%TO.C,C58*%
X248539270Y122076355D03*
X248539270Y121116355D03*
%TD*%
%TO.C,C128*%
X106030000Y60240000D03*
X106030000Y59280000D03*
%TD*%
D27*
%TO.C,C47*%
X148089270Y121116355D03*
X148089270Y122076355D03*
%TD*%
%TO.C,C213*%
X375420000Y80020000D03*
X375420000Y80980000D03*
%TD*%
D26*
%TO.C,HE73*%
X311980000Y140220000D03*
X312930000Y142495000D03*
X311030000Y142495000D03*
%TD*%
D28*
%TO.C,C20*%
X162824903Y142649408D03*
X162824903Y141689408D03*
%TD*%
%TO.C,C212*%
X361580000Y80990000D03*
X361580000Y80030000D03*
%TD*%
D27*
%TO.C,C197*%
X375430000Y121145000D03*
X375430000Y122105000D03*
%TD*%
D26*
%TO.C,HE56*%
X207896128Y78569330D03*
X208846128Y80844330D03*
X206946128Y80844330D03*
%TD*%
D28*
%TO.C,C170*%
X314580000Y142640000D03*
X314580000Y141680000D03*
%TD*%
D27*
%TO.C,C219*%
X356380000Y59460000D03*
X356380000Y60420000D03*
%TD*%
D26*
%TO.C,HE8*%
X122124903Y140224408D03*
X123074903Y142499408D03*
X121174903Y142499408D03*
%TD*%
%TO.C,HE66*%
X141204132Y57987237D03*
X142154132Y60262237D03*
X140254132Y60262237D03*
%TD*%
D28*
%TO.C,C54*%
X210439270Y122076355D03*
X210439270Y121116355D03*
%TD*%
%TO.C,C60*%
X-13380000Y101530000D03*
X-13380000Y100570000D03*
%TD*%
D27*
%TO.C,C79*%
X176690000Y100580000D03*
X176690000Y101540000D03*
%TD*%
D28*
%TO.C,C96*%
X58079270Y80973855D03*
X58079270Y80013855D03*
%TD*%
D27*
%TO.C,C37*%
X52839270Y121116355D03*
X52839270Y122076355D03*
%TD*%
D26*
%TO.C,HE69*%
X198364035Y57970302D03*
X199314035Y60245302D03*
X197414035Y60245302D03*
%TD*%
D27*
%TO.C,C195*%
X356380000Y121130000D03*
X356380000Y122090000D03*
%TD*%
%TO.C,C93*%
X33829270Y80013855D03*
X33829270Y80973855D03*
%TD*%
%TO.C,C148*%
X364000000Y107020000D03*
X364000000Y107980000D03*
%TD*%
%TO.C,C215*%
X394490000Y80020000D03*
X394490000Y80980000D03*
%TD*%
D26*
%TO.C,HE48*%
X55479270Y78556355D03*
X56429270Y80831355D03*
X54529270Y80831355D03*
%TD*%
D27*
%TO.C,C169*%
X309380000Y141670000D03*
X309380000Y142630000D03*
%TD*%
D26*
%TO.C,HE42*%
X217390000Y99122500D03*
X218340000Y101397500D03*
X216440000Y101397500D03*
%TD*%
%TO.C,HE14*%
X241199270Y140236355D03*
X242149270Y142511355D03*
X240249270Y142511355D03*
%TD*%
%TO.C,HE34*%
X64990000Y99122500D03*
X65940000Y101397500D03*
X64040000Y101397500D03*
%TD*%
%TO.C,HE21*%
X93539270Y119658855D03*
X94489270Y121933855D03*
X92589270Y121933855D03*
%TD*%
D27*
%TO.C,C97*%
X71929270Y80013855D03*
X71929270Y80973855D03*
%TD*%
D28*
%TO.C,C164*%
X244480000Y60191458D03*
X244480000Y59231458D03*
%TD*%
D27*
%TO.C,C45*%
X129039270Y121116355D03*
X129039270Y122076355D03*
%TD*%
%TO.C,C107*%
X167199270Y80003855D03*
X167199270Y80963855D03*
%TD*%
%TO.C,C163*%
X237790000Y59620000D03*
X237790000Y60580000D03*
%TD*%
%TO.C,C127*%
X100350000Y59640000D03*
X100350000Y60600000D03*
%TD*%
D28*
%TO.C,C186*%
X342527029Y142678506D03*
X342527029Y141718506D03*
%TD*%
D27*
%TO.C,C83*%
X214790000Y100580000D03*
X214790000Y101540000D03*
%TD*%
D26*
%TO.C,HE9*%
X141174903Y140224408D03*
X142124903Y142499408D03*
X140224903Y142499408D03*
%TD*%
D27*
%TO.C,C7*%
X43324903Y141681908D03*
X43324903Y142641908D03*
%TD*%
D28*
%TO.C,C198*%
X380630000Y122095000D03*
X380630000Y121135000D03*
%TD*%
D29*
%TO.C,AM7*%
X52725000Y65778896D03*
X53375000Y65778896D03*
X54025000Y65778896D03*
X54675000Y65778896D03*
X55325000Y65778896D03*
X55975000Y65778896D03*
X56625000Y65778896D03*
X57275000Y65778896D03*
X57275000Y71503896D03*
X56625000Y71503896D03*
X55975000Y71503896D03*
X55325000Y71503896D03*
X54675000Y71503896D03*
X54025000Y71503896D03*
X53375000Y71503896D03*
X52725000Y71503896D03*
%TD*%
D28*
%TO.C,C202*%
X342520000Y101520000D03*
X342520000Y100560000D03*
%TD*%
D27*
%TO.C,C143*%
X51000000Y87540000D03*
X51000000Y88500000D03*
%TD*%
D28*
%TO.C,C104*%
X134279270Y80973855D03*
X134279270Y80013855D03*
%TD*%
D27*
%TO.C,C5*%
X24283872Y141693170D03*
X24283872Y142653170D03*
%TD*%
D26*
%TO.C,HE36*%
X103090000Y99122500D03*
X104040000Y101397500D03*
X102140000Y101397500D03*
%TD*%
D28*
%TO.C,C48*%
X153289270Y122076355D03*
X153289270Y121116355D03*
%TD*%
D26*
%TO.C,HE12*%
X198324903Y140231908D03*
X199274903Y142506908D03*
X197374903Y142506908D03*
%TD*%
D28*
%TO.C,C18*%
X143774903Y142641908D03*
X143774903Y141681908D03*
%TD*%
D26*
%TO.C,HE74*%
X273890000Y119705000D03*
X274840000Y121980000D03*
X272940000Y121980000D03*
%TD*%
D11*
%TO.C,A1*%
X408200000Y197740000D03*
X405660000Y197740000D03*
X403120000Y197740000D03*
X400580000Y197740000D03*
X398040000Y197740000D03*
X395500000Y197740000D03*
X392960000Y197740000D03*
X390420000Y197740000D03*
X387880000Y197740000D03*
X385340000Y197740000D03*
X382800000Y197740000D03*
X380260000Y197740000D03*
X377720000Y197740000D03*
X375180000Y197740000D03*
X372640000Y197740000D03*
X370100000Y197740000D03*
X367560000Y197740000D03*
X365020000Y197740000D03*
X362480000Y197740000D03*
X359940000Y197740000D03*
X359940000Y182500000D03*
X362480000Y182500000D03*
X365020000Y182500000D03*
X367560000Y182500000D03*
X370100000Y182500000D03*
X372640000Y182500000D03*
X375180000Y182500000D03*
X377720000Y182500000D03*
X380260000Y182500000D03*
X382800000Y182500000D03*
X385340000Y182500000D03*
X387880000Y182500000D03*
X390420000Y182500000D03*
X392960000Y182500000D03*
X395500000Y182500000D03*
X398040000Y182500000D03*
X400580000Y182500000D03*
X403120000Y182500000D03*
X405660000Y182500000D03*
D10*
X408200000Y182500000D03*
%TD*%
D27*
%TO.C,C185*%
X337327029Y141708506D03*
X337327029Y142668506D03*
%TD*%
D26*
%TO.C,HE93*%
X339930000Y78540000D03*
X340880000Y80815000D03*
X338980000Y80815000D03*
%TD*%
D27*
%TO.C,C61*%
X5242670Y100571099D03*
X5242670Y101531099D03*
%TD*%
D26*
%TO.C,HE1*%
X-15978919Y140213839D03*
X-15028919Y142488839D03*
X-16928919Y142488839D03*
%TD*%
D28*
%TO.C,C32*%
X898540Y122097710D03*
X898540Y121137710D03*
%TD*%
D26*
%TO.C,HE82*%
X358997500Y140242500D03*
X359947500Y142517500D03*
X358047500Y142517500D03*
%TD*%
D28*
%TO.C,C24*%
X200924903Y142649408D03*
X200924903Y141689408D03*
%TD*%
%TO.C,C224*%
X399680000Y60430000D03*
X399680000Y59470000D03*
%TD*%
D27*
%TO.C,C55*%
X224289270Y121116355D03*
X224289270Y122076355D03*
%TD*%
%TO.C,C199*%
X394470000Y121110000D03*
X394470000Y122070000D03*
%TD*%
D29*
%TO.C,AM3*%
X53225000Y107637500D03*
X53875000Y107637500D03*
X54525000Y107637500D03*
X55175000Y107637500D03*
X55825000Y107637500D03*
X56475000Y107637500D03*
X57125000Y107637500D03*
X57775000Y107637500D03*
X57775000Y113362500D03*
X57125000Y113362500D03*
X56475000Y113362500D03*
X55825000Y113362500D03*
X55175000Y113362500D03*
X54525000Y113362500D03*
X53875000Y113362500D03*
X53225000Y113362500D03*
%TD*%
%TO.C,AM9*%
X72225000Y46137500D03*
X72875000Y46137500D03*
X73525000Y46137500D03*
X74175000Y46137500D03*
X74825000Y46137500D03*
X75475000Y46137500D03*
X76125000Y46137500D03*
X76775000Y46137500D03*
X76775000Y51862500D03*
X76125000Y51862500D03*
X75475000Y51862500D03*
X74825000Y51862500D03*
X74175000Y51862500D03*
X73525000Y51862500D03*
X72875000Y51862500D03*
X72225000Y51862500D03*
%TD*%
D28*
%TO.C,C56*%
X229489270Y122076355D03*
X229489270Y121116355D03*
%TD*%
%TO.C,C94*%
X39029270Y80973855D03*
X39029270Y80013855D03*
%TD*%
D27*
%TO.C,C73*%
X119540000Y100580000D03*
X119540000Y101540000D03*
%TD*%
D28*
%TO.C,C98*%
X77129270Y80973855D03*
X77129270Y80013855D03*
%TD*%
D26*
%TO.C,HE55*%
X188836757Y78557302D03*
X189786757Y80832302D03*
X187886757Y80832302D03*
%TD*%
%TO.C,HE18*%
X36389270Y119658855D03*
X37339270Y121933855D03*
X35439270Y121933855D03*
%TD*%
D28*
%TO.C,C42*%
X96139270Y122076355D03*
X96139270Y121116355D03*
%TD*%
%TO.C,C222*%
X380630000Y60427407D03*
X380630000Y59467407D03*
%TD*%
D27*
%TO.C,C21*%
X176674903Y141689408D03*
X176674903Y142649408D03*
%TD*%
%TO.C,C205*%
X375410000Y100540000D03*
X375410000Y101500000D03*
%TD*%
D26*
%TO.C,HE71*%
X273900000Y140250000D03*
X274850000Y142525000D03*
X272950000Y142525000D03*
%TD*%
%TO.C,HE46*%
X17379270Y78556355D03*
X18329270Y80831355D03*
X16429270Y80831355D03*
%TD*%
D27*
%TO.C,C109*%
X185740000Y79470000D03*
X185740000Y80430000D03*
%TD*%
D28*
%TO.C,C124*%
X67430000Y60730000D03*
X67430000Y59770000D03*
%TD*%
D26*
%TO.C,HE47*%
X36429270Y78556355D03*
X37379270Y80831355D03*
X35479270Y80831355D03*
%TD*%
%TO.C,HE25*%
X169739270Y119658855D03*
X170689270Y121933855D03*
X168789270Y121933855D03*
%TD*%
D28*
%TO.C,C206*%
X380610000Y101500000D03*
X380610000Y100540000D03*
%TD*%
D26*
%TO.C,HE30*%
X-15980000Y99112500D03*
X-15030000Y101387500D03*
X-16930000Y101387500D03*
%TD*%
D29*
%TO.C,AM14*%
X81750000Y154500000D03*
X82400000Y154500000D03*
X83050000Y154500000D03*
X83700000Y154500000D03*
X84350000Y154500000D03*
X85000000Y154500000D03*
X85650000Y154500000D03*
X86300000Y154500000D03*
X86300000Y160225000D03*
X85650000Y160225000D03*
X85000000Y160225000D03*
X84350000Y160225000D03*
X83700000Y160225000D03*
X83050000Y160225000D03*
X82400000Y160225000D03*
X81750000Y160225000D03*
%TD*%
D27*
%TO.C,C203*%
X356370000Y100560000D03*
X356370000Y101520000D03*
%TD*%
%TO.C,C175*%
X309390000Y121120000D03*
X309390000Y122080000D03*
%TD*%
%TO.C,C63*%
X24290000Y100580000D03*
X24290000Y101540000D03*
%TD*%
%TO.C,C144*%
X174500000Y85500000D03*
X174500000Y86460000D03*
%TD*%
%TO.C,C223*%
X394480000Y59470000D03*
X394480000Y60430000D03*
%TD*%
D28*
%TO.C,C218*%
X342530000Y60400000D03*
X342530000Y59440000D03*
%TD*%
D27*
%TO.C,C27*%
X238599270Y141693855D03*
X238599270Y142653855D03*
%TD*%
D28*
%TO.C,C120*%
X29680000Y60050000D03*
X29680000Y59090000D03*
%TD*%
D27*
%TO.C,C211*%
X356380000Y80030000D03*
X356380000Y80990000D03*
%TD*%
%TO.C,C133*%
X157505674Y60020163D03*
X157505674Y60980163D03*
%TD*%
%TO.C,C193*%
X337340000Y121130000D03*
X337340000Y122090000D03*
%TD*%
D28*
%TO.C,C112*%
X210880000Y80590000D03*
X210880000Y79630000D03*
%TD*%
D27*
%TO.C,C65*%
X43340000Y100580000D03*
X43340000Y101540000D03*
%TD*%
D28*
%TO.C,C82*%
X200940000Y101540000D03*
X200940000Y100580000D03*
%TD*%
%TO.C,C70*%
X86640000Y101540000D03*
X86640000Y100580000D03*
%TD*%
D26*
%TO.C,HE33*%
X45940000Y99122500D03*
X46890000Y101397500D03*
X44990000Y101397500D03*
%TD*%
D28*
%TO.C,C16*%
X124724903Y142641908D03*
X124724903Y141681908D03*
%TD*%
D27*
%TO.C,C53*%
X205239270Y121116355D03*
X205239270Y122076355D03*
%TD*%
%TO.C,C15*%
X119524903Y141681908D03*
X119524903Y142641908D03*
%TD*%
D28*
%TO.C,C22*%
X181874903Y142649408D03*
X181874903Y141689408D03*
%TD*%
D26*
%TO.C,HE64*%
X103097330Y57991401D03*
X104047330Y60266401D03*
X102147330Y60266401D03*
%TD*%
%TO.C,HE52*%
X131679270Y78556355D03*
X132629270Y80831355D03*
X130729270Y80831355D03*
%TD*%
%TO.C,HE17*%
X17364801Y119648214D03*
X18314801Y121923214D03*
X16414801Y121923214D03*
%TD*%
D27*
%TO.C,C165*%
X271300000Y141700000D03*
X271300000Y142660000D03*
%TD*%
D26*
%TO.C,HE53*%
X150729270Y78556355D03*
X151679270Y80831355D03*
X149779270Y80831355D03*
%TD*%
D27*
%TO.C,C85*%
X238543750Y100520000D03*
X238543750Y101480000D03*
%TD*%
D28*
%TO.C,C34*%
X19964801Y122065714D03*
X19964801Y121105714D03*
%TD*%
%TO.C,C100*%
X96179270Y80973855D03*
X96179270Y80013855D03*
%TD*%
D27*
%TO.C,C150*%
X79000000Y153020000D03*
X79000000Y153980000D03*
%TD*%
%TO.C,C71*%
X100490000Y100580000D03*
X100490000Y101540000D03*
%TD*%
%TO.C,C9*%
X62374903Y141681908D03*
X62374903Y142641908D03*
%TD*%
D26*
%TO.C,HE87*%
X378030000Y119675000D03*
X378980000Y121950000D03*
X377080000Y121950000D03*
%TD*%
%TO.C,HE27*%
X207839270Y119658855D03*
X208789270Y121933855D03*
X206889270Y121933855D03*
%TD*%
D29*
%TO.C,AM5*%
X53400000Y88000000D03*
X54050000Y88000000D03*
X54700000Y88000000D03*
X55350000Y88000000D03*
X56000000Y88000000D03*
X56650000Y88000000D03*
X57300000Y88000000D03*
X57950000Y88000000D03*
X57950000Y93725000D03*
X57300000Y93725000D03*
X56650000Y93725000D03*
X56000000Y93725000D03*
X55350000Y93725000D03*
X54700000Y93725000D03*
X54050000Y93725000D03*
X53400000Y93725000D03*
%TD*%
D28*
%TO.C,C10*%
X67574903Y142641908D03*
X67574903Y141681908D03*
%TD*%
%TO.C,C66*%
X48540000Y101540000D03*
X48540000Y100580000D03*
%TD*%
D26*
%TO.C,HE19*%
X55439270Y119658855D03*
X56389270Y121933855D03*
X54489270Y121933855D03*
%TD*%
%TO.C,HE35*%
X84040000Y99122500D03*
X84990000Y101397500D03*
X83090000Y101397500D03*
%TD*%
D27*
%TO.C,C151*%
X211000000Y159020000D03*
X211000000Y159980000D03*
%TD*%
D26*
%TO.C,HE91*%
X378010000Y99090000D03*
X378960000Y101365000D03*
X377060000Y101365000D03*
%TD*%
%TO.C,HE4*%
X45924903Y140224408D03*
X46874903Y142499408D03*
X44974903Y142499408D03*
%TD*%
D28*
%TO.C,C168*%
X295540000Y142647407D03*
X295540000Y141687407D03*
%TD*%
D27*
%TO.C,C111*%
X205100000Y79650000D03*
X205100000Y80610000D03*
%TD*%
D26*
%TO.C,HE89*%
X339920000Y99105000D03*
X340870000Y101380000D03*
X338970000Y101380000D03*
%TD*%
%TO.C,HE5*%
X64974903Y140224408D03*
X65924903Y142499408D03*
X64024903Y142499408D03*
%TD*%
D28*
%TO.C,C38*%
X58039270Y122076355D03*
X58039270Y121116355D03*
%TD*%
D27*
%TO.C,C43*%
X109989270Y121116355D03*
X109989270Y122076355D03*
%TD*%
D28*
%TO.C,C92*%
X19979270Y80973855D03*
X19979270Y80013855D03*
%TD*%
D27*
%TO.C,C142*%
X174500000Y107000000D03*
X174500000Y107960000D03*
%TD*%
D28*
%TO.C,C200*%
X399670000Y122070000D03*
X399670000Y121110000D03*
%TD*%
D29*
%TO.C,AM8*%
X186725000Y65637500D03*
X187375000Y65637500D03*
X188025000Y65637500D03*
X188675000Y65637500D03*
X189325000Y65637500D03*
X189975000Y65637500D03*
X190625000Y65637500D03*
X191275000Y65637500D03*
X191275000Y71362500D03*
X190625000Y71362500D03*
X189975000Y71362500D03*
X189325000Y71362500D03*
X188675000Y71362500D03*
X188025000Y71362500D03*
X187375000Y71362500D03*
X186725000Y71362500D03*
%TD*%
D26*
%TO.C,HE49*%
X74529270Y78556355D03*
X75479270Y80831355D03*
X73579270Y80831355D03*
%TD*%
D27*
%TO.C,C51*%
X186189270Y121116355D03*
X186189270Y122076355D03*
%TD*%
%TO.C,C31*%
X-4301460Y121137710D03*
X-4301460Y122097710D03*
%TD*%
%TO.C,C167*%
X290330000Y141677407D03*
X290330000Y142637407D03*
%TD*%
D30*
%TO.C,U1*%
X345080000Y158580000D03*
X346350000Y158580000D03*
X347620000Y158580000D03*
X348890000Y158580000D03*
X350160000Y158580000D03*
X351430000Y158580000D03*
X352700000Y158580000D03*
X353970000Y158580000D03*
X353970000Y163530000D03*
X352700000Y163530000D03*
X351430000Y163530000D03*
X350160000Y163530000D03*
X348890000Y163530000D03*
X347620000Y163530000D03*
X346350000Y163530000D03*
X345080000Y163530000D03*
%TD*%
D28*
%TO.C,C192*%
X399710000Y142630000D03*
X399710000Y141670000D03*
%TD*%
D27*
%TO.C,C19*%
X157624903Y141689408D03*
X157624903Y142649408D03*
%TD*%
%TO.C,C115*%
X243560000Y80340000D03*
X243560000Y81300000D03*
%TD*%
D26*
%TO.C,HE96*%
X397090000Y78565000D03*
X398040000Y80840000D03*
X396140000Y80840000D03*
%TD*%
D28*
%TO.C,C36*%
X38989270Y122076355D03*
X38989270Y121116355D03*
%TD*%
D26*
%TO.C,HE78*%
X273890000Y57980000D03*
X274840000Y60255000D03*
X272940000Y60255000D03*
%TD*%
D28*
%TO.C,C2*%
X-13378919Y142631339D03*
X-13378919Y141671339D03*
%TD*%
D27*
%TO.C,C201*%
X337320000Y100560000D03*
X337320000Y101520000D03*
%TD*%
D26*
%TO.C,HE98*%
X358980000Y58010000D03*
X359930000Y60285000D03*
X358030000Y60285000D03*
%TD*%
D28*
%TO.C,C174*%
X295550000Y122095000D03*
X295550000Y121135000D03*
%TD*%
D27*
%TO.C,C35*%
X33789270Y121116355D03*
X33789270Y122076355D03*
%TD*%
D28*
%TO.C,C74*%
X124740000Y101540000D03*
X124740000Y100580000D03*
%TD*%
%TO.C,C180*%
X276490000Y60390000D03*
X276490000Y59430000D03*
%TD*%
%TO.C,C64*%
X29490000Y101540000D03*
X29490000Y100580000D03*
%TD*%
%TO.C,C114*%
X230030000Y80850000D03*
X230030000Y79890000D03*
%TD*%
D26*
%TO.C,HE61*%
X45937330Y57971401D03*
X46887330Y60246401D03*
X44987330Y60246401D03*
%TD*%
%TO.C,HE6*%
X84024903Y140224408D03*
X84974903Y142499408D03*
X83074903Y142499408D03*
%TD*%
D28*
%TO.C,C204*%
X361570000Y101520000D03*
X361570000Y100560000D03*
%TD*%
%TO.C,C12*%
X86624903Y142641908D03*
X86624903Y141681908D03*
%TD*%
%TO.C,C138*%
X201364035Y61187802D03*
X201364035Y60227802D03*
%TD*%
%TO.C,C184*%
X314620000Y60410000D03*
X314620000Y59450000D03*
%TD*%
D27*
%TO.C,C1*%
X-18578919Y141671339D03*
X-18578919Y142631339D03*
%TD*%
D26*
%TO.C,HE43*%
X241143750Y99062500D03*
X242093750Y101337500D03*
X240193750Y101337500D03*
%TD*%
%TO.C,HE54*%
X169799270Y78546355D03*
X170749270Y80821355D03*
X168849270Y80821355D03*
%TD*%
D27*
%TO.C,C217*%
X337330000Y59440000D03*
X337330000Y60400000D03*
%TD*%
%TO.C,C119*%
X24250000Y59230000D03*
X24250000Y60190000D03*
%TD*%
%TO.C,C103*%
X129079270Y80013855D03*
X129079270Y80973855D03*
%TD*%
D28*
%TO.C,C52*%
X191389270Y122076355D03*
X191389270Y121116355D03*
%TD*%
D26*
%TO.C,HE20*%
X74489270Y119658855D03*
X75439270Y121933855D03*
X73539270Y121933855D03*
%TD*%
D28*
%TO.C,C220*%
X361580000Y60430000D03*
X361580000Y59470000D03*
%TD*%
D26*
%TO.C,HE31*%
X7842670Y99113599D03*
X8792670Y101388599D03*
X6892670Y101388599D03*
%TD*%
D27*
%TO.C,C77*%
X157640000Y100580000D03*
X157640000Y101540000D03*
%TD*%
D28*
%TO.C,C4*%
X10430301Y142652593D03*
X10430301Y141692593D03*
%TD*%
%TO.C,C182*%
X295557621Y60425943D03*
X295557621Y59465943D03*
%TD*%
%TO.C,C8*%
X48524903Y142641908D03*
X48524903Y141681908D03*
%TD*%
D29*
%TO.C,AM6*%
X176725000Y86637500D03*
X177375000Y86637500D03*
X178025000Y86637500D03*
X178675000Y86637500D03*
X179325000Y86637500D03*
X179975000Y86637500D03*
X180625000Y86637500D03*
X181275000Y86637500D03*
X181275000Y92362500D03*
X180625000Y92362500D03*
X179975000Y92362500D03*
X179325000Y92362500D03*
X178675000Y92362500D03*
X178025000Y92362500D03*
X177375000Y92362500D03*
X176725000Y92362500D03*
%TD*%
D27*
%TO.C,C121*%
X43580000Y59470000D03*
X43580000Y60430000D03*
%TD*%
%TO.C,C209*%
X337320000Y79990000D03*
X337320000Y80950000D03*
%TD*%
%TO.C,C187*%
X356397500Y141702500D03*
X356397500Y142662500D03*
%TD*%
%TO.C,C29*%
X-23750000Y120870000D03*
X-23750000Y121830000D03*
%TD*%
D26*
%TO.C,HE44*%
X-20730000Y78542500D03*
X-19780000Y80817500D03*
X-21680000Y80817500D03*
%TD*%
D28*
%TO.C,C208*%
X399680000Y101530000D03*
X399680000Y100570000D03*
%TD*%
D26*
%TO.C,HE23*%
X131639270Y119658855D03*
X132589270Y121933855D03*
X130689270Y121933855D03*
%TD*%
D28*
%TO.C,C106*%
X153329270Y80973855D03*
X153329270Y80013855D03*
%TD*%
%TO.C,C118*%
X-12448132Y59588536D03*
X-12448132Y58628536D03*
%TD*%
D26*
%TO.C,HE85*%
X339930000Y119665000D03*
X340880000Y121940000D03*
X338980000Y121940000D03*
%TD*%
D27*
%TO.C,C131*%
X138560000Y59910000D03*
X138560000Y60870000D03*
%TD*%
D26*
%TO.C,HE7*%
X103074903Y140224408D03*
X104024903Y142499408D03*
X102124903Y142499408D03*
%TD*%
%TO.C,HE39*%
X160240000Y99122500D03*
X161190000Y101397500D03*
X159290000Y101397500D03*
%TD*%
D28*
%TO.C,C190*%
X380630000Y142640000D03*
X380630000Y141680000D03*
%TD*%
%TO.C,C76*%
X143790000Y101540000D03*
X143790000Y100580000D03*
%TD*%
%TO.C,C108*%
X172399270Y80963855D03*
X172399270Y80003855D03*
%TD*%
D26*
%TO.C,HE3*%
X26883872Y140235670D03*
X27833872Y142510670D03*
X25933872Y142510670D03*
%TD*%
%TO.C,HE68*%
X179310625Y58010302D03*
X180260625Y60285302D03*
X178360625Y60285302D03*
%TD*%
D27*
%TO.C,C161*%
X320500000Y133020000D03*
X320500000Y133980000D03*
%TD*%
%TO.C,C125*%
X81500000Y59900000D03*
X81500000Y60860000D03*
%TD*%
D29*
%TO.C,AM13*%
X366450000Y68000000D03*
X367100000Y68000000D03*
X367750000Y68000000D03*
X368400000Y68000000D03*
X369050000Y68000000D03*
X369700000Y68000000D03*
X370350000Y68000000D03*
X371000000Y68000000D03*
X371000000Y73725000D03*
X370350000Y73725000D03*
X369700000Y73725000D03*
X369050000Y73725000D03*
X368400000Y73725000D03*
X367750000Y73725000D03*
X367100000Y73725000D03*
X366450000Y73725000D03*
%TD*%
D27*
%TO.C,C183*%
X309410000Y59450000D03*
X309410000Y60410000D03*
%TD*%
%TO.C,C3*%
X5230301Y141692593D03*
X5230301Y142652593D03*
%TD*%
D26*
%TO.C,HE28*%
X226889270Y119658855D03*
X227839270Y121933855D03*
X225939270Y121933855D03*
%TD*%
D27*
%TO.C,C101*%
X110029270Y80013855D03*
X110029270Y80973855D03*
%TD*%
%TO.C,C191*%
X394510000Y141680000D03*
X394510000Y142640000D03*
%TD*%
D26*
%TO.C,HE63*%
X84017330Y57971401D03*
X84967330Y60246401D03*
X83067330Y60246401D03*
%TD*%
D28*
%TO.C,C132*%
X143955788Y60025999D03*
X143955788Y59065999D03*
%TD*%
D26*
%TO.C,HE15*%
X-20770000Y119665000D03*
X-19820000Y121940000D03*
X-21720000Y121940000D03*
%TD*%
%TO.C,HE50*%
X93579270Y78556355D03*
X94529270Y80831355D03*
X92629270Y80831355D03*
%TD*%
D28*
%TO.C,C110*%
X191960000Y80310000D03*
X191960000Y79350000D03*
%TD*%
D26*
%TO.C,HE97*%
X339930000Y57980000D03*
X340880000Y60255000D03*
X338980000Y60255000D03*
%TD*%
D27*
%TO.C,C207*%
X394480000Y100570000D03*
X394480000Y101530000D03*
%TD*%
D26*
%TO.C,HE75*%
X292950000Y119685000D03*
X293900000Y121960000D03*
X292000000Y121960000D03*
%TD*%
%TO.C,HE57*%
X226930730Y78538645D03*
X227880730Y80813645D03*
X225980730Y80813645D03*
%TD*%
%TO.C,HE99*%
X378030000Y58017407D03*
X378980000Y60292407D03*
X377080000Y60292407D03*
%TD*%
D29*
%TO.C,AM12*%
X365900000Y108000000D03*
X366550000Y108000000D03*
X367200000Y108000000D03*
X367850000Y108000000D03*
X368500000Y108000000D03*
X369150000Y108000000D03*
X369800000Y108000000D03*
X370450000Y108000000D03*
X370450000Y113725000D03*
X369800000Y113725000D03*
X369150000Y113725000D03*
X368500000Y113725000D03*
X367850000Y113725000D03*
X367200000Y113725000D03*
X366550000Y113725000D03*
X365900000Y113725000D03*
%TD*%
D27*
%TO.C,C146*%
X184500000Y64000000D03*
X184500000Y64960000D03*
%TD*%
D28*
%TO.C,C62*%
X10442670Y101531099D03*
X10442670Y100571099D03*
%TD*%
D26*
%TO.C,HE10*%
X160224903Y140231908D03*
X161174903Y142506908D03*
X159274903Y142506908D03*
%TD*%
%TO.C,HE45*%
X-1670730Y78556355D03*
X-720730Y80831355D03*
X-2620730Y80831355D03*
%TD*%
D28*
%TO.C,C68*%
X67590000Y101540000D03*
X67590000Y100580000D03*
%TD*%
%TO.C,C14*%
X105674903Y142641908D03*
X105674903Y141681908D03*
%TD*%
D27*
%TO.C,C141*%
X51500000Y108040000D03*
X51500000Y109000000D03*
%TD*%
D28*
%TO.C,C86*%
X243743750Y101480000D03*
X243743750Y100520000D03*
%TD*%
%TO.C,C178*%
X295597500Y80962500D03*
X295597500Y80002500D03*
%TD*%
D27*
%TO.C,C99*%
X90979270Y80013855D03*
X90979270Y80973855D03*
%TD*%
D26*
%TO.C,HE24*%
X150689270Y119658855D03*
X151639270Y121933855D03*
X149739270Y121933855D03*
%TD*%
%TO.C,HE2*%
X7830301Y140235093D03*
X8780301Y142510093D03*
X6880301Y142510093D03*
%TD*%
D27*
%TO.C,C17*%
X138574903Y141681908D03*
X138574903Y142641908D03*
%TD*%
%TO.C,C171*%
X271290000Y121160000D03*
X271290000Y122120000D03*
%TD*%
D26*
%TO.C,HE59*%
X-15970000Y57982500D03*
X-15020000Y60257500D03*
X-16920000Y60257500D03*
%TD*%
D28*
%TO.C,C80*%
X181890000Y101540000D03*
X181890000Y100580000D03*
%TD*%
D29*
%TO.C,AM11*%
X290450000Y95500000D03*
X291100000Y95500000D03*
X291750000Y95500000D03*
X292400000Y95500000D03*
X293050000Y95500000D03*
X293700000Y95500000D03*
X294350000Y95500000D03*
X295000000Y95500000D03*
X295000000Y101225000D03*
X294350000Y101225000D03*
X293700000Y101225000D03*
X293050000Y101225000D03*
X292400000Y101225000D03*
X291750000Y101225000D03*
X291100000Y101225000D03*
X290450000Y101225000D03*
%TD*%
D26*
%TO.C,HE92*%
X397080000Y99110000D03*
X398030000Y101385000D03*
X396130000Y101385000D03*
%TD*%
D27*
%TO.C,C105*%
X148129270Y80013855D03*
X148129270Y80973855D03*
%TD*%
%TO.C,C135*%
X176310625Y60267802D03*
X176310625Y61227802D03*
%TD*%
D26*
%TO.C,HE22*%
X112589270Y119658855D03*
X113539270Y121933855D03*
X111639270Y121933855D03*
%TD*%
D27*
%TO.C,C162*%
X288000000Y93520000D03*
X288000000Y94480000D03*
%TD*%
D28*
%TO.C,C210*%
X342520000Y80950000D03*
X342520000Y79990000D03*
%TD*%
D29*
%TO.C,AM4*%
X176725000Y108637500D03*
X177375000Y108637500D03*
X178025000Y108637500D03*
X178675000Y108637500D03*
X179325000Y108637500D03*
X179975000Y108637500D03*
X180625000Y108637500D03*
X181275000Y108637500D03*
X181275000Y114362500D03*
X180625000Y114362500D03*
X179975000Y114362500D03*
X179325000Y114362500D03*
X178675000Y114362500D03*
X178025000Y114362500D03*
X177375000Y114362500D03*
X176725000Y114362500D03*
%TD*%
D27*
%TO.C,C39*%
X71889270Y121116355D03*
X71889270Y122076355D03*
%TD*%
%TO.C,C221*%
X375430000Y59467407D03*
X375430000Y60427407D03*
%TD*%
D28*
%TO.C,C30*%
X-18140000Y121750000D03*
X-18140000Y120790000D03*
%TD*%
D27*
%TO.C,C13*%
X100474903Y141681908D03*
X100474903Y142641908D03*
%TD*%
D28*
%TO.C,C172*%
X276490000Y122120000D03*
X276490000Y121160000D03*
%TD*%
%TO.C,C88*%
X-18130000Y80960000D03*
X-18130000Y80000000D03*
%TD*%
%TO.C,C78*%
X162840000Y101540000D03*
X162840000Y100580000D03*
%TD*%
D29*
%TO.C,AM2*%
X186265000Y127617500D03*
X186915000Y127617500D03*
X187565000Y127617500D03*
X188215000Y127617500D03*
X188865000Y127617500D03*
X189515000Y127617500D03*
X190165000Y127617500D03*
X190815000Y127617500D03*
X190815000Y133342500D03*
X190165000Y133342500D03*
X189515000Y133342500D03*
X188865000Y133342500D03*
X188215000Y133342500D03*
X187565000Y133342500D03*
X186915000Y133342500D03*
X186265000Y133342500D03*
%TD*%
D26*
%TO.C,HE65*%
X122149847Y57986104D03*
X123099847Y60261104D03*
X121199847Y60261104D03*
%TD*%
D28*
%TO.C,C130*%
X125090000Y60700000D03*
X125090000Y59740000D03*
%TD*%
D26*
%TO.C,HE16*%
X-1701460Y119680210D03*
X-751460Y121955210D03*
X-2651460Y121955210D03*
%TD*%
%TO.C,HE32*%
X26890000Y99122500D03*
X27840000Y101397500D03*
X25940000Y101397500D03*
%TD*%
D27*
%TO.C,C137*%
X195364035Y60227802D03*
X195364035Y61187802D03*
%TD*%
%TO.C,C59*%
X-18580000Y100570000D03*
X-18580000Y101530000D03*
%TD*%
D28*
%TO.C,C216*%
X399690000Y80990000D03*
X399690000Y80030000D03*
%TD*%
D27*
%TO.C,C140*%
X184500000Y126000000D03*
X184500000Y126960000D03*
%TD*%
D28*
%TO.C,C122*%
X48550000Y60620000D03*
X48550000Y59660000D03*
%TD*%
D27*
%TO.C,C69*%
X81440000Y100580000D03*
X81440000Y101540000D03*
%TD*%
%TO.C,C75*%
X138590000Y100580000D03*
X138590000Y101540000D03*
%TD*%
D26*
%TO.C,HE88*%
X397070000Y119655000D03*
X398020000Y121930000D03*
X396120000Y121930000D03*
%TD*%
D28*
%TO.C,C90*%
X929270Y80973855D03*
X929270Y80013855D03*
%TD*%
D26*
%TO.C,HE70*%
X241188513Y58172859D03*
X242138513Y60447859D03*
X240238513Y60447859D03*
%TD*%
D27*
%TO.C,C81*%
X195740000Y100580000D03*
X195740000Y101540000D03*
%TD*%
%TO.C,C181*%
X290357621Y59465943D03*
X290357621Y60425943D03*
%TD*%
D26*
%TO.C,HE60*%
X26940000Y57930000D03*
X27890000Y60205000D03*
X25990000Y60205000D03*
%TD*%
D27*
%TO.C,C87*%
X-23330000Y80000000D03*
X-23330000Y80960000D03*
%TD*%
%TO.C,C91*%
X14779270Y80013855D03*
X14779270Y80973855D03*
%TD*%
D26*
%TO.C,HE86*%
X358990000Y119680000D03*
X359940000Y121955000D03*
X358040000Y121955000D03*
%TD*%
D28*
%TO.C,C6*%
X29483872Y142653170D03*
X29483872Y141693170D03*
%TD*%
D26*
%TO.C,HE11*%
X179274903Y140231908D03*
X180224903Y142506908D03*
X178324903Y142506908D03*
%TD*%
M02*
