M48
; DRILL file {KiCad 9.0.8} date 2026-04-06T19:47:26-0500
; FORMAT={-:-/ absolute / metric / decimal}
; #@! TF.CreationDate,2026-04-06T19:47:26-05:00
; #@! TF.GenerationSoftware,Kicad,Pcbnew,9.0.8
; #@! TF.FileFunction,Plated,1,2,PTH
FMAT,2
METRIC
; #@! TA.AperFunction,Plated,PTH,ViaDrill
T1C0.300
; #@! TA.AperFunction,Plated,PTH,ComponentDrill
T2C0.600
; #@! TA.AperFunction,Plated,PTH,ComponentDrill
T3C0.700
; #@! TA.AperFunction,Plated,PTH,ComponentDrill
T4C0.750
; #@! TA.AperFunction,Plated,PTH,ComponentDrill
T5C0.800
; #@! TA.AperFunction,Plated,PTH,ComponentDrill
T6C0.900
; #@! TA.AperFunction,Plated,PTH,ComponentDrill
T7C1.000
; #@! TA.AperFunction,Plated,PTH,ComponentDrill
T8C1.100
%
G90
G05
T1
X-32.292Y200.144
X-32.292Y197.604
X-32.292Y195.064
X-32.292Y192.524
X-32.292Y189.984
X-32.292Y187.444
X-32.292Y184.904
X-32.292Y182.364
X-32.292Y179.824
X-32.292Y177.284
X-32.292Y174.744
X-32.292Y172.204
X-32.292Y169.664
X-32.292Y167.124
X-32.292Y164.584
X-32.292Y162.044
X-32.292Y159.504
X-32.292Y156.964
X-32.292Y154.424
X-32.292Y151.884
X-32.292Y149.344
X-32.292Y146.804
X-32.292Y144.264
X-32.292Y141.724
X-32.292Y139.184
X-32.292Y136.644
X-32.292Y134.104
X-32.292Y131.564
X-32.292Y129.024
X-32.292Y126.484
X-32.292Y123.944
X-32.292Y121.404
X-32.292Y118.864
X-32.292Y116.324
X-32.292Y113.784
X-32.292Y111.244
X-32.292Y108.704
X-32.292Y106.164
X-32.292Y103.624
X-32.292Y101.084
X-32.292Y98.544
X-32.292Y96.004
X-32.292Y93.464
X-32.292Y90.924
X-32.292Y88.384
X-32.292Y85.844
X-32.292Y83.304
X-32.292Y80.764
X-32.292Y78.224
X-32.292Y75.684
X-32.292Y73.144
X-32.292Y70.604
X-32.292Y68.064
X-32.292Y65.524
X-32.292Y62.984
X-32.292Y60.444
X-32.292Y57.904
X-32.292Y55.364
X-32.292Y52.824
X-32.292Y50.284
X-32.292Y47.744
X-32.292Y45.204
X-32.292Y42.664
X-29.752Y200.144
X-29.752Y197.604
X-29.752Y195.064
X-29.752Y192.524
X-29.752Y184.904
X-29.752Y182.364
X-29.752Y179.824
X-29.752Y177.284
X-29.752Y174.744
X-29.752Y172.204
X-29.752Y169.664
X-29.752Y167.124
X-29.752Y164.584
X-29.752Y162.044
X-29.752Y159.504
X-29.752Y156.964
X-29.752Y154.424
X-29.752Y151.884
X-29.752Y149.344
X-29.752Y146.804
X-29.752Y144.264
X-29.752Y141.724
X-29.752Y139.184
X-29.752Y136.644
X-29.752Y134.104
X-29.752Y131.564
X-29.752Y129.024
X-29.752Y126.484
X-29.752Y123.944
X-29.752Y121.404
X-29.752Y118.864
X-29.752Y116.324
X-29.752Y113.784
X-29.752Y111.244
X-29.752Y108.704
X-29.752Y103.624
X-29.752Y101.084
X-29.752Y98.544
X-29.752Y96.004
X-29.752Y93.464
X-29.752Y90.924
X-29.752Y88.384
X-29.752Y85.844
X-29.752Y83.304
X-29.752Y80.764
X-29.752Y78.224
X-29.752Y75.684
X-29.752Y73.144
X-29.752Y70.604
X-29.752Y68.064
X-29.752Y65.524
X-29.752Y62.984
X-29.752Y60.444
X-29.752Y57.904
X-29.752Y55.364
X-29.752Y52.824
X-29.752Y50.284
X-29.752Y47.744
X-27.212Y200.144
X-27.212Y197.604
X-27.212Y195.064
X-27.212Y192.524
X-27.212Y189.984
X-27.212Y187.444
X-27.212Y184.904
X-27.212Y182.364
X-27.212Y179.824
X-27.212Y177.284
X-27.212Y174.744
X-27.212Y172.204
X-27.212Y169.664
X-27.212Y167.124
X-27.212Y164.584
X-27.212Y162.044
X-27.212Y159.504
X-27.212Y156.964
X-27.212Y154.424
X-27.212Y151.884
X-27.212Y149.344
X-27.212Y146.804
X-27.212Y144.264
X-27.212Y141.724
X-27.212Y139.184
X-27.212Y113.784
X-27.212Y111.244
X-27.212Y108.704
X-27.212Y103.624
X-27.212Y101.084
X-27.212Y98.544
X-27.212Y96.004
X-27.212Y93.464
X-27.212Y90.924
X-27.212Y88.384
X-27.212Y85.844
X-27.212Y83.304
X-27.212Y80.764
X-27.212Y78.224
X-27.212Y75.684
X-27.212Y73.144
X-27.212Y70.604
X-27.212Y68.064
X-27.212Y65.524
X-27.212Y62.984
X-27.212Y60.444
X-27.212Y57.904
X-27.212Y55.364
X-27.212Y52.824
X-27.212Y50.284
X-27.212Y47.744
X-27.212Y45.204
X-27.212Y42.664
X-26.25Y122.25
X-24.672Y200.144
X-24.672Y197.604
X-24.672Y195.064
X-24.672Y192.524
X-24.672Y189.984
X-24.672Y187.444
X-24.672Y184.904
X-24.672Y182.364
X-24.672Y179.824
X-24.672Y177.284
X-24.672Y174.744
X-24.672Y172.204
X-24.672Y169.664
X-24.672Y167.124
X-24.672Y164.584
X-24.672Y162.044
X-24.672Y159.504
X-24.672Y156.964
X-24.672Y154.424
X-24.672Y151.884
X-24.672Y149.344
X-24.672Y146.804
X-24.672Y144.264
X-24.672Y141.724
X-24.672Y136.644
X-24.672Y134.104
X-24.672Y131.564
X-24.672Y129.024
X-24.672Y126.484
X-24.672Y123.944
X-24.672Y118.864
X-24.672Y116.324
X-24.672Y111.244
X-24.672Y108.704
X-24.672Y106.164
X-24.672Y103.624
X-24.672Y101.084
X-24.672Y98.544
X-24.672Y96.004
X-24.672Y93.464
X-24.672Y90.924
X-24.672Y88.384
X-24.672Y85.844
X-24.672Y83.304
X-24.672Y78.224
X-24.672Y75.684
X-24.672Y73.144
X-24.672Y70.604
X-24.672Y68.064
X-24.672Y65.524
X-24.672Y62.984
X-24.672Y60.444
X-24.672Y57.904
X-24.672Y55.364
X-24.672Y52.824
X-24.672Y50.284
X-24.672Y47.744
X-24.672Y45.204
X-24.672Y42.664
X-22.133Y200.144
X-22.133Y197.604
X-22.133Y195.064
X-22.133Y192.524
X-22.133Y189.984
X-22.133Y187.444
X-22.133Y184.904
X-22.133Y182.364
X-22.133Y179.824
X-22.133Y177.284
X-22.133Y174.744
X-22.133Y172.204
X-22.133Y169.664
X-22.133Y167.124
X-22.133Y164.584
X-22.133Y162.044
X-22.133Y159.504
X-22.133Y156.964
X-22.133Y154.424
X-22.133Y151.884
X-22.133Y149.344
X-22.133Y146.804
X-22.133Y144.264
X-22.133Y139.184
X-22.133Y136.644
X-22.133Y134.104
X-22.133Y131.564
X-22.133Y129.024
X-22.133Y126.484
X-22.133Y123.944
X-22.133Y116.324
X-22.133Y113.784
X-22.133Y108.704
X-22.133Y106.164
X-22.133Y103.624
X-22.133Y98.544
X-22.133Y96.004
X-22.133Y93.464
X-22.133Y90.924
X-22.133Y88.384
X-22.133Y85.844
X-22.133Y75.684
X-22.133Y73.144
X-22.133Y70.604
X-22.133Y68.064
X-22.133Y65.524
X-22.133Y60.444
X-22.133Y57.904
X-22.133Y55.364
X-22.133Y52.824
X-22.133Y50.284
X-22.133Y47.744
X-22.133Y45.204
X-22.133Y42.664
X-19.592Y200.144
X-19.592Y197.604
X-19.592Y195.064
X-19.592Y192.524
X-19.592Y189.984
X-19.592Y187.444
X-19.592Y184.904
X-19.592Y182.364
X-19.592Y179.824
X-19.592Y177.284
X-19.592Y174.744
X-19.592Y172.204
X-19.592Y169.664
X-19.592Y167.124
X-19.592Y164.584
X-19.592Y162.044
X-19.592Y159.504
X-19.592Y156.964
X-19.592Y154.424
X-19.592Y151.884
X-19.592Y149.344
X-19.592Y146.804
X-19.592Y144.264
X-19.592Y141.724
X-19.592Y139.184
X-19.592Y136.644
X-19.592Y134.104
X-19.592Y131.564
X-19.592Y129.024
X-19.592Y126.484
X-19.592Y116.324
X-19.592Y113.784
X-19.592Y111.244
X-19.592Y106.164
X-19.592Y103.624
X-19.592Y75.684
X-19.592Y73.144
X-19.592Y70.604
X-19.592Y68.064
X-19.592Y65.524
X-19.592Y62.984
X-19.592Y55.364
X-19.592Y52.824
X-19.592Y50.284
X-19.592Y47.744
X-19.592Y45.204
X-19.592Y42.664
X-18.58Y99.85
X-17.052Y200.144
X-17.052Y197.604
X-17.052Y195.064
X-17.052Y192.524
X-17.052Y189.984
X-17.052Y187.444
X-17.052Y184.904
X-17.052Y182.364
X-17.052Y179.824
X-17.052Y177.284
X-17.052Y174.744
X-17.052Y172.204
X-17.052Y169.664
X-17.052Y167.124
X-17.052Y164.584
X-17.052Y162.044
X-17.052Y159.504
X-17.052Y156.964
X-17.052Y154.424
X-17.052Y151.884
X-17.052Y149.344
X-17.052Y146.804
X-17.052Y144.264
X-17.052Y136.644
X-17.052Y134.104
X-17.052Y131.564
X-17.052Y129.024
X-17.052Y126.484
X-17.052Y118.864
X-17.052Y113.784
X-17.052Y111.244
X-17.052Y108.704
X-17.052Y106.164
X-17.052Y96.004
X-17.052Y93.464
X-17.052Y90.924
X-17.052Y88.384
X-17.052Y85.844
X-17.052Y80.764
X-17.052Y78.224
X-17.052Y75.684
X-17.052Y70.604
X-17.052Y68.064
X-17.052Y65.524
X-17.052Y62.984
X-17.052Y52.824
X-17.052Y50.284
X-17.052Y47.744
X-17.052Y45.204
X-17.052Y42.664
X-15.98Y98.05
X-14.512Y200.144
X-14.512Y197.604
X-14.512Y195.064
X-14.512Y192.524
X-14.512Y189.984
X-14.512Y187.444
X-14.512Y184.904
X-14.512Y182.364
X-14.512Y179.824
X-14.512Y177.284
X-14.512Y174.744
X-14.512Y172.204
X-14.512Y169.664
X-14.512Y167.124
X-14.512Y164.584
X-14.512Y162.044
X-14.512Y159.504
X-14.512Y156.964
X-14.512Y154.424
X-14.512Y151.884
X-14.512Y149.344
X-14.512Y146.804
X-14.512Y139.184
X-14.512Y136.644
X-14.512Y134.104
X-14.512Y131.564
X-14.512Y129.024
X-14.512Y126.484
X-14.512Y118.864
X-14.512Y116.324
X-14.512Y111.244
X-14.512Y108.704
X-14.512Y106.164
X-14.512Y103.624
X-14.512Y96.004
X-14.512Y93.464
X-14.512Y90.924
X-14.512Y88.384
X-14.512Y85.844
X-14.512Y78.224
X-14.512Y75.684
X-14.512Y70.604
X-14.512Y68.064
X-14.512Y65.524
X-14.512Y62.984
X-14.512Y55.364
X-14.512Y52.824
X-14.512Y50.284
X-14.512Y47.744
X-14.512Y45.204
X-14.512Y42.664
X-13.38Y102.25
X-11.973Y200.144
X-11.973Y197.604
X-11.973Y195.064
X-11.973Y192.524
X-11.973Y189.984
X-11.973Y187.444
X-11.973Y184.904
X-11.973Y182.364
X-11.973Y179.824
X-11.973Y177.284
X-11.973Y174.744
X-11.973Y172.204
X-11.973Y164.584
X-11.973Y162.044
X-11.973Y159.504
X-11.973Y156.964
X-11.973Y154.424
X-11.973Y151.884
X-11.973Y139.184
X-11.973Y136.644
X-11.973Y134.104
X-11.973Y131.564
X-11.973Y129.024
X-11.973Y126.484
X-11.973Y121.404
X-11.973Y118.864
X-11.973Y116.324
X-11.973Y111.244
X-11.973Y108.704
X-11.973Y106.164
X-11.973Y103.624
X-11.973Y98.544
X-11.973Y96.004
X-11.973Y93.464
X-11.973Y90.924
X-11.973Y88.384
X-11.973Y85.844
X-11.973Y80.764
X-11.973Y78.224
X-11.973Y75.684
X-11.973Y70.604
X-11.973Y68.064
X-11.973Y65.524
X-11.973Y62.984
X-11.973Y60.444
X-11.973Y52.824
X-11.973Y50.284
X-11.973Y47.744
X-11.973Y45.204
X-11.973Y42.664
X-9.432Y200.144
X-9.432Y197.604
X-9.432Y195.064
X-9.432Y192.524
X-9.432Y189.984
X-9.432Y187.444
X-9.432Y184.904
X-9.432Y182.364
X-9.432Y179.824
X-9.432Y177.284
X-9.432Y174.744
X-9.432Y172.204
X-9.432Y167.124
X-9.432Y164.584
X-9.432Y162.044
X-9.432Y159.504
X-9.432Y156.964
X-9.432Y154.424
X-9.432Y151.884
X-9.432Y141.724
X-9.432Y136.644
X-9.432Y134.104
X-9.432Y131.564
X-9.432Y129.024
X-9.432Y126.484
X-9.432Y121.404
X-9.432Y118.864
X-9.432Y116.324
X-9.432Y111.244
X-9.432Y108.704
X-9.432Y106.164
X-9.432Y103.624
X-9.432Y101.084
X-9.432Y98.544
X-9.432Y96.004
X-9.432Y93.464
X-9.432Y90.924
X-9.432Y88.384
X-9.432Y85.844
X-9.432Y80.764
X-9.432Y78.224
X-9.432Y75.684
X-9.432Y70.604
X-9.432Y68.064
X-9.432Y65.524
X-9.432Y62.984
X-9.432Y60.444
X-9.432Y57.904
X-9.432Y55.364
X-9.432Y50.284
X-9.432Y47.744
X-9.432Y45.204
X-6.893Y200.144
X-6.893Y197.604
X-6.893Y195.064
X-6.893Y192.524
X-6.893Y189.984
X-6.893Y187.444
X-6.893Y184.904
X-6.893Y182.364
X-6.893Y179.824
X-6.893Y177.284
X-6.893Y174.744
X-6.893Y172.204
X-6.893Y169.664
X-6.893Y167.124
X-6.893Y164.584
X-6.893Y162.044
X-6.893Y159.504
X-6.893Y156.964
X-6.893Y154.424
X-6.893Y151.884
X-6.893Y149.344
X-6.893Y146.804
X-6.893Y141.724
X-6.893Y139.184
X-6.893Y134.104
X-6.893Y131.564
X-6.893Y129.024
X-6.893Y126.484
X-6.893Y118.864
X-6.893Y116.324
X-6.893Y111.244
X-6.893Y108.704
X-6.893Y106.164
X-6.893Y103.624
X-6.893Y101.084
X-6.893Y98.544
X-6.893Y96.004
X-6.893Y93.464
X-6.893Y90.924
X-6.893Y88.384
X-6.893Y85.844
X-6.893Y78.224
X-6.893Y75.684
X-6.893Y70.604
X-6.893Y68.064
X-6.893Y62.984
X-6.893Y60.444
X-6.893Y57.904
X-6.893Y55.364
X-6.893Y52.824
X-6.893Y50.284
X-6.893Y47.744
X-4.353Y200.144
X-4.353Y197.604
X-4.353Y195.064
X-4.353Y192.524
X-4.353Y189.984
X-4.353Y187.444
X-4.353Y184.904
X-4.353Y182.364
X-4.353Y179.824
X-4.353Y177.284
X-4.353Y174.744
X-4.353Y172.204
X-4.353Y169.664
X-4.353Y167.124
X-4.353Y164.584
X-4.353Y162.044
X-4.353Y159.504
X-4.353Y151.884
X-4.353Y149.344
X-4.353Y146.804
X-4.353Y141.724
X-4.353Y139.184
X-4.353Y136.644
X-4.353Y134.104
X-4.353Y131.564
X-4.353Y129.024
X-4.353Y126.484
X-4.353Y116.324
X-4.353Y111.244
X-4.353Y108.704
X-4.353Y106.164
X-4.353Y103.624
X-4.353Y101.084
X-4.353Y98.544
X-4.353Y96.004
X-4.353Y93.464
X-4.353Y90.924
X-4.353Y88.384
X-4.353Y85.844
X-4.353Y83.304
X-4.353Y75.684
X-4.353Y70.604
X-4.353Y68.064
X-4.353Y62.984
X-4.353Y60.444
X-4.353Y57.904
X-4.353Y55.364
X-4.353Y52.824
X-4.353Y50.284
X-4.353Y47.744
X-4.353Y45.204
X-1.812Y200.144
X-1.812Y197.604
X-1.812Y195.064
X-1.812Y192.524
X-1.812Y189.984
X-1.812Y187.444
X-1.812Y184.904
X-1.812Y182.364
X-1.812Y179.824
X-1.812Y177.284
X-1.812Y174.744
X-1.812Y172.204
X-1.812Y169.664
X-1.812Y167.124
X-1.812Y164.584
X-1.812Y162.044
X-1.812Y159.504
X-1.812Y151.884
X-1.812Y149.344
X-1.812Y146.804
X-1.812Y141.724
X-1.812Y139.184
X-1.812Y136.644
X-1.812Y134.104
X-1.812Y131.564
X-1.812Y129.024
X-1.812Y126.484
X-1.812Y116.324
X-1.812Y111.244
X-1.812Y108.704
X-1.812Y106.164
X-1.812Y103.624
X-1.812Y101.084
X-1.812Y98.544
X-1.812Y96.004
X-1.812Y93.464
X-1.812Y90.924
X-1.812Y88.384
X-1.812Y85.844
X-1.812Y83.304
X-1.812Y75.684
X-1.812Y70.604
X-1.812Y68.064
X-1.812Y65.524
X-1.812Y62.984
X-1.812Y60.444
X-1.812Y57.904
X-1.812Y55.364
X-1.812Y52.824
X-1.812Y50.284
X-1.812Y47.744
X-1.812Y45.204
X-1.812Y42.664
X0.727Y200.144
X0.727Y197.604
X0.727Y195.064
X0.727Y192.524
X0.727Y189.984
X0.727Y187.444
X0.727Y184.904
X0.727Y182.364
X0.727Y179.824
X0.727Y177.284
X0.727Y174.744
X0.727Y172.204
X0.727Y169.664
X0.727Y167.124
X0.727Y164.584
X0.727Y162.044
X0.727Y159.504
X0.727Y156.964
X0.727Y154.424
X0.727Y151.884
X0.727Y149.344
X0.727Y146.804
X0.727Y141.724
X0.727Y139.184
X0.727Y136.644
X0.727Y134.104
X0.727Y131.564
X0.727Y129.024
X0.727Y126.484
X0.727Y111.244
X0.727Y108.704
X0.727Y106.164
X0.727Y103.624
X0.727Y101.084
X0.727Y98.544
X0.727Y96.004
X0.727Y93.464
X0.727Y90.924
X0.727Y88.384
X0.727Y85.844
X0.727Y83.304
X0.727Y75.684
X0.727Y70.604
X0.727Y68.064
X0.727Y65.524
X0.727Y62.984
X0.727Y60.444
X0.727Y57.904
X0.727Y55.364
X0.727Y52.824
X0.727Y50.284
X0.727Y47.744
X0.727Y45.204
X0.727Y42.664
X3.268Y200.144
X3.268Y197.604
X3.268Y195.064
X3.268Y192.524
X3.268Y189.984
X3.268Y187.444
X3.268Y184.904
X3.268Y182.364
X3.268Y179.824
X3.268Y177.284
X3.268Y174.744
X3.268Y172.204
X3.268Y169.664
X3.268Y167.124
X3.268Y164.584
X3.268Y162.044
X3.268Y159.504
X3.268Y156.964
X3.268Y154.424
X3.268Y151.884
X3.268Y149.344
X3.268Y146.804
X3.268Y139.184
X3.268Y136.644
X3.268Y134.104
X3.268Y131.564
X3.268Y129.024
X3.268Y126.484
X3.268Y118.864
X3.268Y116.324
X3.268Y111.244
X3.268Y108.704
X3.268Y106.164
X3.268Y98.544
X3.268Y96.004
X3.268Y93.464
X3.268Y90.924
X3.268Y88.384
X3.268Y85.844
X3.268Y83.304
X3.268Y78.224
X3.268Y70.604
X3.268Y68.064
X3.268Y65.524
X3.268Y62.984
X3.268Y60.444
X3.268Y57.904
X3.268Y55.364
X3.268Y52.824
X3.268Y50.284
X3.268Y47.744
X3.268Y45.204
X3.268Y42.664
X5.808Y200.144
X5.808Y197.604
X5.808Y195.064
X5.808Y192.524
X5.808Y189.984
X5.808Y187.444
X5.808Y184.904
X5.808Y182.364
X5.808Y179.824
X5.808Y177.284
X5.808Y174.744
X5.808Y172.204
X5.808Y169.664
X5.808Y167.124
X5.808Y164.584
X5.808Y162.044
X5.808Y159.504
X5.808Y156.964
X5.808Y154.424
X5.808Y151.884
X5.808Y149.344
X5.808Y146.804
X5.808Y136.644
X5.808Y134.104
X5.808Y131.564
X5.808Y129.024
X5.808Y126.484
X5.808Y121.404
X5.808Y118.864
X5.808Y116.324
X5.808Y111.244
X5.808Y108.704
X5.808Y106.164
X5.808Y103.624
X5.808Y96.004
X5.808Y93.464
X5.808Y90.924
X5.808Y88.384
X5.808Y85.844
X5.808Y83.304
X5.808Y80.764
X5.808Y78.224
X5.808Y75.684
X5.808Y70.604
X5.808Y68.064
X5.808Y65.524
X5.808Y62.984
X5.808Y60.444
X5.808Y57.904
X5.808Y55.364
X5.808Y52.824
X5.808Y50.284
X5.808Y47.744
X5.808Y45.204
X5.808Y42.664
X8.348Y200.144
X8.348Y197.604
X8.348Y195.064
X8.348Y192.524
X8.348Y189.984
X8.348Y187.444
X8.348Y184.904
X8.348Y179.824
X8.348Y174.744
X8.348Y172.204
X8.348Y169.664
X8.348Y167.124
X8.348Y164.584
X8.348Y162.044
X8.348Y159.504
X8.348Y156.964
X8.348Y154.424
X8.348Y151.884
X8.348Y149.344
X8.348Y146.804
X8.348Y136.644
X8.348Y134.104
X8.348Y131.564
X8.348Y129.024
X8.348Y126.484
X8.348Y121.404
X8.348Y118.864
X8.348Y116.324
X8.348Y111.244
X8.348Y108.704
X8.348Y106.164
X8.348Y103.624
X8.348Y96.004
X8.348Y93.464
X8.348Y90.924
X8.348Y88.384
X8.348Y85.844
X8.348Y83.304
X8.348Y80.764
X8.348Y78.224
X8.348Y75.684
X8.348Y70.604
X8.348Y68.064
X8.348Y65.524
X8.348Y62.984
X8.348Y60.444
X8.348Y57.904
X8.348Y55.364
X8.348Y52.824
X8.348Y50.284
X8.348Y47.744
X8.348Y45.204
X8.348Y42.664
X10.887Y200.144
X10.887Y197.604
X10.887Y195.064
X10.887Y192.524
X10.887Y189.984
X10.887Y187.444
X10.887Y177.284
X10.887Y172.204
X10.887Y169.664
X10.887Y167.124
X10.887Y164.584
X10.887Y162.044
X10.887Y159.504
X10.887Y156.964
X10.887Y154.424
X10.887Y151.884
X10.887Y149.344
X10.887Y146.804
X10.887Y139.184
X10.887Y136.644
X10.887Y134.104
X10.887Y131.564
X10.887Y129.024
X10.887Y126.484
X10.887Y118.864
X10.887Y116.324
X10.887Y111.244
X10.887Y108.704
X10.887Y106.164
X10.887Y103.624
X10.887Y96.004
X10.887Y93.464
X10.887Y90.924
X10.887Y88.384
X10.887Y83.304
X10.887Y80.764
X10.887Y78.224
X10.887Y75.684
X10.887Y70.604
X10.887Y68.064
X10.887Y65.524
X10.887Y62.984
X10.887Y60.444
X10.887Y57.904
X10.887Y55.364
X10.887Y52.824
X10.887Y50.284
X10.887Y47.744
X10.887Y45.204
X10.887Y42.664
X13.428Y200.144
X13.428Y197.604
X13.428Y195.064
X13.428Y192.524
X13.428Y189.984
X13.428Y187.444
X13.428Y184.904
X13.428Y182.364
X13.428Y179.824
X13.428Y177.284
X13.428Y174.744
X13.428Y172.204
X13.428Y169.664
X13.428Y167.124
X13.428Y164.584
X13.428Y162.044
X13.428Y159.504
X13.428Y156.964
X13.428Y154.424
X13.428Y151.884
X13.428Y149.344
X13.428Y146.804
X13.428Y136.644
X13.428Y134.104
X13.428Y131.564
X13.428Y129.024
X13.428Y126.484
X13.428Y118.864
X13.428Y116.324
X13.428Y111.244
X13.428Y108.704
X13.428Y106.164
X13.428Y103.624
X13.428Y98.544
X13.428Y93.464
X13.428Y90.924
X13.428Y88.384
X13.428Y83.304
X13.428Y78.224
X13.428Y75.684
X13.428Y70.604
X13.428Y68.064
X13.428Y65.524
X13.428Y62.984
X13.428Y60.444
X13.428Y57.904
X13.428Y55.364
X13.428Y52.824
X13.428Y50.284
X13.428Y47.744
X13.428Y42.664
X15.967Y200.144
X15.967Y197.604
X15.967Y195.064
X15.967Y192.524
X15.967Y189.984
X15.967Y187.444
X15.967Y184.904
X15.967Y182.364
X15.967Y179.824
X15.967Y177.284
X15.967Y174.744
X15.967Y172.204
X15.967Y169.664
X15.967Y167.124
X15.967Y164.584
X15.967Y162.044
X15.967Y159.504
X15.967Y156.964
X15.967Y154.424
X15.967Y151.884
X15.967Y149.344
X15.967Y146.804
X15.967Y141.724
X15.967Y139.184
X15.967Y134.104
X15.967Y131.564
X15.967Y129.024
X15.967Y126.484
X15.967Y116.324
X15.967Y111.244
X15.967Y108.704
X15.967Y106.164
X15.967Y103.624
X15.967Y101.084
X15.967Y98.544
X15.967Y93.464
X15.967Y90.924
X15.967Y88.384
X15.967Y85.844
X15.967Y83.304
X15.967Y75.684
X15.967Y70.604
X15.967Y68.064
X15.967Y65.524
X15.967Y62.984
X15.967Y60.444
X15.967Y57.904
X15.967Y55.364
X15.967Y52.824
X15.967Y50.284
X15.967Y47.744
X15.967Y45.204
X15.967Y42.664
X18.508Y200.144
X18.508Y197.604
X18.508Y195.064
X18.508Y192.524
X18.508Y189.984
X18.508Y184.904
X18.508Y182.364
X18.508Y179.824
X18.508Y174.744
X18.508Y172.204
X18.508Y169.664
X18.508Y167.124
X18.508Y164.584
X18.508Y162.044
X18.508Y159.504
X18.508Y156.964
X18.508Y154.424
X18.508Y151.884
X18.508Y149.344
X18.508Y146.804
X18.508Y141.724
X18.508Y139.184
X18.508Y134.104
X18.508Y131.564
X18.508Y129.024
X18.508Y126.484
X18.508Y116.324
X18.508Y111.244
X18.508Y108.704
X18.508Y106.164
X18.508Y103.624
X18.508Y101.084
X18.508Y98.544
X18.508Y93.464
X18.508Y90.924
X18.508Y88.384
X18.508Y85.844
X18.508Y83.304
X18.508Y75.684
X18.508Y70.604
X18.508Y68.064
X18.508Y65.524
X18.508Y62.984
X18.508Y60.444
X18.508Y57.904
X18.508Y55.364
X18.508Y52.824
X18.508Y50.284
X18.508Y47.744
X18.508Y45.204
X18.508Y42.664
X21.047Y200.144
X21.047Y197.604
X21.047Y195.064
X21.047Y192.524
X21.047Y189.984
X21.047Y184.904
X21.047Y182.364
X21.047Y179.824
X21.047Y174.744
X21.047Y172.204
X21.047Y169.664
X21.047Y167.124
X21.047Y164.584
X21.047Y162.044
X21.047Y159.504
X21.047Y156.964
X21.047Y154.424
X21.047Y151.884
X21.047Y149.344
X21.047Y146.804
X21.047Y139.184
X21.047Y134.104
X21.047Y131.564
X21.047Y129.024
X21.047Y126.484
X21.047Y118.864
X21.047Y116.324
X21.047Y111.244
X21.047Y108.704
X21.047Y106.164
X21.047Y98.544
X21.047Y93.464
X21.047Y90.924
X21.047Y88.384
X21.047Y85.844
X21.047Y83.304
X21.047Y80.764
X21.047Y78.224
X21.047Y70.604
X21.047Y68.064
X21.047Y65.524
X21.047Y62.984
X21.047Y55.364
X21.047Y52.824
X21.047Y50.284
X21.047Y47.744
X21.047Y45.204
X21.047Y42.664
X23.587Y200.144
X23.587Y197.604
X23.587Y195.064
X23.587Y192.524
X23.587Y189.984
X23.587Y187.444
X23.587Y184.904
X23.587Y182.364
X23.587Y179.824
X23.587Y177.284
X23.587Y174.744
X23.587Y172.204
X23.587Y169.664
X23.587Y167.124
X23.587Y164.584
X23.587Y162.044
X23.587Y159.504
X23.587Y156.964
X23.587Y154.424
X23.587Y151.884
X23.587Y149.344
X23.587Y146.804
X23.587Y139.184
X23.587Y134.104
X23.587Y131.564
X23.587Y129.024
X23.587Y126.484
X23.587Y118.864
X23.587Y116.324
X23.587Y111.244
X23.587Y108.704
X23.587Y106.164
X23.587Y98.544
X23.587Y93.464
X23.587Y90.924
X23.587Y88.384
X23.587Y85.844
X23.587Y83.304
X23.587Y78.224
X23.587Y75.684
X23.587Y70.604
X23.587Y68.064
X23.587Y65.524
X23.587Y62.984
X23.587Y55.364
X23.587Y52.824
X23.587Y50.284
X23.587Y47.744
X23.587Y45.204
X23.587Y42.664
X26.127Y200.144
X26.127Y197.604
X26.127Y195.064
X26.127Y192.524
X26.127Y189.984
X26.127Y187.444
X26.127Y184.904
X26.127Y174.744
X26.127Y172.204
X26.127Y164.584
X26.127Y162.044
X26.127Y159.504
X26.127Y156.964
X26.127Y154.424
X26.127Y151.884
X26.127Y149.344
X26.127Y146.804
X26.127Y134.104
X26.127Y131.564
X26.127Y129.024
X26.127Y126.484
X26.127Y121.404
X26.127Y118.864
X26.127Y116.324
X26.127Y111.244
X26.127Y108.704
X26.127Y106.164
X26.127Y103.624
X26.127Y93.464
X26.127Y90.924
X26.127Y88.384
X26.127Y85.844
X26.127Y83.304
X26.127Y80.764
X26.127Y78.224
X26.127Y75.684
X26.127Y70.604
X26.127Y68.064
X26.127Y65.524
X26.127Y62.984
X26.127Y52.824
X26.127Y50.284
X26.127Y47.744
X26.127Y45.204
X26.127Y42.664
X28.668Y200.144
X28.668Y197.604
X28.668Y195.064
X28.668Y192.524
X28.668Y187.444
X28.668Y184.904
X28.668Y179.824
X28.668Y177.284
X28.668Y172.204
X28.668Y167.124
X28.668Y164.584
X28.668Y162.044
X28.668Y159.504
X28.668Y156.964
X28.668Y154.424
X28.668Y151.884
X28.668Y149.344
X28.668Y146.804
X28.668Y139.184
X28.668Y134.104
X28.668Y131.564
X28.668Y129.024
X28.668Y126.484
X28.668Y121.404
X28.668Y118.864
X28.668Y116.324
X28.668Y111.244
X28.668Y108.704
X28.668Y106.164
X28.668Y103.624
X28.668Y93.464
X28.668Y90.924
X28.668Y88.384
X28.668Y85.844
X28.668Y83.304
X28.668Y80.764
X28.668Y78.224
X28.668Y75.684
X28.668Y70.604
X28.668Y68.064
X28.668Y65.524
X28.668Y62.984
X28.668Y55.364
X28.668Y52.824
X28.668Y50.284
X28.668Y47.744
X28.668Y45.204
X28.668Y42.664
X29.484Y143.373
X31.207Y200.144
X31.207Y197.604
X31.207Y195.064
X31.207Y192.524
X31.207Y189.984
X31.207Y177.284
X31.207Y174.744
X31.207Y169.664
X31.207Y167.124
X31.207Y164.584
X31.207Y162.044
X31.207Y159.504
X31.207Y156.964
X31.207Y154.424
X31.207Y151.884
X31.207Y149.344
X31.207Y146.804
X31.207Y134.104
X31.207Y131.564
X31.207Y129.024
X31.207Y126.484
X31.207Y118.864
X31.207Y116.324
X31.207Y111.244
X31.207Y108.704
X31.207Y106.164
X31.207Y103.624
X31.207Y93.464
X31.207Y90.924
X31.207Y88.384
X31.207Y85.844
X31.207Y83.304
X31.207Y78.224
X31.207Y75.684
X31.207Y70.604
X31.207Y68.064
X31.207Y65.524
X31.207Y62.984
X31.207Y55.364
X31.207Y52.824
X31.207Y50.284
X31.207Y47.744
X31.207Y45.204
X31.207Y42.664
X33.747Y200.144
X33.747Y197.604
X33.747Y195.064
X33.747Y192.524
X33.747Y187.444
X33.747Y184.904
X33.747Y182.364
X33.747Y179.824
X33.747Y177.284
X33.747Y174.744
X33.747Y172.204
X33.747Y167.124
X33.747Y164.584
X33.747Y162.044
X33.747Y159.504
X33.747Y156.964
X33.747Y154.424
X33.747Y151.884
X33.747Y149.344
X33.747Y146.804
X33.747Y141.724
X33.747Y139.184
X33.747Y134.104
X33.747Y131.564
X33.747Y129.024
X33.747Y126.484
X33.747Y116.324
X33.747Y111.244
X33.747Y108.704
X33.747Y106.164
X33.747Y103.624
X33.747Y101.084
X33.747Y98.544
X33.747Y93.464
X33.747Y90.924
X33.747Y88.384
X33.747Y85.844
X33.747Y75.684
X33.747Y70.604
X33.747Y68.064
X33.747Y65.524
X33.747Y62.984
X33.747Y60.444
X33.747Y57.904
X33.747Y55.364
X33.747Y52.824
X33.747Y50.284
X33.747Y47.744
X33.747Y45.204
X33.747Y42.664
X36.288Y200.144
X36.288Y197.604
X36.288Y195.064
X36.288Y192.524
X36.288Y189.984
X36.288Y184.904
X36.288Y182.364
X36.288Y179.824
X36.288Y174.744
X36.288Y172.204
X36.288Y169.664
X36.288Y164.584
X36.288Y162.044
X36.288Y159.504
X36.288Y156.964
X36.288Y154.424
X36.288Y151.884
X36.288Y149.344
X36.288Y146.804
X36.288Y141.724
X36.288Y139.184
X36.288Y134.104
X36.288Y131.564
X36.288Y129.024
X36.288Y126.484
X36.288Y116.324
X36.288Y111.244
X36.288Y108.704
X36.288Y106.164
X36.288Y103.624
X36.288Y101.084
X36.288Y98.544
X36.288Y93.464
X36.288Y90.924
X36.288Y88.384
X36.288Y85.844
X36.288Y75.684
X36.288Y70.604
X36.288Y68.064
X36.288Y65.524
X36.288Y62.984
X36.288Y60.444
X36.288Y57.904
X36.288Y55.364
X36.288Y52.824
X36.288Y50.284
X36.288Y47.744
X36.288Y45.204
X36.288Y42.664
X38.828Y200.144
X38.828Y197.604
X38.828Y195.064
X38.828Y192.524
X38.828Y189.984
X38.828Y184.904
X38.828Y182.364
X38.828Y179.824
X38.828Y174.744
X38.828Y172.204
X38.828Y169.664
X38.828Y164.584
X38.828Y162.044
X38.828Y159.504
X38.828Y156.964
X38.828Y154.424
X38.828Y151.884
X38.828Y149.344
X38.828Y146.804
X38.828Y141.724
X38.828Y139.184
X38.828Y134.104
X38.828Y131.564
X38.828Y129.024
X38.828Y126.484
X38.828Y118.864
X38.828Y116.324
X38.828Y111.244
X38.828Y108.704
X38.828Y106.164
X38.828Y101.084
X38.828Y98.544
X38.828Y93.464
X38.828Y90.924
X38.828Y88.384
X38.828Y85.844
X38.828Y75.684
X38.828Y70.604
X38.828Y68.064
X38.828Y65.524
X38.828Y62.984
X38.828Y60.444
X38.828Y57.904
X38.828Y55.364
X38.828Y52.824
X38.828Y50.284
X38.828Y47.744
X38.828Y45.204
X38.828Y42.664
X41.367Y200.144
X41.367Y197.604
X41.367Y195.064
X41.367Y189.984
X41.367Y187.444
X41.367Y184.904
X41.367Y182.364
X41.367Y179.824
X41.367Y177.284
X41.367Y174.744
X41.367Y172.204
X41.367Y169.664
X41.367Y164.584
X41.367Y162.044
X41.367Y159.504
X41.367Y156.964
X41.367Y154.424
X41.367Y151.884
X41.367Y149.344
X41.367Y146.804
X41.367Y139.184
X41.367Y134.104
X41.367Y131.564
X41.367Y129.024
X41.367Y126.484
X41.367Y116.324
X41.367Y111.244
X41.367Y108.704
X41.367Y98.544
X41.367Y93.464
X41.367Y90.924
X41.367Y88.384
X41.367Y85.844
X41.367Y78.224
X41.367Y70.604
X41.367Y68.064
X41.367Y65.524
X41.367Y62.984
X41.367Y55.364
X41.367Y52.824
X41.367Y50.284
X41.367Y47.744
X41.367Y45.204
X41.367Y42.664
X43.325Y140.962
X43.907Y200.144
X43.907Y197.604
X43.907Y192.524
X43.907Y189.984
X43.907Y187.444
X43.907Y184.904
X43.907Y182.364
X43.907Y179.824
X43.907Y177.284
X43.907Y174.744
X43.907Y172.204
X43.907Y169.664
X43.907Y164.584
X43.907Y162.044
X43.907Y159.504
X43.907Y156.964
X43.907Y154.424
X43.907Y151.884
X43.907Y149.344
X43.907Y146.804
X43.907Y134.104
X43.907Y131.564
X43.907Y129.024
X43.907Y126.484
X43.907Y121.404
X43.907Y118.864
X43.907Y111.244
X43.907Y108.704
X43.907Y106.164
X43.907Y98.544
X43.907Y93.464
X43.907Y90.924
X43.907Y88.384
X43.907Y85.844
X43.907Y80.764
X43.907Y78.224
X43.907Y75.684
X43.907Y70.604
X43.907Y68.064
X43.907Y65.524
X43.907Y62.984
X43.907Y55.364
X43.907Y52.824
X43.907Y50.284
X43.907Y47.744
X43.907Y45.204
X43.907Y42.664
X45.925Y139.162
X46.447Y200.144
X46.447Y197.604
X46.447Y192.524
X46.447Y184.904
X46.447Y182.364
X46.447Y179.824
X46.447Y177.284
X46.447Y174.744
X46.447Y172.204
X46.447Y169.664
X46.447Y164.584
X46.447Y162.044
X46.447Y159.504
X46.447Y156.964
X46.447Y154.424
X46.447Y151.884
X46.447Y134.104
X46.447Y131.564
X46.447Y129.024
X46.447Y126.484
X46.447Y121.404
X46.447Y118.864
X46.447Y111.244
X46.447Y108.704
X46.447Y106.164
X46.447Y93.464
X46.447Y90.924
X46.447Y88.384
X46.447Y85.844
X46.447Y80.764
X46.447Y78.224
X46.447Y75.684
X46.447Y70.604
X46.447Y68.064
X46.447Y65.524
X46.447Y55.364
X46.447Y52.824
X46.447Y50.284
X46.447Y47.744
X46.447Y45.204
X46.447Y42.664
X48.525Y143.362
X48.987Y200.144
X48.987Y197.604
X48.987Y192.524
X48.987Y189.984
X48.987Y187.444
X48.987Y177.284
X48.987Y174.744
X48.987Y172.204
X48.987Y169.664
X48.987Y164.584
X48.987Y162.044
X48.987Y159.504
X48.987Y156.964
X48.987Y154.424
X48.987Y151.884
X48.987Y149.344
X48.987Y146.804
X48.987Y134.104
X48.987Y131.564
X48.987Y129.024
X48.987Y118.864
X48.987Y111.244
X48.987Y108.704
X48.987Y93.464
X48.987Y90.924
X48.987Y88.384
X48.987Y80.764
X48.987Y78.224
X48.987Y75.684
X48.987Y70.604
X48.987Y68.064
X48.987Y62.984
X48.987Y55.364
X48.987Y52.824
X48.987Y50.284
X48.987Y47.744
X48.987Y45.204
X48.987Y42.664
X51.527Y200.144
X51.527Y197.604
X51.527Y192.524
X51.527Y189.984
X51.527Y187.444
X51.527Y184.904
X51.527Y182.364
X51.527Y177.284
X51.527Y174.744
X51.527Y172.204
X51.527Y169.664
X51.527Y164.584
X51.527Y162.044
X51.527Y159.504
X51.527Y156.964
X51.527Y154.424
X51.527Y151.884
X51.527Y149.344
X51.527Y146.804
X51.527Y139.184
X51.527Y134.104
X51.527Y131.564
X51.527Y129.024
X51.527Y111.244
X51.527Y106.164
X51.527Y98.544
X51.527Y93.464
X51.527Y90.924
X51.527Y85.844
X51.527Y78.224
X51.527Y75.684
X51.527Y70.604
X51.527Y68.064
X51.527Y62.984
X51.527Y52.824
X51.527Y50.284
X51.527Y47.744
X51.527Y45.204
X51.527Y42.664
X53.75Y118.25
X54.0Y135.5
X54.0Y115.0
X54.0Y73.0
X54.067Y200.144
X54.067Y197.604
X54.067Y192.524
X54.067Y189.984
X54.067Y187.444
X54.067Y184.904
X54.067Y182.364
X54.067Y179.824
X54.067Y174.744
X54.067Y172.204
X54.067Y169.664
X54.067Y164.584
X54.067Y162.044
X54.067Y159.504
X54.067Y156.964
X54.067Y154.424
X54.067Y151.884
X54.067Y149.344
X54.067Y146.804
X54.067Y141.724
X54.067Y139.184
X54.067Y101.084
X54.067Y98.544
X54.067Y85.844
X54.067Y75.684
X54.067Y62.984
X54.067Y60.444
X54.067Y57.904
X54.067Y52.824
X54.067Y47.744
X54.067Y45.204
X54.067Y42.664
X54.7Y95.0
X55.0Y125.25
X55.0Y50.5
X55.25Y123.25
X55.5Y118.0
X55.5Y82.25
X55.5Y64.5
X56.0Y127.0
X56.0Y86.5
X56.088Y106.421
X56.607Y200.144
X56.607Y197.604
X56.607Y192.524
X56.607Y189.984
X56.607Y184.904
X56.607Y182.364
X56.607Y179.824
X56.607Y172.204
X56.607Y169.664
X56.607Y164.584
X56.607Y162.044
X56.607Y159.504
X56.607Y156.964
X56.607Y154.424
X56.607Y151.884
X56.607Y149.344
X56.607Y146.804
X56.607Y141.724
X56.607Y139.184
X56.607Y47.744
X56.607Y45.204
X56.607Y42.664
X56.625Y64.625
X56.75Y118.25
X57.0Y127.0
X57.0Y106.5
X57.0Y86.5
X57.5Y64.5
X58.0Y127.0
X58.0Y106.5
X58.0Y86.5
X59.148Y200.144
X59.148Y197.604
X59.148Y192.524
X59.148Y189.984
X59.148Y184.904
X59.148Y182.364
X59.148Y179.824
X59.148Y174.744
X59.148Y169.664
X59.148Y164.584
X59.148Y162.044
X59.148Y159.504
X59.148Y156.964
X59.148Y154.424
X59.148Y151.884
X59.148Y149.344
X59.148Y146.804
X59.148Y139.184
X59.148Y129.024
X59.148Y126.484
X59.148Y108.704
X59.148Y106.164
X59.148Y98.544
X59.148Y96.004
X59.148Y93.464
X59.148Y88.384
X59.148Y85.844
X59.148Y73.144
X59.148Y70.604
X59.148Y65.524
X59.148Y62.984
X59.148Y52.824
X59.148Y45.204
X59.148Y42.664
X61.688Y200.144
X61.688Y197.604
X61.688Y195.064
X61.688Y189.984
X61.688Y187.444
X61.688Y184.904
X61.688Y182.364
X61.688Y179.824
X61.688Y177.284
X61.688Y174.744
X61.688Y172.204
X61.688Y164.584
X61.688Y162.044
X61.688Y159.504
X61.688Y156.964
X61.688Y154.424
X61.688Y151.884
X61.688Y149.344
X61.688Y146.804
X61.688Y139.184
X61.688Y129.024
X61.688Y126.484
X61.688Y118.864
X61.688Y116.324
X61.688Y113.784
X61.688Y108.704
X61.688Y106.164
X61.688Y98.544
X61.688Y96.004
X61.688Y88.384
X61.688Y85.844
X61.688Y78.224
X61.688Y75.684
X61.688Y65.524
X61.688Y62.984
X61.688Y57.904
X61.688Y52.824
X61.688Y50.284
X61.688Y45.204
X61.688Y42.664
X62.375Y140.962
X64.227Y200.144
X64.227Y197.604
X64.227Y195.064
X64.227Y192.524
X64.227Y187.444
X64.227Y184.904
X64.227Y182.364
X64.227Y179.824
X64.227Y177.284
X64.227Y174.744
X64.227Y172.204
X64.227Y169.664
X64.227Y164.584
X64.227Y162.044
X64.227Y159.504
X64.227Y156.964
X64.227Y154.424
X64.227Y151.884
X64.227Y149.344
X64.227Y146.804
X64.227Y129.024
X64.227Y126.484
X64.227Y121.404
X64.227Y118.864
X64.227Y116.324
X64.227Y113.784
X64.227Y108.704
X64.227Y106.164
X64.227Y103.624
X64.227Y88.384
X64.227Y85.844
X64.227Y80.764
X64.227Y78.224
X64.227Y75.684
X64.227Y68.064
X64.227Y62.984
X64.227Y52.824
X64.25Y50.75
X64.975Y139.162
X66.767Y200.144
X66.767Y197.604
X66.767Y195.064
X66.767Y192.524
X66.767Y189.984
X66.767Y184.904
X66.767Y182.364
X66.767Y179.824
X66.767Y177.284
X66.767Y174.744
X66.767Y172.204
X66.767Y169.664
X66.767Y164.584
X66.767Y162.044
X66.767Y159.504
X66.767Y156.964
X66.767Y154.424
X66.767Y151.884
X66.767Y149.344
X66.767Y146.804
X66.767Y129.024
X66.767Y126.484
X66.767Y121.404
X66.767Y118.864
X66.767Y116.324
X66.767Y113.784
X66.767Y108.704
X66.767Y106.164
X66.767Y103.624
X66.767Y93.464
X66.767Y88.384
X66.767Y85.844
X66.767Y80.764
X66.767Y78.224
X66.767Y70.604
X66.767Y68.064
X66.767Y62.984
X66.767Y52.824
X66.767Y50.284
X67.575Y143.362
X69.307Y200.144
X69.307Y197.604
X69.307Y195.064
X69.307Y192.524
X69.307Y189.984
X69.307Y177.284
X69.307Y174.744
X69.307Y172.204
X69.307Y169.664
X69.307Y164.584
X69.307Y162.044
X69.307Y159.504
X69.307Y156.964
X69.307Y154.424
X69.307Y151.884
X69.307Y149.344
X69.307Y146.804
X69.307Y139.184
X69.307Y129.024
X69.307Y126.484
X69.307Y118.864
X69.307Y116.324
X69.307Y113.784
X69.307Y108.704
X69.307Y106.164
X69.307Y103.624
X69.307Y98.544
X69.307Y96.004
X69.307Y93.464
X69.307Y88.384
X69.307Y85.844
X69.307Y78.224
X69.307Y73.144
X69.307Y70.604
X69.307Y68.064
X69.307Y65.524
X69.307Y62.984
X69.307Y52.824
X69.307Y50.284
X71.25Y47.0
X71.847Y200.144
X71.847Y197.604
X71.847Y195.064
X71.847Y192.524
X71.847Y187.444
X71.847Y184.904
X71.847Y182.364
X71.847Y169.664
X71.847Y164.584
X71.847Y162.044
X71.847Y159.504
X71.847Y156.964
X71.847Y154.424
X71.847Y151.884
X71.847Y149.344
X71.847Y146.804
X71.847Y141.724
X71.847Y129.024
X71.847Y126.484
X71.847Y116.324
X71.847Y108.704
X71.847Y106.164
X71.847Y103.624
X71.847Y101.084
X71.847Y98.544
X71.847Y96.004
X71.847Y93.464
X71.847Y88.384
X71.847Y85.844
X71.847Y73.144
X71.847Y70.604
X71.847Y68.064
X71.847Y65.524
X71.847Y62.984
X71.847Y60.444
X71.847Y57.904
X71.847Y42.664
X74.388Y200.144
X74.388Y197.604
X74.388Y195.064
X74.388Y192.524
X74.388Y184.904
X74.388Y182.364
X74.388Y179.824
X74.388Y174.744
X74.388Y172.204
X74.388Y164.584
X74.388Y162.044
X74.388Y159.504
X74.388Y156.964
X74.388Y154.424
X74.388Y151.884
X74.388Y149.344
X74.388Y146.804
X74.388Y134.104
X74.388Y129.024
X74.388Y126.484
X74.388Y113.784
X74.388Y108.704
X74.388Y106.164
X74.388Y103.624
X74.388Y101.084
X74.388Y98.544
X74.388Y96.004
X74.388Y93.464
X74.388Y88.384
X74.388Y85.844
X74.388Y73.144
X74.388Y70.604
X74.388Y68.064
X74.388Y65.524
X74.388Y62.984
X74.388Y60.444
X74.388Y57.904
X74.388Y42.664
X75.25Y44.75
X76.125Y44.625
X76.916Y44.747
X76.927Y200.144
X76.927Y197.604
X76.927Y195.064
X76.927Y192.524
X76.927Y184.904
X76.927Y182.364
X76.927Y179.824
X76.927Y174.744
X76.927Y172.204
X76.927Y169.664
X76.927Y164.584
X76.927Y162.044
X76.927Y159.504
X76.927Y156.964
X76.927Y154.424
X76.927Y136.644
X76.927Y134.104
X76.927Y129.024
X76.927Y126.484
X76.927Y116.324
X76.927Y113.784
X76.927Y108.704
X76.927Y106.164
X76.927Y103.624
X76.927Y101.084
X76.927Y98.544
X76.927Y96.004
X76.927Y93.464
X76.927Y88.384
X76.927Y85.844
X76.927Y73.144
X76.927Y70.604
X76.927Y68.064
X76.927Y65.524
X76.927Y62.984
X76.927Y60.444
X76.927Y57.904
X76.927Y55.364
X76.927Y42.664
X79.468Y200.144
X79.468Y197.604
X79.468Y195.064
X79.468Y192.524
X79.468Y187.444
X79.468Y184.904
X79.468Y182.364
X79.468Y179.824
X79.468Y177.284
X79.468Y174.744
X79.468Y172.204
X79.468Y169.664
X79.468Y162.044
X79.468Y159.504
X79.468Y156.964
X79.468Y151.884
X79.468Y139.184
X79.468Y136.644
X79.468Y134.104
X79.468Y129.024
X79.468Y126.484
X79.468Y118.864
X79.468Y116.324
X79.468Y113.784
X79.468Y108.704
X79.468Y106.164
X79.468Y98.544
X79.468Y96.004
X79.468Y93.464
X79.468Y88.384
X79.468Y85.844
X79.468Y78.224
X79.468Y73.144
X79.468Y70.604
X79.468Y68.064
X79.468Y65.524
X79.468Y62.984
X79.468Y55.364
X79.468Y52.824
X79.468Y45.204
X79.468Y42.664
X81.425Y140.962
X82.007Y200.144
X82.007Y197.604
X82.007Y195.064
X82.007Y192.524
X82.007Y189.984
X82.007Y184.904
X82.007Y182.364
X82.007Y179.824
X82.007Y177.284
X82.007Y174.744
X82.007Y172.204
X82.007Y169.664
X82.007Y167.124
X82.007Y136.644
X82.007Y129.024
X82.007Y126.484
X82.007Y121.404
X82.007Y118.864
X82.007Y116.324
X82.007Y113.784
X82.007Y108.704
X82.007Y106.164
X82.007Y103.624
X82.007Y98.544
X82.007Y96.004
X82.007Y88.384
X82.007Y85.844
X82.007Y80.764
X82.007Y78.224
X82.007Y73.144
X82.007Y70.604
X82.007Y68.064
X82.007Y65.524
X82.007Y62.984
X82.007Y45.204
X82.007Y42.664
X83.0Y158.75
X84.025Y139.162
X84.5Y153.0
X84.547Y200.144
X84.547Y197.604
X84.547Y195.064
X84.547Y192.524
X84.547Y189.984
X84.547Y187.444
X84.547Y182.364
X84.547Y179.824
X84.547Y177.284
X84.547Y174.744
X84.547Y172.204
X84.547Y164.584
X84.547Y146.804
X84.547Y134.104
X84.547Y129.024
X84.547Y126.484
X84.547Y121.404
X84.547Y118.864
X84.547Y116.324
X84.547Y113.784
X84.547Y108.704
X84.547Y106.164
X84.547Y103.624
X84.547Y93.464
X84.547Y88.384
X84.547Y85.844
X84.547Y80.764
X84.547Y78.224
X84.547Y73.144
X84.547Y70.604
X84.547Y68.064
X84.547Y65.524
X84.547Y62.984
X84.547Y55.364
X84.547Y50.284
X84.547Y47.744
X84.547Y45.204
X84.547Y42.664
X85.5Y153.0
X86.5Y153.0
X86.625Y143.362
X87.087Y200.144
X87.087Y197.604
X87.087Y195.064
X87.087Y192.524
X87.087Y189.984
X87.087Y187.444
X87.087Y182.364
X87.087Y179.824
X87.087Y177.284
X87.087Y174.744
X87.087Y172.204
X87.087Y169.664
X87.087Y167.124
X87.087Y164.584
X87.087Y162.044
X87.087Y159.504
X87.087Y151.884
X87.087Y149.344
X87.087Y146.804
X87.087Y136.644
X87.087Y134.104
X87.087Y129.024
X87.087Y126.484
X87.087Y118.864
X87.087Y116.324
X87.087Y113.784
X87.087Y108.704
X87.087Y106.164
X87.087Y103.624
X87.087Y96.004
X87.087Y93.464
X87.087Y88.384
X87.087Y80.764
X87.087Y78.224
X87.087Y73.144
X87.087Y70.604
X87.087Y68.064
X87.087Y65.524
X87.087Y62.984
X87.087Y50.284
X87.087Y47.744
X87.087Y45.204
X87.087Y42.664
X89.627Y200.144
X89.627Y197.604
X89.627Y195.064
X89.627Y192.524
X89.627Y189.984
X89.627Y187.444
X89.627Y182.364
X89.627Y179.824
X89.627Y177.284
X89.627Y174.744
X89.627Y172.204
X89.627Y169.664
X89.627Y167.124
X89.627Y164.584
X89.627Y162.044
X89.627Y159.504
X89.627Y151.884
X89.627Y149.344
X89.627Y146.804
X89.627Y139.184
X89.627Y136.644
X89.627Y134.104
X89.627Y129.024
X89.627Y126.484
X89.627Y118.864
X89.627Y116.324
X89.627Y113.784
X89.627Y108.704
X89.627Y106.164
X89.627Y103.624
X89.627Y98.544
X89.627Y96.004
X89.627Y93.464
X89.627Y88.384
X89.627Y78.224
X89.627Y73.144
X89.627Y70.604
X89.627Y68.064
X89.627Y65.524
X89.627Y62.984
X89.627Y55.364
X89.627Y50.284
X89.627Y47.744
X89.627Y42.664
X91.365Y154.8
X92.167Y200.144
X92.167Y197.604
X92.167Y195.064
X92.167Y192.524
X92.167Y187.444
X92.167Y182.364
X92.167Y179.824
X92.167Y177.284
X92.167Y174.744
X92.167Y172.204
X92.167Y169.664
X92.167Y167.124
X92.167Y164.584
X92.167Y162.044
X92.167Y159.504
X92.167Y149.344
X92.167Y146.804
X92.167Y141.724
X92.167Y139.184
X92.167Y136.644
X92.167Y134.104
X92.167Y129.024
X92.167Y126.484
X92.167Y116.324
X92.167Y111.244
X92.167Y108.704
X92.167Y106.164
X92.167Y103.624
X92.167Y101.084
X92.167Y98.544
X92.167Y96.004
X92.167Y93.464
X92.167Y88.384
X92.167Y85.844
X92.167Y73.144
X92.167Y70.604
X92.167Y68.064
X92.167Y65.524
X92.167Y62.984
X92.167Y60.444
X92.167Y57.904
X92.167Y55.364
X92.167Y50.284
X92.167Y47.744
X92.167Y45.204
X92.167Y42.664
X94.707Y200.144
X94.707Y197.604
X94.707Y195.064
X94.707Y192.524
X94.707Y187.444
X94.707Y182.364
X94.707Y179.824
X94.707Y177.284
X94.707Y174.744
X94.707Y172.204
X94.707Y169.664
X94.707Y167.124
X94.707Y164.584
X94.707Y162.044
X94.707Y159.504
X94.707Y151.884
X94.707Y149.344
X94.707Y146.804
X94.707Y141.724
X94.707Y139.184
X94.707Y136.644
X94.707Y134.104
X94.707Y129.024
X94.707Y126.484
X94.707Y113.784
X94.707Y111.244
X94.707Y108.704
X94.707Y106.164
X94.707Y103.624
X94.707Y101.084
X94.707Y98.544
X94.707Y96.004
X94.707Y93.464
X94.707Y88.384
X94.707Y85.844
X94.707Y73.144
X94.707Y70.604
X94.707Y68.064
X94.707Y65.524
X94.707Y62.984
X94.707Y60.444
X94.707Y57.904
X94.707Y55.364
X94.707Y50.284
X94.707Y47.744
X94.707Y45.204
X94.707Y42.664
X97.248Y200.144
X97.248Y197.604
X97.248Y195.064
X97.248Y192.524
X97.248Y189.984
X97.248Y177.284
X97.248Y174.744
X97.248Y172.204
X97.248Y169.664
X97.248Y167.124
X97.248Y164.584
X97.248Y162.044
X97.248Y151.884
X97.248Y149.344
X97.248Y146.804
X97.248Y139.184
X97.248Y136.644
X97.248Y134.104
X97.248Y129.024
X97.248Y126.484
X97.248Y118.864
X97.248Y116.324
X97.248Y113.784
X97.248Y111.244
X97.248Y108.704
X97.248Y106.164
X97.248Y103.624
X97.248Y98.544
X97.248Y96.004
X97.248Y93.464
X97.248Y88.384
X97.248Y85.844
X97.248Y80.764
X97.248Y78.224
X97.248Y73.144
X97.248Y70.604
X97.248Y68.064
X97.248Y65.524
X97.248Y62.984
X97.248Y55.364
X97.248Y50.284
X97.248Y47.744
X97.248Y45.204
X97.248Y42.664
X99.787Y200.144
X99.787Y197.604
X99.787Y195.064
X99.787Y192.524
X99.787Y187.444
X99.787Y184.904
X99.787Y182.364
X99.787Y177.284
X99.787Y174.744
X99.787Y172.204
X99.787Y169.664
X99.787Y167.124
X99.787Y164.584
X99.787Y151.884
X99.787Y149.344
X99.787Y146.804
X99.787Y139.184
X99.787Y136.644
X99.787Y129.024
X99.787Y126.484
X99.787Y118.864
X99.787Y116.324
X99.787Y113.784
X99.787Y111.244
X99.787Y108.704
X99.787Y106.164
X99.787Y98.544
X99.787Y96.004
X99.787Y93.464
X99.787Y88.384
X99.787Y85.844
X99.787Y78.224
X99.787Y73.144
X99.787Y70.604
X99.787Y68.064
X99.787Y65.524
X99.787Y62.984
X99.787Y55.364
X99.787Y50.284
X99.787Y47.744
X99.787Y45.204
X99.787Y42.664
X102.328Y200.144
X102.328Y197.604
X102.328Y195.064
X102.328Y189.984
X102.328Y187.444
X102.328Y184.904
X102.328Y182.364
X102.328Y179.824
X102.328Y174.744
X102.328Y172.204
X102.328Y169.664
X102.328Y167.124
X102.328Y159.504
X102.328Y151.884
X102.328Y134.104
X102.328Y129.024
X102.328Y126.484
X102.328Y121.404
X102.328Y118.864
X102.328Y116.324
X102.328Y113.784
X102.328Y111.244
X102.328Y108.704
X102.328Y106.164
X102.328Y103.624
X102.328Y96.004
X102.328Y88.384
X102.328Y85.844
X102.328Y80.764
X102.328Y78.224
X102.328Y73.144
X102.328Y70.604
X102.328Y68.064
X102.328Y65.524
X102.328Y62.984
X102.328Y55.364
X102.328Y50.284
X102.328Y47.744
X102.328Y45.204
X102.328Y42.664
X104.867Y200.144
X104.867Y197.604
X104.867Y195.064
X104.867Y189.984
X104.867Y184.904
X104.867Y182.364
X104.867Y179.824
X104.867Y172.204
X104.867Y169.664
X104.867Y162.044
X104.867Y159.504
X104.867Y151.884
X104.867Y146.804
X104.867Y136.644
X104.867Y134.104
X104.867Y129.024
X104.867Y126.484
X104.867Y121.404
X104.867Y118.864
X104.867Y116.324
X104.867Y113.784
X104.867Y111.244
X104.867Y108.704
X104.867Y106.164
X104.867Y103.624
X104.867Y93.464
X104.867Y88.384
X104.867Y85.844
X104.867Y80.764
X104.867Y78.224
X104.867Y73.144
X104.867Y70.604
X104.867Y68.064
X104.867Y65.524
X104.867Y62.984
X104.867Y50.284
X104.867Y47.744
X104.867Y45.204
X104.867Y42.664
X105.675Y143.362
X107.407Y200.144
X107.407Y197.604
X107.407Y195.064
X107.407Y189.984
X107.407Y187.444
X107.407Y184.904
X107.407Y182.364
X107.407Y179.824
X107.407Y177.284
X107.407Y174.744
X107.407Y172.204
X107.407Y164.584
X107.407Y162.044
X107.407Y159.504
X107.407Y151.884
X107.407Y149.344
X107.407Y146.804
X107.407Y139.184
X107.407Y136.644
X107.407Y134.104
X107.407Y129.024
X107.407Y126.484
X107.407Y118.864
X107.407Y116.324
X107.407Y113.784
X107.407Y108.704
X107.407Y106.164
X107.407Y103.624
X107.407Y98.544
X107.407Y96.004
X107.407Y93.464
X107.407Y88.384
X107.407Y85.844
X107.407Y78.224
X107.407Y73.144
X107.407Y70.604
X107.407Y68.064
X107.407Y65.524
X107.407Y62.984
X107.407Y55.364
X107.407Y50.284
X107.407Y47.744
X107.407Y45.204
X107.407Y42.664
X109.947Y200.144
X109.947Y197.604
X109.947Y195.064
X109.947Y189.984
X109.947Y187.444
X109.947Y184.904
X109.947Y182.364
X109.947Y179.824
X109.947Y177.284
X109.947Y174.744
X109.947Y167.124
X109.947Y164.584
X109.947Y162.044
X109.947Y159.504
X109.947Y151.884
X109.947Y149.344
X109.947Y146.804
X109.947Y141.724
X109.947Y139.184
X109.947Y136.644
X109.947Y134.104
X109.947Y129.024
X109.947Y126.484
X109.947Y116.324
X109.947Y111.244
X109.947Y108.704
X109.947Y106.164
X109.947Y103.624
X109.947Y101.084
X109.947Y98.544
X109.947Y96.004
X109.947Y93.464
X109.947Y88.384
X109.947Y85.844
X109.947Y73.144
X109.947Y70.604
X109.947Y68.064
X109.947Y65.524
X109.947Y62.984
X109.947Y60.444
X109.947Y57.904
X109.947Y55.364
X109.947Y50.284
X109.947Y47.744
X109.947Y45.204
X109.947Y42.664
X112.487Y200.144
X112.487Y197.604
X112.487Y195.064
X112.487Y189.984
X112.487Y187.444
X112.487Y184.904
X112.487Y182.364
X112.487Y177.284
X112.487Y174.744
X112.487Y169.664
X112.487Y167.124
X112.487Y164.584
X112.487Y162.044
X112.487Y159.504
X112.487Y151.884
X112.487Y149.344
X112.487Y146.804
X112.487Y141.724
X112.487Y139.184
X112.487Y136.644
X112.487Y134.104
X112.487Y129.024
X112.487Y126.484
X112.487Y113.784
X112.487Y111.244
X112.487Y108.704
X112.487Y106.164
X112.487Y103.624
X112.487Y101.084
X112.487Y98.544
X112.487Y96.004
X112.487Y93.464
X112.487Y88.384
X112.487Y85.844
X112.487Y75.684
X112.487Y73.144
X112.487Y70.604
X112.487Y68.064
X112.487Y65.524
X112.487Y62.984
X112.487Y60.444
X112.487Y57.904
X112.487Y55.364
X112.487Y50.284
X112.487Y47.744
X112.487Y45.204
X112.487Y42.664
X115.027Y200.144
X115.027Y197.604
X115.027Y195.064
X115.027Y187.444
X115.027Y177.284
X115.027Y172.204
X115.027Y169.664
X115.027Y167.124
X115.027Y164.584
X115.027Y162.044
X115.027Y159.504
X115.027Y151.884
X115.027Y149.344
X115.027Y146.804
X115.027Y141.724
X115.027Y139.184
X115.027Y136.644
X115.027Y134.104
X115.027Y129.024
X115.027Y126.484
X115.027Y116.324
X115.027Y113.784
X115.027Y111.244
X115.027Y108.704
X115.027Y106.164
X115.027Y103.624
X115.027Y101.084
X115.027Y98.544
X115.027Y96.004
X115.027Y93.464
X115.027Y88.384
X115.027Y85.844
X115.027Y78.224
X115.027Y75.684
X115.027Y73.144
X115.027Y70.604
X115.027Y68.064
X115.027Y65.524
X115.027Y62.984
X115.027Y60.444
X115.027Y57.904
X115.027Y55.364
X115.027Y50.284
X115.027Y47.744
X115.027Y45.204
X115.027Y42.664
X117.567Y200.144
X117.567Y197.604
X117.567Y195.064
X117.567Y189.984
X117.567Y187.444
X117.567Y172.204
X117.567Y169.664
X117.567Y167.124
X117.567Y164.584
X117.567Y162.044
X117.567Y159.504
X117.567Y151.884
X117.567Y149.344
X117.567Y146.804
X117.567Y139.184
X117.567Y136.644
X117.567Y131.564
X117.567Y129.024
X117.567Y126.484
X117.567Y118.864
X117.567Y116.324
X117.567Y113.784
X117.567Y111.244
X117.567Y108.704
X117.567Y98.544
X117.567Y96.004
X117.567Y93.464
X117.567Y88.384
X117.567Y85.844
X117.567Y78.224
X117.567Y75.684
X117.567Y73.144
X117.567Y70.604
X117.567Y68.064
X117.567Y65.524
X117.567Y62.984
X117.567Y55.364
X117.567Y50.284
X117.567Y47.744
X117.567Y45.204
X117.567Y42.664
X120.107Y200.144
X120.107Y197.604
X120.107Y195.064
X120.107Y189.984
X120.107Y187.444
X120.107Y184.904
X120.107Y182.364
X120.107Y177.284
X120.107Y172.204
X120.107Y169.664
X120.107Y167.124
X120.107Y164.584
X120.107Y162.044
X120.107Y159.504
X120.107Y151.884
X120.107Y149.344
X120.107Y146.804
X120.107Y134.104
X120.107Y131.564
X120.107Y129.024
X120.107Y126.484
X120.107Y121.404
X120.107Y118.864
X120.107Y116.324
X120.107Y113.784
X120.107Y111.244
X120.107Y108.704
X120.107Y106.164
X120.107Y103.624
X120.107Y98.544
X120.107Y96.004
X120.107Y90.924
X120.107Y88.384
X120.107Y85.844
X120.107Y80.764
X120.107Y78.224
X120.107Y75.684
X120.107Y73.144
X120.107Y70.604
X120.107Y68.064
X120.107Y65.524
X120.107Y62.984
X120.107Y55.364
X120.107Y50.284
X120.107Y47.744
X120.107Y45.204
X120.107Y42.664
X122.647Y200.144
X122.647Y197.604
X122.647Y195.064
X122.647Y189.984
X122.647Y184.904
X122.647Y182.364
X122.647Y179.824
X122.647Y172.204
X122.647Y169.664
X122.647Y167.124
X122.647Y164.584
X122.647Y162.044
X122.647Y159.504
X122.647Y151.884
X122.647Y149.344
X122.647Y146.804
X122.647Y136.644
X122.647Y134.104
X122.647Y131.564
X122.647Y129.024
X122.647Y126.484
X122.647Y121.404
X122.647Y118.864
X122.647Y116.324
X122.647Y113.784
X122.647Y111.244
X122.647Y108.704
X122.647Y106.164
X122.647Y103.624
X122.647Y93.464
X122.647Y90.924
X122.647Y88.384
X122.647Y85.844
X122.647Y80.764
X122.647Y78.224
X122.647Y75.684
X122.647Y73.144
X122.647Y70.604
X122.647Y68.064
X122.647Y62.984
X122.647Y50.284
X122.647Y47.744
X122.647Y45.204
X122.647Y42.664
X124.725Y143.362
X125.188Y200.144
X125.188Y197.604
X125.188Y195.064
X125.188Y189.984
X125.188Y184.904
X125.188Y182.364
X125.188Y179.824
X125.188Y172.204
X125.188Y169.664
X125.188Y167.124
X125.188Y164.584
X125.188Y162.044
X125.188Y159.504
X125.188Y151.884
X125.188Y149.344
X125.188Y146.804
X125.188Y139.184
X125.188Y136.644
X125.188Y134.104
X125.188Y131.564
X125.188Y129.024
X125.188Y126.484
X125.188Y118.864
X125.188Y116.324
X125.188Y113.784
X125.188Y111.244
X125.188Y108.704
X125.188Y106.164
X125.188Y103.624
X125.188Y96.004
X125.188Y93.464
X125.188Y90.924
X125.188Y88.384
X125.188Y80.764
X125.188Y78.224
X125.188Y75.684
X125.188Y73.144
X125.188Y70.604
X125.188Y68.064
X125.188Y65.524
X125.188Y62.984
X125.188Y55.364
X125.188Y52.824
X125.188Y50.284
X125.188Y47.744
X125.188Y45.204
X127.727Y200.144
X127.727Y197.604
X127.727Y195.064
X127.727Y189.984
X127.727Y187.444
X127.727Y184.904
X127.727Y182.364
X127.727Y179.824
X127.727Y177.284
X127.727Y172.204
X127.727Y169.664
X127.727Y167.124
X127.727Y164.584
X127.727Y162.044
X127.727Y159.504
X127.727Y151.884
X127.727Y149.344
X127.727Y146.804
X127.727Y139.184
X127.727Y136.644
X127.727Y134.104
X127.727Y131.564
X127.727Y129.024
X127.727Y126.484
X127.727Y118.864
X127.727Y116.324
X127.727Y113.784
X127.727Y111.244
X127.727Y108.704
X127.727Y106.164
X127.727Y103.624
X127.727Y98.544
X127.727Y96.004
X127.727Y93.464
X127.727Y90.924
X127.727Y88.384
X127.727Y78.224
X127.727Y75.684
X127.727Y73.144
X127.727Y70.604
X127.727Y68.064
X127.727Y65.524
X127.727Y62.984
X127.727Y55.364
X127.727Y52.824
X127.727Y50.284
X127.727Y47.744
X130.267Y200.144
X130.267Y197.604
X130.267Y195.064
X130.267Y189.984
X130.267Y187.444
X130.267Y184.904
X130.267Y182.364
X130.267Y179.824
X130.267Y177.284
X130.267Y172.204
X130.267Y169.664
X130.267Y167.124
X130.267Y164.584
X130.267Y162.044
X130.267Y159.504
X130.267Y151.884
X130.267Y149.344
X130.267Y146.804
X130.267Y141.724
X130.267Y139.184
X130.267Y136.644
X130.267Y134.104
X130.267Y131.564
X130.267Y129.024
X130.267Y126.484
X130.267Y116.324
X130.267Y113.784
X130.267Y111.244
X130.267Y108.704
X130.267Y106.164
X130.267Y103.624
X130.267Y101.084
X130.267Y98.544
X130.267Y96.004
X130.267Y93.464
X130.267Y90.924
X130.267Y88.384
X130.267Y85.844
X130.267Y75.684
X130.267Y73.144
X130.267Y70.604
X130.267Y68.064
X130.267Y65.524
X130.267Y62.984
X130.267Y60.444
X130.267Y57.904
X130.267Y55.364
X130.267Y52.824
X130.267Y50.284
X130.267Y47.744
X130.267Y45.204
X132.808Y200.144
X132.808Y197.604
X132.808Y195.064
X132.808Y189.984
X132.808Y187.444
X132.808Y184.904
X132.808Y179.824
X132.808Y177.284
X132.808Y172.204
X132.808Y169.664
X132.808Y167.124
X132.808Y164.584
X132.808Y162.044
X132.808Y159.504
X132.808Y151.884
X132.808Y149.344
X132.808Y146.804
X132.808Y141.724
X132.808Y139.184
X132.808Y136.644
X132.808Y134.104
X132.808Y131.564
X132.808Y129.024
X132.808Y126.484
X132.808Y116.324
X132.808Y113.784
X132.808Y111.244
X132.808Y108.704
X132.808Y106.164
X132.808Y103.624
X132.808Y101.084
X132.808Y98.544
X132.808Y96.004
X132.808Y93.464
X132.808Y90.924
X132.808Y88.384
X132.808Y85.844
X132.808Y75.684
X132.808Y73.144
X132.808Y70.604
X132.808Y68.064
X132.808Y65.524
X132.808Y62.984
X132.808Y60.444
X132.808Y57.904
X132.808Y55.364
X132.808Y52.824
X132.808Y50.284
X132.808Y47.744
X132.808Y45.204
X132.808Y42.664
X135.347Y200.144
X135.347Y197.604
X135.347Y195.064
X135.347Y177.284
X135.347Y172.204
X135.347Y169.664
X135.347Y167.124
X135.347Y164.584
X135.347Y162.044
X135.347Y159.504
X135.347Y151.884
X135.347Y149.344
X135.347Y146.804
X135.347Y139.184
X135.347Y136.644
X135.347Y134.104
X135.347Y131.564
X135.347Y129.024
X135.347Y126.484
X135.347Y118.864
X135.347Y113.784
X135.347Y111.244
X135.347Y108.704
X135.347Y106.164
X135.347Y103.624
X135.347Y98.544
X135.347Y96.004
X135.347Y93.464
X135.347Y90.924
X135.347Y88.384
X135.347Y85.844
X135.347Y80.764
X135.347Y78.224
X135.347Y75.684
X135.347Y70.604
X135.347Y68.064
X135.347Y65.524
X135.347Y62.984
X135.347Y55.364
X135.347Y52.824
X135.347Y50.284
X135.347Y47.744
X135.347Y45.204
X135.347Y42.664
X137.887Y200.144
X137.887Y197.604
X137.887Y195.064
X137.887Y189.984
X137.887Y187.444
X137.887Y184.904
X137.887Y182.364
X137.887Y179.824
X137.887Y177.284
X137.887Y172.204
X137.887Y169.664
X137.887Y167.124
X137.887Y164.584
X137.887Y162.044
X137.887Y159.504
X137.887Y151.884
X137.887Y149.344
X137.887Y146.804
X137.887Y139.184
X137.887Y136.644
X137.887Y134.104
X137.887Y131.564
X137.887Y129.024
X137.887Y126.484
X137.887Y118.864
X137.887Y116.324
X137.887Y111.244
X137.887Y108.704
X137.887Y106.164
X137.887Y98.544
X137.887Y96.004
X137.887Y93.464
X137.887Y90.924
X137.887Y88.384
X137.887Y85.844
X137.887Y78.224
X137.887Y75.684
X137.887Y73.144
X137.887Y70.604
X137.887Y68.064
X137.887Y65.524
X137.887Y62.984
X137.887Y55.364
X137.887Y52.824
X137.887Y50.284
X137.887Y47.744
X137.887Y45.204
X137.887Y42.664
X138.575Y140.962
X140.427Y200.144
X140.427Y197.604
X140.427Y195.064
X140.427Y189.984
X140.427Y187.444
X140.427Y184.904
X140.427Y182.364
X140.427Y179.824
X140.427Y177.284
X140.427Y172.204
X140.427Y164.584
X140.427Y162.044
X140.427Y159.504
X140.427Y151.884
X140.427Y149.344
X140.427Y146.804
X140.427Y136.644
X140.427Y134.104
X140.427Y131.564
X140.427Y129.024
X140.427Y126.484
X140.427Y121.404
X140.427Y118.864
X140.427Y116.324
X140.427Y111.244
X140.427Y108.704
X140.427Y106.164
X140.427Y103.624
X140.427Y96.004
X140.427Y93.464
X140.427Y90.924
X140.427Y88.384
X140.427Y85.844
X140.427Y80.764
X140.427Y78.224
X140.427Y75.684
X140.427Y73.144
X140.427Y70.604
X140.427Y68.064
X140.427Y65.524
X140.427Y62.984
X140.427Y55.364
X140.427Y52.824
X140.427Y50.284
X140.427Y47.744
X140.427Y45.204
X140.427Y42.664
X141.175Y139.162
X142.968Y200.144
X142.968Y197.604
X142.968Y195.064
X142.968Y189.984
X142.968Y184.904
X142.968Y182.364
X142.968Y179.824
X142.968Y172.204
X142.968Y167.124
X142.968Y164.584
X142.968Y162.044
X142.968Y159.504
X142.968Y151.884
X142.968Y149.344
X142.968Y146.804
X142.968Y139.184
X142.968Y136.644
X142.968Y134.104
X142.968Y131.564
X142.968Y129.024
X142.968Y126.484
X142.968Y121.404
X142.968Y118.864
X142.968Y116.324
X142.968Y111.244
X142.968Y108.704
X142.968Y106.164
X142.968Y103.624
X142.968Y96.004
X142.968Y93.464
X142.968Y90.924
X142.968Y88.384
X142.968Y85.844
X142.968Y80.764
X142.968Y78.224
X142.968Y75.684
X142.968Y73.144
X142.968Y70.604
X142.968Y68.064
X142.968Y65.524
X142.968Y62.984
X142.968Y52.824
X142.968Y50.284
X142.968Y47.744
X142.968Y45.204
X142.968Y42.664
X143.775Y143.362
X145.507Y200.144
X145.507Y197.604
X145.507Y195.064
X145.507Y189.984
X145.507Y187.444
X145.507Y184.904
X145.507Y182.364
X145.507Y179.824
X145.507Y177.284
X145.507Y172.204
X145.507Y169.664
X145.507Y167.124
X145.507Y164.584
X145.507Y162.044
X145.507Y159.504
X145.507Y151.884
X145.507Y149.344
X145.507Y146.804
X145.507Y139.184
X145.507Y136.644
X145.507Y131.564
X145.507Y129.024
X145.507Y126.484
X145.507Y118.864
X145.507Y116.324
X145.507Y111.244
X145.507Y108.704
X145.507Y106.164
X145.507Y103.624
X145.507Y98.544
X145.507Y93.464
X145.507Y90.924
X145.507Y88.384
X145.507Y85.844
X145.507Y78.224
X145.507Y75.684
X145.507Y73.144
X145.507Y70.604
X145.507Y68.064
X145.507Y65.524
X145.507Y62.984
X145.507Y55.364
X145.507Y52.824
X145.507Y50.284
X145.507Y47.744
X145.507Y45.204
X145.507Y42.664
X148.047Y200.144
X148.047Y197.604
X148.047Y195.064
X148.047Y189.984
X148.047Y187.444
X148.047Y184.904
X148.047Y182.364
X148.047Y179.824
X148.047Y174.744
X148.047Y172.204
X148.047Y169.664
X148.047Y167.124
X148.047Y164.584
X148.047Y162.044
X148.047Y159.504
X148.047Y151.884
X148.047Y149.344
X148.047Y146.804
X148.047Y141.724
X148.047Y139.184
X148.047Y136.644
X148.047Y131.564
X148.047Y129.024
X148.047Y126.484
X148.047Y116.324
X148.047Y111.244
X148.047Y108.704
X148.047Y106.164
X148.047Y103.624
X148.047Y101.084
X148.047Y98.544
X148.047Y96.004
X148.047Y90.924
X148.047Y88.384
X148.047Y85.844
X148.047Y73.144
X148.047Y70.604
X148.047Y68.064
X148.047Y65.524
X148.047Y62.984
X148.047Y60.444
X148.047Y57.904
X148.047Y55.364
X148.047Y52.824
X148.047Y50.284
X148.047Y47.744
X148.047Y45.204
X148.047Y42.664
X150.588Y200.144
X150.588Y197.604
X150.588Y195.064
X150.588Y189.984
X150.588Y187.444
X150.588Y184.904
X150.588Y182.364
X150.588Y177.284
X150.588Y174.744
X150.588Y172.204
X150.588Y169.664
X150.588Y167.124
X150.588Y164.584
X150.588Y162.044
X150.588Y159.504
X150.588Y151.884
X150.588Y149.344
X150.588Y146.804
X150.588Y141.724
X150.588Y139.184
X150.588Y136.644
X150.588Y131.564
X150.588Y129.024
X150.588Y126.484
X150.588Y116.324
X150.588Y111.244
X150.588Y108.704
X150.588Y106.164
X150.588Y103.624
X150.588Y101.084
X150.588Y98.544
X150.588Y96.004
X150.588Y90.924
X150.588Y88.384
X150.588Y85.844
X150.588Y73.144
X150.588Y70.604
X150.588Y68.064
X150.588Y65.524
X150.588Y62.984
X150.588Y60.444
X150.588Y57.904
X150.588Y55.364
X150.588Y52.824
X150.588Y50.284
X150.588Y47.744
X150.588Y45.204
X150.588Y42.664
X153.127Y200.144
X153.127Y197.604
X153.127Y195.064
X153.127Y189.984
X153.127Y187.444
X153.127Y177.284
X153.127Y174.744
X153.127Y172.204
X153.127Y169.664
X153.127Y167.124
X153.127Y164.584
X153.127Y162.044
X153.127Y159.504
X153.127Y151.884
X153.127Y149.344
X153.127Y146.804
X153.127Y141.724
X153.127Y139.184
X153.127Y136.644
X153.127Y131.564
X153.127Y129.024
X153.127Y126.484
X153.127Y118.864
X153.127Y116.324
X153.127Y111.244
X153.127Y108.704
X153.127Y106.164
X153.127Y103.624
X153.127Y101.084
X153.127Y98.544
X153.127Y96.004
X153.127Y90.924
X153.127Y88.384
X153.127Y85.844
X153.127Y78.224
X153.127Y75.684
X153.127Y73.144
X153.127Y70.604
X153.127Y68.064
X153.127Y65.524
X153.127Y62.984
X153.127Y60.444
X153.127Y57.904
X153.127Y55.364
X153.127Y52.824
X153.127Y50.284
X153.127Y47.744
X153.127Y45.204
X153.127Y42.664
X155.667Y200.144
X155.667Y197.604
X155.667Y195.064
X155.667Y189.984
X155.667Y187.444
X155.667Y177.284
X155.667Y174.744
X155.667Y172.204
X155.667Y169.664
X155.667Y167.124
X155.667Y164.584
X155.667Y162.044
X155.667Y159.504
X155.667Y151.884
X155.667Y149.344
X155.667Y146.804
X155.667Y139.184
X155.667Y136.644
X155.667Y131.564
X155.667Y129.024
X155.667Y126.484
X155.667Y116.324
X155.667Y111.244
X155.667Y108.704
X155.667Y106.164
X155.667Y98.544
X155.667Y96.004
X155.667Y90.924
X155.667Y88.384
X155.667Y85.844
X155.667Y73.144
X155.667Y70.604
X155.667Y68.064
X155.667Y65.524
X155.667Y62.984
X155.667Y55.364
X155.667Y52.824
X155.667Y50.284
X155.667Y47.744
X155.667Y45.204
X155.667Y42.664
X157.625Y140.969
X158.207Y200.144
X158.207Y197.604
X158.207Y195.064
X158.207Y189.984
X158.207Y187.444
X158.207Y184.904
X158.207Y182.364
X158.207Y179.824
X158.207Y177.284
X158.207Y174.744
X158.207Y172.204
X158.207Y169.664
X158.207Y167.124
X158.207Y164.584
X158.207Y162.044
X158.207Y159.504
X158.207Y151.884
X158.207Y149.344
X158.207Y146.804
X158.207Y136.644
X158.207Y131.564
X158.207Y129.024
X158.207Y126.484
X158.207Y121.404
X158.207Y118.864
X158.207Y111.244
X158.207Y108.704
X158.207Y106.164
X158.207Y103.624
X158.207Y98.544
X158.207Y96.004
X158.207Y90.924
X158.207Y88.384
X158.207Y85.844
X158.207Y80.764
X158.207Y78.224
X158.207Y75.684
X158.207Y73.144
X158.207Y70.604
X158.207Y68.064
X158.207Y65.524
X158.207Y62.984
X158.207Y55.364
X158.207Y52.824
X158.207Y50.284
X158.207Y47.744
X158.207Y45.204
X158.207Y42.664
X160.225Y139.169
X160.748Y200.144
X160.748Y197.604
X160.748Y195.064
X160.748Y189.984
X160.748Y184.904
X160.748Y182.364
X160.748Y179.824
X160.748Y174.744
X160.748Y172.204
X160.748Y169.664
X160.748Y167.124
X160.748Y164.584
X160.748Y162.044
X160.748Y159.504
X160.748Y151.884
X160.748Y136.644
X160.748Y131.564
X160.748Y129.024
X160.748Y126.484
X160.748Y121.404
X160.748Y118.864
X160.748Y111.244
X160.748Y108.704
X160.748Y106.164
X160.748Y103.624
X160.748Y96.004
X160.748Y90.924
X160.748Y88.384
X160.748Y85.844
X160.748Y80.764
X160.748Y78.224
X160.748Y75.684
X160.748Y73.144
X160.748Y70.604
X160.748Y55.364
X160.748Y52.824
X160.748Y50.284
X160.748Y47.744
X160.748Y42.664
X161.0Y63.5
X161.75Y61.25
X162.825Y143.369
X163.287Y200.144
X163.287Y197.604
X163.287Y195.064
X163.287Y189.984
X163.287Y184.904
X163.287Y182.364
X163.287Y179.824
X163.287Y174.744
X163.287Y172.204
X163.287Y169.664
X163.287Y167.124
X163.287Y164.584
X163.287Y162.044
X163.287Y159.504
X163.287Y151.884
X163.287Y149.344
X163.287Y146.804
X163.287Y131.564
X163.287Y129.024
X163.287Y126.484
X163.287Y118.864
X163.287Y111.244
X163.287Y108.704
X163.287Y106.164
X163.287Y103.624
X163.287Y96.004
X163.287Y90.924
X163.287Y88.384
X163.287Y85.844
X163.287Y80.764
X163.287Y78.224
X163.287Y75.684
X163.287Y73.144
X163.287Y68.064
X163.287Y65.524
X163.287Y62.984
X163.287Y55.364
X163.287Y52.824
X163.287Y50.284
X163.287Y47.744
X163.287Y45.204
X163.287Y42.664
X165.827Y200.144
X165.827Y197.604
X165.827Y195.064
X165.827Y189.984
X165.827Y187.444
X165.827Y184.904
X165.827Y182.364
X165.827Y179.824
X165.827Y177.284
X165.827Y174.744
X165.827Y172.204
X165.827Y169.664
X165.827Y167.124
X165.827Y164.584
X165.827Y162.044
X165.827Y159.504
X165.827Y151.884
X165.827Y149.344
X165.827Y146.804
X165.827Y139.184
X165.827Y136.644
X165.827Y131.564
X165.827Y129.024
X165.827Y126.484
X165.827Y118.864
X165.827Y111.244
X165.827Y108.704
X165.827Y106.164
X165.827Y103.624
X165.827Y98.544
X165.827Y90.924
X165.827Y88.384
X165.827Y85.844
X165.827Y78.224
X165.827Y75.684
X165.827Y73.144
X165.827Y68.064
X165.827Y62.984
X165.827Y55.364
X165.827Y52.824
X165.827Y50.284
X165.827Y47.744
X165.827Y45.204
X165.827Y42.664
X167.25Y82.25
X168.367Y200.144
X168.367Y197.604
X168.367Y195.064
X168.367Y189.984
X168.367Y187.444
X168.367Y184.904
X168.367Y182.364
X168.367Y179.824
X168.367Y177.284
X168.367Y174.744
X168.367Y172.204
X168.367Y169.664
X168.367Y167.124
X168.367Y164.584
X168.367Y162.044
X168.367Y159.504
X168.367Y151.884
X168.367Y149.344
X168.367Y146.804
X168.367Y141.724
X168.367Y139.184
X168.367Y136.644
X168.367Y131.564
X168.367Y129.024
X168.367Y126.484
X168.367Y111.244
X168.367Y108.704
X168.367Y106.164
X168.367Y103.624
X168.367Y101.084
X168.367Y98.544
X168.367Y96.004
X168.367Y90.924
X168.367Y88.384
X168.367Y85.844
X168.367Y75.684
X168.367Y73.144
X168.367Y68.064
X168.367Y65.524
X168.367Y62.984
X168.367Y60.444
X168.367Y57.904
X168.367Y55.364
X168.367Y52.824
X168.367Y50.284
X168.367Y47.744
X168.367Y45.204
X168.367Y42.664
X170.907Y200.144
X170.907Y197.604
X170.907Y195.064
X170.907Y189.984
X170.907Y187.444
X170.907Y184.904
X170.907Y182.364
X170.907Y179.824
X170.907Y177.284
X170.907Y174.744
X170.907Y172.204
X170.907Y169.664
X170.907Y167.124
X170.907Y164.584
X170.907Y162.044
X170.907Y159.504
X170.907Y151.884
X170.907Y149.344
X170.907Y146.804
X170.907Y141.724
X170.907Y139.184
X170.907Y136.644
X170.907Y131.564
X170.907Y129.024
X170.907Y126.484
X170.907Y111.244
X170.907Y108.704
X170.907Y106.164
X170.907Y103.624
X170.907Y101.084
X170.907Y98.544
X170.907Y96.004
X170.907Y90.924
X170.907Y75.684
X170.907Y73.144
X170.907Y68.064
X170.907Y65.524
X170.907Y62.984
X170.907Y60.444
X170.907Y57.904
X170.907Y55.364
X170.907Y52.824
X170.907Y50.284
X170.907Y47.744
X170.907Y45.204
X170.907Y42.664
X171.0Y82.5
X173.447Y200.144
X173.447Y197.604
X173.447Y195.064
X173.447Y189.984
X173.447Y187.444
X173.447Y184.904
X173.447Y182.364
X173.447Y179.824
X173.447Y177.284
X173.447Y174.744
X173.447Y172.204
X173.447Y169.664
X173.447Y167.124
X173.447Y164.584
X173.447Y162.044
X173.447Y159.504
X173.447Y151.884
X173.447Y149.344
X173.447Y146.804
X173.447Y139.184
X173.447Y136.644
X173.447Y131.564
X173.447Y129.024
X173.447Y126.484
X173.447Y111.244
X173.447Y108.704
X173.447Y103.624
X173.447Y98.544
X173.447Y96.004
X173.447Y88.384
X173.447Y80.764
X173.447Y78.224
X173.447Y75.684
X173.447Y73.144
X173.447Y68.064
X173.447Y65.524
X173.447Y62.984
X173.447Y55.364
X173.447Y52.824
X173.447Y50.284
X173.447Y47.744
X173.447Y45.204
X173.447Y42.664
X174.0Y91.0
X175.987Y200.144
X175.987Y197.604
X175.987Y195.064
X175.987Y189.984
X175.987Y187.444
X175.987Y184.904
X175.987Y182.364
X175.987Y179.824
X175.987Y177.284
X175.987Y174.744
X175.987Y172.204
X175.987Y169.664
X175.987Y167.124
X175.987Y164.584
X175.987Y162.044
X175.987Y159.504
X175.987Y151.884
X175.987Y149.344
X175.987Y146.804
X175.987Y139.184
X175.987Y136.644
X175.987Y131.564
X175.987Y129.024
X175.987Y126.484
X175.987Y111.244
X175.987Y106.164
X175.987Y98.544
X175.987Y96.004
X175.987Y88.384
X175.987Y78.224
X175.987Y75.684
X175.987Y73.144
X175.987Y68.064
X175.987Y65.524
X175.987Y62.984
X175.987Y55.364
X175.987Y52.824
X175.987Y50.284
X175.987Y47.744
X175.987Y45.204
X175.987Y42.664
X176.675Y140.969
X177.0Y84.0
X177.5Y116.5
X177.89Y84.19
X178.25Y94.5
X178.5Y82.25
X178.528Y200.144
X178.528Y197.604
X178.528Y195.064
X178.528Y184.904
X178.528Y182.364
X178.528Y179.824
X178.528Y177.284
X178.528Y174.744
X178.528Y172.204
X178.528Y169.664
X178.528Y167.124
X178.528Y164.584
X178.528Y162.044
X178.528Y159.504
X178.528Y151.884
X178.528Y149.344
X178.528Y146.804
X178.528Y136.644
X178.528Y131.564
X178.528Y129.024
X178.528Y126.484
X178.528Y103.624
X178.528Y96.004
X178.528Y75.684
X178.528Y73.144
X178.528Y68.064
X178.528Y65.524
X178.528Y62.984
X178.528Y55.364
X178.528Y52.824
X178.528Y50.284
X178.528Y47.744
X178.528Y45.204
X178.528Y42.664
X178.75Y84.25
X179.275Y139.169
X179.5Y88.0
X179.575Y107.075
X180.0Y84.25
X180.625Y107.125
X180.625Y87.875
X181.067Y200.144
X181.067Y197.604
X181.067Y195.064
X181.067Y187.444
X181.067Y184.904
X181.067Y182.364
X181.067Y174.744
X181.067Y172.204
X181.067Y169.664
X181.067Y167.124
X181.067Y164.584
X181.067Y162.044
X181.067Y159.504
X181.067Y151.884
X181.067Y149.344
X181.067Y146.804
X181.067Y139.184
X181.067Y136.644
X181.067Y131.564
X181.067Y129.024
X181.067Y126.484
X181.067Y103.624
X181.067Y90.924
X181.067Y80.764
X181.067Y73.144
X181.067Y65.524
X181.067Y62.984
X181.067Y55.364
X181.067Y52.824
X181.067Y50.284
X181.067Y47.744
X181.067Y45.204
X181.067Y42.664
X181.25Y84.0
X181.5Y107.0
X181.5Y88.0
X181.875Y143.369
X182.0Y67.0
X182.311Y60.268
X183.607Y200.144
X183.607Y197.604
X183.607Y195.064
X183.607Y177.284
X183.607Y174.744
X183.607Y172.204
X183.607Y169.664
X183.607Y167.124
X183.607Y164.584
X183.607Y162.044
X183.607Y159.504
X183.607Y151.884
X183.607Y149.344
X183.607Y146.804
X183.607Y139.184
X183.607Y136.644
X183.607Y131.564
X183.607Y129.024
X183.607Y118.864
X183.607Y116.324
X183.607Y113.784
X183.607Y108.704
X183.607Y98.544
X183.607Y96.004
X183.607Y93.464
X183.607Y85.844
X183.607Y78.224
X183.607Y73.144
X183.607Y65.524
X183.607Y55.364
X183.607Y52.824
X183.607Y50.284
X183.607Y47.744
X183.607Y45.204
X183.607Y42.664
X186.147Y200.144
X186.147Y197.604
X186.147Y195.064
X186.147Y189.984
X186.147Y187.444
X186.147Y184.904
X186.147Y182.364
X186.147Y179.824
X186.147Y177.284
X186.147Y174.744
X186.147Y172.204
X186.147Y169.664
X186.147Y167.124
X186.147Y164.584
X186.147Y162.044
X186.147Y159.504
X186.147Y151.884
X186.147Y149.344
X186.147Y146.804
X186.147Y141.724
X186.147Y139.184
X186.147Y136.644
X186.147Y129.024
X186.147Y118.864
X186.147Y116.324
X186.147Y113.784
X186.147Y108.704
X186.147Y106.164
X186.147Y88.384
X186.147Y85.844
X186.147Y68.064
X186.147Y60.444
X186.147Y57.904
X186.147Y55.364
X186.147Y52.824
X186.147Y50.284
X186.147Y47.744
X187.0Y131.5
X187.0Y64.0
X188.025Y64.025
X188.688Y200.144
X188.688Y197.604
X188.688Y195.064
X188.688Y189.984
X188.688Y184.904
X188.688Y182.364
X188.688Y179.824
X188.688Y174.744
X188.688Y172.204
X188.688Y169.664
X188.688Y167.124
X188.688Y164.584
X188.688Y162.044
X188.688Y159.504
X188.688Y151.884
X188.688Y149.344
X188.688Y146.804
X188.688Y141.724
X188.688Y139.184
X188.688Y116.324
X188.688Y113.784
X188.688Y108.704
X188.688Y106.164
X188.688Y103.624
X188.688Y90.924
X188.688Y88.384
X188.688Y85.844
X188.688Y75.684
X188.688Y60.444
X188.688Y57.904
X188.688Y55.364
X188.688Y52.824
X188.688Y50.284
X188.688Y47.744
X188.75Y73.25
X189.0Y126.0
X189.5Y82.0
X189.5Y67.0
X190.0Y126.0
X190.625Y66.875
X191.0Y126.0
X191.227Y200.144
X191.227Y197.604
X191.227Y195.064
X191.227Y189.984
X191.227Y184.904
X191.227Y182.364
X191.227Y179.824
X191.227Y174.744
X191.227Y172.204
X191.227Y169.664
X191.227Y167.124
X191.227Y164.584
X191.227Y162.044
X191.227Y159.504
X191.227Y151.884
X191.227Y149.344
X191.227Y146.804
X191.227Y141.724
X191.227Y139.184
X191.227Y116.324
X191.227Y113.784
X191.227Y108.704
X191.227Y106.164
X191.227Y103.624
X191.227Y101.084
X191.227Y98.544
X191.227Y96.004
X191.227Y93.464
X191.227Y90.924
X191.227Y88.384
X191.227Y85.844
X191.227Y78.224
X191.227Y75.684
X191.227Y73.144
X191.227Y60.444
X191.227Y57.904
X191.227Y55.364
X191.227Y52.824
X191.227Y50.284
X191.227Y47.744
X191.227Y45.204
X191.227Y42.664
X191.5Y67.0
X193.767Y200.144
X193.767Y197.604
X193.767Y195.064
X193.767Y189.984
X193.767Y187.444
X193.767Y184.904
X193.767Y182.364
X193.767Y179.824
X193.767Y177.284
X193.767Y174.744
X193.767Y172.204
X193.767Y169.664
X193.767Y167.124
X193.767Y164.584
X193.767Y162.044
X193.767Y159.504
X193.767Y151.884
X193.767Y149.344
X193.767Y146.804
X193.767Y136.644
X193.767Y134.104
X193.767Y126.484
X193.767Y118.864
X193.767Y116.324
X193.767Y113.784
X193.767Y108.704
X193.767Y98.544
X193.767Y96.004
X193.767Y93.464
X193.767Y90.924
X193.767Y88.384
X193.767Y85.844
X193.767Y78.224
X193.767Y75.684
X193.767Y73.144
X193.767Y70.604
X193.767Y68.064
X193.767Y65.524
X193.767Y55.364
X193.767Y52.824
X193.767Y50.284
X193.767Y47.744
X193.767Y45.204
X193.767Y42.664
X195.725Y140.969
X196.308Y200.144
X196.308Y197.604
X196.308Y195.064
X196.308Y189.984
X196.308Y187.444
X196.308Y184.904
X196.308Y182.364
X196.308Y179.824
X196.308Y177.284
X196.308Y174.744
X196.308Y172.204
X196.308Y169.664
X196.308Y167.124
X196.308Y164.584
X196.308Y162.044
X196.308Y159.504
X196.308Y151.884
X196.308Y149.344
X196.308Y146.804
X196.308Y139.184
X196.308Y136.644
X196.308Y134.104
X196.308Y129.024
X196.308Y126.484
X196.308Y121.404
X196.308Y118.864
X196.308Y116.324
X196.308Y113.784
X196.308Y108.704
X196.308Y106.164
X196.308Y103.624
X196.308Y98.544
X196.308Y96.004
X196.308Y93.464
X196.308Y90.924
X196.308Y88.384
X196.308Y85.844
X196.308Y80.764
X196.308Y78.224
X196.308Y75.684
X196.308Y73.144
X196.308Y70.604
X196.308Y68.064
X196.308Y65.524
X196.308Y55.364
X196.308Y52.824
X196.308Y50.284
X196.308Y47.744
X196.308Y45.204
X196.308Y42.664
X198.325Y139.169
X198.847Y200.144
X198.847Y197.604
X198.847Y195.064
X198.847Y189.984
X198.847Y187.444
X198.847Y184.904
X198.847Y182.364
X198.847Y177.284
X198.847Y174.744
X198.847Y172.204
X198.847Y164.584
X198.847Y162.044
X198.847Y159.504
X198.847Y151.884
X198.847Y149.344
X198.847Y146.804
X198.847Y136.644
X198.847Y129.024
X198.847Y126.484
X198.847Y121.404
X198.847Y118.864
X198.847Y116.324
X198.847Y113.784
X198.847Y106.164
X198.847Y96.004
X198.847Y93.464
X198.847Y90.924
X198.847Y88.384
X198.847Y85.844
X198.847Y80.764
X198.847Y78.224
X198.847Y75.684
X198.847Y73.144
X198.847Y70.604
X198.847Y68.064
X198.847Y65.524
X198.847Y55.364
X198.847Y52.824
X198.847Y50.284
X198.847Y47.744
X198.847Y45.204
X198.847Y42.664
X199.5Y110.0
X199.5Y103.0
X200.925Y143.369
X201.364Y60.228
X201.387Y200.144
X201.387Y197.604
X201.387Y195.064
X201.387Y187.444
X201.387Y174.744
X201.387Y172.204
X201.387Y169.664
X201.387Y167.124
X201.387Y164.584
X201.387Y162.044
X201.387Y159.504
X201.387Y151.884
X201.387Y149.344
X201.387Y146.804
X201.387Y134.104
X201.387Y129.024
X201.387Y126.484
X201.387Y118.864
X201.387Y116.324
X201.387Y113.784
X201.387Y111.244
X201.387Y106.164
X201.387Y103.624
X201.387Y98.544
X201.387Y96.004
X201.387Y93.464
X201.387Y90.924
X201.387Y88.384
X201.387Y80.764
X201.387Y78.224
X201.387Y75.684
X201.387Y73.144
X201.387Y70.604
X201.387Y68.064
X201.387Y65.524
X201.387Y55.364
X201.387Y52.824
X201.387Y50.284
X201.387Y47.744
X201.387Y45.204
X201.387Y42.664
X203.927Y200.144
X203.927Y197.604
X203.927Y195.064
X203.927Y189.984
X203.927Y187.444
X203.927Y184.904
X203.927Y182.364
X203.927Y179.824
X203.927Y174.744
X203.927Y172.204
X203.927Y169.664
X203.927Y167.124
X203.927Y164.584
X203.927Y162.044
X203.927Y159.504
X203.927Y151.884
X203.927Y149.344
X203.927Y146.804
X203.927Y139.184
X203.927Y136.644
X203.927Y129.024
X203.927Y126.484
X203.927Y118.864
X203.927Y116.324
X203.927Y111.244
X203.927Y106.164
X203.927Y103.624
X203.927Y98.544
X203.927Y96.004
X203.927Y93.464
X203.927Y90.924
X203.927Y88.384
X203.927Y78.224
X203.927Y75.684
X203.927Y73.144
X203.927Y70.604
X203.927Y68.064
X203.927Y65.524
X203.927Y55.364
X203.927Y52.824
X203.927Y50.284
X203.927Y47.744
X203.927Y42.664
X205.0Y61.016
X206.468Y200.144
X206.468Y197.604
X206.468Y195.064
X206.468Y189.984
X206.468Y187.444
X206.468Y184.904
X206.468Y182.364
X206.468Y179.824
X206.468Y177.284
X206.468Y172.204
X206.468Y169.664
X206.468Y167.124
X206.468Y164.584
X206.468Y162.044
X206.468Y159.504
X206.468Y151.884
X206.468Y149.344
X206.468Y146.804
X206.468Y141.724
X206.468Y139.184
X206.468Y129.024
X206.468Y126.484
X206.468Y113.784
X206.468Y111.244
X206.468Y106.164
X206.468Y103.624
X206.468Y101.084
X206.468Y98.544
X206.468Y96.004
X206.468Y93.464
X206.468Y90.924
X206.468Y88.384
X206.468Y85.844
X206.468Y75.684
X206.468Y73.144
X206.468Y70.604
X206.468Y68.064
X206.468Y65.524
X206.468Y57.904
X206.468Y55.364
X206.468Y52.824
X206.468Y50.284
X206.468Y47.744
X206.468Y42.664
X209.007Y200.144
X209.007Y197.604
X209.007Y195.064
X209.007Y189.984
X209.007Y184.904
X209.007Y182.364
X209.007Y179.824
X209.007Y174.744
X209.007Y169.664
X209.007Y167.124
X209.007Y164.584
X209.007Y162.044
X209.007Y131.564
X209.007Y129.024
X209.007Y126.484
X209.007Y116.324
X209.007Y113.784
X209.007Y111.244
X209.007Y106.164
X209.007Y103.624
X209.007Y101.084
X209.007Y98.544
X209.007Y96.004
X209.007Y93.464
X209.007Y90.924
X209.007Y88.384
X209.007Y85.844
X209.007Y75.684
X209.007Y73.144
X209.007Y70.604
X209.007Y68.064
X209.007Y65.524
X209.007Y57.904
X209.007Y55.364
X209.007Y52.824
X209.007Y50.284
X209.007Y47.744
X209.007Y45.204
X209.007Y42.664
X210.0Y81.5
X211.547Y200.144
X211.547Y197.604
X211.547Y195.064
X211.547Y189.984
X211.547Y184.904
X211.547Y182.364
X211.547Y179.824
X211.547Y174.744
X211.547Y172.204
X211.547Y167.124
X211.547Y164.584
X211.547Y134.104
X211.547Y131.564
X211.547Y129.024
X211.547Y126.484
X211.547Y118.864
X211.547Y116.324
X211.547Y113.784
X211.547Y111.244
X211.547Y106.164
X211.547Y103.624
X211.547Y98.544
X211.547Y96.004
X211.547Y93.464
X211.547Y90.924
X211.547Y88.384
X211.547Y85.844
X211.547Y78.224
X211.547Y75.684
X211.547Y73.144
X211.547Y70.604
X211.547Y68.064
X211.547Y65.524
X211.547Y62.984
X211.547Y55.364
X211.547Y52.824
X211.547Y50.284
X211.547Y47.744
X211.547Y45.204
X211.547Y42.664
X212.434Y157.566
X213.0Y157.0
X213.585Y156.425
X214.087Y200.144
X214.087Y197.604
X214.087Y195.064
X214.087Y189.984
X214.087Y187.444
X214.087Y184.904
X214.087Y182.364
X214.087Y179.824
X214.087Y177.284
X214.087Y174.744
X214.087Y172.204
X214.087Y146.804
X214.087Y136.644
X214.087Y134.104
X214.087Y131.564
X214.087Y129.024
X214.087Y126.484
X214.087Y118.864
X214.087Y116.324
X214.087Y113.784
X214.087Y111.244
X214.087Y106.164
X214.087Y98.544
X214.087Y96.004
X214.087Y93.464
X214.087Y90.924
X214.087Y88.384
X214.087Y85.844
X214.087Y78.224
X214.087Y75.684
X214.087Y73.144
X214.087Y70.604
X214.087Y68.064
X214.087Y65.524
X214.087Y62.984
X214.087Y60.444
X214.087Y55.364
X214.087Y52.824
X214.087Y50.284
X214.087Y47.744
X214.087Y45.204
X214.087Y42.664
X214.5Y169.25
X214.775Y140.969
X216.627Y200.144
X216.627Y197.604
X216.627Y195.064
X216.627Y189.984
X216.627Y187.444
X216.627Y184.904
X216.627Y182.364
X216.627Y179.824
X216.627Y174.744
X216.627Y169.664
X216.627Y149.344
X216.627Y146.804
X216.627Y136.644
X216.627Y134.104
X216.627Y131.564
X216.627Y129.024
X216.627Y126.484
X216.627Y121.404
X216.627Y118.864
X216.627Y116.324
X216.627Y113.784
X216.627Y111.244
X216.627Y106.164
X216.627Y103.624
X216.627Y96.004
X216.627Y93.464
X216.627Y90.924
X216.627Y88.384
X216.627Y85.844
X216.627Y80.764
X216.627Y78.224
X216.627Y75.684
X216.627Y73.144
X216.627Y70.604
X216.627Y68.064
X216.627Y65.524
X216.627Y62.984
X216.627Y60.444
X216.627Y55.364
X216.627Y52.824
X216.627Y50.284
X216.627Y47.744
X216.627Y45.204
X216.627Y42.664
X216.835Y157.665
X217.235Y156.9
X217.375Y139.169
X217.5Y165.0
X217.5Y109.5
X217.75Y156.25
X218.0Y103.0
X218.85Y161.256
X219.167Y200.144
X219.167Y197.604
X219.167Y195.064
X219.167Y189.984
X219.167Y187.444
X219.167Y184.904
X219.167Y182.364
X219.167Y177.284
X219.167Y174.744
X219.167Y167.124
X219.167Y154.424
X219.167Y151.884
X219.167Y149.344
X219.167Y146.804
X219.167Y136.644
X219.167Y134.104
X219.167Y131.564
X219.167Y129.024
X219.167Y126.484
X219.167Y121.404
X219.167Y118.864
X219.167Y116.324
X219.167Y113.784
X219.167Y111.244
X219.167Y106.164
X219.167Y103.624
X219.167Y96.004
X219.167Y93.464
X219.167Y90.924
X219.167Y88.384
X219.167Y85.844
X219.167Y80.764
X219.167Y78.224
X219.167Y75.684
X219.167Y73.144
X219.167Y70.604
X219.167Y68.064
X219.167Y65.524
X219.167Y62.984
X219.167Y60.444
X219.167Y55.364
X219.167Y52.824
X219.167Y50.284
X219.167Y47.744
X219.167Y45.204
X219.167Y42.664
X219.975Y143.369
X221.707Y200.144
X221.707Y197.604
X221.707Y195.064
X221.707Y177.284
X221.707Y174.744
X221.707Y169.664
X221.707Y167.124
X221.707Y156.964
X221.707Y154.424
X221.707Y151.884
X221.707Y149.344
X221.707Y146.804
X221.707Y139.184
X221.707Y136.644
X221.707Y134.104
X221.707Y131.564
X221.707Y129.024
X221.707Y126.484
X221.707Y118.864
X221.707Y116.324
X221.707Y113.784
X221.707Y111.244
X221.707Y106.164
X221.707Y103.624
X221.707Y98.544
X221.707Y96.004
X221.707Y93.464
X221.707Y90.924
X221.707Y88.384
X221.707Y85.844
X221.707Y78.224
X221.707Y75.684
X221.707Y73.144
X221.707Y70.604
X221.707Y68.064
X221.707Y65.524
X221.707Y62.984
X221.707Y60.444
X221.707Y55.364
X221.707Y52.824
X221.707Y50.284
X221.707Y47.744
X221.707Y45.204
X221.707Y42.664
X224.248Y200.144
X224.248Y197.604
X224.248Y195.064
X224.248Y189.984
X224.248Y187.444
X224.248Y184.904
X224.248Y182.364
X224.248Y179.824
X224.248Y177.284
X224.248Y174.744
X224.248Y169.664
X224.248Y167.124
X224.248Y156.964
X224.248Y154.424
X224.248Y151.884
X224.248Y149.344
X224.248Y146.804
X224.248Y141.724
X224.248Y139.184
X224.248Y136.644
X224.248Y134.104
X224.248Y131.564
X224.248Y129.024
X224.248Y126.484
X224.248Y116.324
X224.248Y113.784
X224.248Y111.244
X224.248Y106.164
X224.248Y103.624
X224.248Y101.084
X224.248Y98.544
X224.248Y96.004
X224.248Y93.464
X224.248Y90.924
X224.248Y88.384
X224.248Y85.844
X224.248Y75.684
X224.248Y73.144
X224.248Y70.604
X224.248Y68.064
X224.248Y65.524
X224.248Y62.984
X224.248Y60.444
X224.248Y55.364
X224.248Y52.824
X224.248Y50.284
X224.248Y47.744
X224.248Y45.204
X224.248Y42.664
X226.787Y200.144
X226.787Y197.604
X226.787Y195.064
X226.787Y189.984
X226.787Y184.904
X226.787Y182.364
X226.787Y179.824
X226.787Y174.744
X226.787Y169.664
X226.787Y167.124
X226.787Y156.964
X226.787Y154.424
X226.787Y151.884
X226.787Y149.344
X226.787Y146.804
X226.787Y141.724
X226.787Y139.184
X226.787Y136.644
X226.787Y134.104
X226.787Y131.564
X226.787Y126.484
X226.787Y116.324
X226.787Y113.784
X226.787Y111.244
X226.787Y106.164
X226.787Y103.624
X226.787Y101.084
X226.787Y98.544
X226.787Y96.004
X226.787Y93.464
X226.787Y90.924
X226.787Y88.384
X226.787Y85.844
X226.787Y75.684
X226.787Y73.144
X226.787Y70.604
X226.787Y68.064
X226.787Y65.524
X226.787Y62.984
X226.787Y60.444
X226.787Y55.364
X226.787Y52.824
X226.787Y50.284
X226.787Y47.744
X226.787Y45.204
X226.787Y42.664
X227.5Y82.0
X227.839Y123.339
X228.0Y125.5
X229.327Y200.144
X229.327Y197.604
X229.327Y195.064
X229.327Y189.984
X229.327Y184.904
X229.327Y182.364
X229.327Y179.824
X229.327Y174.744
X229.327Y169.664
X229.327Y167.124
X229.327Y156.964
X229.327Y154.424
X229.327Y151.884
X229.327Y149.344
X229.327Y146.804
X229.327Y141.724
X229.327Y139.184
X229.327Y136.644
X229.327Y134.104
X229.327Y131.564
X229.327Y129.024
X229.327Y126.484
X229.327Y118.864
X229.327Y116.324
X229.327Y113.784
X229.327Y111.244
X229.327Y106.164
X229.327Y103.624
X229.327Y101.084
X229.327Y98.544
X229.327Y96.004
X229.327Y93.464
X229.327Y90.924
X229.327Y88.384
X229.327Y85.844
X229.327Y78.224
X229.327Y75.684
X229.327Y73.144
X229.327Y70.604
X229.327Y68.064
X229.327Y65.524
X229.327Y62.984
X229.327Y60.444
X229.327Y55.364
X229.327Y52.824
X229.327Y50.284
X229.327Y47.744
X229.327Y45.204
X229.327Y42.664
X231.867Y200.144
X231.867Y197.604
X231.867Y195.064
X231.867Y189.984
X231.867Y187.444
X231.867Y184.904
X231.867Y182.364
X231.867Y179.824
X231.867Y177.284
X231.867Y174.744
X231.867Y169.664
X231.867Y167.124
X231.867Y156.964
X231.867Y154.424
X231.867Y151.884
X231.867Y149.344
X231.867Y146.804
X231.867Y141.724
X231.867Y139.184
X231.867Y136.644
X231.867Y134.104
X231.867Y131.564
X231.867Y129.024
X231.867Y126.484
X231.867Y118.864
X231.867Y116.324
X231.867Y113.784
X231.867Y111.244
X231.867Y106.164
X231.867Y103.624
X231.867Y101.084
X231.867Y98.544
X231.867Y96.004
X231.867Y93.464
X231.867Y90.924
X231.867Y88.384
X231.867Y85.844
X231.867Y78.224
X231.867Y75.684
X231.867Y73.144
X231.867Y70.604
X231.867Y68.064
X231.867Y62.984
X231.867Y55.364
X231.867Y52.824
X231.867Y50.284
X231.867Y47.744
X231.867Y45.204
X231.867Y42.664
X234.407Y200.144
X234.407Y197.604
X234.407Y195.064
X234.407Y189.984
X234.407Y187.444
X234.407Y184.904
X234.407Y182.364
X234.407Y179.824
X234.407Y177.284
X234.407Y156.964
X234.407Y154.424
X234.407Y151.884
X234.407Y149.344
X234.407Y146.804
X234.407Y141.724
X234.407Y139.184
X234.407Y136.644
X234.407Y134.104
X234.407Y131.564
X234.407Y129.024
X234.407Y126.484
X234.407Y121.404
X234.407Y118.864
X234.407Y116.324
X234.407Y113.784
X234.407Y111.244
X234.407Y106.164
X234.407Y103.624
X234.407Y101.084
X234.407Y98.544
X234.407Y96.004
X234.407Y93.464
X234.407Y90.924
X234.407Y88.384
X234.407Y85.844
X234.407Y80.764
X234.407Y78.224
X234.407Y75.684
X234.407Y73.144
X234.407Y70.604
X234.407Y68.064
X234.407Y65.524
X234.407Y57.904
X234.407Y55.364
X234.407Y52.824
X234.407Y50.284
X234.407Y47.744
X234.407Y45.204
X234.407Y42.664
X236.5Y60.75
X236.947Y200.144
X236.947Y197.604
X236.947Y195.064
X236.947Y184.904
X236.947Y182.364
X236.947Y179.824
X236.947Y174.744
X236.947Y167.124
X236.947Y156.964
X236.947Y154.424
X236.947Y151.884
X236.947Y139.184
X236.947Y136.644
X236.947Y134.104
X236.947Y131.564
X236.947Y129.024
X236.947Y126.484
X236.947Y121.404
X236.947Y118.864
X236.947Y116.324
X236.947Y113.784
X236.947Y111.244
X236.947Y106.164
X236.947Y98.544
X236.947Y96.004
X236.947Y93.464
X236.947Y90.924
X236.947Y88.384
X236.947Y85.844
X236.947Y80.764
X236.947Y78.224
X236.947Y75.684
X236.947Y73.144
X236.947Y70.604
X236.947Y68.064
X236.947Y65.524
X236.947Y55.364
X236.947Y52.824
X236.947Y50.284
X236.947Y47.744
X236.947Y45.204
X236.947Y42.664
X238.599Y140.974
X239.487Y200.144
X239.487Y197.604
X239.487Y195.064
X239.487Y189.984
X239.487Y187.444
X239.487Y177.284
X239.487Y174.744
X239.487Y169.664
X239.487Y167.124
X239.487Y156.964
X239.487Y154.424
X239.487Y151.884
X239.487Y149.344
X239.487Y146.804
X239.487Y136.644
X239.487Y134.104
X239.487Y131.564
X239.487Y129.024
X239.487Y126.484
X239.487Y118.864
X239.487Y116.324
X239.487Y113.784
X239.487Y111.244
X239.487Y106.164
X239.487Y103.624
X239.487Y96.004
X239.487Y93.464
X239.487Y90.924
X239.487Y88.384
X239.487Y85.844
X239.487Y80.764
X239.487Y78.224
X239.487Y75.684
X239.487Y73.144
X239.487Y70.604
X239.487Y68.064
X239.487Y65.524
X239.487Y55.364
X239.487Y52.824
X239.487Y50.284
X239.487Y47.744
X239.487Y45.204
X239.487Y42.664
X241.199Y139.174
X242.027Y200.144
X242.027Y197.604
X242.027Y195.064
X242.027Y189.984
X242.027Y187.444
X242.027Y184.904
X242.027Y182.364
X242.027Y179.824
X242.027Y177.284
X242.027Y174.744
X242.027Y169.664
X242.027Y167.124
X242.027Y156.964
X242.027Y154.424
X242.027Y151.884
X242.027Y149.344
X242.027Y146.804
X242.027Y136.644
X242.027Y134.104
X242.027Y131.564
X242.027Y129.024
X242.027Y126.484
X242.027Y118.864
X242.027Y116.324
X242.027Y113.784
X242.027Y111.244
X242.027Y108.704
X242.027Y96.004
X242.027Y93.464
X242.027Y90.924
X242.027Y88.384
X242.027Y85.844
X242.027Y73.144
X242.027Y70.604
X242.027Y68.064
X242.027Y65.524
X242.027Y55.364
X242.027Y52.824
X242.027Y50.284
X242.027Y47.744
X242.027Y45.204
X242.027Y42.664
X243.799Y143.374
X244.567Y200.144
X244.567Y197.604
X244.567Y195.064
X244.567Y189.984
X244.567Y187.444
X244.567Y184.904
X244.567Y182.364
X244.567Y179.824
X244.567Y177.284
X244.567Y174.744
X244.567Y172.204
X244.567Y167.124
X244.567Y156.964
X244.567Y154.424
X244.567Y151.884
X244.567Y149.344
X244.567Y146.804
X244.567Y136.644
X244.567Y134.104
X244.567Y131.564
X244.567Y126.484
X244.567Y116.324
X244.567Y113.784
X244.567Y111.244
X244.567Y108.704
X244.567Y106.164
X244.567Y103.624
X244.567Y101.084
X244.567Y98.544
X244.567Y96.004
X244.567Y93.464
X244.567Y90.924
X244.567Y88.384
X244.567Y85.844
X244.567Y83.304
X244.567Y73.144
X244.567Y70.604
X244.567Y68.064
X244.567Y65.524
X244.567Y57.904
X244.567Y55.364
X244.567Y52.824
X244.567Y50.284
X244.567Y47.744
X244.567Y45.204
X244.567Y42.664
X247.0Y126.0
X247.0Y123.0
X247.107Y200.144
X247.107Y197.604
X247.107Y195.064
X247.107Y189.984
X247.107Y184.904
X247.107Y182.364
X247.107Y179.824
X247.107Y174.744
X247.107Y172.204
X247.107Y167.124
X247.107Y156.964
X247.107Y154.424
X247.107Y151.884
X247.107Y149.344
X247.107Y146.804
X247.107Y139.184
X247.107Y136.644
X247.107Y134.104
X247.107Y131.564
X247.107Y129.024
X247.107Y116.324
X247.107Y113.784
X247.107Y111.244
X247.107Y108.704
X247.107Y106.164
X247.107Y103.624
X247.107Y98.544
X247.107Y96.004
X247.107Y93.464
X247.107Y90.924
X247.107Y88.384
X247.107Y85.844
X247.107Y83.304
X247.107Y75.684
X247.107Y73.144
X247.107Y70.604
X247.107Y68.064
X247.107Y65.524
X247.107Y55.364
X247.107Y52.824
X247.107Y50.284
X247.107Y47.744
X249.647Y200.144
X249.647Y197.604
X249.647Y195.064
X249.647Y189.984
X249.647Y184.904
X249.647Y182.364
X249.647Y179.824
X249.647Y174.744
X249.647Y169.664
X249.647Y167.124
X249.647Y156.964
X249.647Y154.424
X249.647Y151.884
X249.647Y149.344
X249.647Y146.804
X249.647Y141.724
X249.647Y139.184
X249.647Y136.644
X249.647Y134.104
X249.647Y131.564
X249.647Y129.024
X249.647Y126.484
X249.647Y118.864
X249.647Y116.324
X249.647Y113.784
X249.647Y111.244
X249.647Y108.704
X249.647Y106.164
X249.647Y103.624
X249.647Y101.084
X249.647Y98.544
X249.647Y96.004
X249.647Y93.464
X249.647Y90.924
X249.647Y88.384
X249.647Y85.844
X249.647Y83.304
X249.647Y78.224
X249.647Y75.684
X249.647Y73.144
X249.647Y70.604
X249.647Y68.064
X249.647Y65.524
X249.647Y57.904
X249.647Y55.364
X249.647Y52.824
X249.647Y50.284
X249.647Y47.744
X252.188Y200.144
X252.188Y197.604
X252.188Y195.064
X252.188Y189.984
X252.188Y187.444
X252.188Y184.904
X252.188Y182.364
X252.188Y179.824
X252.188Y177.284
X252.188Y172.204
X252.188Y169.664
X252.188Y167.124
X252.188Y156.964
X252.188Y154.424
X252.188Y151.884
X252.188Y149.344
X252.188Y146.804
X252.188Y141.724
X252.188Y139.184
X252.188Y136.644
X252.188Y134.104
X252.188Y131.564
X252.188Y129.024
X252.188Y126.484
X252.188Y118.864
X252.188Y116.324
X252.188Y113.784
X252.188Y111.244
X252.188Y108.704
X252.188Y106.164
X252.188Y103.624
X252.188Y101.084
X252.188Y98.544
X252.188Y96.004
X252.188Y93.464
X252.188Y90.924
X252.188Y88.384
X252.188Y85.844
X252.188Y83.304
X252.188Y78.224
X252.188Y75.684
X252.188Y73.144
X252.188Y70.604
X252.188Y68.064
X252.188Y65.524
X252.188Y62.984
X252.188Y57.904
X252.188Y55.364
X252.188Y52.824
X252.188Y50.284
X252.188Y47.744
X252.188Y45.204
X252.188Y42.664
X254.727Y200.144
X254.727Y197.604
X254.727Y195.064
X254.727Y189.984
X254.727Y187.444
X254.727Y184.904
X254.727Y182.364
X254.727Y179.824
X254.727Y174.744
X254.727Y172.204
X254.727Y169.664
X254.727Y167.124
X254.727Y156.964
X254.727Y154.424
X254.727Y151.884
X254.727Y149.344
X254.727Y146.804
X254.727Y141.724
X254.727Y139.184
X254.727Y136.644
X254.727Y134.104
X254.727Y131.564
X254.727Y129.024
X254.727Y126.484
X254.727Y121.404
X254.727Y118.864
X254.727Y116.324
X254.727Y113.784
X254.727Y111.244
X254.727Y108.704
X254.727Y106.164
X254.727Y103.624
X254.727Y101.084
X254.727Y98.544
X254.727Y96.004
X254.727Y93.464
X254.727Y90.924
X254.727Y88.384
X254.727Y85.844
X254.727Y83.304
X254.727Y80.764
X254.727Y78.224
X254.727Y75.684
X254.727Y73.144
X254.727Y70.604
X254.727Y68.064
X254.727Y65.524
X254.727Y62.984
X254.727Y57.904
X254.727Y55.364
X254.727Y52.824
X254.727Y50.284
X254.727Y47.744
X254.727Y45.204
X254.727Y42.664
X257.267Y200.144
X257.267Y197.604
X257.267Y195.064
X257.267Y189.984
X257.267Y187.444
X257.267Y184.904
X257.267Y182.364
X257.267Y177.284
X257.267Y174.744
X257.267Y172.204
X257.267Y169.664
X257.267Y167.124
X257.267Y156.964
X257.267Y154.424
X257.267Y151.884
X257.267Y149.344
X257.267Y146.804
X257.267Y141.724
X257.267Y139.184
X257.267Y136.644
X257.267Y134.104
X257.267Y131.564
X257.267Y129.024
X257.267Y126.484
X257.267Y121.404
X257.267Y118.864
X257.267Y116.324
X257.267Y113.784
X257.267Y111.244
X257.267Y108.704
X257.267Y106.164
X257.267Y103.624
X257.267Y101.084
X257.267Y98.544
X257.267Y96.004
X257.267Y93.464
X257.267Y90.924
X257.267Y88.384
X257.267Y85.844
X257.267Y83.304
X257.267Y80.764
X257.267Y78.224
X257.267Y75.684
X257.267Y73.144
X257.267Y70.604
X257.267Y68.064
X257.267Y65.524
X257.267Y62.984
X257.267Y57.904
X257.267Y55.364
X257.267Y52.824
X257.267Y50.284
X257.267Y47.744
X257.267Y45.204
X257.267Y42.664
X259.808Y200.144
X259.808Y197.604
X259.808Y195.064
X259.808Y189.984
X259.808Y187.444
X259.808Y184.904
X259.808Y179.824
X259.808Y177.284
X259.808Y174.744
X259.808Y172.204
X259.808Y169.664
X259.808Y167.124
X259.808Y156.964
X259.808Y154.424
X259.808Y151.884
X259.808Y149.344
X259.808Y146.804
X259.808Y141.724
X259.808Y139.184
X259.808Y136.644
X259.808Y134.104
X259.808Y131.564
X259.808Y129.024
X259.808Y126.484
X259.808Y121.404
X259.808Y118.864
X259.808Y116.324
X259.808Y113.784
X259.808Y111.244
X259.808Y108.704
X259.808Y106.164
X259.808Y103.624
X259.808Y101.084
X259.808Y98.544
X259.808Y96.004
X259.808Y93.464
X259.808Y90.924
X259.808Y88.384
X259.808Y85.844
X259.808Y83.304
X259.808Y80.764
X259.808Y78.224
X259.808Y75.684
X259.808Y73.144
X259.808Y70.604
X259.808Y68.064
X259.808Y65.524
X259.808Y62.984
X259.808Y57.904
X259.808Y55.364
X259.808Y52.824
X259.808Y50.284
X259.808Y47.744
X259.808Y45.204
X259.808Y42.664
X262.347Y197.604
X262.347Y189.984
X262.347Y187.444
X262.347Y182.364
X262.347Y179.824
X262.347Y177.284
X262.347Y174.744
X262.347Y172.204
X262.347Y169.664
X262.347Y167.124
X262.347Y156.964
X262.347Y154.424
X262.347Y151.884
X262.347Y149.344
X262.347Y146.804
X262.347Y141.724
X262.347Y139.184
X262.347Y136.644
X262.347Y134.104
X262.347Y131.564
X262.347Y129.024
X262.347Y126.484
X262.347Y121.404
X262.347Y118.864
X262.347Y116.324
X262.347Y113.784
X262.347Y111.244
X262.347Y108.704
X262.347Y103.624
X262.347Y101.084
X262.347Y98.544
X262.347Y96.004
X262.347Y93.464
X262.347Y90.924
X262.347Y88.384
X262.347Y83.304
X262.347Y80.764
X262.347Y78.224
X262.347Y75.684
X262.347Y73.144
X262.347Y70.604
X262.347Y68.064
X262.347Y62.984
X262.347Y57.904
X262.347Y55.364
X262.347Y52.824
X262.347Y50.284
X262.347Y47.744
X262.347Y42.664
X264.887Y200.144
X264.887Y184.904
X264.887Y182.364
X264.887Y179.824
X264.887Y177.284
X264.887Y174.744
X264.887Y172.204
X264.887Y169.664
X264.887Y167.124
X264.887Y156.964
X264.887Y154.424
X264.887Y151.884
X264.887Y149.344
X264.887Y146.804
X264.887Y141.724
X264.887Y139.184
X264.887Y136.644
X264.887Y134.104
X264.887Y131.564
X264.887Y121.404
X264.887Y118.864
X264.887Y116.324
X264.887Y113.784
X264.887Y111.244
X264.887Y108.704
X264.887Y103.624
X264.887Y101.084
X264.887Y98.544
X264.887Y96.004
X264.887Y93.464
X264.887Y90.924
X264.887Y88.384
X264.887Y83.304
X264.887Y80.764
X264.887Y78.224
X264.887Y75.684
X264.887Y73.144
X264.887Y70.604
X264.887Y68.064
X264.887Y62.984
X264.887Y57.904
X264.887Y55.364
X264.887Y52.824
X264.887Y50.284
X264.887Y47.744
X264.887Y42.664
X267.428Y174.744
X267.428Y172.204
X267.428Y169.664
X267.428Y167.124
X267.428Y156.964
X267.428Y154.424
X267.428Y151.884
X267.428Y149.344
X267.428Y146.804
X267.428Y139.184
X267.428Y136.644
X267.428Y134.104
X267.428Y131.564
X267.428Y129.024
X267.428Y126.484
X267.428Y118.864
X267.428Y116.324
X267.428Y113.784
X267.428Y111.244
X267.428Y108.704
X267.428Y106.164
X267.428Y103.624
X267.428Y101.084
X267.428Y98.544
X267.428Y96.004
X267.428Y93.464
X267.428Y90.924
X267.428Y88.384
X267.428Y85.844
X267.428Y83.304
X267.428Y80.764
X267.428Y78.224
X267.428Y75.684
X267.428Y73.144
X267.428Y70.604
X267.428Y68.064
X267.428Y65.524
X267.428Y57.904
X267.428Y55.364
X267.428Y52.824
X267.428Y50.284
X267.428Y47.744
X267.428Y45.204
X267.428Y42.664
X269.967Y189.984
X269.967Y187.444
X269.967Y182.364
X269.967Y177.284
X269.967Y174.744
X269.967Y172.204
X269.967Y169.664
X269.967Y167.124
X269.967Y156.964
X269.967Y154.424
X269.967Y151.884
X269.967Y149.344
X269.967Y146.804
X269.967Y139.184
X269.967Y136.644
X269.967Y134.104
X269.967Y131.564
X269.967Y129.024
X269.967Y126.484
X269.967Y118.864
X269.967Y116.324
X269.967Y113.784
X269.967Y111.244
X269.967Y108.704
X269.967Y106.164
X269.967Y103.624
X269.967Y101.084
X269.967Y98.544
X269.967Y96.004
X269.967Y93.464
X269.967Y90.924
X269.967Y88.384
X269.967Y85.844
X269.967Y83.304
X269.967Y80.764
X269.967Y78.224
X269.967Y75.684
X269.967Y73.144
X269.967Y70.604
X269.967Y68.064
X269.967Y65.524
X269.967Y60.444
X269.967Y57.904
X269.967Y55.364
X269.967Y52.824
X269.967Y50.284
X269.967Y47.744
X269.967Y45.204
X269.967Y42.664
X270.5Y62.03
X272.507Y197.604
X272.507Y192.524
X272.507Y189.984
X272.507Y187.444
X272.507Y184.904
X272.507Y177.284
X272.507Y174.744
X272.507Y172.204
X272.507Y169.664
X272.507Y167.124
X272.507Y156.964
X272.507Y154.424
X272.507Y151.884
X272.507Y149.344
X272.507Y146.804
X272.507Y136.644
X272.507Y134.104
X272.507Y131.564
X272.507Y129.024
X272.507Y126.484
X272.507Y118.864
X272.507Y116.324
X272.507Y113.784
X272.507Y111.244
X272.507Y108.704
X272.507Y106.164
X272.507Y103.624
X272.507Y101.084
X272.507Y98.544
X272.507Y96.004
X272.507Y93.464
X272.507Y90.924
X272.507Y88.384
X272.507Y85.844
X272.507Y83.304
X272.507Y80.764
X272.507Y78.224
X272.507Y75.684
X272.507Y73.144
X272.507Y70.604
X272.507Y68.064
X272.507Y65.524
X272.507Y52.824
X272.507Y50.284
X272.507Y47.744
X272.507Y45.204
X272.507Y42.664
X275.048Y195.064
X275.048Y192.524
X275.048Y189.984
X275.048Y187.444
X275.048Y184.904
X275.048Y177.284
X275.048Y174.744
X275.048Y172.204
X275.048Y169.664
X275.048Y167.124
X275.048Y156.964
X275.048Y154.424
X275.048Y151.884
X275.048Y149.344
X275.048Y146.804
X275.048Y139.184
X275.048Y136.644
X275.048Y134.104
X275.048Y131.564
X275.048Y129.024
X275.048Y126.484
X275.048Y116.324
X275.048Y113.784
X275.048Y111.244
X275.048Y108.704
X275.048Y106.164
X275.048Y103.624
X275.048Y101.084
X275.048Y98.544
X275.048Y96.004
X275.048Y93.464
X275.048Y90.924
X275.048Y88.384
X275.048Y85.844
X275.048Y83.304
X275.048Y80.764
X275.048Y78.224
X275.048Y75.684
X275.048Y73.144
X275.048Y70.604
X275.048Y68.064
X275.048Y55.364
X275.048Y52.824
X275.048Y50.284
X275.048Y47.744
X275.048Y45.204
X275.048Y42.664
X277.587Y197.604
X277.587Y195.064
X277.587Y192.524
X277.587Y189.984
X277.587Y187.444
X277.587Y182.364
X277.587Y177.284
X277.587Y174.744
X277.587Y172.204
X277.587Y169.664
X277.587Y167.124
X277.587Y156.964
X277.587Y154.424
X277.587Y151.884
X277.587Y149.344
X277.587Y146.804
X277.587Y139.184
X277.587Y134.104
X277.587Y131.564
X277.587Y129.024
X277.587Y126.484
X277.587Y116.324
X277.587Y113.784
X277.587Y111.244
X277.587Y108.704
X277.587Y106.164
X277.587Y103.624
X277.587Y101.084
X277.587Y98.544
X277.587Y96.004
X277.587Y93.464
X277.587Y90.924
X277.587Y88.384
X277.587Y85.844
X277.587Y83.304
X277.587Y80.764
X277.587Y78.224
X277.587Y75.684
X277.587Y73.144
X277.587Y70.604
X277.587Y62.984
X277.587Y60.444
X277.587Y57.904
X277.587Y55.364
X277.587Y52.824
X277.587Y50.284
X277.587Y47.744
X277.587Y45.204
X277.587Y42.664
X280.127Y197.604
X280.127Y195.064
X280.127Y192.524
X280.127Y189.984
X280.127Y184.904
X280.127Y182.364
X280.127Y177.284
X280.127Y174.744
X280.127Y172.204
X280.127Y169.664
X280.127Y167.124
X280.127Y156.964
X280.127Y154.424
X280.127Y151.884
X280.127Y149.344
X280.127Y146.804
X280.127Y139.184
X280.127Y136.644
X280.127Y134.104
X280.127Y131.564
X280.127Y129.024
X280.127Y126.484
X280.127Y118.864
X280.127Y116.324
X280.127Y113.784
X280.127Y111.244
X280.127Y108.704
X280.127Y106.164
X280.127Y103.624
X280.127Y101.084
X280.127Y98.544
X280.127Y96.004
X280.127Y93.464
X280.127Y90.924
X280.127Y88.384
X280.127Y85.844
X280.127Y83.304
X280.127Y80.764
X280.127Y78.224
X280.127Y75.684
X280.127Y73.144
X280.127Y65.524
X280.127Y62.984
X280.127Y60.444
X280.127Y57.904
X280.127Y55.364
X280.127Y52.824
X280.127Y50.284
X280.127Y47.744
X280.127Y45.204
X280.127Y42.664
X282.667Y197.604
X282.667Y195.064
X282.667Y192.524
X282.667Y187.444
X282.667Y184.904
X282.667Y182.364
X282.667Y177.284
X282.667Y174.744
X282.667Y172.204
X282.667Y169.664
X282.667Y167.124
X282.667Y156.964
X282.667Y154.424
X282.667Y151.884
X282.667Y149.344
X282.667Y146.804
X282.667Y141.724
X282.667Y139.184
X282.667Y136.644
X282.667Y134.104
X282.667Y131.564
X282.667Y129.024
X282.667Y126.484
X282.667Y121.404
X282.667Y118.864
X282.667Y116.324
X282.667Y113.784
X282.667Y111.244
X282.667Y108.704
X282.667Y106.164
X282.667Y103.624
X282.667Y101.084
X282.667Y98.544
X282.667Y96.004
X282.667Y93.464
X282.667Y90.924
X282.667Y88.384
X282.667Y85.844
X282.667Y83.304
X282.667Y80.764
X282.667Y78.224
X282.667Y75.684
X282.667Y68.064
X282.667Y65.524
X282.667Y62.984
X282.667Y60.444
X282.667Y57.904
X282.667Y55.364
X282.667Y52.824
X282.667Y50.284
X282.667Y47.744
X282.667Y45.204
X282.667Y42.664
X285.207Y197.604
X285.207Y195.064
X285.207Y189.984
X285.207Y187.444
X285.207Y184.904
X285.207Y182.364
X285.207Y177.284
X285.207Y174.744
X285.207Y172.204
X285.207Y169.664
X285.207Y167.124
X285.207Y156.964
X285.207Y154.424
X285.207Y151.884
X285.207Y149.344
X285.207Y146.804
X285.207Y141.724
X285.207Y139.184
X285.207Y136.644
X285.207Y134.104
X285.207Y131.564
X285.207Y129.024
X285.207Y126.484
X285.207Y121.404
X285.207Y118.864
X285.207Y116.324
X285.207Y113.784
X285.207Y111.244
X285.207Y108.704
X285.207Y106.164
X285.207Y103.624
X285.207Y101.084
X285.207Y98.544
X285.207Y70.604
X285.207Y68.064
X285.207Y65.524
X285.207Y62.984
X285.207Y60.444
X285.207Y57.904
X285.207Y55.364
X285.207Y52.824
X285.207Y50.284
X285.207Y47.744
X285.207Y45.204
X285.207Y42.664
X287.748Y197.604
X287.748Y192.524
X287.748Y189.984
X287.748Y187.444
X287.748Y184.904
X287.748Y182.364
X287.748Y177.284
X287.748Y174.744
X287.748Y172.204
X287.748Y169.664
X287.748Y167.124
X287.748Y156.964
X287.748Y154.424
X287.748Y151.884
X287.748Y149.344
X287.748Y146.804
X287.748Y139.184
X287.748Y136.644
X287.748Y134.104
X287.748Y131.564
X287.748Y129.024
X287.748Y126.484
X287.748Y118.864
X287.748Y113.784
X287.748Y111.244
X287.748Y108.704
X287.748Y106.164
X287.748Y103.624
X287.748Y101.084
X287.748Y90.924
X287.748Y85.844
X287.748Y83.304
X287.748Y78.224
X287.748Y75.684
X287.748Y73.144
X287.748Y70.604
X287.748Y68.064
X287.748Y65.524
X287.748Y55.364
X287.748Y52.824
X287.748Y50.284
X287.748Y47.744
X287.748Y45.204
X287.748Y42.664
X288.0Y62.03
X289.5Y96.25
X290.287Y195.064
X290.287Y192.524
X290.287Y189.984
X290.287Y187.444
X290.287Y184.904
X290.287Y182.364
X290.287Y177.284
X290.287Y174.744
X290.287Y172.204
X290.287Y169.664
X290.287Y167.124
X290.287Y156.964
X290.287Y154.424
X290.287Y151.884
X290.287Y149.344
X290.287Y146.804
X290.287Y136.644
X290.287Y134.104
X290.287Y131.564
X290.287Y129.024
X290.287Y126.484
X290.287Y116.324
X290.287Y93.464
X290.287Y88.384
X290.287Y85.844
X290.287Y83.304
X290.287Y75.684
X290.287Y73.144
X290.287Y70.604
X290.287Y68.064
X290.287Y65.524
X290.287Y62.984
X290.287Y55.364
X290.287Y52.824
X290.287Y50.284
X290.287Y47.744
X290.287Y45.204
X290.287Y42.664
X291.75Y99.75
X291.75Y92.56
X292.691Y92.537
X292.827Y197.604
X292.827Y192.524
X292.827Y189.984
X292.827Y187.444
X292.827Y184.904
X292.827Y182.364
X292.827Y177.284
X292.827Y174.744
X292.827Y172.204
X292.827Y169.664
X292.827Y167.124
X292.827Y154.424
X292.827Y151.884
X292.827Y149.344
X292.827Y146.804
X292.827Y136.644
X292.827Y134.104
X292.827Y131.564
X292.827Y129.024
X292.827Y126.484
X292.827Y116.324
X292.827Y111.244
X292.827Y108.704
X292.827Y90.924
X292.827Y85.844
X292.827Y83.304
X292.827Y75.684
X292.827Y73.144
X292.827Y70.604
X292.827Y68.064
X292.827Y65.524
X292.827Y62.984
X292.827Y52.824
X292.827Y50.284
X292.827Y47.744
X292.827Y45.204
X292.827Y42.664
X293.5Y97.0
X293.75Y99.65
X294.2Y97.5
X295.0Y97.5
X295.368Y197.604
X295.368Y195.064
X295.368Y192.524
X295.368Y189.984
X295.368Y187.444
X295.368Y184.904
X295.368Y182.364
X295.368Y177.284
X295.368Y174.744
X295.368Y172.204
X295.368Y169.664
X295.368Y167.124
X295.368Y151.884
X295.368Y149.344
X295.368Y146.804
X295.368Y139.184
X295.368Y136.644
X295.368Y134.104
X295.368Y131.564
X295.368Y129.024
X295.368Y126.484
X295.368Y113.784
X295.368Y111.244
X295.368Y106.164
X295.368Y103.624
X295.368Y93.464
X295.368Y90.924
X295.368Y88.384
X295.368Y83.304
X295.368Y78.224
X295.368Y75.684
X295.368Y73.144
X295.368Y70.604
X295.368Y68.064
X295.368Y65.524
X295.368Y62.984
X295.368Y57.904
X295.368Y55.364
X295.368Y52.824
X295.368Y50.284
X295.368Y47.744
X295.368Y45.204
X295.368Y42.664
X295.5Y59.466
X297.907Y197.604
X297.907Y195.064
X297.907Y192.524
X297.907Y189.984
X297.907Y187.444
X297.907Y184.904
X297.907Y182.364
X297.907Y177.284
X297.907Y174.744
X297.907Y172.204
X297.907Y169.664
X297.907Y167.124
X297.907Y164.584
X297.907Y149.344
X297.907Y146.804
X297.907Y136.644
X297.907Y134.104
X297.907Y131.564
X297.907Y129.024
X297.907Y126.484
X297.907Y118.864
X297.907Y116.324
X297.907Y113.784
X297.907Y108.704
X297.907Y106.164
X297.907Y103.624
X297.907Y101.084
X297.907Y78.224
X297.907Y75.684
X297.907Y73.144
X297.907Y70.604
X297.907Y68.064
X297.907Y65.524
X297.907Y55.364
X297.907Y52.824
X297.907Y50.284
X297.907Y47.744
X297.907Y45.204
X297.907Y42.664
X300.447Y197.604
X300.447Y195.064
X300.447Y192.524
X300.447Y189.984
X300.447Y187.444
X300.447Y184.904
X300.447Y182.364
X300.447Y177.284
X300.447Y174.744
X300.447Y172.204
X300.447Y169.664
X300.447Y167.124
X300.447Y164.584
X300.447Y162.044
X300.447Y149.344
X300.447Y146.804
X300.447Y141.724
X300.447Y139.184
X300.447Y134.104
X300.447Y131.564
X300.447Y129.024
X300.447Y126.484
X300.447Y121.404
X300.447Y118.864
X300.447Y116.324
X300.447Y111.244
X300.447Y108.704
X300.447Y103.624
X300.447Y101.084
X300.447Y93.464
X300.447Y90.924
X300.447Y88.384
X300.447Y85.844
X300.447Y83.304
X300.447Y78.224
X300.447Y75.684
X300.447Y73.144
X300.447Y70.604
X300.447Y68.064
X300.447Y62.984
X300.447Y60.444
X300.447Y57.904
X300.447Y55.364
X300.447Y52.824
X300.447Y50.284
X300.447Y47.744
X300.447Y45.204
X300.447Y42.664
X302.988Y197.604
X302.988Y195.064
X302.988Y192.524
X302.988Y189.984
X302.988Y187.444
X302.988Y184.904
X302.988Y182.364
X302.988Y177.284
X302.988Y174.744
X302.988Y172.204
X302.988Y164.584
X302.988Y162.044
X302.988Y159.504
X302.988Y141.724
X302.988Y139.184
X302.988Y134.104
X302.988Y131.564
X302.988Y129.024
X302.988Y126.484
X302.988Y121.404
X302.988Y118.864
X302.988Y116.324
X302.988Y111.244
X302.988Y108.704
X302.988Y103.624
X302.988Y101.084
X302.988Y93.464
X302.988Y90.924
X302.988Y88.384
X302.988Y85.844
X302.988Y83.304
X302.988Y80.764
X302.988Y75.684
X302.988Y73.144
X302.988Y70.604
X302.988Y68.064
X302.988Y62.984
X302.988Y60.444
X302.988Y57.904
X302.988Y55.364
X302.988Y52.824
X302.988Y50.284
X302.988Y47.744
X302.988Y45.204
X302.988Y42.664
X304.75Y131.25
X305.527Y192.524
X305.527Y189.984
X305.527Y187.444
X305.527Y184.904
X305.527Y182.364
X305.527Y177.284
X305.527Y174.744
X305.527Y172.204
X305.527Y169.664
X305.527Y167.124
X305.527Y164.584
X305.527Y162.044
X305.527Y149.344
X305.527Y146.804
X305.527Y139.184
X305.527Y134.104
X305.527Y131.564
X305.527Y129.024
X305.527Y126.484
X305.527Y118.864
X305.527Y116.324
X305.527Y111.244
X305.527Y108.704
X305.527Y106.164
X305.527Y103.624
X305.527Y93.464
X305.527Y90.924
X305.527Y88.384
X305.527Y85.844
X305.527Y83.304
X305.527Y80.764
X305.527Y78.224
X305.527Y73.144
X305.527Y70.604
X305.527Y68.064
X305.527Y65.524
X305.527Y62.984
X305.527Y60.444
X305.527Y57.904
X305.527Y55.364
X305.527Y52.824
X305.527Y50.284
X305.527Y47.744
X305.527Y45.204
X305.527Y42.664
X308.067Y197.604
X308.067Y192.524
X308.067Y189.984
X308.067Y187.444
X308.067Y184.904
X308.067Y182.364
X308.067Y177.284
X308.067Y174.744
X308.067Y172.204
X308.067Y169.664
X308.067Y167.124
X308.067Y139.184
X308.067Y134.104
X308.067Y131.564
X308.067Y129.024
X308.067Y126.484
X308.067Y118.864
X308.067Y116.324
X308.067Y111.244
X308.067Y108.704
X308.067Y106.164
X308.067Y96.004
X308.067Y93.464
X308.067Y90.924
X308.067Y88.384
X308.067Y85.844
X308.067Y83.304
X308.067Y80.764
X308.067Y78.224
X308.067Y75.684
X308.067Y70.604
X308.067Y68.064
X308.067Y65.524
X308.067Y62.984
X308.067Y57.904
X308.067Y55.364
X308.067Y52.824
X308.067Y50.284
X308.067Y47.744
X310.607Y192.524
X310.607Y189.984
X310.607Y187.444
X310.607Y184.904
X310.607Y182.364
X310.607Y177.284
X310.607Y174.744
X310.607Y169.664
X310.607Y159.504
X310.607Y149.344
X310.607Y146.804
X310.607Y134.104
X310.607Y131.564
X310.607Y129.024
X310.607Y126.484
X310.607Y118.864
X310.607Y116.324
X310.607Y111.244
X310.607Y108.704
X310.607Y98.544
X310.607Y96.004
X310.607Y93.464
X310.607Y90.924
X310.607Y88.384
X310.607Y85.844
X310.607Y83.304
X310.607Y80.764
X310.607Y78.224
X310.607Y75.684
X310.607Y73.144
X310.607Y68.064
X310.607Y65.524
X310.607Y62.984
X310.607Y55.364
X310.607Y52.824
X310.607Y50.284
X310.607Y47.744
X313.147Y197.604
X313.147Y195.064
X313.147Y192.524
X313.147Y189.984
X313.147Y187.444
X313.147Y184.904
X313.147Y182.364
X313.147Y177.284
X313.147Y174.744
X313.147Y172.204
X313.147Y169.664
X313.147Y167.124
X313.147Y164.584
X313.147Y159.504
X313.147Y149.344
X313.147Y146.804
X313.147Y139.184
X313.147Y134.104
X313.147Y131.564
X313.147Y129.024
X313.147Y126.484
X313.147Y118.864
X313.147Y113.784
X313.147Y111.244
X313.147Y101.084
X313.147Y98.544
X313.147Y96.004
X313.147Y93.464
X313.147Y90.924
X313.147Y88.384
X313.147Y85.844
X313.147Y83.304
X313.147Y80.764
X313.147Y78.224
X313.147Y75.684
X313.147Y73.144
X313.147Y70.604
X313.147Y65.524
X313.147Y62.984
X313.147Y55.364
X313.147Y52.824
X313.147Y50.284
X313.147Y47.744
X313.147Y45.204
X313.147Y42.664
X314.62Y59.45
X315.688Y197.604
X315.688Y195.064
X315.688Y192.524
X315.688Y189.984
X315.688Y187.444
X315.688Y184.904
X315.688Y182.364
X315.688Y177.284
X315.688Y174.744
X315.688Y172.204
X315.688Y169.664
X315.688Y167.124
X315.688Y164.584
X315.688Y159.504
X315.688Y149.344
X315.688Y146.804
X315.688Y139.184
X315.688Y134.104
X315.688Y131.564
X315.688Y129.024
X315.688Y126.484
X315.688Y118.864
X315.688Y116.324
X315.688Y113.784
X315.688Y103.624
X315.688Y101.084
X315.688Y98.544
X315.688Y96.004
X315.688Y93.464
X315.688Y90.924
X315.688Y88.384
X315.688Y85.844
X315.688Y83.304
X315.688Y80.764
X315.688Y78.224
X315.688Y75.684
X315.688Y73.144
X315.688Y70.604
X315.688Y68.064
X315.688Y65.524
X315.688Y62.984
X315.688Y60.444
X315.688Y57.904
X315.688Y55.364
X315.688Y52.824
X315.688Y50.284
X315.688Y47.744
X315.688Y45.204
X315.688Y42.664
X318.227Y197.604
X318.227Y195.064
X318.227Y192.524
X318.227Y189.984
X318.227Y187.444
X318.227Y184.904
X318.227Y182.364
X318.227Y177.284
X318.227Y174.744
X318.227Y172.204
X318.227Y169.664
X318.227Y167.124
X318.227Y164.584
X318.227Y159.504
X318.227Y149.344
X318.227Y146.804
X318.227Y139.184
X318.227Y134.104
X318.227Y131.564
X318.227Y129.024
X318.227Y126.484
X318.227Y118.864
X318.227Y116.324
X318.227Y106.164
X318.227Y103.624
X318.227Y101.084
X318.227Y98.544
X318.227Y96.004
X318.227Y93.464
X318.227Y90.924
X318.227Y88.384
X318.227Y85.844
X318.227Y83.304
X318.227Y80.764
X318.227Y78.224
X318.227Y75.684
X318.227Y73.144
X318.227Y70.604
X318.227Y68.064
X318.227Y65.524
X318.227Y62.984
X318.227Y60.444
X318.227Y57.904
X318.227Y55.364
X318.227Y52.824
X318.227Y50.284
X318.227Y47.744
X318.227Y45.204
X318.227Y42.664
X320.767Y197.604
X320.767Y195.064
X320.767Y192.524
X320.767Y184.904
X320.767Y182.364
X320.767Y177.284
X320.767Y174.744
X320.767Y172.204
X320.767Y169.664
X320.767Y167.124
X320.767Y164.584
X320.767Y159.504
X320.767Y149.344
X320.767Y146.804
X320.767Y141.724
X320.767Y139.184
X320.767Y131.564
X320.767Y129.024
X320.767Y126.484
X320.767Y121.404
X320.767Y118.864
X320.767Y108.704
X320.767Y106.164
X320.767Y103.624
X320.767Y101.084
X320.767Y98.544
X320.767Y96.004
X320.767Y93.464
X320.767Y90.924
X320.767Y88.384
X320.767Y85.844
X320.767Y83.304
X320.767Y80.764
X320.767Y78.224
X320.767Y75.684
X320.767Y73.144
X320.767Y70.604
X320.767Y68.064
X320.767Y65.524
X320.767Y62.984
X320.767Y60.444
X320.767Y57.904
X320.767Y55.364
X320.767Y52.824
X320.767Y50.284
X320.767Y47.744
X320.767Y42.664
X321.25Y12.75
X322.0Y134.0
X323.308Y197.604
X323.308Y195.064
X323.308Y192.524
X323.308Y187.444
X323.308Y184.904
X323.308Y182.364
X323.308Y177.284
X323.308Y174.744
X323.308Y172.204
X323.308Y169.664
X323.308Y167.124
X323.308Y164.584
X323.308Y159.504
X323.308Y149.344
X323.308Y146.804
X323.308Y141.724
X323.308Y111.244
X323.308Y108.704
X323.308Y106.164
X323.308Y103.624
X323.308Y101.084
X323.308Y98.544
X323.308Y96.004
X323.308Y93.464
X323.308Y90.924
X323.308Y88.384
X323.308Y85.844
X323.308Y83.304
X323.308Y80.764
X323.308Y78.224
X323.308Y75.684
X323.308Y73.144
X323.308Y70.604
X323.308Y68.064
X323.308Y65.524
X323.308Y62.984
X323.308Y60.444
X323.308Y57.904
X323.308Y55.364
X323.308Y52.824
X323.308Y50.284
X323.308Y47.744
X323.308Y42.664
X324.25Y114.75
X324.75Y136.0
X325.0Y133.0
X325.84Y140.009
X325.847Y195.064
X325.847Y192.524
X325.847Y189.984
X325.847Y187.444
X325.847Y184.904
X325.847Y182.364
X325.847Y177.284
X325.847Y174.744
X325.847Y169.664
X325.847Y149.344
X325.847Y146.804
X325.847Y108.704
X325.847Y106.164
X325.847Y103.624
X325.847Y101.084
X325.847Y98.544
X325.847Y96.004
X325.847Y93.464
X325.847Y90.924
X325.847Y88.384
X325.847Y85.844
X325.847Y83.304
X325.847Y80.764
X325.847Y78.224
X325.847Y75.684
X325.847Y73.144
X325.847Y70.604
X325.847Y68.064
X325.847Y65.524
X325.847Y62.984
X325.847Y60.444
X325.847Y57.904
X325.847Y55.364
X325.847Y52.824
X325.847Y50.284
X325.847Y47.744
X325.847Y45.204
X325.847Y42.664
X326.125Y133.0
X327.0Y133.0
X328.387Y195.064
X328.387Y189.984
X328.387Y187.444
X328.387Y149.344
X328.387Y146.804
X328.387Y129.024
X328.387Y126.484
X328.387Y121.404
X328.387Y118.864
X328.387Y116.324
X328.387Y108.704
X328.387Y106.164
X328.387Y103.624
X328.387Y101.084
X328.387Y98.544
X328.387Y96.004
X328.387Y93.464
X328.387Y90.924
X328.387Y88.384
X328.387Y83.304
X328.387Y80.764
X328.387Y78.224
X328.387Y75.684
X328.387Y73.144
X328.387Y70.604
X328.387Y68.064
X328.387Y65.524
X328.387Y62.984
X328.387Y60.444
X328.387Y57.904
X328.387Y55.364
X328.387Y52.824
X328.387Y50.284
X328.387Y47.744
X328.387Y45.204
X328.387Y42.664
X329.25Y185.75
X329.25Y182.5
X330.928Y195.064
X330.928Y174.744
X330.928Y172.204
X330.928Y169.664
X330.928Y167.124
X330.928Y151.884
X330.928Y149.344
X330.928Y136.644
X330.928Y131.564
X330.928Y121.404
X330.928Y118.864
X330.928Y116.324
X330.928Y113.784
X330.928Y108.704
X330.928Y106.164
X330.928Y103.624
X330.928Y101.084
X330.928Y98.544
X330.928Y96.004
X330.928Y93.464
X330.928Y90.924
X330.928Y88.384
X330.928Y83.304
X330.928Y80.764
X330.928Y78.224
X330.928Y75.684
X330.928Y73.144
X330.928Y70.604
X330.928Y68.064
X330.928Y65.524
X330.928Y62.984
X330.928Y60.444
X330.928Y57.904
X330.928Y55.364
X330.928Y52.824
X330.928Y50.284
X330.928Y47.744
X330.928Y45.204
X330.928Y42.664
X332.75Y159.35
X333.0Y158.55
X333.467Y195.064
X333.467Y187.444
X333.467Y182.364
X333.467Y177.284
X333.467Y174.744
X333.467Y172.204
X333.467Y154.424
X333.467Y151.884
X333.467Y139.184
X333.467Y136.644
X333.467Y131.564
X333.467Y129.024
X333.467Y126.484
X333.467Y118.864
X333.467Y116.324
X333.467Y113.784
X333.467Y108.704
X333.467Y106.164
X333.467Y103.624
X333.467Y101.084
X333.467Y98.544
X333.467Y96.004
X333.467Y93.464
X333.467Y90.924
X333.467Y88.384
X333.467Y85.844
X333.467Y83.304
X333.467Y80.764
X333.467Y78.224
X333.467Y75.684
X333.467Y73.144
X333.467Y70.604
X333.467Y68.064
X333.467Y65.524
X333.467Y62.984
X333.467Y60.444
X333.467Y57.904
X333.467Y55.364
X333.467Y52.824
X333.467Y50.284
X333.467Y47.744
X333.467Y45.204
X333.467Y42.664
X333.5Y157.75
X333.6Y164.709
X334.9Y166.069
X335.9Y165.146
X336.0Y159.0
X336.007Y195.064
X336.007Y189.984
X336.007Y187.444
X336.007Y154.424
X336.007Y136.644
X336.007Y131.564
X336.007Y129.024
X336.007Y126.484
X336.007Y118.864
X336.007Y116.324
X336.007Y113.784
X336.007Y108.704
X336.007Y106.164
X336.007Y103.624
X336.007Y98.544
X336.007Y96.004
X336.007Y93.464
X336.007Y90.924
X336.007Y88.384
X336.007Y85.844
X336.007Y83.304
X336.007Y78.224
X336.007Y75.684
X336.007Y73.144
X336.007Y70.604
X336.007Y68.064
X336.007Y65.524
X336.007Y62.984
X336.007Y60.444
X336.007Y57.904
X336.007Y55.364
X336.007Y52.824
X336.007Y50.284
X336.007Y47.744
X336.007Y45.204
X336.007Y42.664
X338.055Y158.85
X338.547Y197.604
X338.547Y192.524
X338.547Y189.984
X338.547Y187.444
X338.547Y184.904
X338.547Y167.124
X338.547Y164.584
X338.547Y156.964
X338.547Y136.644
X338.547Y131.564
X338.547Y129.024
X338.547Y126.484
X338.547Y116.324
X338.547Y113.784
X338.547Y108.704
X338.547Y106.164
X338.547Y103.624
X338.547Y96.004
X338.547Y93.464
X338.547Y90.924
X338.547Y88.384
X338.547Y85.844
X338.547Y75.684
X338.547Y73.144
X338.547Y70.604
X338.547Y68.064
X338.547Y65.524
X338.547Y62.984
X338.547Y52.824
X338.547Y50.284
X338.547Y47.744
X338.547Y45.204
X338.547Y42.664
X339.221Y159.85
X339.75Y159.25
X340.606Y163.5
X340.75Y177.5
X341.087Y195.064
X341.087Y192.524
X341.087Y189.984
X341.087Y187.444
X341.087Y184.904
X341.087Y169.664
X341.087Y146.804
X341.087Y139.184
X341.087Y136.644
X341.087Y131.564
X341.087Y129.024
X341.087Y126.484
X341.087Y116.324
X341.087Y113.784
X341.087Y108.704
X341.087Y106.164
X341.087Y103.624
X341.087Y96.004
X341.087Y93.464
X341.087Y90.924
X341.087Y88.384
X341.087Y85.844
X341.087Y75.684
X341.087Y73.144
X341.087Y70.604
X341.087Y68.064
X341.087Y65.524
X341.087Y62.984
X341.087Y55.364
X341.087Y52.824
X341.087Y50.284
X341.087Y47.744
X341.087Y45.204
X341.087Y42.664
X341.562Y156.438
X342.125Y162.125
X342.5Y100.56
X342.53Y59.44
X343.627Y197.604
X343.627Y195.064
X343.627Y192.524
X343.627Y172.204
X343.627Y139.184
X343.627Y136.644
X343.627Y131.564
X343.627Y129.024
X343.627Y126.484
X343.627Y118.864
X343.627Y116.324
X343.627Y108.704
X343.627Y106.164
X343.627Y103.624
X343.627Y98.544
X343.627Y96.004
X343.627Y93.464
X343.627Y90.924
X343.627Y88.384
X343.627Y85.844
X343.627Y80.764
X343.627Y78.224
X343.627Y73.144
X343.627Y70.604
X343.627Y68.064
X343.627Y65.524
X343.627Y62.984
X343.627Y57.904
X343.627Y55.364
X343.627Y52.824
X343.627Y50.284
X343.627Y47.744
X343.627Y45.204
X343.627Y42.664
X345.08Y165.0
X345.875Y166.706
X346.017Y167.493
X346.167Y195.064
X346.167Y192.524
X346.167Y187.444
X346.167Y184.904
X346.167Y174.744
X346.167Y172.204
X346.167Y151.884
X346.167Y149.344
X346.167Y146.804
X346.167Y139.184
X346.167Y136.644
X346.167Y131.564
X346.167Y129.024
X346.167Y126.484
X346.167Y118.864
X346.167Y116.324
X346.167Y108.704
X346.167Y106.164
X346.167Y98.544
X346.167Y96.004
X346.167Y93.464
X346.167Y90.924
X346.167Y88.384
X346.167Y85.844
X346.167Y78.224
X346.167Y75.684
X346.167Y70.604
X346.167Y68.064
X346.167Y65.524
X346.167Y60.444
X346.167Y57.904
X346.167Y55.364
X346.167Y52.824
X346.167Y50.284
X346.167Y47.744
X346.167Y45.204
X346.167Y42.664
X346.35Y165.1
X346.35Y158.58
X347.5Y165.0
X347.62Y158.58
X347.75Y156.726
X348.707Y189.984
X348.707Y187.444
X348.707Y177.284
X348.707Y174.744
X348.707Y172.204
X348.707Y151.884
X348.707Y149.344
X348.707Y146.804
X348.707Y141.724
X348.707Y139.184
X348.707Y136.644
X348.707Y131.564
X348.707Y129.024
X348.707Y126.484
X348.707Y121.404
X348.707Y118.864
X348.707Y116.324
X348.707Y108.704
X348.707Y101.084
X348.707Y98.544
X348.707Y96.004
X348.707Y93.464
X348.707Y90.924
X348.707Y88.384
X348.707Y85.844
X348.707Y80.764
X348.707Y78.224
X348.707Y75.684
X348.707Y70.604
X348.707Y68.064
X348.707Y62.984
X348.707Y60.444
X348.707Y57.904
X348.707Y55.364
X348.707Y52.824
X348.707Y50.284
X348.707Y47.744
X348.707Y45.204
X348.707Y42.664
X350.16Y158.58
X350.564Y157.145
X351.248Y177.284
X351.248Y174.744
X351.248Y172.204
X351.248Y154.424
X351.248Y151.884
X351.248Y149.344
X351.248Y146.804
X351.248Y141.724
X351.248Y139.184
X351.248Y136.644
X351.248Y131.564
X351.248Y129.024
X351.248Y126.484
X351.248Y121.404
X351.248Y118.864
X351.248Y116.324
X351.248Y108.704
X351.248Y101.084
X351.248Y98.544
X351.248Y96.004
X351.248Y93.464
X351.248Y90.924
X351.248Y88.384
X351.248Y85.844
X351.248Y80.764
X351.248Y78.224
X351.248Y75.684
X351.248Y70.604
X351.248Y68.064
X351.248Y62.984
X351.248Y60.444
X351.248Y57.904
X351.248Y55.364
X351.248Y52.824
X351.248Y50.284
X351.248Y47.744
X351.248Y45.204
X351.248Y42.664
X351.43Y158.58
X352.7Y158.58
X353.787Y195.064
X353.787Y192.524
X353.787Y182.364
X353.787Y177.284
X353.787Y174.744
X353.787Y162.044
X353.787Y156.964
X353.787Y154.424
X353.787Y151.884
X353.787Y149.344
X353.787Y146.804
X353.787Y139.184
X353.787Y131.564
X353.787Y129.024
X353.787Y126.484
X353.787Y118.864
X353.787Y116.324
X353.787Y108.704
X353.787Y106.164
X353.787Y98.544
X353.787Y96.004
X353.787Y93.464
X353.787Y90.924
X353.787Y88.384
X353.787Y85.844
X353.787Y78.224
X353.787Y75.684
X353.787Y70.604
X353.787Y68.064
X353.787Y62.984
X353.787Y55.364
X353.787Y52.824
X353.787Y50.284
X353.787Y47.744
X353.787Y45.204
X353.787Y42.664
X356.327Y195.064
X356.327Y162.044
X356.327Y159.504
X356.327Y156.964
X356.327Y154.424
X356.327Y151.884
X356.327Y149.344
X356.327Y146.804
X356.327Y136.644
X356.327Y131.564
X356.327Y129.024
X356.327Y126.484
X356.327Y116.324
X356.327Y108.704
X356.327Y106.164
X356.327Y96.004
X356.327Y93.464
X356.327Y90.924
X356.327Y88.384
X356.327Y85.844
X356.327Y75.684
X356.327Y70.604
X356.327Y68.064
X356.327Y62.984
X356.327Y55.364
X356.327Y52.824
X356.327Y50.284
X356.327Y47.744
X356.327Y45.204
X356.327Y42.664
X356.5Y167.75
X358.75Y167.75
X358.868Y184.904
X358.868Y177.284
X358.868Y174.744
X358.868Y169.664
X358.868Y162.044
X358.868Y159.504
X358.868Y154.424
X358.868Y151.884
X358.868Y149.344
X358.868Y146.804
X358.868Y131.564
X358.868Y129.024
X358.868Y126.484
X358.868Y116.324
X358.868Y108.704
X358.868Y106.164
X358.868Y96.004
X358.868Y93.464
X358.868Y90.924
X358.868Y88.384
X358.868Y85.844
X358.868Y75.684
X358.868Y70.604
X358.868Y68.064
X358.868Y62.984
X358.868Y55.364
X358.868Y52.824
X358.868Y50.284
X358.868Y47.744
X358.868Y45.204
X358.868Y42.664
X361.407Y187.444
X361.407Y184.904
X361.407Y172.204
X361.407Y169.664
X361.407Y162.044
X361.407Y156.964
X361.407Y154.424
X361.407Y151.884
X361.407Y149.344
X361.407Y146.804
X361.407Y136.644
X361.407Y131.564
X361.407Y129.024
X361.407Y126.484
X361.407Y116.324
X361.407Y108.704
X361.407Y98.544
X361.407Y96.004
X361.407Y93.464
X361.407Y90.924
X361.407Y88.384
X361.407Y85.844
X361.407Y75.684
X361.407Y70.604
X361.407Y68.064
X361.407Y62.984
X361.407Y57.904
X361.407Y55.364
X361.407Y52.824
X361.407Y50.284
X361.407Y47.744
X361.407Y45.204
X361.407Y42.664
X361.5Y167.75
X361.5Y59.47
X361.57Y100.56
X363.625Y104.125
X363.947Y187.444
X363.947Y172.204
X363.947Y169.664
X363.947Y159.504
X363.947Y156.964
X363.947Y154.424
X363.947Y151.884
X363.947Y149.344
X363.947Y146.804
X363.947Y139.184
X363.947Y136.644
X363.947Y131.564
X363.947Y129.024
X363.947Y126.484
X363.947Y118.864
X363.947Y106.164
X363.947Y98.544
X363.947Y96.004
X363.947Y93.464
X363.947Y90.924
X363.947Y88.384
X363.947Y85.844
X363.947Y78.224
X363.947Y75.684
X363.947Y70.604
X363.947Y62.984
X363.947Y55.364
X363.947Y52.824
X363.947Y50.284
X363.947Y47.744
X363.947Y45.204
X363.947Y42.664
X364.0Y167.75
X364.5Y195.75
X364.5Y104.0
X366.488Y177.284
X366.488Y174.744
X366.488Y172.204
X366.488Y162.044
X366.488Y159.504
X366.488Y156.964
X366.488Y154.424
X366.488Y151.884
X366.488Y149.344
X366.488Y146.804
X366.488Y141.724
X366.488Y139.184
X366.488Y136.644
X366.488Y131.564
X366.488Y129.024
X366.488Y126.484
X366.488Y121.404
X366.488Y118.864
X366.488Y103.624
X366.488Y101.084
X366.488Y98.544
X366.488Y96.004
X366.488Y93.464
X366.488Y90.924
X366.488Y88.384
X366.488Y85.844
X366.488Y80.764
X366.488Y78.224
X366.488Y70.604
X366.488Y60.444
X366.488Y57.904
X366.488Y55.364
X366.488Y52.824
X366.488Y50.284
X366.488Y47.744
X366.488Y45.204
X366.488Y42.664
X366.5Y167.75
X366.891Y65.451
X367.25Y112.5
X367.62Y65.78
X368.4Y65.6
X369.0Y111.8
X369.0Y109.5
X369.027Y195.064
X369.027Y177.284
X369.027Y174.744
X369.027Y172.204
X369.027Y169.664
X369.027Y162.044
X369.027Y159.504
X369.027Y156.964
X369.027Y154.424
X369.027Y151.884
X369.027Y141.724
X369.027Y139.184
X369.027Y136.644
X369.027Y131.564
X369.027Y129.024
X369.027Y126.484
X369.027Y121.404
X369.027Y118.864
X369.027Y62.984
X369.027Y60.444
X369.027Y57.904
X369.027Y55.364
X369.027Y52.824
X369.027Y50.284
X369.027Y47.744
X369.027Y45.204
X369.027Y42.664
X369.5Y69.5
X370.0Y109.5
X370.5Y69.5
X371.0Y109.5
X371.28Y69.32
X371.567Y177.284
X371.567Y174.744
X371.567Y172.204
X371.567Y162.044
X371.567Y159.504
X371.567Y156.964
X371.567Y154.424
X371.567Y151.884
X371.567Y149.344
X371.567Y146.804
X371.567Y139.184
X371.567Y136.644
X371.567Y131.564
X371.567Y129.024
X371.567Y126.484
X371.567Y118.864
X371.567Y116.324
X371.567Y113.784
X371.567Y65.524
X371.567Y60.444
X371.567Y57.904
X371.567Y55.364
X371.567Y52.824
X371.567Y50.284
X371.567Y47.744
X371.567Y45.204
X371.567Y42.664
X371.75Y77.75
X372.0Y75.0
X372.375Y169.375
X373.0Y103.043
X373.5Y195.0
X374.107Y184.904
X374.107Y177.284
X374.107Y174.744
X374.107Y172.204
X374.107Y167.124
X374.107Y162.044
X374.107Y159.504
X374.107Y156.964
X374.107Y154.424
X374.107Y151.884
X374.107Y149.344
X374.107Y146.804
X374.107Y139.184
X374.107Y136.644
X374.107Y131.564
X374.107Y129.024
X374.107Y126.484
X374.107Y118.864
X374.107Y116.324
X374.107Y113.784
X374.107Y111.244
X374.107Y108.704
X374.107Y106.164
X374.107Y98.544
X374.107Y96.004
X374.107Y93.464
X374.107Y90.924
X374.107Y88.384
X374.107Y85.844
X374.107Y78.224
X374.107Y73.144
X374.107Y70.604
X374.107Y68.064
X374.107Y65.524
X374.107Y60.444
X374.107Y57.904
X374.107Y55.364
X374.107Y52.824
X374.107Y50.284
X374.107Y47.744
X374.107Y45.204
X374.107Y42.664
X375.5Y194.5
X376.647Y184.904
X376.647Y177.284
X376.647Y174.744
X376.647Y167.124
X376.647Y162.044
X376.647Y159.504
X376.647Y156.964
X376.647Y154.424
X376.647Y151.884
X376.647Y149.344
X376.647Y146.804
X376.647Y131.564
X376.647Y129.024
X376.647Y126.484
X376.647Y116.324
X376.647Y113.784
X376.647Y111.244
X376.647Y108.704
X376.647Y106.164
X376.647Y96.004
X376.647Y93.464
X376.647Y90.924
X376.647Y88.384
X376.647Y85.844
X376.647Y73.144
X376.647Y70.604
X376.647Y68.064
X376.647Y65.524
X376.647Y52.824
X376.647Y50.284
X376.647Y47.744
X376.647Y45.204
X376.647Y42.664
X376.75Y169.25
X377.75Y194.0
X379.188Y184.904
X379.188Y177.284
X379.188Y167.124
X379.188Y162.044
X379.188Y159.504
X379.188Y156.964
X379.188Y154.424
X379.188Y151.884
X379.188Y149.344
X379.188Y146.804
X379.188Y136.644
X379.188Y131.564
X379.188Y129.024
X379.188Y126.484
X379.188Y116.324
X379.188Y113.784
X379.188Y111.244
X379.188Y108.704
X379.188Y106.164
X379.188Y96.004
X379.188Y93.464
X379.188Y90.924
X379.188Y88.384
X379.188Y85.844
X379.188Y73.144
X379.188Y70.604
X379.188Y68.064
X379.188Y65.524
X379.188Y62.984
X379.188Y55.364
X379.188Y52.824
X379.188Y50.284
X379.188Y47.744
X379.188Y45.204
X379.188Y42.664
X379.25Y169.25
X379.25Y119.0
X379.75Y193.5
X380.5Y100.54
X380.5Y59.467
X381.727Y189.984
X381.727Y184.904
X381.727Y172.204
X381.727Y162.044
X381.727Y159.504
X381.727Y156.964
X381.727Y154.424
X381.727Y151.884
X381.727Y149.344
X381.727Y146.804
X381.727Y139.184
X381.727Y136.644
X381.727Y131.564
X381.727Y129.024
X381.727Y126.484
X381.727Y118.864
X381.727Y116.324
X381.727Y113.784
X381.727Y111.244
X381.727Y108.704
X381.727Y106.164
X381.727Y101.084
X381.727Y98.544
X381.727Y96.004
X381.727Y93.464
X381.727Y90.924
X381.727Y88.384
X381.727Y85.844
X381.727Y80.764
X381.727Y78.224
X381.727Y73.144
X381.727Y70.604
X381.727Y68.064
X381.727Y65.524
X381.727Y62.984
X381.727Y60.444
X381.727Y57.904
X381.727Y55.364
X381.727Y52.824
X381.727Y50.284
X381.727Y47.744
X381.727Y45.204
X381.727Y42.664
X381.75Y169.25
X382.0Y174.5
X384.267Y192.524
X384.267Y189.984
X384.267Y184.904
X384.267Y174.744
X384.267Y164.584
X384.267Y162.044
X384.267Y159.504
X384.267Y156.964
X384.267Y154.424
X384.267Y151.884
X384.267Y149.344
X384.267Y146.804
X384.267Y139.184
X384.267Y136.644
X384.267Y131.564
X384.267Y129.024
X384.267Y126.484
X384.267Y118.864
X384.267Y116.324
X384.267Y113.784
X384.267Y111.244
X384.267Y108.704
X384.267Y106.164
X384.267Y98.544
X384.267Y96.004
X384.267Y93.464
X384.267Y90.924
X384.267Y88.384
X384.267Y85.844
X384.267Y78.224
X384.267Y73.144
X384.267Y70.604
X384.267Y68.064
X384.267Y65.524
X384.267Y62.984
X384.267Y60.444
X384.267Y57.904
X384.267Y55.364
X384.267Y52.824
X384.267Y50.284
X384.267Y47.744
X384.267Y45.204
X384.267Y42.664
X386.808Y195.064
X386.808Y192.524
X386.808Y189.984
X386.808Y184.904
X386.808Y167.124
X386.808Y164.584
X386.808Y162.044
X386.808Y159.504
X386.808Y156.964
X386.808Y154.424
X386.808Y151.884
X386.808Y149.344
X386.808Y146.804
X386.808Y141.724
X386.808Y139.184
X386.808Y136.644
X386.808Y131.564
X386.808Y129.024
X386.808Y126.484
X386.808Y121.404
X386.808Y118.864
X386.808Y116.324
X386.808Y113.784
X386.808Y111.244
X386.808Y108.704
X386.808Y106.164
X386.808Y101.084
X386.808Y98.544
X386.808Y96.004
X386.808Y93.464
X386.808Y90.924
X386.808Y88.384
X386.808Y85.844
X386.808Y80.764
X386.808Y78.224
X386.808Y73.144
X386.808Y70.604
X386.808Y68.064
X386.808Y65.524
X386.808Y62.984
X386.808Y60.444
X386.808Y57.904
X386.808Y55.364
X386.808Y52.824
X386.808Y50.284
X386.808Y47.744
X388.25Y169.0
X389.347Y195.064
X389.347Y192.524
X389.347Y189.984
X389.347Y184.904
X389.347Y167.124
X389.347Y164.584
X389.347Y162.044
X389.347Y159.504
X389.347Y156.964
X389.347Y154.424
X389.347Y151.884
X389.347Y149.344
X389.347Y141.724
X389.347Y139.184
X389.347Y136.644
X389.347Y131.564
X389.347Y129.024
X389.347Y126.484
X389.347Y121.404
X389.347Y118.864
X389.347Y116.324
X389.347Y113.784
X389.347Y111.244
X389.347Y108.704
X389.347Y106.164
X389.347Y101.084
X389.347Y98.544
X389.347Y96.004
X389.347Y93.464
X389.347Y90.924
X389.347Y88.384
X389.347Y85.844
X389.347Y80.764
X389.347Y78.224
X389.347Y73.144
X389.347Y70.604
X389.347Y68.064
X389.347Y65.524
X389.347Y62.984
X389.347Y57.904
X389.347Y55.364
X389.347Y52.824
X389.347Y50.284
X389.347Y47.744
X390.5Y176.0
X391.887Y195.064
X391.887Y192.524
X391.887Y189.984
X391.887Y184.904
X391.887Y169.664
X391.887Y167.124
X391.887Y164.584
X391.887Y162.044
X391.887Y159.504
X391.887Y156.964
X391.887Y154.424
X391.887Y151.884
X391.887Y149.344
X391.887Y146.804
X391.887Y139.184
X391.887Y136.644
X391.887Y131.564
X391.887Y129.024
X391.887Y126.484
X391.887Y118.864
X391.887Y116.324
X391.887Y113.784
X391.887Y111.244
X391.887Y108.704
X391.887Y106.164
X391.887Y98.544
X391.887Y96.004
X391.887Y93.464
X391.887Y90.924
X391.887Y88.384
X391.887Y85.844
X391.887Y78.224
X391.887Y73.144
X391.887Y70.604
X391.887Y68.064
X391.887Y65.524
X391.887Y62.984
X391.887Y55.364
X391.887Y52.824
X391.887Y50.284
X391.887Y47.744
X391.887Y45.204
X391.887Y42.664
X394.428Y195.064
X394.428Y192.524
X394.428Y189.984
X394.428Y184.904
X394.428Y174.744
X394.428Y172.204
X394.428Y169.664
X394.428Y167.124
X394.428Y164.584
X394.428Y162.044
X394.428Y159.504
X394.428Y156.964
X394.428Y154.424
X394.428Y151.884
X394.428Y149.344
X394.428Y146.804
X394.428Y144.264
X394.428Y136.644
X394.428Y131.564
X394.428Y129.024
X394.428Y126.484
X394.428Y116.324
X394.428Y113.784
X394.428Y111.244
X394.428Y108.704
X394.428Y106.164
X394.428Y96.004
X394.428Y93.464
X394.428Y90.924
X394.428Y88.384
X394.428Y83.304
X394.428Y73.144
X394.428Y70.604
X394.428Y68.064
X394.428Y65.524
X394.428Y62.984
X394.428Y52.824
X394.428Y50.284
X394.428Y47.744
X394.428Y45.204
X394.428Y42.664
X396.967Y195.064
X396.967Y192.524
X396.967Y189.984
X396.967Y184.904
X396.967Y177.284
X396.967Y169.664
X396.967Y167.124
X396.967Y164.584
X396.967Y162.044
X396.967Y159.504
X396.967Y156.964
X396.967Y154.424
X396.967Y151.884
X396.967Y149.344
X396.967Y146.804
X396.967Y144.264
X396.967Y134.104
X396.967Y131.564
X396.967Y129.024
X396.967Y126.484
X396.967Y123.944
X396.967Y116.324
X396.967Y113.784
X396.967Y111.244
X396.967Y108.704
X396.967Y106.164
X396.967Y96.004
X396.967Y93.464
X396.967Y90.924
X396.967Y88.384
X396.967Y83.304
X396.967Y73.144
X396.967Y70.604
X396.967Y68.064
X396.967Y65.524
X396.967Y55.364
X396.967Y50.284
X396.967Y47.744
X396.967Y45.204
X396.967Y42.664
X399.507Y200.144
X399.507Y195.064
X399.507Y192.524
X399.507Y189.984
X399.507Y184.904
X399.507Y174.744
X399.507Y172.204
X399.507Y169.664
X399.507Y167.124
X399.507Y159.504
X399.507Y156.964
X399.507Y154.424
X399.507Y151.884
X399.507Y149.344
X399.507Y146.804
X399.507Y144.264
X399.507Y136.644
X399.507Y134.104
X399.507Y131.564
X399.507Y129.024
X399.507Y126.484
X399.507Y123.944
X399.507Y116.324
X399.507Y113.784
X399.507Y111.244
X399.507Y108.704
X399.507Y106.164
X399.507Y103.624
X399.507Y98.544
X399.507Y96.004
X399.507Y93.464
X399.507Y90.924
X399.507Y83.304
X399.507Y75.684
X399.507Y73.144
X399.507Y70.604
X399.507Y68.064
X399.507Y65.524
X399.507Y62.984
X399.507Y57.904
X399.507Y55.364
X399.507Y50.284
X399.507Y47.744
X399.507Y45.204
X399.507Y42.664
X402.047Y195.064
X402.047Y192.524
X402.047Y189.984
X402.047Y184.904
X402.047Y174.744
X402.047Y172.204
X402.047Y169.664
X402.047Y164.584
X402.047Y162.044
X402.047Y159.504
X402.047Y156.964
X402.047Y154.424
X402.047Y151.884
X402.047Y149.344
X402.047Y146.804
X402.047Y144.264
X402.047Y139.184
X402.047Y136.644
X402.047Y134.104
X402.047Y131.564
X402.047Y129.024
X402.047Y126.484
X402.047Y123.944
X402.047Y118.864
X402.047Y116.324
X402.047Y113.784
X402.047Y111.244
X402.047Y108.704
X402.047Y106.164
X402.047Y103.624
X402.047Y98.544
X402.047Y96.004
X402.047Y93.464
X402.047Y90.924
X402.047Y88.384
X402.047Y83.304
X402.047Y78.224
X402.047Y73.144
X402.047Y70.604
X402.047Y68.064
X402.047Y65.524
X402.047Y52.824
X402.047Y50.284
X402.047Y47.744
X402.047Y45.204
X402.047Y42.664
X404.587Y200.144
X404.587Y195.064
X404.587Y189.984
X404.587Y184.904
X404.587Y169.664
X404.587Y167.124
X404.587Y162.044
X404.587Y159.504
X404.587Y156.964
X404.587Y154.424
X404.587Y151.884
X404.587Y149.344
X404.587Y146.804
X404.587Y144.264
X404.587Y141.724
X404.587Y139.184
X404.587Y136.644
X404.587Y134.104
X404.587Y131.564
X404.587Y129.024
X404.587Y126.484
X404.587Y123.944
X404.587Y121.404
X404.587Y118.864
X404.587Y116.324
X404.587Y113.784
X404.587Y111.244
X404.587Y108.704
X404.587Y106.164
X404.587Y103.624
X404.587Y101.084
X404.587Y98.544
X404.587Y96.004
X404.587Y93.464
X404.587Y90.924
X404.587Y88.384
X404.587Y85.844
X404.587Y80.764
X404.587Y75.684
X404.587Y73.144
X404.587Y70.604
X404.587Y68.064
X404.587Y65.524
X404.587Y62.984
X404.587Y55.364
X404.587Y52.824
X404.587Y50.284
X404.587Y47.744
X404.587Y45.204
X404.587Y42.664
X407.127Y200.144
X407.127Y195.064
X407.127Y192.524
X407.127Y169.664
X407.127Y167.124
X407.127Y162.044
X407.127Y156.964
X407.127Y154.424
X407.127Y151.884
X407.127Y144.264
X407.127Y141.724
X407.127Y139.184
X407.127Y136.644
X407.127Y134.104
X407.127Y131.564
X407.127Y129.024
X407.127Y126.484
X407.127Y123.944
X407.127Y121.404
X407.127Y118.864
X407.127Y116.324
X407.127Y113.784
X407.127Y111.244
X407.127Y108.704
X407.127Y103.624
X407.127Y101.084
X407.127Y98.544
X407.127Y96.004
X407.127Y93.464
X407.127Y90.924
X407.127Y88.384
X407.127Y83.304
X407.127Y80.764
X407.127Y78.224
X407.127Y75.684
X407.127Y73.144
X407.127Y70.604
X407.127Y68.064
X407.127Y62.984
X407.127Y60.444
X407.127Y57.904
X407.127Y55.364
X407.127Y52.824
X407.127Y50.284
X407.127Y47.744
X409.667Y200.144
X409.667Y197.604
X409.667Y195.064
X409.667Y192.524
X409.667Y189.984
X409.667Y174.744
X409.667Y172.204
X409.667Y169.664
X409.667Y167.124
X409.667Y164.584
X409.667Y162.044
X409.667Y159.504
X409.667Y156.964
X409.667Y154.424
X409.667Y151.884
X409.667Y149.344
X409.667Y146.804
X409.667Y144.264
X409.667Y141.724
X409.667Y139.184
X409.667Y136.644
X409.667Y134.104
X409.667Y131.564
X409.667Y129.024
X409.667Y126.484
X409.667Y123.944
X409.667Y121.404
X409.667Y118.864
X409.667Y116.324
X409.667Y113.784
X409.667Y111.244
X409.667Y108.704
X409.667Y106.164
X409.667Y103.624
X409.667Y101.084
X409.667Y98.544
X409.667Y96.004
X409.667Y93.464
X409.667Y90.924
X409.667Y88.384
X409.667Y85.844
X409.667Y83.304
X409.667Y80.764
X409.667Y78.224
X409.667Y75.684
X409.667Y73.144
X409.667Y70.604
X409.667Y68.064
X409.667Y65.524
X409.667Y62.984
X409.667Y60.444
X409.667Y57.904
X409.667Y55.364
X409.667Y52.824
X409.667Y50.284
X409.667Y47.744
X409.667Y45.204
X409.667Y42.664
T3
X333.64Y170.89
X341.26Y170.89
X358.55Y170.92
X366.17Y170.92
X383.62Y170.87
X391.24Y170.87
T4
X329.0Y197.0
X331.0Y197.0
X333.0Y197.0
X335.0Y197.0
X337.0Y197.0
X344.75Y197.0
X346.75Y197.0
X348.75Y197.0
X350.75Y197.0
X352.75Y197.0
T5
X290.38Y196.75
X305.62Y196.75
X309.63Y196.75
X310.0Y171.75
X310.13Y167.5
X310.13Y162.0
X324.87Y196.75
X325.24Y171.75
X325.37Y167.5
X325.37Y162.0
X328.94Y191.815
X328.94Y184.195
X331.48Y191.815
X331.48Y184.195
X334.02Y191.815
X334.02Y184.195
X336.56Y191.815
X336.56Y184.195
X343.69Y189.0
X351.31Y189.0
T6
X336.17Y175.96
X338.71Y175.96
X361.085Y175.975
X363.625Y175.975
X386.16Y175.95
X388.7Y175.95
T7
X11.56Y184.985
X11.56Y182.485
X11.56Y179.985
X30.595Y184.935
X30.595Y182.435
X30.595Y179.935
X49.665Y184.975
X49.665Y182.475
X49.665Y179.975
X68.755Y185.015
X68.755Y182.515
X68.755Y180.015
X97.37Y185.0
X97.37Y182.5
X97.37Y180.0
X116.395Y184.97
X116.395Y182.47
X116.395Y179.97
X135.47Y184.985
X135.47Y182.485
X135.47Y179.985
X154.52Y184.995
X154.52Y182.495
X154.52Y179.995
X183.09Y184.975
X183.09Y182.475
X183.09Y179.975
X202.05Y184.96
X202.05Y182.46
X202.05Y179.96
X221.18Y184.975
X221.18Y182.475
X221.18Y179.975
X240.16Y184.98
X240.16Y182.48
X240.16Y179.98
X261.63Y193.75
X264.17Y193.75
X266.71Y193.75
X268.5Y185.81
X268.5Y183.27
X268.5Y180.73
X268.5Y178.19
X269.25Y193.75
T8
X359.94Y197.74
X359.94Y182.5
X362.48Y197.74
X362.48Y182.5
X365.02Y197.74
X365.02Y182.5
X367.56Y197.74
X367.56Y182.5
X370.1Y197.74
X370.1Y182.5
X372.64Y197.74
X372.64Y182.5
X375.18Y197.74
X375.18Y182.5
X377.72Y197.74
X377.72Y182.5
X380.26Y197.74
X380.26Y182.5
X382.8Y197.74
X382.8Y182.5
X385.34Y197.74
X385.34Y182.5
X387.88Y197.74
X387.88Y182.5
X390.42Y197.74
X390.42Y182.5
X392.96Y197.74
X392.96Y182.5
X395.5Y197.74
X395.5Y182.5
X398.04Y197.74
X398.04Y182.5
X400.58Y197.74
X400.58Y182.5
X403.12Y197.74
X403.12Y182.5
X405.66Y197.74
X405.66Y182.5
X408.2Y197.74
X408.2Y182.5
T2
G00X398.13Y173.102
M15
G01X397.53Y173.102
M16
G05
G00X398.55Y161.032
M15
G01X397.95Y161.032
M16
G05
G00X399.63Y177.602
M15
G01X399.03Y177.602
M16
G05
G00X400.05Y165.532
M15
G01X399.45Y165.532
M16
G05
G00X403.63Y177.602
M15
G01X403.03Y177.602
M16
G05
G00X404.05Y165.532
M15
G01X403.45Y165.532
M16
G05
G00X406.63Y177.602
M15
G01X406.03Y177.602
M16
G05
G00X406.63Y172.102
M15
G01X406.03Y172.102
M16
G05
G00X407.05Y165.532
M15
G01X406.45Y165.532
M16
G05
G00X407.05Y160.032
M15
G01X406.45Y160.032
M16
G05
T8
G00X18.71Y187.285
M15
G01X19.41Y187.285
M16
G05
G00X18.71Y177.685
M15
G01X19.41Y177.685
M16
G05
G00X37.745Y187.235
M15
G01X38.445Y187.235
M16
G05
G00X37.745Y177.635
M15
G01X38.445Y177.635
M16
G05
G00X56.815Y187.275
M15
G01X57.515Y187.275
M16
G05
G00X56.815Y177.675
M15
G01X57.515Y177.675
M16
G05
G00X75.905Y187.315
M15
G01X76.605Y187.315
M16
G05
G00X75.905Y177.715
M15
G01X76.605Y177.715
M16
G05
G00X104.52Y187.3
M15
G01X105.22Y187.3
M16
G05
G00X104.52Y177.7
M15
G01X105.22Y177.7
M16
G05
G00X123.545Y187.27
M15
G01X124.245Y187.27
M16
G05
G00X123.545Y177.67
M15
G01X124.245Y177.67
M16
G05
G00X142.62Y187.285
M15
G01X143.32Y187.285
M16
G05
G00X142.62Y177.685
M15
G01X143.32Y177.685
M16
G05
G00X161.67Y187.295
M15
G01X162.37Y187.295
M16
G05
G00X161.67Y177.695
M15
G01X162.37Y177.695
M16
G05
G00X190.24Y187.275
M15
G01X190.94Y187.275
M16
G05
G00X190.24Y177.675
M15
G01X190.94Y177.675
M16
G05
G00X209.2Y187.26
M15
G01X209.9Y187.26
M16
G05
G00X209.2Y177.66
M15
G01X209.9Y177.66
M16
G05
G00X228.33Y187.275
M15
G01X229.03Y187.275
M16
G05
G00X228.33Y177.675
M15
G01X229.03Y177.675
M16
G05
G00X247.31Y187.28
M15
G01X248.01Y187.28
M16
G05
G00X247.31Y177.68
M15
G01X248.01Y177.68
M16
G05
M30
