M48
; DRILL file {KiCad 9.0.8} date 2026-04-06T19:47:26-0500
; FORMAT={-:-/ absolute / metric / decimal}
; #@! TF.CreationDate,2026-04-06T19:47:26-05:00
; #@! TF.GenerationSoftware,Kicad,Pcbnew,9.0.8
; #@! TF.FileFunction,NonPlated,1,2,NPTH
FMAT,2
METRIC
; #@! TA.AperFunction,NonPlated,NPTH,ComponentDrill
T1C1.200
; #@! TA.AperFunction,NonPlated,NPTH,ComponentDrill
T2C1.750
; #@! TA.AperFunction,NonPlated,NPTH,ComponentDrill
T3C3.000
%
G90
G05
T1
X398.03Y175.302
X398.45Y163.232
X405.03Y175.302
X405.45Y163.232
T2
X-25.85Y120.797
X-25.81Y79.68
X-21.06Y100.25
X-21.059Y141.351
X-21.05Y59.12
X-15.69Y120.797
X-15.65Y79.68
X-10.9Y100.25
X-10.899Y141.351
X-10.89Y59.12
X-6.781Y120.818
X-6.751Y79.694
X2.75Y141.373
X2.763Y100.251
X3.379Y120.818
X3.409Y79.694
X12.285Y120.786
X12.299Y79.694
X12.91Y141.373
X12.923Y100.251
X21.789Y59.099
X21.804Y141.373
X21.81Y100.26
X22.445Y120.786
X22.459Y79.694
X31.309Y120.796
X31.349Y79.694
X31.949Y59.099
X31.964Y141.373
X31.97Y100.26
X40.845Y141.362
X40.86Y100.26
X40.86Y59.11
X41.469Y120.796
X41.509Y79.694
X50.359Y120.796
X50.399Y79.694
X51.005Y141.362
X51.02Y100.26
X51.02Y59.11
X59.895Y141.362
X59.91Y100.26
X59.92Y59.12
X60.519Y120.796
X60.559Y79.694
X69.409Y120.796
X69.449Y79.694
X70.055Y141.362
X70.07Y100.26
X70.08Y59.12
X78.94Y59.11
X78.945Y141.362
X78.96Y100.26
X79.569Y120.796
X79.609Y79.694
X88.459Y120.796
X88.499Y79.694
X89.1Y59.11
X89.105Y141.362
X89.12Y100.26
X97.995Y141.362
X98.01Y100.26
X98.02Y59.12
X98.619Y120.796
X98.659Y79.694
X107.509Y120.796
X107.549Y79.694
X108.155Y141.362
X108.17Y100.26
X108.18Y59.12
X117.045Y141.362
X117.06Y100.26
X117.07Y59.12
X117.669Y120.796
X117.709Y79.694
X126.559Y120.796
X126.599Y79.694
X127.205Y141.362
X127.22Y100.26
X127.23Y59.12
X136.095Y141.362
X136.11Y100.26
X136.11Y59.11
X136.719Y120.796
X136.759Y79.694
X145.609Y120.796
X145.649Y79.694
X146.255Y141.362
X146.27Y100.26
X146.27Y59.11
X155.145Y141.369
X155.16Y100.26
X155.18Y59.12
X155.769Y120.796
X155.809Y79.694
X164.659Y120.796
X164.719Y79.684
X165.305Y141.369
X165.32Y100.26
X165.34Y59.12
X174.195Y141.369
X174.21Y100.26
X174.22Y59.13
X174.819Y120.796
X174.879Y79.684
X183.709Y120.796
X183.76Y79.69
X184.355Y141.369
X184.37Y100.26
X184.38Y59.13
X193.245Y141.369
X193.26Y100.26
X193.29Y59.11
X193.869Y120.796
X193.92Y79.69
X202.759Y120.796
X202.81Y79.7
X203.405Y141.369
X203.42Y100.26
X203.45Y59.11
X212.295Y141.369
X212.31Y100.26
X212.919Y120.796
X212.97Y79.7
X221.809Y120.796
X221.851Y79.676
X222.455Y141.369
X222.47Y100.26
X231.969Y120.796
X232.011Y79.676
X236.07Y100.2
X236.116Y59.149
X236.119Y141.374
X240.859Y120.796
X240.9Y79.71
X246.23Y100.2
X246.276Y59.149
X246.279Y141.374
X251.019Y120.796
X251.06Y79.71
X268.81Y120.84
X268.81Y59.11
X268.82Y141.38
X278.97Y120.84
X278.97Y59.11
X278.98Y141.38
X287.87Y141.36
X287.87Y120.818
X287.878Y59.146
X287.907Y79.692
X298.03Y141.36
X298.03Y120.818
X298.038Y59.146
X298.067Y79.692
X306.9Y141.37
X306.91Y120.8
X306.93Y59.13
X317.06Y141.37
X317.07Y120.8
X317.09Y59.13
X334.84Y100.25
X334.84Y79.68
X334.847Y141.389
X334.85Y120.81
X334.85Y59.12
X345.0Y100.25
X345.0Y79.68
X345.007Y141.389
X345.01Y120.81
X345.01Y59.12
X353.89Y100.24
X353.9Y120.81
X353.9Y79.7
X353.9Y59.14
X353.917Y141.382
X364.05Y100.24
X364.06Y120.81
X364.06Y79.7
X364.06Y59.14
X364.077Y141.382
X372.93Y100.23
X372.94Y79.7
X372.95Y141.36
X372.95Y120.815
X372.95Y59.15
X383.09Y100.23
X383.1Y79.7
X383.11Y141.36
X383.11Y120.815
X383.11Y59.15
X392.0Y120.8
X392.0Y100.25
X392.0Y59.15
X392.01Y79.7
X392.03Y141.35
X402.16Y120.8
X402.16Y100.25
X402.16Y59.15
X402.17Y79.7
X402.19Y141.35
T3
X-30.268Y189.151
X-30.158Y44.641
X-27.918Y106.381
X-11.208Y168.581
X-11.208Y147.991
X-6.108Y65.321
X12.602Y86.071
X12.982Y44.701
X26.902Y168.651
X41.182Y106.461
X45.932Y189.321
X45.942Y148.091
X65.072Y65.461
X84.082Y168.761
X88.802Y86.241
X89.182Y44.871
X93.572Y189.401
X103.092Y148.211
X117.382Y106.621
X122.302Y65.551
X126.912Y86.301
X141.232Y168.831
X160.242Y148.221
X160.322Y44.871
X165.402Y65.541
X179.302Y189.431
X193.582Y106.641
X198.422Y168.841
X203.122Y86.251
X205.812Y44.901
X231.692Y65.551
X235.432Y168.841
X236.452Y148.231
X236.462Y189.451
X264.372Y127.541
X264.372Y106.601
X264.372Y86.281
X264.372Y65.551
X264.372Y44.891
X302.472Y168.791
X302.472Y148.191
X302.472Y106.581
X302.472Y65.501
X321.412Y44.811
X321.742Y189.401
X330.392Y86.181
X330.412Y127.461
X349.462Y106.481
X368.502Y148.081
X406.722Y148.041
X406.722Y106.421
X406.722Y86.051
X406.722Y65.301
X406.722Y44.681
M30
